<?xml version="1.0" standalone="no"?>
<!DOCTYPE svg PUBLIC "-//W3C//DTD SVG 1.1//EN" "http://www.w3.org/Graphics/SVG/1.1/DTD/svg11.dtd" >
<svg xmlns="http://www.w3.org/2000/svg" xmlns:xlink="http://www.w3.org/1999/xlink" version="1.1">
<metadata>
Created by FontForge 20170731 at Sat Sep 10 17:00:15 2016
 By Aleksey,,,
Copyright (c) 2016 by  Nicky Laatz. All rights reserved.
</metadata>
<defs>
<font id="LuckyFellasSerif" horiz-adv-x="242" >
  <font-face 
    font-family="Lucky Fellas Serif"
    font-weight="250"
    font-stretch="normal"
    units-per-em="1000"
    panose-1="0 0 0 0 0 0 0 0 0 0"
    ascent="800"
    descent="-200"
    x-height="586"
    cap-height="580"
    bbox="-34.0526 -105 484 923"
    underline-thickness="0"
    underline-position="0"
    unicode-range="U+000D-20AC"
  />
<missing-glyph horiz-adv-x="650" 
 />
    <glyph glyph-name=".notdef" horiz-adv-x="650" 
 />
    <glyph glyph-name=".null" horiz-adv-x="0" 
 />
    <glyph glyph-name="nonmarkingreturn" horiz-adv-x="333" 
 />
    <glyph glyph-name="NULL" horiz-adv-x="0" 
 />
    <glyph glyph-name="NULL" horiz-adv-x="0" 
 />
    <glyph glyph-name="CR" unicode="&#xd;" horiz-adv-x="92" 
 />
    <glyph glyph-name="space" unicode=" " horiz-adv-x="92" 
 />
    <glyph glyph-name="exclam" unicode="!" horiz-adv-x="196" 
d="M86 201v1v-1zM143 651l3 -2q1 -1 1 -4q-5 -20 -15 -126q0 -7 -2.5 -18t-2.5 -17q0 -3 2 -7q0 -3 -2 -9t-2 -8t1.5 -5.5t1.5 -4.5q-4 -36 -4 -84q0 -23 -3 -68t-3 -67v-31q0 -32 -2 -47q0 -4 2 -10l1 -6q0 -3 -11.5 -12t-19.5 -9q-16 0 -16 7q0 1 2 5l2 4q0 5 -3.5 15
t-3.5 16l4 32l-1 1q0 2 -1 5.5t-1.5 7t-1 7.5t-0.5 7q0 1 0.5 5t0.5 5q8 51 8 147q0 6 -1 27t-1 32q0 24 6 32q-2 8 -2 13q0 23 5.5 63t5.5 60q9 56 17 56h-1q0 -1 12.5 -6t15.5 -5h2l2 1q1 0 5 -2zM73 133zM72 132zM126 48q-2 0 -2 -2t1.5 -6t1.5 -6q0 -4 -6.5 -17
t-9.5 -13l-3 2q-2 2 -3 2l-7 -4q-7 -4 -14 -4l-3 2l-6 4l-3 1q0 2 1 3q0 3 -4 7.5t-4 5.5t1 2q0 3 -2 7t-2 7q0 16 7.5 22.5t27.5 11.5q16 0 29 -25zM73 135z" />
    <glyph glyph-name="quotedbl" unicode="&#x22;" horiz-adv-x="216" 
d="M53 566q1 0 1 -1l2 -1q0 2 -3 2zM79 608q2 2 2 1q0 -19 -9.5 -24.5t-9.5 -6.5q0 -3 4.5 -3t4.5 -3q0 -1 -4.5 -9t-8.5 -12.5t-8 -4.5t-4 4q0 2 3 5.5t3 4.5l-2 2l-4 4l-3 3h-2q-1 0 -1 -1l3 -7q0 -1 -6 -1q0 2 -3 6t-3 7q0 6 1 19.5t1 21.5q0 16 -2 56q1 4 8 6q0 -1 2 -1
t6.5 2.5t8.5 2.5q7 0 11.5 -3t7 -11t3.5 -13.5t2 -18t2 -16.5q-1 -3 -2.5 -4.5t-3 -2.5t-1.5 -2t4 -1zM152 630q-1 -9 -1 -24q0 -10 -1 -12v-4q-1 -4 -2.5 -10.5l-3 -13t-4.5 -11t-6 -4.5q-9 1 -18.5 8.5t-9.5 16.5q0 6 2.5 19.5t2.5 20.5q0 10 -4.5 29.5t-4.5 27.5l6 4
q5 4 12 8.5t11 4.5q13 0 20 -56q1 -3 1 -4z" />
    <glyph glyph-name="numbersign" unicode="#" horiz-adv-x="389" 
d="M295 263l3 9l-6 12q-3 0 -3 -2q0 -8 -3 -14t-3 -7q12 0 12 2zM289 253l1 1q-1 0 -1 -1zM271 268q-1 2 1 4q0 3 -3 3q-5 0 -5 -7v-4q0 -1 -1 -3l-1 -2q1 -1 2 -1t2 1.5t2 4t3 4.5zM209 226q-3 2 -3 5q0 16 -5 16q-1 0 -6.5 -1.5t-7.5 -1.5q-3 0 -3 3l-2 8h-2
q-6 -12 -8 -13.5t-12 -1.5q-4 0 -8 2q-2 0 -4 -0.5t-3 -0.5h-6q-2 0 -4.5 -0.5t-3.5 -0.5q-2 0 -6 1t-6 1q-5 0 -9.5 -4t-4.5 -9v-2q0 -17 -2.5 -25t-6 -8.5t-6 -3t-2.5 -9.5q13 -10 13 -11q-1 -1 -1 -3q0 -1 3 -1q6 0 9 1q4 1 29.5 2t45 5.5t19.5 16.5q0 1 -0.5 3.5
t-0.5 3.5q0 4 4 8q0 1 -1 4t-1 5q0 3 2 11zM141 152v0v0zM90 99v-3v3zM86 162h2q0 1 -3 1zM80 180q0 -2 2 -2q0 2 -2 2zM85 177v-3v3zM79 186l1 -2q0 -2 4 -3v2q0 6 1 8.5t7 3.5q-4 2 -6 2q-8 0 -8 -5l1 -2l1 -2q-1 -1 -1 -2zM80 170v3v-3zM80 164h1l-1 1v-1zM85 205
q-2 0 -2 -2q0 -3 3 -4l2 4q0 2 -3 2zM96 193l3 3q-3 0 -3 -3zM104 367h-1l1 -1v1zM108 352q-1 -2 -1 -4q3 -1 5 1.5t2 5.5zM116 239l-1 -1q1 0 1 1zM116 264l-1 -1q1 0 1 1zM126 251q0 1 -2 1q-5 0 -6 -4v-1q1 -1 1 -2q1 1 7 6zM124 266q-2 2 -2 -1t4 -3q5 0 5 3q0 1 -7 1z
M154 255v-7q4 0 4 2q0 1 -4 5zM164 273q-3 -3 -5 -7l1 -1v-2q4 2 4 10zM172 253l-1 -1q1 0 1 1zM177 258l-3 -3q3 0 3 3zM177 252q0 1 -2 1q0 -2 1 -2q0 1 1 1zM76 53h1l-1 1v-1zM57 39v3v-3zM53 47q0 -2 2 -2q0 2 -2 2zM60 241h1q0 3 -4 3zM116 348l-1 -1q1 0 1 1zM326 286
l-7 -2q6 -8 6 -15q0 -13 -7.5 -21.5t-19.5 -8.5q-9 1 -27 1q-3 0 -5 4t-3 4t-3.5 -2t-3.5 -2l-2 3q-11 -31 -11 -62q0 -5 1 -8.5t2 -5.5t5 -2.5t6 -0.5h8.5h9.5q5 0 15 1.5t15 1.5q4 0 7 -15q-4 -3 -5 -3q1 -3 4 -6q2 -3 2 -5q0 -17 -39 -17q-1 0 -3 0.5t-4 0.5q-1 0 -4 -1
t-5 -1h-6q-19 0 -19 -6v-17q0 -11 -3.5 -35.5t-3.5 -35.5q0 -2 0.5 -5t0.5 -5q0 -20 -10 -20q-3 0 -10 0.5t-11 0.5q-2 0 -5 -1.5t-4 -1.5q-7 0 -7 2t1.5 4.5t1.5 3.5q0 2 -2 8.5t-2 10.5t1.5 11.5t1.5 11.5v4q0 48 7 65q0 5 -30 5q-1 0 -5 -1t-5 -1q-5 0 -15 2
q-44 -3 -44 -18l1 -2l1 -2q0 -2 -5 -4q3 -5 3 -10q0 -3 -0.5 -8.5t-0.5 -8.5l-9 13v2q-4 -2 -4 -4l-1 -6q0 -3 6.5 -11t9.5 -17h-5q-1 0 -1 -1q0 -6 3.5 -8t3.5 -6t-1 -5q-2 2 -3 2q-2 0 -4 -4q0 -1 -2 -1l-3 3q1 1 1 3q0 7 -4 7q-3 0 -3 -7q0 -2 2.5 -6t4.5 -7l3 -3
q0 -2 -2.5 -2.5t-6 -1.5t-4.5 -2q-7 0 -15 5.5t-10 11.5q0 3 2 4t2 2l-1 2v2q0 1 0.5 3t0.5 3l-3 2q-2 2 -2 3q0 4 1.5 14t1.5 15q0 3 3 8t3 7l-1 3q-1 2 -2 5t-1 5q0 1 1 2h2q0 3 -3 7.5t-5 4.5q-2 -1 -6 -1t-6 -1q-2 0 -5.5 1t-4.5 1q-2 0 -4 -1t-3 -1t-7 2l-6 3l-1 -1h-2
q-3 0 -3 3q0 1 5 1l-7 4l2 4q0 1 -2.5 3.5t-2.5 3.5q0 -1 3 4q12 17 18 18q34 0 39 7t5 47q0 12 -2 15q-2 1 -3 -1l-1 -2q-1 0 -4 3.5t-3 4.5q1 0 4 -1t5 -1t2 3q-1 4 -5 4q-1 0 -2 -0.5t-2 -0.5q-4 0 -4 8v1q1 0 3.5 -1t4.5 -1q5 2 5 5v3l-1 2q0 1 0.5 3t0.5 3v8
q3 0 4 -2.5t2 -2.5l2 4l6 8l2 4l-1 3q-1 2 -2 4.5t-1 4.5l7 28q1 4 1 8q0 2 -2 4q4 22 4 31q0 23 9 36q4 4 7 5q15 0 29 -9q8 -6 8 -13q0 -5 -5 -24l-6 -19q0 -1 1 -2q0 -2 -2 -5t-2 -4q0 -2 2 -4q0 -5 -3.5 -19t-3.5 -20q0 -2 2 -6t2 -5t-0.5 -2.5t-0.5 -2.5l1 -1q3 1 7 3
q-2 2 -3 4q0 3 4 3q3 0 9.5 -3.5t6.5 -4.5t-1 -1l-1 -2q0 -5 4 -5q5 0 5 3q0 2 -1.5 5.5t-1.5 4.5q0 2 7 5q1 0 4 -0.5t5 -0.5q-5 0 -5 -4q0 -2 1 -2l9 3q2 -4 9 -11q1 1 1 4t2 3q1 0 11 -21q5 -2 5 3q0 1 -2.5 3.5t-2.5 3.5q0 3 2 5.5t4 3.5l2 1q0 1 -1.5 2.5t-1.5 4.5
q1 -1 4 -1q2 0 3 3q12 4 15.5 18.5t3.5 45.5q0 6 4.5 30t9.5 24q1 0 4 -1t5 -1t5 1t4 1q24 0 24 -13q0 -12 -7.5 -43t-7.5 -50q0 -3 11 -6t15 -3q4 2 12.5 4.5t14.5 3.5l6 2q1 0 9 -8zM282 269v0v0zM174 280v0v0zM175 282l1 -2q0 -1 -1 -1v3zM184 281q3 -1 3 -3q-3 0 -3 3z
M186 279v0v0zM158 277v0v0zM159 278zM88 12q-3 0 -3 3l6 3v-4q0 -2 -3 -2zM90 17v0v0zM174 273v0v0zM177 278q-3 -6 -5 -6q-2 3 -4 3l4 2zM178 268v0v0zM183 273q0 -4 -0.5 -4.5t-4.5 -0.5q2 5 5 8v-3zM82 12v0v0zM68 -5zM186 275v0v0z" />
    <glyph glyph-name="dollar" unicode="$" horiz-adv-x="323" 
d="M133 569q-1 0 -1 0.5t-1 0.5l-1 -1h3zM137 604v-3q0 -3 1 -4q1 2 4 5q-4 2 -5 2zM194 576h-1l1 -3v3zM200 572q-1 0 -1 -1zM212 527q0 2 -2 -2q1 0 1 -1q1 0 1 3zM215 530l-2 2v-2h2zM218 525h-3h3zM220 522q0 1 -3 1q0 -1 3 -1zM225 523q-2 0 -3 -1h-2q1 -4 3 -4
q4 0 4 4q-1 1 -2 1zM122 569l-7 -4q-3 3 -6 3t-5 -4q-3 -6 -8 -8v-2q1 -2 1 -5q0 -2 -2 -2l-17 7q0 2 3 2l1 1l3 3t3.5 4t3.5 4l4 4t3 4t2 3t1 2t-7 12q0 4 14 9t18 22q0 3 -1 8t-1 7q0 4 2 12q1 5 2.5 12t2.5 9.5t2 7t2.5 5t3.5 2.5t5 2t6.5 0.5t9.5 0.5q26 0 26 -11
q0 -8 -3.5 -24.5t-3.5 -24.5q0 -26 5 -26q1 0 5 0.5t6 0.5q3 0 6 -4.5t4 -4.5h2q1 1 2 1q3 0 12 -7t9 -11l-3 -3t-4 -3.5t-5 -1.5q-1 0 -1 2q0 3 -1 5q-2 0 -2 -1q0 -13 9 -13h1q1 1 2 1q17 -14 17 -20q0 -1 -2.5 -9t-2.5 -10t1 -3q0 -1 -2 -4l-3 -3l1 -2q1 -2 1 -3l-1 -1
q-5 2 -17 3.5t-20.5 3.5t-10.5 8q0 1 2 8t2 15q0 7 -12.5 17.5t-24.5 10.5q-5 0 -12 -6t-10 -8q-5 9 -6 9q-1 -3 -4 -3zM201 123h4h-4zM199 126h2h-2zM171 45h1h-1zM165 51h1l-1 1v-1zM159 91q0 1 -1 1zM159 21v1q0 1 -6 1q1 -3 3 -3h1q1 1 2 1zM143 45h-3h3zM118 -33h-1h1z
M110 -27v-1q1 0 2 1h-2zM94 -47q1 -4 5 -4q0 6 -4 6q-1 0 -1 -2zM91 20q0 1 -2 1zM81 1l1 -1h1l1 1h-3zM80 16v1q-1 0 -1 -1h1zM71 23h-2q-1 0 -1 -3l1 1q1 2 2 2zM66 57q2 1 2 2q-2 8 -9 8q0 -11 5 -11q1 0 2 1zM70 52h-1h1zM53 71v-2l2 2l-1 3q-1 0 -1 -3zM46 52v-1
q1 0 2 1h-2zM38 66q-2 1 -5.5 4t-5.5 4q1 -10 11 -10v2zM24 78v1h-1zM19 72l-3 3q3 0 3 -3zM14 99h2l-2 2v-2zM13 102l-3 -1h1q2 0 2 1zM98 443v1v-1zM92 432q1 0 1 4q-3 0 -3 -4h2zM82 412q2 -3 3 -3q3 0 8 7l-2 3q-7 0 -9 -7zM80 425q1 0 1 -3q6 0 6 4v1q-2 0 -4 -1t-3 -1
zM63 434q-1 0 -0.5 0.5l1.5 1.5h-1q-1 1 -2 1l-1 -1q1 0 3 -2zM74 523l-1 -1l1 -1v2zM73 530h2h-2zM80 525l-4 -2h7q0 2 -3 2zM95 523l-1 1h-2q-3 0 -5 -1q0 -1 2 -1h7zM94 501h2h-2zM84 512q1 0 1 2zM240 272l11 -6q6 -25 6 -64q0 -30 -10 -47q0 -8 -14.5 -43t-19.5 -35
q-1 0 -2 0.5t-2 0.5q-2 0 -2 -1l3 -7l-2 -6q-2 -5 -6 -12.5t-9 -11.5q-3 -1 -12 -19.5t-17 -20.5q-10 10 -15 10q0 -4 1.5 -8.5t1.5 -6.5q0 -3 -4 -3l-4 4l-2 1q0 -5 -5 -5h-1l-2 1l-1 -1l1 -2q1 -2 1 -3t-1 -3v-1q0 -1 2 -2t2 -2t-6 -4t-6 -6l2 -2q3 -2 6 -5.5t4 -4.5
q-1 0 -3 -1.5t-6.5 -3.5t-12.5 -2q3 -7 12 -7q-3 0 -6 -2t-4 -2t-7 3q-1 -1 -3 -4q0 -1 -0.5 -1.5t-1.5 -0.5l-4 4q-5 3 -10 8t-5 7q0 4 5 4q0 -1 3.5 -1t7.5 -0.5t6 -0.5q0 2 -5.5 9t-5.5 10l6 8v1q-1 1 -1 2q-2 -1 -6 -1l-21 7q0 4 11 4q-28 42 -38 42q-2 0 -5 -2l-2 -2
l-6 7q-7 7 -7 9q5 3 5 4q0 3 -9.5 18t-9.5 21q0 7 -1 11t-1 8q0 1 1 4t1 5q0 6 -1 17t-1 24l15 50q10 28 19 28q5 -5 11 -5q11 0 18 -10.5t7 -19.5q0 -5 -9 -24t-9 -27q0 -7 -3 -17t-3 -12l1 -2q1 -3 1 -5l-2 -5q1 0 3.5 -6.5t5.5 -16t3 -16.5q0 -2 -1 -5.5t-1 -7.5
q5 0 13 -14.5t23 -14.5q10 0 24.5 10.5t14.5 13.5q0 1 -2 3t-2 4q0 1 2 3q1 1 2 1q2 1 3 5q2 4 3.5 7.5t6.5 14.5t12 24q1 0 3 -1q3 0 3 3l-1 1v3q0 2 5 16t9.5 32.5t4.5 31.5q0 9 1.5 10.5t12.5 1.5q5 0 7 2q-23 8 -23 23q0 1 0.5 3.5t0.5 3.5q-2 9 -4.5 39t-9 50t-22.5 36
q-5 5 -34 17t-33 17q-1 0 -7.5 5t-14 12t-10.5 11q1 0 4 2.5t5 2.5l1 -1h2q10 0 22 16q-1 1 -2 1q-21 0 -21 -3q4 -4 6 -4q-1 0 -2 -1l-2 -1q-2 0 -4.5 1.5t-3.5 1.5q-2 0 -3.5 -5.5t-3.5 -5.5q0 2 -4.5 12t-4.5 16q0 2 3 8t4 7q0 -13 4 -13q4 1 11.5 5.5t9.5 5.5q0 2 -8 2
h-6q0 1 0.5 2t0.5 2q0 2 -4 2.5t-4 3.5q0 1 1 1t1 1t-3 4t-3 5t1 5.5t1 5.5q2 0 4 -2.5t5 -2.5q5 0 7 -2t2 -4.5t1 -2.5l4 4q-12 15 -16 27q2 0 4 -1.5t4 -1.5q7 0 8 4t4 4q2 0 5 -0.5t5 -0.5q9 0 14 5q5 -3 5 -6v1l-2 -8q-2 -9 -5.5 -18.5t-6.5 -11.5q2 -6 2 -8
q0 -10 -3.5 -12t-12.5 -2q0 -7 4 -7q4 2 8 2q0 -4 -5 -4q-1 0 -3 0.5t-3 0.5q30 -23 54 -31q54 -11 78 -58.5t24 -106.5zM231 555v1v-1zM133 546q-1 2 -1 3q1 0 1 -3zM62 483l3 -2h-2q-1 0 -1 2zM124 534h2l-2 -2v2zM71 529l3 1q0 -1 -2 -1h-1zM102 572q-2 1 -2 4q3 2 4 2
q0 -1 1 -2q-1 0 -2 -2zM90 534v2l-1 1q0 2 2 2q0 -2 -1 -5zM138 541h-12q-4 0 -4 -4q-5 1 -5 11q4 0 8 -3.5t13 -3.5z" />
    <glyph glyph-name="percent" unicode="%" horiz-adv-x="297" 
d="M179 53q5 5 5 14q0 14 -6 14q-2 0 -9 -26q3 -6 4 -6q3 0 6 4zM166 124h2l-3 3q0 -3 1 -3zM145 23q1 -1 5 1l-4 2l-2 -1q0 -2 1 -2zM224 82q0 -1 2 -4t2 -5v-1l-1 -2q2 -4 2 -12q0 -26 -20.5 -44.5t-44.5 -18.5q-6 0 -9 5q-4 1 -9.5 3.5t-12 10t-6.5 16.5q0 1 0.5 3t0.5 3
t-2.5 5.5t-2.5 5.5q0 3 1 4q0 1 1.5 15t7 27.5t17.5 22.5l9 8q13 7 29 7q4 -3 4 -4l-1 -2q-1 -2 -1 -5q1 0 3.5 0.5t3.5 0.5q20 -17 20 -19l-1 -2q-1 -2 0 -3q4 -1 4 -7t4 -8zM28 421v3q0 3 -3 3v-9zM20 438q4 2 4 4q0 4 -5 4q-2 0 -2 -2q0 -1 1 -4zM19 462v-1q1 -3 5 -3
l1 1zM56 449q-5 -13 -5 -22q0 -7 3 -7q13 0 13 7l-5 10q-4 10 -4 14zM53 372l3 -1q-1 0 -3 -1h-2q-14 0 -29.5 13.5t-15.5 32.5v3q0 1 -0.5 3.5t-0.5 3.5q0 2 2 4q-1 1 -1 4q-1 17 13.5 34.5t15.5 19.5q3 6 10.5 9.5t7.5 4.5q2 1 5 -2l3 -2l3 4q4 3 9 3q28 0 28 -17
q0 -2 -2 -7t-2 -8q0 -1 9.5 -16.5t9.5 -21.5q0 -1 -1 -2.5t-1 -2.5t1.5 -2.5t1.5 -2.5q0 -4 -3.5 -17.5t-8.5 -14.5q-7 -9 -20 -15.5t-20 -6.5q-1 0 -3 0.5t-3 0.5h-6zM230 508q1 -1 3 2q0 3 -3 3q-2 0 -2 -2q0 -1 0.5 -2.5t1.5 -0.5zM196 406q1 0 1 1zM185 372v0v0z
M180 378v1v-1zM146 360q1 0 1 1zM115 180l1 1q0 3 -4 3t-4 -2t7 -2zM116 214h-1l1 -1v1zM111 220h3h-3zM245 526l1 6q2 -4 2 -5t-4 -4.5t-4 -7.5q0 -12 -21 -61t-21 -50v-4q0 -5 -3 -14t-8.5 -20t-7.5 -17t-6 -19t-7.5 -23t-8.5 -18q-1 -5 -18.5 -49.5t-17.5 -47.5l1 -2v-3
t-2 -11t-5 -21.5t-6 -16.5q-41 -82 -41 -122v-4q0 -3 -3 -4t-9 -1h-7q-3 0 -7 2t-6 2l-2 -1h-2q-1 0 -7 7t-6 10q0 7 6.5 24t7.5 21q4 14 28 74.5t24 76.5q7 29 43 118q1 5 8.5 15.5t7.5 14.5q0 2 -1 4t-1 3l1 4q10 32 16 38v2q0 15 10.5 29t10.5 18q0 1 -0.5 4t-0.5 5
q0 6 5 14.5t6 11.5l8 27q4 5 6 6q1 0 4.5 -1t5.5 -1t4 1t4 1q18 0 23 -11zM175 463v0v0zM174 464z" />
    <glyph glyph-name="ampersand" unicode="&#x26;" horiz-adv-x="291" 
d="M47 626v0v0zM126 610q0 1 -1 1q0 -1 1 -1zM189 55h1h-1zM217 156l-1 1q0 -1 1 -1zM230 147l1 1q-1 0 -1 -1zM199 60l1 1q-1 0 -1 -1zM314 469l1 1q-1 0 -1 -1zM39 583l-1 -1q0 -1 1 -1v2zM41 573l1 -1q0 1 -1 1zM148 573l-1 -1q1 0 1 1zM17 558q-1 0 -1 -1q1 0 1 1z
M168 551l1 1q-1 0 -1 -1zM263 506l1 1q-1 0 -1 -1zM100 240l1 -1q0 1 -1 1zM34 302l-1 -1q1 0 1 1zM208 299q0 -1 -1 -1zM174 288l-1 -1q1 0 1 1zM183 285l-1 1q0 -1 1 -1zM250 277q0 -1 1 -1q0 1 -1 1zM97 629l-1 1q0 -1 1 -1zM119 632l-1 1q0 -1 1 -1zM55 339q0 3 -1 3
q0 -2 1 -3zM287 322q-3 0 -3 -1q2 0 3 1zM311 460h-1l-2 1q0 -1 1 -1h2zM245 492q-3 0 -3 -1l1 -1h2q1 1 0 2zM3 539h-4q0 -1 1 -1q2 0 3 1zM157 17l1 3v-1q1 -1 1 -2q0 -3 -2 -3v3zM153 284h-1l-2 1v-1l3 -1v1zM208 301v-3q2 0 2 3q-1 1 -2 0zM148 252q0 -3 1 -3q0 3 -1 3z
M132 623q0 3 -1 3q0 -2 1 -3zM119 630q0 3 -1 3q0 -3 1 -3zM173 280l-3 3q0 -1 -1 -1t-1 -1l3 -3q0 1 2 2zM194 31q-7 0 -8 4q0 2 2 2t6 -6zM103 629q-2 0 -2 -4t3 -4q1 0 1 3q0 4 -2 5zM158 582l1 -3q0 5 -6 5q0 -5 4 -5q1 1 1 3zM218 194q-6 0 -6 -4q1 -1 2 -1l2 1h2
q2 0 3 -1l1 1zM233 143l-5 3q-4 2 -6 4q0 -2 3 -5.5t5 -3.5q5 0 3 2zM138 620q-2 0 -2.5 -2.5t-0.5 -5.5t-1 -4l7 7l-1 1l-2 4t-1 3h2q-1 0 -1 1v-4zM149 599q0 -1 -1 -2.5t-1 -2.5q0 -3 4 -3t4 5q0 2 -4 2q3 11 4 12q-1 0 -1 1q0 -1 -4 -5t-5 -6q0 -1 4 -1zM124 266l3 2
q0 -2 4 -2q0 2 -6 2l3 3l-1 1h-2q-4 0 -4 -3zM171 263q0 2 -1 2q3 0 3 -1l4 -1q0 1 -2.5 1t-3.5 -1zM224 304v2l-1 -1q3 0 3 -3q0 -2 1 -2t1 3q0 1 -4 1zM238 301l-1 -5q0 3 3 3q0 -2 1.5 -2.5t1.5 -3.5l1 2q-1 1 -2 2.5t-2 2.5t-2 1zM165 559q0 -1 2 -1q0 3 -3 3zM146 547
l4 8q0 2 -3.5 11.5t-4.5 13.5l2 2q1 3 1 4q0 2 -8 6t-8 5t1 3q0 1 -1 2.5t-1 2.5t1 1h1q-1 0 -1 1q0 -5 -6 -5q-1 0 -14 4t-15 4q-20 0 -36 -19t-22 -36t-6 -21q0 -3 0.5 -8.5t0.5 -8.5t-1 -9t-1 -10q0 -49 79 -49q7 0 13.5 0.5t7.5 0.5q6 0 7.5 -13t6.5 -15q3 -1 3 -7
q0 -4 -7 -4q-1 0 -5 -5.5t-6 -6.5q-36 -14 -51 -32t-27 -64q-1 -2 -2.5 -4.5t-2.5 -4.5t-1 -3t0.5 -3t0.5 -3t-0.5 -3.5t-0.5 -3.5q0 -3 1 -4q-9 -15 -9 -64q0 -1 0.5 -3t0.5 -3t-1 -3v-2q0 -43 16 -78.5t34 -51.5t29 -16q22 0 22 -5q-3 -1 -4 -3t-1 -4.5t-1 -3.5q2 -3 3 -3
q1 6 10 10q2 -2 4.5 -2.5t4.5 -1.5l1 1h-3q0 10 8 10q1 0 3 -0.5t3 -0.5l11 1q0 1 -1 3t-1 3l1 1q1 0 3 -1.5t3 -1.5q2 0 2 2l-1 3q-2 2 -2 4t6 6.5t8 4.5q1 0 2.5 -2t3.5 -2q3 3 3 4t-1.5 5t-1.5 5t4 1q2 0 5 -1t4 -1q2 0 2 2v2q0 1 2.5 2.5t5 4.5t2.5 8t-11 19t-11 15
t0.5 4t0.5 5q0 1 -0.5 3t-0.5 3q0 5 1.5 16t1.5 15q0 47 -12 53q-7 3 -16 10.5t-14.5 13t-6.5 5.5q-9 0 -9 -1t3.5 -5t3.5 -6q-1 0 -14 -21.5t-18 -21.5q-4 0 -13 7t-15.5 13.5t-6.5 5.5q0 2 4 6l3 3q0 5 -3 8q0 2 2.5 5.5t2.5 6.5t4.5 13t6.5 10q1 0 4 -2l3 -1q5 0 5 6
q0 2 -3 2q-1 0 -3 -1q-1 0 -1 1q0 2 4 5.5t8 3.5h2q2 -1 3 -1l2 1h3q2 0 6 -2q2 0 2 1t-1 3l-1 2q0 4 4 4q1 0 2 -2q2 -2 3 -2q-2 0 -2 -1q0 3 4.5 3t4.5 3q-1 1 -1 3q0 1 2 1t2 -2q2 -2 3 -2q5 0 6 3q-1 1 -4 1q1 0 3 1q5 0 5 -8q1 0 3.5 3.5t7.5 3.5h46q20 0 36 19.5
t22 38.5l7 19q5 12 5 21q0 10 -2.5 22t-4.5 19t-3 7q0 6 8 10q-1 0 -4 2t-5 2q-1 0 -3 -1l-3 -1q-1 0 -6 4.5t-12 4.5q-16 0 -26.5 -15.5t-13.5 -28t-3 -17.5q0 -8 9 -14.5t9 -9.5q-6 0 -6 -2v-2q1 -2 1 -3q0 -5 -1.5 -8.5t-4 -6t-6 -4t-6 -2.5t-5.5 -1l-2 -1q-13 9 -16 12
t-7 8.5t-6 14.5q0 4 -3.5 12t-3.5 17q0 22 16.5 50t31.5 28q4 1 5.5 5.5t5.5 4.5l3 -1q0 1 8 3l16 4l7 2l9 -3q1 1 3 1q3 0 7 -3.5t6 -7.5l3 -3q1 0 3 1t3 1t3 -2q-3 0 -3 -5q-1 0 -2.5 1t-2.5 2l-1 -1h-2q1 -4 6 -9l1 1q-4 0 -4 2q0 3 2 5t2 5q1 0 7 -4.5t12 -12.5t6 -16
q0 -9 6.5 -17t6.5 -9q0 -2 -0.5 -4t-0.5 -3t2 -4t2 -5q0 -3 -1 -8.5t-1 -7.5q0 -1 1 -4t1 -4q0 -10 -5 -20q1 -2 1 -4q0 -11 -7.5 -25t-7.5 -18q0 -6 -4 -13t-8.5 -11.5t-5.5 -4.5l1 -1q1 -2 1 -3q0 -3 -7 -11.5t-8 -8.5q-6 0 -22.5 -12.5t-30.5 -12.5q-1 0 -3 1t-3 1
q-6 0 -6 -4q0 -1 5 -7.5t9.5 -23t4.5 -40.5q0 -18 -4 -18q-1 0 -2 1q-2 0 -2 -1q0 -3 3 -8.5t3 -7.5q0 -1 -1 -3.5t-1 -4.5q0 -1 0.5 -3.5t0.5 -4.5q0 -12 -8 -15q0 2 -1 2h3q0 -3 -2.5 -8t-2.5 -7q0 -3 0.5 -8t0.5 -7q0 -19 -19 -19q-6 0 -6 4q2 0 5 -6t7 -8q0 -4 -5 -9
t-6 -10l-2 2l-7 -5q0 -2 1 -5l2 -4q-15 -8 -23 -16q-2 -2 -3 -2q-3 0 -7.5 4t-7.5 8l-3 5q3 0 3 -2q1 -1 3 -1q-2 -4 -2 -6q0 -1 2.5 -3t2.5 -3l-1 -1v-2l-2 1q-2 0 -4 -3t-4 -3q-3 0 -5 5t-4 5t-2 -4q0 -1 1.5 -2.5t1.5 -2.5q0 -3 -2 -3q-1 1 -2 1q-4 -4 -7 -4q-2 0 -3 1
q-3 -2 -9 -2q-51 0 -91 50t-40 82q0 2 -2 8t-2 8t0.5 5t0.5 4t-1 4t-1 5q0 17 3 21q-1 1 -1 4t1 5q-1 1 -1 2q0 34 9 79t15 54l3 3l1 2l-1 2q0 7 5.5 18t12 20.5t12.5 17.5l6 8q-28 7 -44 26t-18 35l-3 16v-1q0 2 2.5 4.5t2.5 3.5q0 2 -3.5 5t-3.5 4q4 8 6 10q-1 0 -1 1
t-1 1v-3q-3 2 -3 4q2 6 2 8q0 3 -1 5q4 3 4 5l-2 2q-2 1 -2 3q0 5 5 13.5t5 12.5q-2 1 -2 4q0 11 7.5 20.5t15.5 14.5l8 5q0 1 -2 1l2 -3l2 -3l3 1q-1 1 -1 4q0 2 1 4q0 2 -1 5l-1 4q0 3 17 15t25 12l1 -2l1 -2q1 0 4 1l3 2l2 -2q3 -1 5 -1q1 0 5 3t5 3t4 -2.5t8 -4.5
q0 2 -1 3q0 1 2 1q2 -2 7.5 -3.5t10.5 -2.5t5 -3l-3 -3l2 -2q-1 3 1 3q1 0 9.5 -5t8.5 -8l-1 -2q-1 -1 -1 -2q0 -5 3 -5q5 0 5 5q9 -3 9 -7q-7 -9 -7 -10l1 -2v-3v-2q-1 -2 -1 -4q3 0 3 -1v-1l1 1h-3l2 2q6 0 9.5 -2.5t4.5 -4.5t2 -7.5t1 -6.5q0 -4 -4.5 -5t-4.5 -5t3 -4
l4 2q1 0 1 -2t-2.5 -2.5t-2.5 -1.5l1 -2q2 -2 2 -3q0 -18 -8 -18q-2 0 -5 0.5t-4 0.5t-3 -0.5t-3 -0.5q-8 0 -8 8h6q0 4 -7 4z" />
    <glyph glyph-name="quotesingle" unicode="'" horiz-adv-x="110" 
d="M78 597l-1 3l1 -6q0 -5 0.5 -12t0.5 -16.5t-2 -20t-5 -21t-10 -20.5t-16 -18q-7 3 -14 10t-7 13q0 7 5 21.5t5 25.5q0 40 6 51.5t27 20.5q4 -2 5 -3q-6 -6 -6 -13t5.5 -9.5t5.5 -5.5z" />
    <glyph glyph-name="parenleft" unicode="(" horiz-adv-x="140" 
d="M22 231l1 1q-1 0 -1 -1zM59 85l1 1q-1 0 -1 -1zM62 41l-1 -1q1 0 1 1zM63 24v0v0zM56 117q1 0 1 -1zM15 266q-4 0 -4 -1zM11 250q-3 0 -3 -1q2 0 3 1zM25 255q-2 -1 -4 -1l1 -2q3 0 3 3zM57 99l6 -2q5 -8 5 -20q-1 0 -3.5 1.5t-4.5 1.5q-1 -1 -1 -3q0 -6 5 -6q4 0 4 6
q5 -1 10.5 -14.5t9 -27t4.5 -13.5q-3 -2 -3.5 -6.5t-1.5 -5.5l7 -6q8 -6 15 -12t13 -15t6 -16l-2 -3q-1 -2 -1 -4q0 -1 1 -3t1 -4q-1 -2 -1 -5t1 -4l-4 -7l-3 2q-2 2 -4 2l-14 -9q-14 0 -27 20t-19.5 38.5t-6.5 21.5q-5 10 -5 13q0 2 1 4q-5 5 -5 7t0.5 5.5t0.5 4.5t-1 2
q-3 1 -11.5 17.5t-8.5 18.5t1.5 4.5t1.5 3.5q-9 2 -9 21q0 1 1 4t1 5q0 1 -3.5 10t-3.5 12q0 2 1 4t1 4q0 1 -2 4t-2 5q0 1 0.5 3t0.5 3q-8 6 -8 48q0 5 0.5 14t0.5 14l-1 2q0 2 1 4t1 3q0 2 -1 6t-1 6q0 3 0.5 7.5t0.5 6.5t-0.5 5t-0.5 4q0 152 13 158q0 -2 1 -2
q-6 0 -6 10q0 15 4 33t10.5 40.5t8.5 31.5q21 101 81 160q1 -1 4 -1q1 0 6.5 3t11.5 3q8 0 8 -12q0 -1 -1 -2t-1 -2t0.5 -4t0.5 -4q0 -14 -16.5 -35.5t-19.5 -32.5q-2 -5 -11 -34t-11.5 -36t-10 -32.5t-10 -36t-7.5 -32.5t-6.5 -37t-3 -34t-1.5 -37q0 -26 0.5 -61.5
t0.5 -54.5q0 -4 -0.5 -11t-0.5 -11q0 -20 4 -46.5t8 -45.5t4 -20q-3 0 -3 3z" />
    <glyph glyph-name="parenright" unicode=")" horiz-adv-x="153" 
d="M94 231q0 1 -1 1zM57 85q0 1 -1 1zM54 41q0 -1 1 -1zM53 24v0v0zM60 117q-1 0 -1 -1zM101 266l4 -1q0 1 -4 1zM105 250q1 -1 3 -1q0 1 -3 1zM91 255q2 -1 4 -1l-1 -2q-3 0 -3 3zM53 97l6 2q0 -3 -3 -3q0 1 4 20t8 45.5t4 46.5q0 4 -0.5 11t-0.5 11q0 19 0.5 54.5
t0.5 61.5q0 14 -1 29.5t-2 27.5t-4.5 29.5t-5 27t-7 28.5t-7 26t-8.5 29t-8 26.5t-9 28.5l-9 27q-3 11 -19.5 32.5t-16.5 35.5q0 1 0.5 4t0.5 4t-1 2t-1 2q0 12 8 12q6 0 11.5 -3t6.5 -3q3 0 4 1q58 -57 81 -160q2 -9 8.5 -31.5t10.5 -40.5t4 -33q0 -10 -6 -10q1 0 1 2
q13 -6 13 -158q0 -1 -0.5 -4t-0.5 -5t0.5 -6.5t0.5 -7.5q0 -2 -1 -6t-1 -6q0 -1 1 -3t1 -4q0 -1 -1 -2q0 -5 0.5 -14t0.5 -14q0 -42 -8 -48q0 -1 0.5 -3t0.5 -3q0 -2 -2 -5t-2 -4q0 -2 1 -4t1 -4q0 -3 -3.5 -12t-3.5 -10q0 -2 1 -5t1 -4q0 -19 -9 -21q0 -1 1.5 -3.5
t1.5 -4.5t-8.5 -18.5t-11.5 -17.5q-1 -1 -1 -2t0.5 -4.5t0.5 -5.5t-5 -7q1 -2 1 -4q0 -3 -5 -13q0 -3 -6.5 -21.5t-19.5 -38.5t-27 -20l-13 9h-1q-2 0 -4 -2l-3 -2q-4 4 -4 7q1 1 1 4t-1 5q0 2 1 4t1 3q0 2 -1 4l-2 3q0 7 6 16t13 15t15 12l7 6q-1 1 -1.5 5.5t-3.5 6.5
q1 0 4.5 13.5t9 27t10.5 14.5q0 -6 4 -6q5 0 5 6q0 2 -1 3q-2 0 -4.5 -1.5t-3.5 -1.5q0 12 5 20z" />
    <glyph glyph-name="asterisk" unicode="*" horiz-adv-x="264" 
d="M86 637l-6 -3q-2 0 -5 -1t-4 -1q-9 0 -9 5q0 1 1.5 2t1.5 2t-2.5 3t-2.5 3q0 2 1.5 3t3.5 2l2 1q0 2 -1 5v2q0 9 20 9q2 0 7.5 -0.5t8.5 -0.5q-11 16 -11 29q0 5 3 8h2h1q0 1 -0.5 1t-0.5 1q2 0 4 -1t3 -1t2 1l2 2l3 -2q1 0 3 2q9 0 13.5 -5.5t6 -16.5t2.5 -13l3 4
q6 8 14 16q-1 1 -1 3q0 11 14 11q10 0 10 -7q0 -2 -1.5 -6t-1.5 -5l5 -1q5 -1 5 -2q0 -7 -14 -23q34 -4 34 -5q0 -4 0.5 -6t1.5 -3t3.5 -3t4.5 -5q-4 0 -4 -3l1 -3q0 -4 -4 -4q-1 0 -3 0.5t-4 0.5h-2q-2 -1 -6 -1.5t-9 -1t-12 -1t-13 -0.5l4 -5l6 -10t3 -7q0 -1 -1 -2v-2
q1 0 3 -1t4.5 -3.5t2.5 -5.5q0 -14 -11 -14q-2 0 -6 3.5t-5 3.5l-2 -3q-2 -4 -4 -4q-6 0 -22 33q-2 -2 -9 -12t-13 -15.5t-11 -5.5q-2 0 -3 1v3q-1 0 -2 -1l-2 6q-2 6 -4 8l-1 1q-2 0 -2 9q0 8 11 17l11 10l4 6q-6 2 -11 2q-1 0 -3 -2t-4 -2h-1z" />
    <glyph glyph-name="plus" unicode="+" horiz-adv-x="279" 
d="M127 398l10 -5q0 8 1 10q0 -9 8 -16.5t8 -11.5t-0.5 -15.5t-0.5 -17.5q0 -34 7 -34q6 1 18 1q60 0 60 -11q0 -12 -12.5 -20t-24.5 -8q-3 0 -15.5 1.5t-17.5 1.5q-19 0 -19 -6q0 -60 4 -64q0 -8 -6 -8q-4 2 -8 2q-3 0 -5 -2q-26 6 -26 32q0 5 0.5 14.5t0.5 14.5
q0 15 -28 15q-5 0 -14.5 -0.5t-12.5 -0.5q-9 0 -9 3q0 1 1 2q0 3 -1 5.5t-1 3.5q0 26 25 26q4 0 10.5 -0.5t9.5 -0.5q17 0 17 14q0 2 -0.5 4t-0.5 3q0 7 2.5 29.5t2.5 30.5l-1 2l-1 2q0 2 3 3q1 0 3 -1q2 0 4 1t4 1q1 0 3 -0.5t3 -0.5t1 1h-2z" />
    <glyph glyph-name="comma" unicode="," horiz-adv-x="121" 
d="M57 124l-1 3v-16v-17.5t-0.5 -15.5t-2 -17.5t-4 -15.5t-6 -17t-9 -14t-12.5 -15q-24 11 -24 26q0 2 3 12.5t6 28.5t3 36q0 6 -0.5 15.5t-0.5 14.5q2 14 14 14q4 0 11 5.5t12 7.5q3 0 6 -3q-7 -10 -7 -16q0 -5 6 -9t6 -7z" />
    <glyph glyph-name="hyphen" unicode="-" horiz-adv-x="260" 
d="M24 249h3h-3zM220 280l-2 -3q0 -1 2 -1q0 -3 -3 -5t-3 -4l2 -4l-5 -5l1 -1v-1q0 -2 -8 -8.5t-10 -6.5q-7 0 -19.5 3t-17.5 3q-32 0 -49 -5q-2 0 -2.5 2t-1.5 2t-3 -2l-2 -1q-1 0 -3 2t-4 2q-8 -2 -11 -2q-5 0 -10 3q-1 0 -5 -2.5t-6 -2.5t-4 1l-2 2l-2 -2q-2 -2 -5 -3.5
t-6 -1.5q-2 0 -3 3t-2 3q-2 0 -5 -2.5t-4 -2.5q-6 0 -6 6t3 6q1 0 3 -2l3 2q-5 8 -5 9q0 3 7.5 5.5t7.5 3.5l-3 5q-3 5 -3 7q0 4 37 7t63 3q3 0 11 -1t12 -1t16.5 0.5t20.5 0.5q22 0 26 -11zM212 271q0 -6 -2 -6q0 6 2 6z" />
    <glyph glyph-name="period" unicode="." horiz-adv-x="121" 
d="M87 31l-1 -2l-2 -3l-6.5 -6.5t-8 -7.5t-10 -7t-10.5 -3q-18 0 -24 35l6 22v1q2 -2 5 -2q4 4 5 4t3 -1t4 -1q2 1 2 3t0.5 3.5t3.5 1.5h2l2 -1q2 0 3.5 1t2.5 1l13 -3l-2 -2q-2 -1 -2 -3l1 -1l1 -2.5t2 -4.5t2.5 -5.5t3 -6t2.5 -6t2 -4.5z" />
    <glyph glyph-name="slash" unicode="/" horiz-adv-x="201" 
d="M52 94l-1 -1q1 0 1 1zM27 21l-1 -1q1 0 1 1zM63 298q1 0 1 -1zM59 239l-1 1q0 -1 1 -1zM58 234q1 0 1 1q-1 0 -1 -1zM116 524v1l-1 -1q0 -1 1 0zM29 -20h1q-2 0 -2 2l1 1v-3zM74 233q-3 0 -4 -1q0 -2 3 -2q1 1 1 3zM76 187q2 2 2 3l-1 1l-3 -3q2 0 2 -1zM54 212l-2 -2
l3 -3l1 2q-2 2 -2 3zM117 598q0 -3 2 -3q0 1 1 3q0 2 -3 0zM55 201h-2.5t-0.5 -1zM62 188q2 0 2 4l-2 -4v-2h-2v-1q0 2 2 3zM104 550l-2 -9q0 7 1.5 9.5t10.5 6.5q-4 2 -6 4.5t-2 4.5t0.5 6t0.5 6q0 1 2 4t2 8v7q0 6 2.5 18t2.5 18v2q0 3 2.5 6.5t4.5 3.5l1 -3q2 -2 4 -2
q1 0 2 1q29 -12 29 -23q0 -13 -6 -38t-6 -37v-4q0 -28 -5.5 -60.5t-13.5 -66t-9 -42.5q-17 -90 -19 -97l-8 -18v-1q1 -2 1 -3q0 -6 -3.5 -17t-3.5 -16q-1 -11 -2 -20.5t-2 -16.5t-2.5 -13t-2.5 -9.5t-2 -6l-1 -2.5v-1q-9 -36 -17 -104q0 -3 2 -4q-2 -4 -2 -7q0 -2 1 -3
q-2 -5 -6 -25l-2 -7q0 -1 1 -2l-1 -2l-2 -4t-4 -3.5t-7 -1.5q-1 0 -2 0.5t-2 0.5l-2 -3q-2 -4 -4 -4q-9 0 -15.5 9t-6.5 16q0 4 6.5 8.5t6.5 10.5q0 3 -3 3t-3 2v5q-1 1 -1 3q0 1 0.5 2.5t0.5 2.5t-3 10q0 2 2 5t2 4q0 2 -1 4.5t-1 3.5q0 2 1 7.5t1 8.5v3q4 3 4 7v5
q3 15 3 17q0 1 -0.5 5t-0.5 5q4 24 8.5 31.5t11.5 8t11 4.5q-4 4 -5 4t-1.5 -2t-1.5 -2q-7 0 -7 9q7 23 7 31q0 1 -0.5 4t-0.5 5q0 3 9 5t9 7l-6 21l1 1v3q-3 5 -3 8t3.5 7t3.5 6q-1 1 -1 2q8 14 12 15q0 1 -3 3.5t-3 11.5q0 8 2 12v3q0 42 12 56l1 2q0 1 -0.5 4t-0.5 5
q0 11 6 32.5t6 32.5q0 22 5.5 55t11.5 39v-2l1 1h-3z" />
    <glyph glyph-name="zero" unicode="0" horiz-adv-x="256" 
d="M196 382h1l1 -1q0 1 1 1h-3zM195 385q0 -1 2 -1q0 1 -1 1h-1zM195 404l-1 -1q1 0 1 1zM184 381q-1 0 -1 3l-1 -1q0 -2 2 -2zM177 279h1l-1 1v-1zM172 166q1 2 3 2q-3 0 -3 -2zM171 123h1h-1zM169 480h3h-3zM170 300l1 1q-1 0 -1 -1zM170 483zM175 393l-1 -1q1 0 1 1z
M168 274q1 1 0 4v-7v3zM168 65q1 0 1 1zM166 383q1 -1 3 -1q0 1 -3 1zM167 399zM165 321l6 3h1l2 1q-9 0 -9 5q0 2 1.5 14t1.5 18v5q0 1 0.5 4t0.5 4t-0.5 2t-0.5 2q0 7 2 24t2 25q0 6 -7 27l-1 1q0 1 -1 3l-2 4t-2 4.5t-2 4.5t-2 4.5t-1.5 4.5l-1 4t-0.5 3l-9 10
q-14 18 -16 18q-1 -2 -1 -3t0.5 -3t0.5 -3t-2 -3q0 2 -4 2l-1 -1v-1l3 -2q0 -10 -11 -21q-10 -20 -17 -50q0 -6 -5.5 -19t-5.5 -17q0 -3 -5.5 -4t-5.5 -3q0 -1 2 -2.5t2 -3.5l-1 -1v-2q0 -2 1 -6t1 -6q0 -3 -6 -18t-6 -18q0 -1 0.5 -3t0.5 -3v-1q0 -2 1 -3.5t1 -2.5
q0 -4 -4 -21.5t-4 -32.5v-4q0 -1 -1.5 -4t-1.5 -5q0 -3 0.5 -7t0.5 -7q0 -2 -0.5 -4.5t-0.5 -3.5q0 -3 0.5 -7.5t0.5 -6.5q0 -6 -4 -14l2 -3q2 -3 2 -5q0 -12 -2 -36.5t-2 -35.5v-4q0 -6 -3 -6t-4 1.5t-2 1.5q-4 0 -4 -4q0 -1 3 -1q0 -3 -3 -5.5t-3 -3.5q0 -4 7.5 -6t7.5 -5
v-2q0 -1 0.5 -4t0.5 -5v-5q0 -1 0.5 -4t0.5 -5t-0.5 -5t-0.5 -4q0 -12 9.5 -30t23.5 -18q3 0 7 5t6 6q15 9 31 46t16 59v4q1 1 1 4q0 1 -0.5 4t-0.5 4q0 6 3.5 34t3.5 40v11q0 4 0.5 13t0.5 14q1 5 7 11l-3 2q-2 1 -2 3t1.5 4t1.5 3q0 2 -0.5 5t-0.5 4q0 38 5 38zM170 296v0
v0zM170 131v0v0zM164 137l1 -1q0 1 -1 1zM165 49q3 0 3 1h-3t0 -1zM125 -18zM85 -29v-1q1 0 2 1h-2zM63 -24zM55 43l1 1q-1 0 -1 -1zM48 72q0 4 2 8l-1 2q-3 -3 -3 -5q0 -1 1 -2.5t1 -2.5zM43 107v0v0zM43 51v3v-3zM43 327h-1q0 -1 1 -1v1zM48 327q1 0 1 1zM48 308l-1 -3v-3
q1 -1 1.5 0.5t0.5 2.5t-1 3zM50 296v-1v1zM50 348q-4 1 -6 1t-2 -5q2 0 5 0.5t4 0.5q0 2 -1 3zM51 357l-1 1q0 -1 1 -1zM47 375q-1 1 -1 0h4h-3zM51 322l2 -5l3 3q-3 2 -5 2zM58 338q-1 -1 -3 -1q3 0 3 1zM57 365q-2 2 -2 -1q0 -4 3 -4l2 2zM64 323q0 -1 -0.5 -1t-0.5 -1
l1 -1v3zM65 429q3 1 3 3l-1 3q-1 0 -3 -2q-3 -1 -3 -2q0 -2 4 -2zM68 458l1 -7q5 0 5 1q0 6 -6 6zM71 420q2 4 2 0q1 -1 1 0.5v2.5zM73 402q4 -2 5 -2l4 4q0 2 -3 5q-2 0 -4.5 -2.5t-1.5 -4.5zM76 367q-1 0 -1 -1zM76 375l1 1q-1 0 -1 -1zM87 427q-1 0 -3 0.5t-3 0.5
q-2 0 -6 -2q11 0 12 1zM83 511zM85 499q0 -1 1 -1zM95 433h-2h-1h3zM110 533zM150 503l-1 -1q1 0 1 1zM146 515l-1 -2q1 0 3 1h1q1 -1 2 -1l2 1q0 3 -4 3q-1 0 -3 -2zM148 531q-1 0 -1 -1zM158 511q-2 -2 -2 -3q0 -2 3 -3q0 6 -1 6zM164 502q-1 -1 -3 1q0 -2 1 -3h1q2 0 1 2
zM170 494l-2 3q-3 -1 -3 -4t3 -4q5 5 5 6q-2 0 -3 -1zM172 406v2v1v-3zM31 60q1 0 1 1zM29 292v0v0zM29 270v0v0zM23 66zM22 68h-2h-1h3zM22 286h1l-1 1v-1zM19 106zM18 105q0 -1 -0.5 -1t-0.5 -1l1 -1v3zM14 115l1 -1h1q0 1 1 1h-3zM33 336q1 0 1 1zM214 417l7 1
q0 -1 -2.5 -3.5t-2.5 -4.5l1 -2q1 -2 1 -3t-3 -7q2 -6 2 -8t-1.5 -4.5t-1.5 -3.5q0 -2 1 -5.5t1 -5.5q0 -3 -2.5 -9t-2.5 -9q0 -1 1.5 -4t1.5 -5q0 -5 -2.5 -13.5t-3.5 -8.5h-4l-3 1q0 -2 5 -6.5t5 -7.5q0 -2 -1 -3q2 -4 2 -5q0 -4 -4 -8q3 -3 3 -4q0 -2 -2.5 -6t-2.5 -5
t1 -2.5t1 -2.5t-1 -2.5t-1 -2.5q0 -2 3 -5t3 -6q-6 -24 -6 -29q0 -3 1 -7t1 -6t-1 -6t-1 -6v-6q0 -1 -0.5 -3t-0.5 -3t1 -4t1 -5q0 -13 -6 -13q-1 0 -2.5 0.5t-2.5 0.5q0 -2 4.5 -4.5t4.5 -6.5q0 -19 -10 -19h-2l-2 -1q0 -2 3.5 -2.5t3.5 -1.5t-1 -2q4 -4 4 -7q0 -6 -5 -9
q-2 -1 -2 -2l2 -3q2 -2 2 -3q0 -8 -6 -14v-1v-2q0 -1 -2 -1h-1q-1 0 -3 -1q0 -2 3 -4t3 -3l-3 -4q-3 -4 -5.5 -10t-2.5 -10q0 -12 -19.5 -41t-33.5 -29h-2q0 -17 -21 -17h-2q-1 0 -4 -1.5t-5 -1.5q-3 0 -13 5.5t-16 7.5q-2 -2 -3 -2q-4 1 -8.5 5.5t-7.5 5.5q-8 0 -12.5 12.5
t-7.5 30t-5 21.5q0 1 1 3v2q0 2 -0.5 6.5t-0.5 6.5q0 26 3 26q2 0 8 -3q3 0 3 3q0 2 -8 3.5t-8 11.5q0 4 3 4q0 2 -1.5 6t-1.5 6v4q0 3 -1.5 7t-1.5 6q0 3 1 4q4 8 3.5 32t0.5 37q-1 1 -1 4q0 2 0.5 5.5t0.5 4.5q0 2 -1 4t-1 3q0 3 1.5 8t1.5 7v14q0 2 1 5.5t1 5.5v6
q0 18 5 18q1 0 5 -1.5t6 -1.5q4 0 4 4t-5 4l-4 -2q-6 0 -6 7l4 6q3 7 4 8q-7 0 -7 3q0 2 2 5t2 6v1q-1 2 -1 3t3 3q2 0 3 -3.5t3 -3.5l6 6q-6 1 -6 8h3q-1 1 -2.5 4.5t-3.5 4.5l1 2v2v3l2 2q-1 2 -2 2l-1 2q0 5 2 7q2 0 3.5 -1.5t2.5 -1.5l1 1h3q7 0 13 -6l9 6q-2 0 -8 2.5
t-6 5.5q0 1 1 4q0 2 -2 2t-2.5 -2.5t-1.5 -2.5t-6.5 2t-5.5 3v1l1 1l9 30q1 0 3 -1t3 -1t5 2q1 -1 1 -2q0 -3 -2 -5.5t-5.5 -5t-4.5 -3.5l1 -1q4 -12 10 -13q3 0 3 3q0 1 -3 2l-2 1l1 2q0 1 -2 3t-2 3q0 -1 5 5q1 2 2 2q2 0 2 2q0 1 -1 3.5t-1 4.5q-11 0 -11 3v3q0 2 -4 2
q0 9 7 9l2 -1q1 -1 2 -1q2 0 2 3t-4.5 5.5t-4.5 6.5q0 5 2.5 12.5t2.5 11.5v2q0 1 2 3t2 3v2q4 2 6.5 12t4.5 10l4 -7q4 -6 8 -6q1 0 1 2q0 3 -3.5 8t-3.5 7q0 1 1 1h2q1 0 1 2.5v5t1 2.5l5 -6q-1 -2 -1 -4t3.5 -4.5t3.5 -3.5l-1 -2q-1 -1 -1 -2q0 -2 3 -3q5 0 5 3
q-2 9 -10 25q0 4 5 4q1 0 3 -1q3 0 7 4q0 3 -10 3q4 4 9 4q1 0 3 -1t4 -1q1 0 4 0.5t5 0.5q1 0 3 -2q-1 0 -1 -4v-1q1 0 3 2q2 -1 5 -1t8 3t6 3q4 0 4 -5v-3q0 -13 6 -13q1 0 3 1t4 1q0 -2 -2 -4t-2 -3l9 -15q2 -5 2 -9l5 5q-3 0 2 -2q14 -4 14 -7q0 -1 -1 -3t-1 -4
q0 -1 2.5 -4t6 -7.5t5.5 -7.5l-1 -1v-2l6 -14q5 -14 5 -21v-7q0 -4 1 -6zM42 356v0v0zM40 357q1 3 3 3q0 -3 -3 -3zM172 534l1 -2q0 -1 -1 -1v3zM172 531v0v0zM56 441v0v0zM55 439l-2 2q0 1 2 1v-3zM39 366z" />
    <glyph glyph-name="one" unicode="1" horiz-adv-x="151" 
d="M87 0l3 2q-10 -9 -20 -9q-5 0 -9 1.5t-6.5 5.5t-4.5 8t-3 11t-2 12t-1 14.5v14.5v15v15q0 1 0.5 5t0.5 6q0 5 -0.5 15.5t-0.5 15.5q0 3 1.5 9.5t1.5 9.5q-3 14 -3 28q0 79 7 110q0 22 -0.5 64.5t-0.5 63.5q0 35 3.5 71.5t7.5 36.5q11 0 25 -9.5t14 -14.5q0 -16 -2.5 -45
t-2.5 -41q0 -2 0.5 -5.5t0.5 -5.5q0 -3 -1 -7t-1 -6q0 -1 0.5 -5t0.5 -5q0 -11 -1 -33t-1 -33q0 -2 0.5 -6t0.5 -6q0 -1 -0.5 -4t-0.5 -4t0.5 -5t0.5 -5q-3 -14 -3 -66q1 -3 1 -7q0 -5 -1 -7q1 -2 1 -6q0 -2 -0.5 -6t-0.5 -5q0 -4 1 -5q-3 -27 -3 -55q0 -15 1.5 -43.5
t1.5 -41.5q0 -2 -0.5 -6t-0.5 -6q0 -5 2 -16.5t2 -16.5q0 -2 -3 -2t-5 1.5t-3 2.5h3z" />
    <glyph glyph-name="two" unicode="2" horiz-adv-x="194" 
d="M138 444v-6q-1 -7 -1 -22t-1 -27t-4 -20q-38 -168 -63 -255q-2 -6 -7 -22t-8.5 -28.5t-3.5 -23.5q0 -4 4 -4q14 0 44 6.5t43 6.5t20.5 -6.5t9 -11.5t1.5 -10q0 -17 -8 -17q-1 0 -2.5 2t-3.5 2t-6 -3t-5 -3t-4.5 1.5t-5.5 1.5q-13 0 -43.5 -6t-41.5 -6q-17 0 -29 8
q-1 0 -3 -1q-2 3 -8.5 8t-6.5 6t2 3q2 1 2 3q0 1 -4 7.5t-4 10.5q0 10 3.5 25t10.5 34.5t7 21.5q42 138 50 205q2 14 10 56t8 64q0 16 -3 45.5t-9 29.5q-10 0 -18 -16.5t-24 -16.5q-3 1 -8.5 1t-8.5 0.5t-5.5 3.5t-2.5 9q0 25 26.5 47t45.5 22q42 0 51 -76q4 -27 4 -37
q0 -1 -0.5 -2.5t-0.5 -2.5t0.5 -3t0.5 -4z" />
    <glyph glyph-name="three" unicode="3" horiz-adv-x="226" 
d="M170 51v1l-1 -1q0 -1 1 0zM74 65l-1 -1q0 -1 1 -1v2zM66 13q0 -1 -1 -1zM107 13q1 0 1 1q-1 0 -1 -1zM145 22q-1 0 -1 -1q1 0 1 1zM77 21l1 1q-1 0 -1 -1zM60 21q0 1 1 1zM122 -9q-1 0 -1 1zM180 243q0 1 -1 1q0 -1 1 -1zM44 115q1 0 1 1q-1 0 -1 -1zM28 490h-3h3zM70 24
l-3 -1q0 1 3 1zM139 30q-3 0 -3 -1q2 0 3 1zM77 363l3 3l-1 1l-3 -3q2 0 1 -1zM48 74q-2 -2 -2 -3q2 -4 6 -4q3 0 3 2l-1 1q-2 1 -3.5 2t-2.5 2zM158 6v2l-1 -1q3 0 3 -3q-2 0 -2 2zM104 372q2 -3 2 -5q0 3 -3 3l1 1q0 -2 3 -2q0 3 -3 3zM43 88l4 -13l-3 3q0 2 5 2.5t5 2.5
q-1 5 -3.5 12.5t-4.5 12.5t-3 5q1 3 1 4t-0.5 2.5t-0.5 2.5q0 2 2.5 6t2.5 6t-1.5 4.5t-1.5 3.5q0 2 2 5t2 4t-1 4t-1 4q0 7 9 13t13 6q6 0 12 -9t6 -17q0 -3 -2.5 -6t-2.5 -4t1 -3t2 -4.5t1 -3.5q-1 -2 -1 -5q0 -2 0.5 -6t0.5 -5q0 -2 -1 -7.5t-1 -8.5q0 -21 10 -49t30 -28
q8 0 13.5 14t6.5 14q0 6 11 21v-7q4 0 4 4q-1 4 -3.5 9t-5.5 9l-2 3l1 3q1 0 1 -0.5t1 -0.5l3 1q0 3 -1.5 6.5t-1.5 5.5q0 3 1.5 9t1.5 10q0 2 -0.5 6t-0.5 6q0 3 2 9q0 18 -3 34q0 2 1 6.5t1 6.5q0 27 -12 75q1 1 1 3q0 3 -2 10t-2 10q0 1 1 3v2q-20 37 -20 39t2 6
q2 -2 4 -2t5 3q0 -2 1.5 -3.5t2.5 -5.5q0 3 -3 7t-3 8l-2 -1q-1 0 -3 1h-1q-2 0 -4 -2q-2 0 -4 7.5t-5 7.5q-1 -1 -3 -2q-4 -4 -6 -4q-16 8 -21 8q-3 0 -7 -1t-5 -1l-6 26v-1q0 1 3 4l-3 1q-4 1 -4 3q0 9 6.5 18.5t16.5 19t12 13.5q25 41 26 53q0 2 -0.5 4t-0.5 4t1 5t1 5
q0 7 -4.5 16.5t-8.5 9.5q-14 -3 -28 -13t-14 -23q0 -1 -7.5 -4.5t-17.5 -6.5t-16 -3q-5 0 -5 7l1 2v3t-2 5.5t-2 7.5q0 43 74 73q37 0 55.5 -18t18.5 -68q0 -8 -3 -15.5t-6.5 -11.5t-4.5 -4q3 -5 3 -7q0 -9 -10.5 -24.5t-21 -26.5t-10.5 -10l1 1v-1l-1 -1q0 -1 8.5 -8
t19 -17t15.5 -19q8 -16 15 -45.5t13 -40.5q0 -1 0.5 -2.5t0.5 -2.5t-0.5 -2.5t-0.5 -2.5q0 -5 4.5 -22.5t4.5 -26.5q0 -11 1 -33t1 -32q0 -6 -2 -17.5t-2 -15.5q0 -1 0.5 -2t0.5 -2q0 -3 -2.5 -6.5t-2.5 -4.5q3 -1 3 -3q0 -39 -21 -70t-42 -31q-1 0 -3 4h2q-1 0 -1 1
q0 -7 -10 -7q-1 0 -2.5 2t-2.5 2t-1 -4h-1q-2 1 -16 5t-21 11l3 3q-3 0 -9 6q5 0 5 1q-1 3 -1 5q4 -2 6 -2t2 2l-6 3q0 -6 -2.5 -6.5t-3.5 -2.5q-7 7 -12 18.5t-8 21.5t-4 11q-2 3 -2 10q0 11 6 11v-3z" />
    <glyph glyph-name="four" unicode="4" horiz-adv-x="246" 
d="M165 98v3v-3zM168 89l-2 3v2v-1q-2 0 -5.5 5t-3.5 8q0 2 3.5 3t3.5 2t-3 4q1 0 3 1l9 -6q0 -3 -0.5 -7t-0.5 -5t0.5 -3t0.5 -3t-3 -4q-2 0 -2 1zM163 7l1 1q-1 0 -1 -1zM132 86h1l-1 1v-1zM76 406q1 0 1 1zM72 433q0 1 1.5 1.5t1.5 1.5q-3 0 -3 -3zM67 448h2l2 2
q0 1 -1 1q-3 0 -3 -3zM65 500q0 -2 4 -4h1l2 1q0 3 -7 3zM63 501q-1 -1 1 -1q0 1 -1 1v0zM53 413q-1 0 -1 4q0 -4 1 -4zM160 140q-6 -2 -8 -4q6 0 9 3q0 1 -1 1zM223 46l4 -7q0 -6 -6 -18t-13 -12q-2 0 -5.5 0.5t-5.5 0.5q-1 0 -5 -1t-5 -1q-2 0 -6 1t-5 1t-3 -3t-2 -5
q0 -1 1 -3.5t1 -4.5q0 -8 -3.5 -9t-3.5 -2q0 -2 4 -4t4 -12q0 -6 -1 -8q-17 -20 -22 -20q-12 0 -20.5 32.5t-11.5 32.5q-10 0 -19 -4q-1 0 -2.5 0.5t-2.5 0.5t-3 -1h-2q-2 0 -6 1t-5 1q-2 0 -3.5 -0.5t-2.5 -0.5q-7 0 -9 3l-3 3l-3 -1q-2 0 -3.5 2.5t-2.5 2.5l-2 1q0 1 4 5
q0 4 -6.5 15t-6.5 23q0 31 2.5 94t2.5 95q0 4 -2 13t-2 13q1 7 1 34t3 38q0 2 -1 6t-1 5q0 9 3 26.5t3 24.5q0 3 -0.5 9t-0.5 10q0 7 0.5 23t0.5 23q0 1 -0.5 4t-0.5 5t2 7t2 8q0 1 -1 4t-1 5q0 4 3 22t3 24l-1 2v3q0 15 10 15q2 0 4 -1l3 -1q2 0 5 3l2 3q23 -12 23 -28
q0 -15 -6.5 -47t-6.5 -49l1 -2q1 -2 1 -3q0 -48 -4.5 -149t-4.5 -150q0 -13 0.5 -39t0.5 -39q0 -12 2 -12.5t11 -0.5q11 0 22 7t11 14q-8 11 -8 25v2q1 2 1 3t-0.5 3t-0.5 4q0 1 0.5 4.5t0.5 5.5q0 1 -0.5 3t-0.5 4l1 1q2 0 4 -2q4 0 4 7q-3 2 -3 6l2 2q1 2 1 4q0 1 -3 3.5
t-3 4.5l2 10q3 0 11 -8q2 2 6 2q10 0 10 -2q-1 -1 -1 -2l2 -1q1 1 3 2q2 2 3 2q3 0 3 -4q0 -1 -0.5 -1t-0.5 -1l3 -2q2 -2 2 -3l-1 -1q-1 -1 -1.5 -2.5t-0.5 -4.5q0 -1 1.5 -3.5t1.5 -3.5q0 -12 -39 -12q0 -2 4 -4.5t7 -2.5q1 0 2.5 2.5t3.5 2.5q5 0 5 -5q0 -1 -4 -5
q2 0 12 -10q-2 -2 -8 -5q1 -2 7.5 -8t6.5 -10q0 -2 -11 -2q10 -13 56 -13q6 0 13 -13zM148 155l-1 -1q0 1 1 1z" />
    <glyph glyph-name="five" unicode="5" horiz-adv-x="202" 
d="M65 76l-1 1q1 0 1 -1zM103 20l-1 1q1 0 1 -1zM100 29q-1 0 -1 1zM43 132q0 1 1 1zM79 564q0 1 1 1zM96 566l-1 1q1 0 1 -1zM89 573l1 1q0 -1 -1 -1zM125 580l5 -2q-3 0 -5 2zM108 27v-1h-2h-2q0 1 4 1zM118 560l2 3q2 0 2 -2l-1 -2q-1 0 -3 1zM126 35l-1 1q0 6 3 6t3 -4
q0 -3 -5 -3zM113 16l2 -13h-3l1 1v-2q5 1 12 9h-3l1 1q1 0 1 -2q8 1 9 2t3 7q-3 0 -3 -3q14 7 25.5 51t11.5 76q0 7 -4 11q0 1 1.5 3t1.5 4q0 59 -6 171q0 1 -3 14.5t-5.5 22.5t-9.5 23.5t-15.5 24t-23 16.5t-32.5 7h-11.5t-14.5 -2q-1 1 -1 2t1 14t3.5 24.5t6.5 25
t11.5 21.5t18.5 8l6 -2q7 -2 11 -2q3 0 6.5 2t4.5 2t3 -1t3 -1q6 0 11 5t7 5q1 0 2 -1l2 -1q3 3 3 6q0 1 -1 3t-1 3q0 2 1 4.5t1 3.5q0 4 -3.5 12.5t-4.5 8.5q-8 -2 -13 -2q-3 0 -8.5 0.5t-8.5 0.5t-9 -1.5t-9 -1.5q-1 0 -5 0.5t-5 0.5t-2.5 -2t-2.5 -2t-3 2q-2 -2 -3 -2
t-3 1t-3 1q-20 -3 -20 -6v-1q1 -2 1 -3q0 -5 -7 -5q-1 0 -5 2.5t-6 2.5q-3 0 -10.5 -19t-14.5 -53t-7 -66q0 -1 0.5 -3.5t0.5 -3.5q0 -4 -1 -5q0 -5 8.5 -13t13.5 -8h1l2 1q2 0 9 -5t8 -5l7 5q8 6 17.5 11t15.5 5l3 -1q19 -9 24 -16q19 -30 19 -82q0 -24 1 -72.5t1 -72.5
q0 -14 -7 -40t-7 -37q0 -1 1 -3t1 -3t-3.5 -7t-9.5 -12t-11 -6q-4 0 -11.5 10t-7.5 14q0 1 0.5 3t0.5 3q0 3 -3 9.5t-3 10.5q0 2 1 6t1 6t-3.5 25t-3.5 26v-1q0 49 4 57q0 7 -4.5 12t-12 10t-9.5 7q-2 -2 -10 -2.5t-11 -6.5q0 -8 -1 -22.5t-1 -21.5q0 -1 1 -4.5t1 -5.5
l-1 -9q0 -9 0.5 -16.5t1 -16t2.5 -14t6 -5.5l-1 -1v2q-3 -1 -3 -4q0 -1 1.5 -3t1.5 -4q-1 -1 -1 -2q2 -12 5 -14l3 -2l-2 -2q-3 -3 -3 -5q0 -6 5 -15l6 -10q0 -2 -2 -4l-1 -3q3 -17 15 -34t31 -17q26 0 32 6z" />
    <glyph glyph-name="six" unicode="6" horiz-adv-x="223" 
d="M90 553q2 0 2 2q0 5 -2 7q-6 -5 -9 -10h4q3 0 5 1zM78 566l-1 1q0 3 -3 3h-2q1 -1 6 -4zM73 554v3q-3 0 -3 -3h3zM66 560l1 1q-1 0 -1 -1zM72 564h-1v-1q1 0 1 1zM87 566q-1 0 -1 -1zM98 558v0v0zM115 563q-1 0 -1 -1zM123 566l-1 -1q1 0 1 1zM124 555q1 0 1 -1
q0 -2 2 -2l3 3l-3 3zM143 556q1 0 -2 -3q0 -2 2 -4q8 2 8 15q-1 3 -4 3l-3 -6v-1l1 -2zM162 555q0 1 -0.5 0.5l-1.5 -1.5q1 -1 1 -2q1 -1 1 0.5v2.5zM98 537l3 1q0 -2 -4 -2l1 2v2q0 1 -7 8l-16 5q-9 5 -9 11q0 5 5 9.5t10 4.5q2 0 2 1t-1 3q0 3 13 6q1 -2 4 -2q1 0 4 1t4 1
q3 0 3 -3t-6.5 -3t-6.5 -3q0 -1 1.5 -2t1.5 -2v-2q0 -4 3.5 -8.5t3.5 -5.5t-1 -3l1 -1q3 0 3 6q0 5 -3 10q3 0 6.5 -1t4.5 -1q13 23 17 23q3 0 14 -11q2 0 -1 -4t-3 -5l4 -3q1 4 5 6q5 0 5 -1l-1 -2q-1 -1 -1 -2q0 1 2 -2q7 -11 10 -10v-2q0 -2 2.5 -7t2.5 -7q0 -1 -2 -5
q0 -1 3.5 -5t3.5 -7t-5.5 -7.5t-11.5 -4.5q-4 0 -7.5 2.5t-5 4.5t-1.5 3l-11 15q-11 15 -21 15q-18 0 -18 -16zM184 207zM176 237l-1 -3l1 1v2v1l-1 2q0 -4 1 -3zM168 225h3q0 2 -1 2l-1 -1h-2q0 -1 1 -1zM165 207q2 -1 3 -1q4 0 4 4l-1 1q-5 -3 -6 -4zM147 226v4h-1l-2 -1
q0 -3 3 -3zM164 247v11q0 4 -4 4q-2 0 -4.5 -1t-3.5 -1q-2 0 -3 1l-3 -3q1 -1 1 -5q-1 0 -4 0.5t-4 0.5h-2q-5 0 -5 15q0 -1 3 2.5t8.5 7.5t10.5 4q0 2 -5 2q-1 0 -3.5 -1t-3.5 -1q-2 0 -2 2q0 1 1 2t1 2t-1 1q-4 0 -6 -2q-1 5 -5 5h-4q-1 0 -4.5 2.5t-8.5 5.5t-8 5
q-3 -1 -4 -4q2 -4 2 -5q0 -2 -3 -5l-9 -16l-8 -14q-1 0 -2 1q-3 0 -6.5 -4t-6.5 -8l-2 -4v-8q0 -3 -0.5 -7t-0.5 -6v-8q0 -5 -2 -11q2 -6 2 -19v-16q0 -2 -0.5 -6t-0.5 -6q0 -6 1.5 -20.5t1.5 -21.5q0 -80 33 -80q20 0 33 27t13 59q0 2 -0.5 6t-0.5 6q0 4 1.5 12.5t1.5 13.5
q0 11 -4 28.5t-4 33.5q0 12 3 12h7q7 0 14 11zM162 227q1 1 3 1h-2.5t-0.5 -1zM64 429q0 -1 -0.5 -1t-0.5 -1l1 -1v3zM109 318zM115 320l-1 -1v-1q0 -1 3 -1q2 0 7 5h-1q-1 1 -2 1q-6 0 -6 -3zM130 308h-1q-1 -1 -2 -1q0 -2 4 -4l2 2zM160 278q-1 -4 2 -4q4 0 5 3q0 2 -4 2
q-3 0 -3 -1zM51 465q3 -2 5 -2l-3 3q-1 -1 -2 -1zM26 331zM59 509q-2 0 -2 -3q0 -6 4 -6q1 0 1 1q0 8 -3 8zM70 492q0 1 -2 1q-5 0 -7 4q-4 0 -4 -5q0 -3 3.5 -6t6.5 -3q6 0 6 6q0 3 -3 3zM68 525l-1 -1q1 0 1 1zM68 544q-1 0 -1 -1zM70 513q0 -1 1 -1zM76 502l-1 -2l7 -10
q2 0 2 2q0 10 -8 10zM72 423l-1 -1q1 0 1 1zM192 147l-3 -6q0 -1 1 -3t1 -3q0 -70 -24 -106q-4 -7 -23.5 -22t-29.5 -15q-2 0 -3 1q-3 0 -8 -1.5t-7 -1.5q-5 0 -13 2t-11 2t-14 10.5t-23 33.5t-12 49v4q-3 11 -3 44q0 1 1 3t1 3q0 3 -2 9t-2 10q0 21 1 63t1 63v6q0 2 1 5
t1 4t-0.5 3t-0.5 3q0 12 4 20q-2 1 -2 5q0 1 0.5 2.5t0.5 2.5t-1 3t-1 3q0 9 3.5 25.5t3.5 23.5v9q0 1 4.5 19t4.5 38q0 8 6 39.5t14 31.5l3 -3q3 -2 6 -2q0 2 -2 4t-2 4l2 4q-4 0 -4 5q0 1 7 8q15 -5 15 -6v-2q0 -2 3 -2q4 0 4.5 2.5t2.5 2.5q3 0 7 -3.5t4 -7.5q-1 0 -1 -3
q-4 -24 -8 -24t-14 10l-2 -1q0 -1 4 -5.5t7 -9.5l4 -4q-1 -2 -1.5 -6t-1.5 -7l-1 -3q-1 1 -2 1q-1 -1 -1 -2t0.5 -4t0.5 -4q0 -4 -4 -4q-9 0 -12.5 -5.5t-4.5 -5.5l-3 1q-2 1 -4 1q0 -7 6.5 -9.5t6.5 -7.5l-1 -3q0 -2 -1.5 -7t-2.5 -10q10 -1 11 -5v-10v-8q0 -3 -1.5 -9.5
t-1.5 -9.5q0 -2 0.5 -4t0.5 -3q0 -3 -2 -15t-2 -18q0 -10 4 -10q13 8 16 8q5 0 11.5 -9.5t12.5 -12.5q3 5 4 5l3 -1q2 -1 3 -1t4 1t5 1q1 0 1 -2l-1 -4q2 -1 5.5 -4.5l6.5 -6.5l4 -3l1 4q0 6 1 6q13 0 13 -8q0 -1 -0.5 -3t-0.5 -3q0 1 2.5 -1.5t5 -9.5t2.5 -16q0 -6 -3 -6
q-1 0 -4 0.5t-5 0.5l-2 -1q0 -5 7 -5q1 0 3.5 1.5t4.5 1.5t6 -13t4 -19q0 -5 -8 -5q1 -1 5.5 -4t4.5 -4t-1 -2v-2q6 0 6 -26q0 -7 -1 -20t-1 -19zM146 246v0v0v0zM148 245l-2 -2q-1 0 -1 2h3zM130 268h-1q0 1 1 1v-1zM127 273l-2 2q0 1 2 1v-3zM127 276v0v0zM127 282v0v0z
M126 283zM128 277q-2 5 2 5q0 -4 -2 -5zM130 281zM118 583q0 -1 -1 -1v1h1zM116 575l-1 -1q0 1 1 1zM137 325h-1l1 1v-1zM74 504q0 2 2 2q0 -2 -2 -2zM66 458h2q-1 -1 -2 -1v1zM148 513q0 2 2 2q0 -2 -2 -2zM150 515v0v0zM73 433l-1 -1q0 1 1 1zM67 424l1 1q0 -1 -1 -1z
M64 445v0v0zM67 445h-5l3 3zM105 576q2 -2 2 -5l-3 3q1 1 1 2zM107 570v0v0zM74 550v0v0zM70 545l-1 1l5 5q0 -1 2 -3l2 -2q-4 -3 -6 -3zM141 511q0 2 4 2q0 -1 -0.5 -4t-0.5 -5l-6 6h1q1 1 2 1zM144 513v0v0zM142 322q5 -3 5 -6q0 -4 -6 -4q-4 0 -4 8q0 2 5 2zM176 515z
M92 535v0v0zM72 504v0v0zM128 282zM75 507v0v0v0z" />
    <glyph glyph-name="seven" unicode="7" horiz-adv-x="228" 
d="M23 480q6 2 6 9q-1 0 -4 -1l-3 -2q0 -4 1 -6zM4 489l1 1h2h-1l-2 1l-1 -1h-2h1zM30 472q0 -3 -0.5 -4t-3 -1.5t-4.5 -1t-6 -0.5t-7 -1q-7 0 -12 3t-6.5 6t-1.5 6q0 1 1 4.5t1 5.5q1 -1 2 -1l22 7h2q4 0 10 -4t6 -6q0 -1 -2 -5t-2 -5q0 -2 1 -3zM143 460q3 0 9 -2
q0 3 -2 3q-7 0 -7 -1zM145 468l3 -1l-1 -1h-2h3q0 2 -3 2zM142 498q5 0 5 4q-1 4 -6 4q-6 0 -6 -6q0 -2 7 -2zM142 443q1 0 1 1zM139 451l1 1q-1 0 -1 -1zM139 390q1 0 1 1zM148 511q0 -1 1 -1zM128 521v1v-1zM125 482v2v-2zM125 438q1 0 1 1zM114 395l1 1q-1 0 -1 -1z
M24 513l1 1q-1 0 -1 -1zM10 550v1v-1zM153 506l-1 -1v-1l1 -1v3zM156 507l-3 3q0 -3 3 -3zM152 475v3v-3zM155 500l-1 -1q1 0 1 1zM154 491q1 0 1 1zM174 348l10 -4v-4l-1 -3q1 -2 1 -6q0 -13 -21 -19t-21 -16q0 -27 -11.5 -108t-11.5 -128q0 -4 2 -11t2 -11q0 -5 -1 -7v1
l1 -1q0 -21 -6 -21q-1 0 -5.5 2t-6.5 2t-4.5 -1t-3.5 -1q-11 0 -17.5 7.5t-6.5 15.5t1.5 26t1.5 25l-1 2l-1 2q0 2 5 5q-4 8 -4 37q0 8 9.5 56t9.5 105q0 6 -4 6q-6 0 -18 -2.5t-17 -2.5q-31 0 -31 9q0 1 0.5 3l0.5 2q0 1 -5 3t-5 4l4 5q4 5 8.5 11.5t5.5 9.5q6 0 6 -2
q0 -1 -0.5 -1t-0.5 -1q1 -1 2 -1q3 1 8 1q40 0 51 16t11 53q0 3 -1 4l3 9q-2 2 -2 6q0 5 2 11l3 5l-1 3q-1 2 -1 3q0 2 2 4t2 3q0 3 -1.5 7t-1.5 6l6 15q-1 1 -1 4q0 2 2 8q0 3 -1.5 7.5t-1.5 6.5t2.5 11t2.5 15q0 1 -0.5 3t-0.5 4q0 13 5 23q-13 5 -17 5q-2 0 -6.5 -0.5
t-7.5 -0.5q-5 0 -7 1q-1 -1 -3 -1h-3q-3 0 -17 -4t-18 -4q-2 0 -5 2t-4 2q-2 0 -4.5 -5t-2.5 -9q1 -5 1 -17q0 -1 -2 -3l-3 -6q-4 -7 -8 -13t-6 -6t-5 5t-9 5q-1 0 -6 -5q-3 2 -3 8l3 7l-2 2q-2 2 -2 4q0 1 0.5 4.5t0.5 5.5q0 5 -2 15q1 1 3.5 13t6 17.5t10.5 5.5q2 0 3 -1
q2 0 4 3.5t7 8t13 7.5q0 -3 -2.5 -5t-2.5 -5q0 -4 4 -8l4 -4q0 -1 -1 -2.5t-1 -3.5q0 -5 4 -6q2 0 4 2q0 2 -1.5 5.5t-1.5 5.5t2.5 7.5t2.5 8.5q0 2 -1 3.5t-1 2.5t6.5 3.5t10.5 2.5q5 0 7 -1q1 1 3 1l2 -1h3q3 0 4 3q2 0 6.5 -0.5t6.5 -0.5t5 0.5t5 0.5q4 0 11.5 -1
t10.5 -1q2 0 6 0.5t6 0.5q5 0 10 -2t7 -4t2 -3t-2 -5t-2 -7q0 -7 7 -9q1 0 2.5 0.5t2.5 0.5q4 0 4 -3q0 -11 -4.5 -35.5t-4.5 -36.5q0 9 -4 9q-6 0 -6 -7q2 0 6.5 -6.5t4.5 -11.5q0 -4 -2.5 -15t-3.5 -11t-3 2q-3 -3 -3 -4t4 -2.5t4 -3.5q-1 -5 -3 -13q-5 0 -5 -1q2 -4 2 -6
l-1 -1v-2t1 -4t1 -7q0 -8 -5 -11q0 -1 0.5 -5t0.5 -5q0 -5 -3 -18.5t-3 -20.5q0 -9 4 -9q3 0 9.5 2.5t9.5 2.5q6 0 9 -18zM50 597h3h-3zM48 593v0v0zM46 594q3 1 3 0h-3zM47 342v0v0zM48 344q1 -3 0 -3v3zM54 593q0 -3 -2 -3q-1 0 -1 3h3zM44 503q-3 0 -3 2q0 1 1 3
q1 0 2 -1t2 -1q0 -2 -1 -2z" />
    <glyph glyph-name="eight" unicode="8" horiz-adv-x="241" 
d="M173 121l1 1q-1 0 -1 -1zM173 190l-1 -1q1 0 1 1zM207 158q0 1 -1 1q0 -1 1 -1zM175 155q0 1 -1 1q0 -1 1 -1zM204 223l1 -1q0 1 -1 1zM91 267l-3 3q-2 0 -2 -2t3 -2q1 0 1 0.5t1 0.5zM145 540q0 41 -37 41q-16 -6 -25.5 -21.5t-9.5 -30.5q0 -17 4 -31t8 -22t13 -22
t13 -22q3 0 6.5 7t7 18.5t7 22.5t6.5 22.5t4 14.5q3 11 3 23zM165 174l2 7q0 82 -39 160q0 2 -2 2q-7 0 -19 -47t-14 -62q-2 -12 -5 -33l-5 -35l-2 -15v2q0 -70 35 -105q3 -3 8 -3q17 0 27 33.5t11 33.5q3 0 4 -1l2 1q0 2 -4 6t-4 8q5 14 5 48zM211 202l-4 -6q0 -1 -1 -2
l-1 -2q0 -1 2.5 -14.5t2.5 -20.5q0 -2 -1.5 -3.5t-1.5 -2.5t0.5 -3.5t0.5 -3.5q0 -2 -1 -3q1 -2 1 -5q0 -6 -3 -18t-3 -16q0 -2 1 -3q0 -2 -3 -4t-3 -4q0 -1 0.5 -3.5t0.5 -4.5q0 -18 -10 -37t-19.5 -29t-10.5 -10q-3 -3 -4 -3t-4.5 2.5t-4.5 2.5q-3 0 -3.5 -5t-2.5 -5
q-1 0 -2 1t-2 1q-2 0 -4 -2t-3 -2t-3 1.5t-3 1.5l-2 -2q-3 -2 -5 -2q-19 0 -47 28q-32 34 -32 75q0 66 12 147q1 5 4 8.5t3 5.5q1 5 3 26.5t5.5 38t10.5 23.5q12 24 12 30q0 4 -9 17.5t-21 31t-16 24.5q-5 9 -9.5 21.5t-6.5 20.5l-1 8l1 2v3q0 2 -0.5 5t-0.5 5q0 46 27 77
t67 31q76 0 76 -94q0 -49 -40 -131q-1 -1 -1 -4q0 -1 0.5 -3t0.5 -3q0 -2 -1 -3q13 -6 23.5 -30t10.5 -33q0 -7 4 -14.5t4 -15.5q0 -2 -1 -3q13 -9 13 -41q0 -6 -1 -6t-1 1l-2 1q-1 -1 -1 -2q0 -3 5.5 -7.5t5.5 -23.5q-3 -2 -3 -4q0 -1 1 -2l1 -2q-2 0 -3.5 -0.5t-2.5 -0.5
q1 0 2.5 -0.5t3.5 -0.5z" />
    <glyph glyph-name="nine" unicode="9" horiz-adv-x="246" 
d="M161 351q6 4 0 4q-1 0 -3 -1zM159 344l-6 9q-4 0 -4 -6q0 -3 3 -4q-1 -1 -1 -4q2 0 4 2.5t4 2.5zM147 238l-1 -1q1 0 1 1zM154 264h-5q1 0 1 -0.5t1 -0.5q3 0 3 1zM153 249q1 0 1 1zM132 301q0 1 1.5 1.5t1.5 1.5q-3 0 -3 -3zM124 275q1 1 3 2q-4 2 -5 2t-1 -1q0 -3 3 -3
zM122 48h-1h1zM127 514q4 4 8 19q-3 0 -8 -2t-8 -2t-11.5 11t-14.5 11q-5 0 -16 -18t-20.5 -47.5t-9.5 -54.5v-19q0 -2 -0.5 -5.5t-0.5 -5.5q0 -12 7 -12l1 1q10 7 18.5 17.5t16.5 25.5t13.5 25.5t13.5 29.5t11 26zM78 587h-1l1 -1v1zM30 370v2q-2 0 -3.5 -0.5t-2.5 -0.5
q1 0 2.5 -0.5t3.5 -0.5zM21 364l-3 3q3 0 3 -3zM185 565l8 23q6 -2 6 -8q0 -2 -1.5 -4t-1.5 -4v-5q0 -13 -7 -50q-3 -15 -6.5 -46.5t-6.5 -47.5v-10q0 -8 -4 -21l-3 -13v-4v-2q2 -8 2 -12q0 -23 -4 -26l-11 8q0 -7 -2 -9l-3 -3q0 -1 1 -3v-1q-5 -5 -5 -7q0 -1 2.5 -3.5
t3.5 -2.5t4 7l1 -1q2 -1 2 -2q0 -2 1 -8t1.5 -10t1.5 -4h1q1 1 2 1q3 0 3 -3q0 -1 -1 -4t-1 -5q0 -1 0.5 -4t0.5 -5q-4 -15 -4.5 -37t1 -52.5t1.5 -42.5q0 -36 3 -69v-31q0 -2 1 -8t1 -8t-4 -6.5t-7 -4.5l-8 3q-21 8 -22 10h-2q-4 0 -4 10v5q0 3 -2 5q-1 1 0 4.5t1 4.5v8
q0 4 1 6q0 2 -1 2q-5 4 -5 71v5q0 1 -0.5 5t-0.5 6q0 4 2 12q0 3 -1 9.5t-1 10.5q0 1 0.5 3t0.5 4v2q0 2 3 4.5t3 3.5q0 3 -2.5 4t-2.5 4q0 5 2 16t2 17q0 2 -2 8t-2 8q0 4 2 10q0 2 -1 5t-1 5t2 8v1q-1 1 -1 2q0 3 2 3l2 -1q2 0 4.5 3t2.5 5t-2 4t-2 3l1 1q3 3 3 4
q1 6 5 6.5t7.5 0.5t3.5 4q-2 0 -3.5 -0.5t-2.5 -0.5l-2 1v1q1 1 1 2q0 4 -10 4l-2 -1q-1 0 -1 2q0 1 3 2.5t3 4.5t-1.5 5t-2.5 4l-2 1q0 1 2.5 2t2.5 3q-5 10 -5 14q0 2 2 8t2 9q0 1 -1 4t-1 5t1 6.5t1 5.5t-1 1q-5 0 -9 -8q-3 -8 -22 -27.5t-33 -19.5q-2 0 -4.5 2t-3.5 2
t-3 -2l-3 -3q-1 0 -4.5 3.5t-5.5 3.5q-1 0 -3.5 -1t-3.5 -1q-5 0 -7 1q-1 1 -7.5 6.5t-12 12.5t-5.5 13q0 1 1 4t1 4q0 2 -2.5 9t-2.5 11q0 3 1.5 10t1.5 10q0 1 -1 3t-1 4l7 25v3q0 1 -0.5 3t-0.5 3t1.5 6t1.5 8q0 21 23 60.5t36 39.5q1 0 3.5 -1t3.5 -1q2 0 5.5 2.5
t6.5 2.5t5 -1q1 0 2.5 0.5t2.5 0.5q7 0 21.5 -8.5t22.5 -18.5l1 -2q2 0 4.5 3t3.5 3q2 0 16.5 -7t16.5 -8zM167 307q-1 0 -1 1zM161 330v-1l-1 1h1zM151 331v0v0zM154 326q-2 1 -2 5q2 0 2 -3v-2zM166 320q2 1 5 -1q-2 -1 -4 -3q-2 2 -2 3zM156 327v0v0z" />
    <glyph glyph-name="colon" unicode=":" horiz-adv-x="178" 
d="M107 198v-1v1q-3 0 -3 -1v-2zM127 228q-1 -13 -12 -13q2 -2 4 -3t2 -4q-2 2 -3 2l-1 -1q0 -2 1 -5l2 -6q0 -10 -12 -10q-4 0 -4 4q-4 0 -5 -2q1 -2 1 -4q0 -3 -7 -3l-2 1q0 1 2.5 4.5t2.5 6.5q-2 0 -4 -1.5t-4 -1.5q-1 0 -2.5 0.5t-2.5 0.5t-2.5 -0.5t-2.5 -0.5
q-3 0 -5 4q2 2 2 4q0 1 -2.5 3.5t-2.5 5.5q0 2 2.5 4t2.5 3t-5.5 9t-5.5 10v-2q1 0 4 10.5t3 12.5q1 0 3 -0.5l2 -0.5q3 3 5 3q1 0 3.5 -0.5t3.5 -0.5q2 1 2 3t0.5 3.5t3.5 1.5l2 -1h2q1 0 3 0.5t3 0.5q11 0 13 -2l-3 -1q-2 -2 -2 -4q0 -1 5.5 -5t5.5 -6q0 -11 4 -19z
M58 224l-1 -1v1q0 1 1 1v-1zM58 218q0 1 1 1zM64 216l1 -1q-1 0 -1 1zM124 205l-3 -3q0 3 3 3zM66 193l2 1l1 -1h-3zM75 183q1 0 1 -1zM62 200q1 3 3 3q0 -3 -3 -3zM107 348v-1v1q-3 0 -3 -1v-2zM127 378q-1 -13 -12 -13q5 0 5 -7q0 -21 -10 -21q-6 0 -6 5q-4 0 -5 -2
q1 -2 1 -4q0 -3 -7 -3l-2 1q0 1 2.5 4.5t2.5 6.5q-2 0 -4 -1.5t-4 -1.5q-1 0 -2.5 0.5t-2.5 0.5t-2.5 -0.5t-2.5 -0.5q-3 0 -5 4q2 2 2 4q0 1 -2.5 3.5t-2.5 5.5q0 2 2.5 4t2.5 3t-5.5 9t-5.5 10v-2q1 0 4 10.5t3 12.5q1 0 3 -0.5l2 -0.5q3 3 5 3q1 0 3.5 -0.5t3.5 -0.5
q2 1 2 3t0.5 3.5t3.5 1.5l2 -1h2q1 0 3 0.5t3 0.5q11 0 13 -2l-3 -1q-2 -2 -2 -4q0 -1 5.5 -5t5.5 -6q0 -11 4 -19zM58 374l-1 -1v1q0 1 1 1v-1zM58 368q0 1 1 1zM64 366l1 -1q-1 0 -1 1zM66 343l2 1l1 -1h-3zM75 333q1 0 1 -1zM62 350q1 3 3 3q0 -3 -3 -3z" />
    <glyph glyph-name="semicolon" unicode=";" horiz-adv-x="121" 
d="M50 198q-3 0 -3 -3zM70 228l-2 -6v-1q0 -6 -10 -6q2 -2 4 -3t2 -4q-2 2 -3 2l-1 -1q0 -2 1 -5l2 -6q0 -1 -6 -10q-9 0 -10 4q-4 0 -5 -2q1 -2 1 -4q0 -3 -7 -3l-2 1q0 1 2.5 4.5t2.5 6.5q-1 0 -4 -1.5t-4 -1.5t-2.5 0.5t-2.5 0.5t-2.5 -0.5t-2.5 -0.5q-3 0 -5 4q2 2 2 4
q0 1 -2.5 3.5t-2.5 5.5q0 2 2.5 4t2.5 3t-5.5 9t-5.5 10q0 -4 2 1q8 20 5 20h2q2 -1 3 -1q3 3 5 3q1 0 3.5 -0.5t3.5 -0.5q2 1 2 3t0.5 3.5t3.5 1.5q1 0 2 -0.5t2 -0.5t3 0.5t3 0.5t5 -0.5t5 -0.5h2l1 -1l-2 -1q-3 -2 -3 -4q0 -1 5.5 -5t5.5 -6v-3q0 -6 4 -16zM18 149v1
l1 -1h-1zM1 224h-1q0 1 1 1v-1zM1 218q0 1 1 1zM7 216l1 -1q-1 0 -1 1zM67 205l-3 -3q0 3 3 3zM62 203v0v0zM9 193l2 1q1 0 1 -1h-3zM18 183q1 0 1 -1zM9 201v0v0zM5 200q1 3 3 3q0 -3 -3 -3zM57 124l-1 3v-16v-17.5t-0.5 -15.5t-2 -17.5t-4 -15.5t-6 -17t-9 -14t-12.5 -15
q-24 11 -24 26v6v3q0 9 4 14q8 14 8 77q0 1 -0.5 3t-0.5 4q2 14 14 14q4 0 11 5.5t12 7.5q3 0 6 -3q-7 -10 -7 -16q0 -5 6 -9t6 -7z" />
    <glyph glyph-name="less" unicode="&#x3c;" horiz-adv-x="248" 
d="M178 299q0 1 1.5 1.5t1.5 1.5q-3 0 -3 -3zM174 276l1 1q-1 0 -1 -1zM160 293zM106 242q1 0 1 1zM54 83q-1 -1 -1 -2t2.5 -3t3.5 -2q2 0 2 4t-4 4q-2 0 -3 -1zM69 66q-1 -3 -1 -5q2 2 2 3q-1 1 -1 2zM69 78q-1 0 -1 -1zM92 86q-1 0 -1 -1zM97 84v-1v1zM104 82v-1l-1 -1
l1 -1v3zM119 65q-3 -1 -7 -5l12 -7q6 0 6 4q0 1 -6 10q-3 0 -5 -2zM140 39l-1 -1q1 0 1 1zM143 55h-1l1 -1v1zM154 19l-1 -1q1 0 1 1zM166 30q-8 -2 0 -2h1q1 1 2 1q0 1 -3 1zM178 14h-2h-1h3zM197 286v-7v-2q0 -6 -26.5 -38t-42.5 -38l-8 -11q-9 -10 -19.5 -21.5
t-13.5 -14.5l-32 -32q0 -2 1 -3q36 -36 71 -54l23 -12q11 -7 12 -12q0 1 7.5 -4t15 -12t7.5 -11q0 -2 -6.5 -8.5t-8.5 -6.5t-3 1q-2 -6 -6 -6h-6h-1l-18 9q-3 2 -13 9.5t-18.5 13t-13.5 5.5q-14 0 -24 14.5t-12 14.5l-4 -4q-2 0 -10 6.5t-8 9.5q0 2 4 2.5t4 2.5t-9 2
q-1 0 -3 -1t-3 -1q-2 0 -4.5 4.5t-5.5 10.5t-5 8l-5 2.5t-5.5 2.5t-2.5 2q0 2 2 7.5t2 6.5q0 3 -3.5 6.5t-3.5 9.5q0 5 11 15.5t28 27.5t28 31q1 1 8 6.5t15 13t12 14.5q4 6 16.5 19t21.5 16l2 6q3 7 5 7q2 -1 3 -1t4.5 7t6.5 7q1 0 2.5 -0.5t2.5 -0.5t2.5 1.5t4.5 1.5v-1
q-1 -2 -1 -4q1 0 5 2l6 3q3 0 12 -22z" />
    <glyph glyph-name="equal" unicode="=" horiz-adv-x="260" 
d="M114 10l-1 1q1 0 1 -1zM16 10h-3h3zM209 41l-2 -3q0 -1 2 -1q0 -3 -3 -5t-3 -4l2 -4l-5 -5q0 -1 0.5 -1t0.5 -1q0 -2 -8 -8.5t-10 -6.5q-7 0 -19.5 3t-17.5 3q-32 0 -49 -5q-2 0 -2.5 2t-1.5 2t-3 -1l-2 -2q-1 0 -3 2t-4 2q-8 -2 -11 -2q-6 0 -10 3q-1 0 -5 -2.5t-6 -2.5
t-4 2l-2 1l-2 -1q-2 -2 -5 -4t-6 -2q-2 0 -3 3t-2 3t-4 -2.5t-5 -2.5q-6 0 -6 6t3 6q1 0 3 -2l3 2q-5 7 -5 9q0 3 7.5 5.5t7.5 3.5l-3 5q-3 5 -3 7q0 4 37 7t63 3q3 0 11 -1t12 -1t16.5 0.5t20.5 0.5q22 0 26 -11zM16 90q1 -2 4 -2q-3 2 -7 2h3zM21 123l1 1l1 -2
q1 -2 3.5 -4t5.5 -2q10 0 10 -7l-1 -1l-1 1q-2 1 -3 1t-4 -1.5t-5 -1.5q-4 0 -7 5.5t-3 7.5zM39 99q1 -1 3 1q-1 1 -1 3l-3 -3zM45 118v-4q0 -4 3 -7q1 0 1 6q0 3 -3 6q-1 0 -1 -1zM119 91h-2q0 -2 4 -6q0 6 -2 6zM188 82q0 -1 3 -1q0 1 -3 1zM29 78l-9 -4q-2 0 -6 -1t-6 -1
q-12 0 -12 6q0 1 2 3t2 3t-3 3.5t-3 3.5q0 4 4 7l5 2q0 2 -0.5 5t-0.5 4q0 11 27 11q10 0 28 -2t24 -2q1 0 27.5 -2t50.5 -4t24 -4q0 -7 1 -9t4.5 -5t7.5 -8l-2 -2q-3 -1 -3 -3q0 -1 0.5 -2t0.5 -2q0 -5 -5 -5q-1 0 -4 0.5t-5 0.5l-2 -1h-4.5t-8.5 -1t-11.5 -1.5t-13.5 -0.5
t-15 -0.5t-16 -0.5q-5 0 -26.5 8t-38.5 8q-1 0 -4.5 -2.5t-5.5 -2.5l-1 1h-2zM5 24v-1l-1 1h1zM201 32q-2 0 -2 -6q2 0 2 6z" />
    <glyph glyph-name="greater" unicode="&#x3e;" horiz-adv-x="220" 
d="M58 68v0v0zM23 29q1 0 1 1q-1 0 -1 -1zM71 89q1 0 1 1q-1 0 -1 -1zM29 31h1h-1zM7 27q5 0 5 4t-3 4t-3 -5v-1q1 -1 1 -2zM-5 27l7 4q0 3 2.5 6.5t2.5 5.5q0 1 -0.5 1t-0.5 1q0 7 6 15.5t11.5 13.5t5.5 4q0 1 -1 3v2l11 11q1 0 3 -0.5l2 -0.5q3 0 3 2q0 1 -1 1l-1 2
q0 4 4.5 11.5t9.5 13t11 12t7 7.5q41 49 41 51q-26 19 -35 25q-5 4 -17.5 16t-22.5 21t-20.5 20t-16.5 20.5t-6 15.5q0 2 1 3q0 1 -1 3l-2 2l4 2q3 2 7.5 5.5t5.5 7.5q2 8 10 8l1 -1v-7q0 -7 4 -7h4q4 0 11 -5t17 -14.5t17 -17t17 -18.5t12 -13q8 -9 22.5 -18t23.5 -19.5
t13 -29.5q-7 -7 -7 -10q0 -2 1 -3q0 -4 -19.5 -28t-28.5 -33q-6 -6 -14 -17.5t-14 -18t-13 -6.5q-1 0 -5 0.5t-6 0.5t-2 -2q0 -4 3 -4l2 1h3q3 0 3 -4t-6 -12t-12 -15l-6 -7q-14 -36 -16 -36q-7 0 -12.5 1.5t-9 4.5t-6.5 6t-4 6l-2 6t-1 4v1z" />
    <glyph glyph-name="question" unicode="?" horiz-adv-x="218" 
d="M161 532q0 1 -1 1zM153 486l4 4q-4 0 -4 -4zM55 245l-3 -3q3 0 3 3zM50 188l1 1q-1 0 -1 -1zM27 239q1 1 1 3q-1 0 -1 -3zM17 208q0 1 -1 1zM155 569l5 -7q13 -24 13 -41q0 -36 -3 -43q0 -1 -5 -20.5t-18 -42.5q-4 -8 -25.5 -38.5t-37 -61.5t-15.5 -58v-3q0 -17 -9 -17
q3 -6 3 -13t-3 -14l-2 -8q5 -18 5 -24q0 -9 -6 -14t-13 -5q-1 0 -2 1h-2l-1 1q-1 0 -1 -1q-2 1 -5 1.5t-4 1t-1 2.5v2q-2 2 -5.5 4t-5 4t-1.5 6q0 6 2.5 16t2.5 14l-3 3q-2 4 -2 11q0 1 2.5 4t2.5 5q0 1 -2 5t-2 6q0 3 3 14.5t4 16.5q0 4 9 34t13 30q-3 0 0 -1q1 0 5 -1
l13 -5q2 0 4 2q-6 6 -12 6q-2 0 -4 -2v1l-1 2l1 2v2t-1 3l-1 2q0 2 13 25q2 3 21.5 31t29 50.5t9.5 44.5q0 4 -0.5 12t-0.5 12v2q0 8 -5 16t-11 8q-20 -4 -26.5 -9t-18.5 -20q1 1 -1 -4q-10 -21 -10 -31q0 -6 1 -17t1 -16q0 1 -1 0t-3.5 -4t-6 -6t-10 -5t-13.5 -2
q-2 0 -3.5 1t-2.5 1h-2q-9 0 -9 44q0 52 42 94q2 2 7 4t7 5q2 0 8.5 3.5t18.5 6.5t26 3q13 0 26 -9t19 -22zM66 41l-5 1q0 -1 2.5 -7t2.5 -10q0 -8 -2 -11q0 -2 -2 -3t-2 -2v-3v-1q-2 0 -4 0.5t-3 0.5l-3 -6q-2 -6 -4 -6q-1 0 -2.5 1.5t-3.5 1.5q-1 0 -3 -1.5t-3 -1.5
q-22 10 -22 13q0 1 2 3l1 1q0 1 -5 6t-5 6t1 3v1q-1 1 -1 2q2 22 11 26h2q7 9 9 9q0 -6 4 -6q3 0 6 3t4 3t3 -3l12 -3q11 -4 11 -14q0 -2 -1 -3zM13 434zM35 156zM32 156z" />
    <glyph glyph-name="at" unicode="@" horiz-adv-x="372" 
d="M121 489q1 0 1 1zM117 493q2 0 -1 1l-2 1l-12 -6q0 -9 2 -9q9 0 13 13zM103 450h1l2 1h-3t0 -1zM91 449q3 -3 3 -1v1q-1 1 -1 2l2 4q0 5 -3 5q-1 0 -4 -4.5t-5 -5.5q0 -4 2 -4q1 0 2 1.5t3 1.5h1zM84 440h1l-1 1v-1zM74 403l-5 -3q0 -4 10 -4q0 9 -5 10v-3zM72 382
q0 1 -1 1zM68 408q1 -2 5 -2l-3 3q-1 -1 -2 -1zM77 412v1l-1 -1h1zM76 424h-5l-2 -1q0 -4 5 -4q1 0 3 2q0 2 -1 3zM86 468h-1v-1q1 0 2 1h-1zM66 410l3 3q-3 0 -3 -3zM64 417q3 2 5 0q0 1 1 1l1 2q0 1 -2 2l-2 2l1 1v1q0 3 -3 5q-1 0 -2 1q-4 0 -4 -3q1 -4 5 -12zM65 399
q1 0 1 1zM66 393l1 1q-1 0 -1 -1zM56 380q1 2 7 6l-2 1q-2 0 -6 -4zM59 371q0 1 -1 1zM56 346h-1h1zM50 252q0 6 -10 9q-5 0 -5 -3q0 -2 3 -4q6 -2 12 -2zM43 237q1 3 3 5h-1q-1 1 -2 1q-2 0 -2 -3q0 -1 2 -3zM39 216q1 0 1 1zM40 287l-1 1zM44 290h-3h3zM113 19h1
q10 -4 15 -4l2 2q0 3 -10 6q-8 0 -8 -4zM28 225l3 1h3zM29 212v2v1v-3zM26 212l3 -3q0 3 -3 3zM25 216q1 -1 3 1q-1 1 -1 3l-3 -3zM22 257q6 -4 9 -5q1 1 1 2q-2 3 -8 6q-3 0 -3 -2q0 -1 1 -1zM21 269l-1 1q0 -7 3 -7q2 0 4 2q-1 1 -6 4zM61 410l-1 2q-1 3 -2 3l-4 -8
q4 0 7 3zM142 512l5 -6q0 -7 12 -12l-4.5 -4.5t-6.5 -5.5t-5 -2q-8 -1 -11.5 -14.5t-15.5 -19.5l-7 -19q-10 -20 -10 -19l1 -2v-2l-2 -4q-1 -3 -3.5 -9.5t-5 -14t-4 -15.5t-1.5 -13q0 -6 -6.5 -8.5t-6.5 -3.5l1 -4q2 -4 3 -7l1 -3q0 -2 -2 -8t-2 -8v-4q0 -7 -2 -19t-2 -18
q0 -2 0.5 -5.5t0.5 -5.5q0 -5 -3 -18t-3 -15q0 -43 6 -80q0 -10 4.5 -29.5t22 -42.5t43.5 -23q4 0 20 4q10 2 19.5 7t23 15t16.5 12l30 29q10 0 18.5 -12t8.5 -20q0 -6 -15 -21q-58 -58 -109 -58q-3 0 -7 1t-7 1q-2 0 -7 -0.5t-8 -0.5q-11 0 -37 15q-69 38 -69 129
q0 1 0.5 3t0.5 3t-1 2.5t-1 2.5q0 2 1 4t1 3t-1 4t-1 5v5q0 14 -1 21l3 15q-2 2 -2 4q0 4 7 15t7 16l-7 3q-7 3 -7 8q0 3 2 8t2 8q0 27 7 27q0 1 -0.5 2.5t-0.5 2.5h1h4q1 0 7 2q-13 3 -13 8q4 10 18 10q8 0 17 -7l2 1q0 3 -1.5 3.5t-1.5 1.5t2.5 3t2.5 4l-3 6q-2 6 -2 10
q-17 0 -17 -3q0 -6 8 -6q1 0 3 1l2 1l1 -1q0 -9 -10 -9l-6 4l-10 8q1 3 3 7.5t4 7.5l2 3q0 1 -2 5.5t-2 6.5t2.5 7t4.5 5q1 0 2.5 -1t2.5 -1t1 1t-1 3v2l-1 2q-1 1 -1 2t7.5 4.5t9.5 3.5l-3 1q-3 1 -7 3.5t-4 5.5q0 1 2 3.5t2 4.5l-1 1v2q0 5 7 14q3 -1 4 -1t1 2t-1 4.5
t-1 3.5t3 3t3 4q0 1 -0.5 2t-0.5 2q4 15 11 15q2 0 2 -5q1 -1 1 5q0 1 -1 3l-1 2q0 3 5 3q1 0 2.5 -1t2.5 -1l1 1q0 1 -1 5t-1 5q0 2 1 3l2 -1l4 -3l1 2q1 1 4 2.5t9 1.5q0 2 -0.5 7t-0.5 8q0 11 5 11q1 0 3 -1t4 -1q3 0 3 3q0 1 -1 2t-1 2q0 5 7 5q16 0 16 -22zM218 201h-3
h3zM209 345v-3q1 -2 3 -4v1q1 1 1 2q0 4 -3 4h-1zM207 331l-1 -3v1q1 1 1 2t-1 3q0 -4 1 -3zM189 353q1 0 1 1zM182 328l-1 1q0 5 -7.5 10.5t-13.5 5.5q-4 0 -8.5 -4t-6.5 -4t-5 2.5t-4 2.5q-2 0 -2 -3q0 -6 7 -8q0 -3 -8.5 -14.5t-8.5 -18.5q0 -2 1 -6t1 -6q0 -5 -3 -14
t-3 -12q0 -2 2 -3q3 -2 3 -3q5 1 11 7.5t13.5 16.5t13 18.5t12 19.5t7.5 12zM122 327q-1 0 -1 -1zM125 333h-1l1 -1v1zM181 347l-1 -1q1 0 1 1zM116 346q1 0 1 1zM111 346q1 0 1 1zM93 278q0 1 2 3l-1 1l-3 -3zM90 308l1 -1q0 1 -1 1zM82 249h3h-3zM262 484l1 1q-1 0 -1 -1z
M206 493q0 3 -1 3q0 -4 1 -3zM167 507v1v-1zM333 336q1 -1 1 -6q0 -2 0.5 -7t0.5 -8q-2 -6 -5 -18t-5 -18l-9 -22.5t-9 -25.5l-2 -5q-2 -6 -6 -14.5t-9 -17t-12 -14.5t-14 -6q-1 0 -2.5 2t-3.5 2q-4 0 -8 -4t-6 -4q-13 0 -28.5 12.5t-19.5 28.5q-1 3 -3.5 12t-4.5 15l-2 6
q-1 0 -19 -19t-29 -19q-1 0 -3 0.5t-4 0.5q-1 0 -4 -1.5t-5 -1.5t-7 3.5t-8 3.5h-2q-6 0 -2 -1q-13 3 -22 39q2 0 2 5q0 2 -1.5 5t-1.5 5q0 4 1.5 9.5t1.5 7.5t-1 3q4 14 4 24q0 2 -0.5 4t-0.5 3q8 24 18 34l3 7q15 18 19 18q1 0 2.5 -2t2.5 -2q-2 0 3 5t14.5 10.5t20.5 5.5
q7 0 16.5 -4.5t9.5 -8.5v-5q0 -9 3 -9q1 0 3 1t3 1q5 0 13 -8q0 -2 -3 -2q-9 3 -11 3q-5 0 -5 -6q0 -1 1 -3h2q1 0 3 -0.5t3 -0.5q2 0 6 2t6 2q3 0 7.5 -8.5t4.5 -14.5q0 -2 -1 -2h-1l-2 1q-1 0 -6 -2t-10 -2q0 -2 11 -7.5t11 -12.5q0 -1 -1 -3l-1 -2q0 -2 1.5 -5t1.5 -4
t-0.5 -3.5t-0.5 -4.5t0.5 -6t0.5 -6q0 -46 12 -46q3 0 4 3q39 78 39 141q0 9 -5.5 25.5t-6.5 25.5q-3 20 -30 48t-60 28h-6q-6 0 -9 2q-1 0 -3 -1.5t-3 -1.5t-1.5 3t-2.5 3l-1 -1v-2q0 -1 -3 -7q0 5 -2.5 9t-2.5 7v3q0 3 -3.5 7.5t-3.5 8.5q0 -2 10 8q3 3 5 4q2 0 6.5 -4
t5.5 -4q5 0 8.5 5t7.5 5q9 0 25.5 -6.5t25.5 -6.5q10 0 20.5 -8.5t21.5 -22.5t13 -16q42 -52 42 -98q0 -8 -2 -23t-2 -20v-1zM148 333v0v0zM149 334zM208 373h1l-1 -1v1zM38 328q2 -3 -1 -3q0 3 1 3zM56 321v0v0zM59 321h-5l3 3zM107 489l1 1v-2q-1 -2 -1 -3q-2 0 -2 1
q0 3 2 3zM106 486v0v0zM55 394q-5 3 -5 5q1 -1 3.5 -2t3.5 -1zM160 493v0v0z" />
    <glyph glyph-name="A" unicode="A" 
d="M126 496v1l1 -1h-1zM105 489l-1 -1q1 0 1 1zM114 480l-1 1q0 -1 1 -1zM73 545q0 -1 -1 -1zM186 149h-3h3zM62 133l1 -1q0 1 -1 1zM50 340l1 -1q0 1 -1 1zM121 337l-1 1q0 -1 1 -1zM132 319l1 1q-1 0 -1 -1zM133 454q0 1 1 1zM82 420l-1 -1q1 0 1 1zM75 349l-1 1
q0 -1 1 -1zM52 345q0 1 -1 1q0 -1 1 -1zM126 518q0 3 -1 3q0 -2 1 -3zM128 479q3 0 3 1h-1l-2 1q-1 -1 0 -2zM180 158q-3 -3 -3 -5l2 2zM43 323q0 3 -1 3q0 -2 1 -3zM157 195q-7 0 -7 -1l2 -2q2 0 5 3zM129 327q0 4 -3 4l-2 -1q0 -1 1.5 -3t1.5 -3q2 2 2 3zM100 459l-1 3
q-8 0 -8 -3q0 -5 5 -5l2 2q2 1 3 1q3 0 3 -3q0 -1 -2 -3l-3 -2q1 -1 2 -1q2 -1 4.5 -3.5t5.5 -2.5l1 1q0 1 -1 2.5t-2 2.5l-1 2l4 1q3 1 3 4q0 6 -7 6q-1 0 -3.5 -1t-4.5 -1zM58 169l-5 -7q0 -2 -0.5 -7t-0.5 -8t2 -3q16 0 36.5 7t27.5 7q2 0 8 -1t8 -1q11 0 11 9q-1 2 -1 5
q0 2 3 4t3 3q0 3 -2.5 7t-2.5 7q0 5 3 9q-2 2 -2 4q0 3 5 6.5t5 4.5q0 11 -13 31q-2 -4 -2 -6q0 -1 2 -3q-1 -1 -1 -2q-1 1 -2 1h-2l-2 -1q-1 0 -10 23q0 1 1 2.5t1 2.5q0 17 -7.5 48t-7.5 32q0 2 1 4.5t1 3.5t-2 3t-2 4v3q0 11 -3 23.5t-6 20.5t-3 9q0 2 1.5 6t1.5 5
q-5 9 -8 16q-12 -90 -15 -93q-1 -1 -1 -2v-2q1 -2 1 -3q0 -23 -4 -55t-9.5 -67.5t-7.5 -49.5zM137 410l-3 -6q0 3 -7 10t-10 7q-2 0 -2 -2t7 -9t9 -7q1 0 3 0.5t3 0.5q2 -4 2 -7q0 -1 -1.5 -5t-1.5 -5q-6 6 -11 12q-1 2 -4 2h-1l-1 -1h-2q1 0 4 -1t5 -1v-1l-1 -1
q0 -2 4.5 -6t4.5 -9v-3h-2v-1v1l1 2q4 0 4 -1q0 -2 -1 -3v-2q3 2 7 2t6.5 1t2.5 4v3q-1 3 -1 5l3 2q-1 2 -2 8t-3.5 9t-7.5 3l-1 -1h-3zM140 298q0 -3 -3 -3l3 6q-1 1 -1.5 4.5t-0.5 6t-2 2.5l-1 -1v-2q0 -2 -0.5 -5t-0.5 -5q0 -4 6 -3zM122 445q-11 0 -12 -3l4 -4q2 0 3 4
t4 4q0 -2 1 -1zM146 272l-4 -3q2 -1 3 -4t5 -3v3q0 1 -2 7q9 0 9 16q0 1 -1 3l-1 2q0 1 2 2l2 1q4 2 4 12q0 4 -4 4q-3 0 -3 -4v-3q0 -2 -1.5 -6.5t-1.5 -7.5q0 -1 1 -3t1 -3q0 -2 -3 -2q-2 0 -2.5 1.5t-0.5 4t-1 3.5l-6 -3q2 -2 3.5 -6t7.5 -10q-5 0 -6 -3h-2q0 -1 1 -1v3z
M113 511v3l1 -1h-1h-1v-3l-1 1h2zM142 439l5 -21q12 -12 12 -37q0 -7 -4 -7h-2q-3 0 -3 -3l3 -3q0 -3 -3 -3q-1 0 -4 1l-2 2q-1 0 -2 -2l-2 -2l-8 8q-1 -1 -2 -1h3q0 -1 -6 -7h-2v-1v3q5 -3 9 -3q1 0 3.5 1t4.5 1q3 0 3 -4q0 -1 -0.5 -1t-0.5 -1q0 -2 3 -2t4 5t3 5l6 -14
l-7 -12q9 -7 10 -11q-1 0 -3 2t-4 2q-3 0 -3 -5q0 -2 3 -4.5t5 -2.5q1 0 2.5 1t2.5 1l8 -34q7 -28 7 -47q0 -1 -0.5 -2t-0.5 -2l4 -11q5 -12 5 -18q0 -3 -2 -3.5t-2 -1.5l14 -42l1 -9q6 -14 10 -46v-1q-1 -1 -1 -2q6 -27 14 -59q0 -4 -13.5 -7t-18.5 -3t-6 4q-1 -1 -3 -1
q-8 0 -15 47t-13 47q-2 0 -5.5 -1.5t-4.5 -1.5q-3 0 -4 1q-3 -1 -8 -1q-2 0 -8 0.5t-8 0.5q-64 -13 -64 -21q0 -30 -2 -39v-1l1 -2v-6.5v-7v-5.5t-1 -4.5t-2.5 -3.5t-4 -2.5t-5.5 -0.5h-3l-2 1q-1 0 -3 -1t-3 -1q-8 0 -13 2t-7 7.5t-2.5 8.5t0 13t0.5 12q2 12 2 20v6
q0 4 1 11t1 10q0 2 -1 6t-1 7q1 18 5.5 65.5t4.5 67.5q0 3 -1 4q3 8 6.5 28.5t6 36.5t4.5 16q1 0 3.5 -1t3.5 -1t1 1t-1 3l1 2l1 2q0 2 -4 3.5t-5 5.5q0 2 10 12q-9 0 -9 16q0 3 2 9t2 10v7q0 2 1 6t1 6q0 1 -0.5 2.5t-0.5 3.5q0 47 16 88q1 2 2 2q0 1 -1 3v1q0 1 3 3l6 4
l3 1l5 -4q3 0 3 3l-1 1q-1 0 -3 -2q0 2 -5 12q2 0 2 2q0 3 -3 3l-1 -1q0 -1 2 -3h-1l-2 -1q-5 0 -5 3q6 25 19 25h2q4 0 11 2.5t7 4.5v1q-1 1 -1 2t2 3q2 -2 7 -5t9 -6t4 -6q0 -5 -6 -5q0 -1 1 -1h2q10 -2 10 -23v-3q0 -2 1.5 -6.5t1.5 -7.5q0 -1 -0.5 -3t-0.5 -3
q0 -4 4.5 -16.5t4.5 -14.5q0 -3 -3 -3q-1 0 -5 2.5t-5 2.5q-4 0 -4 -4q0 -2 4.5 -4.5t7.5 -2.5h2q5 0 5 -12q0 -1 -2 -3q0 4 -5 4l-2 -1q2 -6 2 -8t-1.5 -2.5t-4 -1t-4.5 -2.5q1 -3 1 -4q-1 -1 -1 -3q0 -10 20 -17z" />
    <glyph glyph-name="B" unicode="B" horiz-adv-x="240" 
d="M154 111h-1v-1q1 0 2 1h-1zM143 68q-1 0 -1 -1q1 0 1 1zM148 68h-1v-1q1 0 2 1h-1zM181 179l1 -1q0 1 -1 1zM106 31l-1 -1q1 0 1 1zM115 344v-1v1zM122 345h-1v-1q1 0 1 1zM125 336l1 -1q0 1 -1 1zM145 421q0 -1 1 -1q0 1 -1 1zM166 225h-3h3zM177 190l1 1q-1 0 -1 -1z
M47 258q1 0 1 1q-1 0 -1 -1zM162 240q0 -4 1 -3q0 3 -1 3zM37 249q0 3 -1 3q0 -2 1 -3zM182 153q-1 0 -1 -1q0 -3 2 -3q1 0 3 1q0 2 -4 3zM160 76v3l-1 -1q-1 -2 0 -3q0 -1 1 -3v4zM182 107l3 -1q-2 2 -6 2l-2 -2q1 -2 2 -2zM166 416h-2l-2 1q-4 -2 -6 -6q10 0 10 5zM114 68
h-2l-1 1v-3l9 -3q1 2 1 3q-1 3 -4 3q-2 0 -3 -1zM161 431q0 -9 3 -9q2 0 2 8q0 4 -3 7q0 -4 -2 -6zM135 357q0 5 -4 5q-1 0 -1.5 -1.5t-1.5 -1.5q-3 0 -3 -3q3 -3 6 -3q4 0 4 4zM34 468q0 -5 10 -5q-1 0 1 2l2 3q0 1 -4 3.5t-5 2.5t-4 -6zM29 531q-2 0 -2 -5q0 -1 2 -2.5
t3 -3.5l2 -1q3 0 6.5 3.5t3.5 7.5h-2q-3 -1 -4 -1t-4 1t-5 1zM134 238l-3 -1q0 5 -3 5q-2 0 -5 -7q-4 4 -7 8t-4 5.5t-2.5 4.5l-1.5 3q-1 3 -2 1q-1 -1 -1.5 -3.5t-2.5 -2.5q-4 0 -11.5 5.5t-10.5 5.5q-5 0 -8.5 -1t-5 -3.5t-2 -4t0 -6.5t0.5 -6q0 -30 5.5 -83t5.5 -79
q0 -14 4 -14q1 0 4 2t5 2q1 0 3 -1t3 -1q4 0 8 6.5t6 6.5q1 0 4 -3t5 -3l3 4l5 5q0 1 -0.5 3t-0.5 3q0 2 15 20l4 5q1 1 1 3l-1 1v3q0 2 2 6.5t2 7.5v4q0 3 4 5l3 1l-2 8q-2 8 -2 13q0 3 0.5 7t0.5 6l-6 21v3q0 3 -2 7.5t-5 11t-5 10.5q2 2 2 4t-2 2zM110 297l-1 28
q4 -4 4 -6q0 -7 -5 -7q-2 0 -5 2.5t-4 2.5h-1v2q0 3 -2 3q-5 0 -5 -5h7v-1l-1 -2l7 -8l7 -9q0 -1 -1 -3v-1l17 -10q1 0 3 -2l-1 -1h-2t-2.5 1t-2.5 1t-3 -1t-3 -1l-2 2q-1 2 -2 2l-1 -2l-1 -3q-1 -1 -3 -1t-3 -1q6 -4 10 -4q1 0 3.5 0.5t3.5 0.5t1.5 -3t2.5 -3t4.5 5.5
t5.5 5.5q5 0 5 -6q0 -2 -2 -4t-2 -3l1 -2q1 -1 1 -3q0 -6 -7 -13l10 -8q1 0 1.5 1t1 2.5t2.5 3.5v1l1 2q0 1 -1 3t-1 3q0 5 8 8q11 -11 11 -18q0 -1 -3.5 -2t-3.5 -3l1 -1q1 1 3 1t4.5 -1t3.5 -1t1 0.5t1 0.5q8 -4 8 -8v-2q0 -7 6 -15l-3 -3l2 -2v3q4 -2 8 -14.5t4 -22.5v-3
q2 -8 2 -24q0 -18 -2 -18h-3q-3 0 -3.5 -1t-1.5 -3.5t-4 -5.5h3q0 -1 -3 -2t-3 -3t7 -2.5t7 -3.5q0 -25 -27 -47l-4 -2q-4 -8 -15.5 -20t-17.5 -12q-2 0 -10 16q0 1 1 3q-1 1 -2 1q-2 0 -2 -6q0 -3 2.5 -8t2.5 -6q0 -6 -12 -10t-17 -4q-1 4 -2 4l-2 -3q-1 -2 -3 -2
q-9 -3 -10 -3q-5 0 -10 3.5t-7.5 7t-3.5 3.5l-2 -1h-3q-7 0 -11.5 9.5t-6.5 20.5t-3 22l-1 11q0 1 -0.5 3t-0.5 3q0 5 0.5 17t0.5 18q0 8 -2 24t-2 24q0 2 0.5 7t0.5 8q0 1 -0.5 5t-0.5 5q0 2 0.5 6.5t0.5 7.5q0 2 -1.5 6.5t-1.5 6.5l1 2v3q0 10 -2.5 28t-2.5 27v21
q0 1 -1 5t-1 5t0.5 4t0.5 4q-3 6 -3 11q0 1 0.5 3t0.5 3q0 2 -0.5 4.5t-0.5 3.5q0 3 1 4q-5 22 -6.5 45t-0.5 60t1 44q0 2 2 8q-1 2 -1 5q0 2 1 5t1 4t-1.5 7t-1.5 9v1l1 2q2 0 4 -2.5t3 -2.5t1 2t-3 5t-3 4q0 12 6 12l5 -7q1 0 5.5 5.5t9.5 5.5t16 0.5t16 0.5
q37 0 67 -24.5t38 -55.5q10 -19 10 -64q0 -3 -2 -5.5t-2 -3.5q2 -1 2 -4t-1 -4q0 -1 1 -3t1 -3q-1 -3 -2.5 -11t-3 -13t-5.5 -9l-2 2q-4 3 -4 4l2 3q2 3 2 4v1l-1 1l1 1v2q0 4 -4 4l-1 -1h-2h-2q-1 0 -1 -4q0 -18 6 -18l2 1q1 1 3 1v-3q0 -7 -10 -24t-14 -17t-6 5.5t-5 5.5
q-1 -2 -1 -3q2 -5 5 -5v-1l-1 -2q0 -3 3 -6q0 -1 -6 -1q-3 0 -3 1l1 1v2l-1 1q-2 0 -4.5 -1.5t-3.5 -1.5t-3 1l-1 1q-1 0 -3 -1t-3 -1l-3 3q1 3 4.5 4t3.5 2q0 4 -4 7t-8 3h-2q0 2 6.5 2t6.5 5q-2 0 -5 -3v1q-1 1 -1 2q0 18 17 35q4 4 4 1q0 1 -0.5 4t-0.5 4q0 3 6 13l-1 1
q-2 1 -2 2t3.5 1.5t3.5 2.5v1q-1 0 -2 -1t-2 -1q-3 0 -3 8q0 5 2 7q-5 9 -8.5 29.5t-13.5 34t-35 23.5q-9 4 -22 4q-12 0 -12 -3q5 -15 5 -23l-1 -2q-1 1 -3 1l-2 -1h-3h-4q-4 -2 -5 -3l1 -2q1 -2 1 -3q0 -5 -5 -5q-1 0 -3.5 3.5t-4.5 3.5l-1 -1q1 -3 6 -8t9 -5q1 0 4 2.5
t4 2.5t1 -1q0 -2 -2.5 -3.5t-2.5 -2.5q0 -6 7 -8.5t7 -7.5v-7q0 -55 5 -67q-1 -2 -1 -5q0 -7 1 -23t1 -23v-7q0 -4 1 -12t1 -12v-4q0 -6 3 -6q4 0 10 5.5t10 10.5l4 6q1 0 5 -5.5t6 -5.5q1 0 3.5 1t3.5 1z" />
    <glyph glyph-name="C" unicode="C" horiz-adv-x="234" 
d="M30 65l1 1q-1 0 -1 -1zM131 18h-1v-1q1 0 1 1zM26 112l-3 3l-1 -1q0 -3 2 -3zM99 -18l-1 9q-3 0 -7.5 -2t-6.5 -2t-5.5 3t-4.5 3h-2q-3 -2 -4 -1q-2 2 -7.5 3.5t-9.5 4t-4 7.5l1 1q0 1 1 2.5t2 3.5q0 2 -5 2q0 -4 -3 -4t-3 3v2q1 1 1 2q-12 3 -13 10v3q-2 13 -16 33
q0 1 1 3t1 3l-4 4v3l1 2q0 3 -1.5 8.5t-1.5 7.5l3 15q0 3 -3.5 42t-3.5 61v5q0 2 -1 6t-1 6q0 3 0.5 7t0.5 7q-1 8 -1 24q0 3 0.5 10t0.5 11q-1 2 -1 6t2 6q-1 1 -1 3q0 1 0.5 3t0.5 3t-1 3t-1 3t0.5 3t0.5 3t-1 3v1q0 1 1.5 1.5t1.5 1.5q0 3 -2 9t-2 7q2 4 2 7q0 2 -2 8
q0 1 1 4t1 5v6v9v26q0 19 2.5 37.5t7 42t6.5 36.5q4 25 21 49t25 24h2q1 0 8 3.5t14 3.5q2 0 5.5 -1t4.5 -1q2 0 4 0.5t3 0.5q4 0 10 -4l6 -4q2 0 3 1q2 0 8 -5t11 -10l5 -5q13 -19 13 -21v-3l4 -11q5 -12 5 -17q0 -1 -1.5 -4t-1.5 -4t1.5 -5.5t1.5 -6.5q0 -1 -1 -5t-1 -6
l1 -2q2 -2 2 -3v-2q-1 -2 -1 -3q0 -2 1 -3q-2 -6 -2 -9v-5q0 -5 -1.5 -8.5t-5 -4.5t-6 -1.5t-8.5 0t-8 0.5q-1 0 -3 1t-3 1t-2 -1l-9 6v2q0 1 -0.5 3t-0.5 3q0 3 1 9t1 9v20v5q0 12 -5.5 21.5t-11.5 15.5l-7 7q-6 6 -11 6q-13 -1 -28 -48q0 -9 -5.5 -27.5t-5.5 -28.5v-19
q0 -2 -1 -6.5t-1 -6.5q0 -1 0.5 -3t0.5 -3q0 -4 -1.5 -12.5t-1.5 -13.5q0 -27 -0.5 -82t-0.5 -82q0 -24 3 -70.5t3 -68.5v-2q0 -4 1.5 -10t1.5 -9v-2q4 -5 11 -21l2 -4q1 -7 8 -12t15 -5q6 0 11.5 2.5t9 7t6.5 10.5t4.5 12t3 12.5t2 11l1 9l0.5 4.5v3q0 86 15 86q2 0 2.5 -4
t3.5 -4q2 0 2 5l-1 2q0 5 8 5q7 0 12.5 -4.5t8 -10t3.5 -14t1.5 -14t-0.5 -13.5v-8q0 -4 -3 -10t-3 -9q0 -2 3 -5q0 -6 -4.5 -10t-5.5 -6q0 -1 2.5 -4t2.5 -6q0 -21 -6 -36.5t-13 -24.5l-7 -8q-3 -11 -13 -11q-1 0 -2.5 1t-2.5 1q-2 0 -6 -4t-8.5 -9t-5.5 -6q-1 0 -6 0.5
t-7 4.5q1 0 2 1t2 1t1 -1l2 -1q3 0 3 4l-9 3q-1 0 -1 -8z" />
    <glyph glyph-name="D" unicode="D" horiz-adv-x="249" 
d="M22 157l-1 1q0 -1 1 -1zM23 134q1 0 1 1q-1 0 -1 -1zM147 419l-1 -1q1 0 1 1zM27 207q0 -1 1 -1q0 1 -1 1zM27 197l1 -1q0 1 -1 1zM28 185l1 1q-1 0 -1 -1zM167 304q-2 -2 -2 -3q1 -5 4 -5l1 2v2t-3 4zM144 409q-11 43 -48 114q-4 7 -8.5 11.5t-7 6.5t-6.5 3.5t-5 1.5h-6
h-5q-5 0 -5 -36v-21q0 -15 -0.5 -47t-0.5 -47q0 -32 1 -96.5t1 -85.5v-18q0 -5 1 -16t1 -16v-9q0 -2 1.5 -8t1.5 -8q0 -1 -1 -3t-1 -3t0.5 -3t0.5 -3t-0.5 -3.5t-0.5 -3.5q0 -5 2 -18t2 -20q0 -3 -1.5 -7t-1.5 -6q0 -4 3 -4q5 0 19 14l15 13q4 2 9.5 10.5t8.5 16.5l3 7
q11 11 19 44q12 54 14 57q-2 2 -2 6t1.5 10t1.5 10q0 3 -1 4q0 7 0.5 20.5t0.5 21.5q0 2 -0.5 5t-0.5 5t4 6.5t4 7.5q0 2 -1.5 3t-1.5 2v4q0 4 -4.5 20.5t-4.5 24.5q0 4 2 8t2 5q0 2 -3 5t-3 6l1 4q1 3 0 5zM177 298h3l-1 -1v3h-3l1 1v-1v-2zM15 106l8 -8l1 1q2 1 3 1
t3.5 -2t3.5 -2q6 0 6 5q0 3 -4 5t-6 2q-1 0 -3 -1.5t-4 -1.5q-4 0 -4 5q3 9 3 11q0 1 -2.5 2.5t-2.5 3.5t1 5t1 4q0 3 -2 5q-3 3 -3.5 10t-2.5 10q0 2 1 6.5t1 6.5t-0.5 7t-0.5 6q0 2 3 2.5t3 2.5q-11 0 -11 43v18v25v6q0 3 -1 9t-1 8t1 6t1 7q0 14 -1 42.5t-1 41.5v9
q0 3 -0.5 8.5t-0.5 8.5q0 8 1.5 27.5t1.5 25.5q0 1 -0.5 4t-0.5 5q0 3 0.5 9t0.5 9v6l3 62q0 1 -1 3t-1 3q0 9 7 15t15 8l7 2q2 1 7 1q8 0 20 -6.5t20 -6.5q57 0 94 -128q19 -59 19 -94q0 -6 1.5 -17.5t1.5 -17.5q0 -3 -0.5 -8.5t-0.5 -7.5q0 -6 0.5 -15t0.5 -14
q0 -2 -0.5 -6.5t-0.5 -6.5t0.5 -5.5t0.5 -5.5t-2 -6q2 -4 2 -7q0 -27 -7 -43t-14 -20t-7 -2v-4l1 -3q0 -1 -3.5 -2t-3.5 -4t3 -3h3q10 0 10 -5q0 -20 -9 -40.5t-21 -36t-24 -28.5t-19.5 -19.5t-6.5 -6.5q-1 0 -9.5 -4.5t-16.5 -8.5l-8 -4q0 -5 -10 -5q-2 0 -11 6.5t-12 6.5
h-1q-2 -1 -3 -1q-2 0 -4 6q2 0 2 1q-1 1 -1 2v-4q-6 3 -6 10q2 -2 6 -2q-1 6 -7.5 13t-6.5 12q1 1 4 5t5 5q0 -10 4 -10q2 0 8 6l1 -1q1 -2 2 -2v1q1 1 1 2q-1 1 -2 1t-2 -2q-5 0 -5 3q0 2 3 4t5 2l2 -1l2 -1q4 0 4 3h1h1q-1 0 -1 1v-3q-3 1 -8 8.5t-9 8.5q-1 -2 2 -4t3 -3
q0 -8 -4 -8l-1 2q-2 1 -3 1l-2 -1q-2 -2 -3 -2t-3 4t-2 6t2 3q-6 3 -6 4l2 3q2 2 2 3t-2 5z" />
    <glyph glyph-name="E" unicode="E" horiz-adv-x="209" 
d="M149 593q0 1 1 1zM48 507l1 -1q-1 0 -1 1zM38 497q0 1 1 1zM172 55q1 0 1 -1zM181 42q0 -1 -1 -1zM136 306q0 -1 -1 -1zM119 297q0 -1 -1 -1zM55 260h-1q0 1 1 1v-1zM46 254h1q-1 -1 -2 -1v1h1zM65 242q1 0 1 -1zM69 528q0 -1 -3 -1q-1 1 0.5 1h2.5zM50 476q4 -2 4 -5
q-5 0 -5 3q1 1 1 2zM122 40q-1 -1 -1 -3q-5 0 -5 4q0 3 2 3q4 0 4 -4zM113 48h-1q-2 0 -7 6q0 1 1 2q3 -2 7 -8zM162 63q7 0 7 -1q0 -4 -8 -4q-3 0 -3 4l1 2h1zM69 552q0 -7 -4 -7q-3 0 -3 3q0 4 7 4zM69 541q5 -2 6 -4q0 -3 -4 -3t-4 4q0 1 2 3zM47 384l3 -2q0 -3 -3 -3
q-8 0 -8 5q4 4 6 4t2 -4zM47 510q-3 -6 -5 -6q-3 0 -3 4q0 2 2 5t3 3q3 -3 3 -6zM54 478q-2 -4 -2 -6q0 4 -3 4h-2q-2 -1 -3 -1t-7 6q0 5 3 5h2l2 -1l6 6q0 -2 2 -5.5t2 -6.5v-1zM103 31q-10 2 -10 5q-1 0 -2.5 -1t-2.5 -2q-4 0 -4 2q4 11 8 11q3 0 3 -3t-6 -3q3 -6 6.5 -7
t4.5 -5q3 0 3 3zM46 527l1 -4q5 0 8 2.5t5 2.5v-1q0 -4 -8 -4l3 -3h-1l-2 -1q-2 0 -3.5 1.5t-3 4t-2.5 3.5q1 1 1 2q2 0 2 -3zM30 518l-11 -17q-4 -4 -4 -8q0 -3 2 -7q-1 -2 -1 -5t1.5 -8t1.5 -7t-2.5 -4t-2.5 -4q1 -1 3.5 -5.5t2.5 -7.5q0 -1 -3.5 -2.5t-3.5 -3.5
q0 -1 1 -3l1 -2v-5q0 -10 5 -13.5t5 -5.5q3 0 3 3q-11 0 -11 -11q0 -4 5 -14q-1 -1 -1 -3l3 -9q2 0 3 1q2 0 2 -1q0 -4 -2 -6.5t-5.5 -5t-4.5 -3.5v-3q0 -2 -0.5 -4.5t-0.5 -3.5q0 -2 1 -5t1 -4v-6q0 -5 2 -7q-5 -5 -5 -28q0 -8 4 -13q0 -3 -1.5 -8t-1.5 -7t1 -6.5t1 -7.5
v-6q0 -2 1 -5t1 -4t-1 -4t-1 -4t1.5 -6t1.5 -7v-5q0 -5 2 -7q-4 -12 -4 -21q0 -1 1 -4t1 -4q0 -2 -2 -5.5t-2 -5.5q0 -1 1 -3.5t1 -3.5q0 -2 -0.5 -4t-0.5 -3q0 -3 0.5 -9t0.5 -8q0 -1 -1 -6t-1 -8q0 -1 1 -3.5t1 -3.5v-6q0 -14 1.5 -41.5t1.5 -40.5v-7q0 -13 16 -18.5
t16 -7.5q0 -1 -1 -2.5t-1 -2.5q0 -2 3 -3q3 0 3 5t4 5q2 0 6 -2t7 -2q0 3 -1.5 4.5t-1.5 3.5q2 0 2.5 -3t3.5 -3h-3q3 -5 5 -5q5 0 15 8l10 7q1 0 6 -4.5t10 -4.5t16.5 4t17.5 4q2 0 5 -2t4 -2q8 0 12 13q-1 1 -1 3q0 1 1 3.5t1 4.5q0 5 -6.5 13t-12.5 8h-2q-3 0 -9 1t-9 1
t-3 -4t3.5 -8.5t3.5 -5.5q0 -3 -4 -3q-15 3 -15 6q0 1 2.5 5t2.5 7q0 2 -3 2q-4 0 -5 -1q-4 -4 -20 -5t-22 -6q-12 4 -11.5 19t-2.5 26q1 1 1 3q0 118 -8 130q0 1 2.5 3t2.5 4l-1 2q0 2 2.5 4.5t2.5 3.5q0 2 -1 2t-3 -1q-9 0 -9 3q0 8 4 8h2q3 0 3 2q0 6 -6 6
q-1 0 -3.5 -0.5t-3.5 -0.5q-2 0 -2 1t1 3v2q0 1 -0.5 2.5t-0.5 2.5q1 1 2 1q3 0 5 -2t3 -2q3 0 6 5t8 5q3 0 8 -0.5t8 -0.5q11 0 19 4l1 -1h2q2 0 6 2t5 2t3.5 -1t3.5 -1q4 0 7.5 3t4.5 5l1 3l1 -1h1l3 1q0 1 -1 3q0 5 5 5l4 -1q1 0 1 1v4q0 2 2 3l2 2q0 1 -8.5 11.5
t-10.5 10.5q-6 0 -20.5 -4t-22.5 -4h-12q-2 0 -6.5 -1.5t-6.5 -1.5v1q0 4 -0.5 10t-1.5 11.5t-1.5 10.5t-1.5 8v2q0 1 2.5 4.5t2.5 5.5l-5 21q0 1 3 3t3 4q0 3 0.5 10.5t0.5 12.5t-1 11.5t-3.5 9.5t-6.5 3h-2q-1 0 -1 1q0 2 2 5t2 4q0 4 -2 7.5t-4 5.5l-2 2l2 2q2 2 2 5
q0 1 -0.5 3t-0.5 3t1.5 2t1.5 2q-1 1 -1 4q0 1 2 5q0 6 -9 6q-1 0 -3 -1t-3 -1q-2 0 -2 4v7q1 0 3 -2t4 -2t3 1q4 -2 6.5 -4t5 -5.5t4.5 -5.5q5 18 5 36v3q0 11 9 14.5t33.5 3.5t34.5 1q5 0 7.5 6t4.5 6t3 -1q6 4 7 7q-1 1 -1 4q0 2 0.5 4t0.5 3q0 3 -2.5 5t-2.5 4v2
q1 2 1 3q0 3 -3 3q-2 0 -6 -0.5t-7 -0.5q-1 0 -4 0.5t-5 0.5q-1 0 -2.5 -0.5t-2.5 -0.5h-4q-2 0 -3 -1h-41q-2 0 -6 -0.5t-6 -0.5h-9q-27 0 -27 -9q0 -5 -8 -7.5t-8 -7.5q1 -2 7 -11q-1 -1 -1 -2q7 -5 7 -17q0 -6 -2 -8q0 -2 1 -4l2 -4l1 -2q-1 -1 -2 -1q-9 0 -12 3z" />
    <glyph glyph-name="F" unicode="F" horiz-adv-x="213" 
d="M39 450l-1 -1q1 0 1 1zM19 444l1 -1q0 1 -1 1zM85 583q4 0 14.5 0.5t18 0.5t16 -0.5t13 -2.5t4.5 -6l-3 -12q0 -4 4 -4q1 0 3 0.5t3 0.5l3 -9q0 -1 -2 -1q-6 1 -13 -6q-11 -11 -25 -11h-21q-4 0 -12.5 0.5t-13.5 0t-10.5 -1t-8.5 -2.5t-3 -6v-2q0 -2 -4 -4.5t-4 -4.5
q0 -1 4.5 -4.5t4.5 -6.5q0 -5 -1.5 -24.5t-1 -33.5t3.5 -20q2 -6 2 -8t-1.5 -5t-1.5 -4t1 -3q0 -1 -5 -5q-6 -4 -3 -5q2 -2 5 -3t4.5 -2.5t2.5 -8t1 -20.5l2 -60l2 2q2 3 4 3q9 0 26 1.5t21 1.5q12 0 12 -5q-2 -3 -2 -4l4 -7l3 4q3 3 4 3l1 -1q0 -1 3.5 -3t3.5 -4
q0 -5 -4 -10t-9.5 -9t-11 -7t-8.5 -5l-4 -1q-4 0 -12 -0.5t-12 -0.5q-6 0 -18 2q-4 0 -4 -18v-8q0 -2 -1 -5.5t-1 -5.5q1 -3 1 -10v-13v-14v-83q0 -49 5 -84l-3 -4q-7 -7 -5 -7l-6 4q-7 3 -16 3q-20 0 -20 38v11q0 20 -0.5 59.5t-0.5 58.5q0 2 0.5 4t0.5 4q0 3 -1 4
q0 1 0.5 2.5t0.5 2.5q0 2 -2 8q0 1 0.5 3t0.5 3q0 3 -1 10.5t-1 10.5q2 9 2 27v92v12q0 3 -1.5 10t-1.5 11q0 1 0.5 3.5t0.5 4.5q0 3 -1 8t-1 6v8q0 1 -1 4t-1 5q0 4 3 7q-1 1 -1 4v8q0 3 -1.5 8.5t-1.5 8.5t1.5 7t1.5 7q0 2 -2 10.5t-2 11.5q0 1 0.5 3.5t0.5 4.5
q0 1 -1 4.5t-1 5.5q0 3 2 9.5t2 8.5q0 1 -1.5 4.5t-1.5 5.5q0 1 0.5 3.5t0.5 3.5q0 2 -1 6t-1 6q9 26 81 21z" />
    <glyph glyph-name="G" unicode="G" horiz-adv-x="227" 
d="M153 112l-1 -1q1 0 1 1zM150 101l-1 -1q1 0 1 1zM162 98v1l-1 -1q0 -1 1 0zM22 92zM122 277l-1 -1q1 0 1 1zM166 274l1 -1q0 1 -1 1zM132 260q1 0 1 -1zM136 255q0 -1 -1 -1zM15 190l1 -1q0 1 -1 1zM147 185q1 -1 0 -1v1zM166 184v1l-1 -1q0 -1 1 -1v1zM162 157l-1 -1
q1 0 1 1zM27 145l1 -1q0 1 -1 1zM145 140l-1 -1q1 0 1 1zM161 131l1 -1q0 1 -1 1zM38 218l-1 -1q1 0 1 1zM145 232q0 -1 -3 -1q-1 1 0.5 1h2.5zM41 147l-3 1h-3t0 -1q1 0 3 -1h1q1 1 2 1zM126 268q-1 0 -1 3q1 0 1 -3zM137 144l3 3q2 -2 2 -3v-1q-1 -1 -1 -2q-2 2 -4 3z
M146 198q6 3 6 -6v-1q-1 -1 -1 -2l-8 9h3zM146 209q0 3 3 3q0 -2 1 -2h1q-2 0 -5 -1zM39 139l-20 -16l4 4q0 2 -4 2q0 4 -3 7.5t-3 5.5t0.5 5t0.5 4t-1 4t-1 5q0 1 2 4t2 4h-1q-1 1 -1 2l6 3q3 0 4.5 -4t3.5 -4q1 1 1 5q0 12 -7 12q-1 0 -2 -1.5t-2 -3.5l-2 -2l-8 52
q0 1 0.5 2.5t0.5 3.5q0 5 -2.5 14t-2.5 10q0 2 1.5 5.5t1.5 5.5t-0.5 6t-0.5 6q0 1 1.5 3.5t1.5 4.5q0 7 -2.5 20t-2.5 18q0 3 1.5 8.5t1.5 7.5t-1 5t-1 4q0 3 2 7.5t2 5.5q0 2 -1 4t-1 4q0 4 1.5 10t1.5 10v8q0 2 0.5 5t0.5 5v5q0 2 1 3.5t1 2.5v12q0 2 1 5.5t1 4.5t-0.5 3
t-0.5 3l7 34q1 44 22 76q7 23 24 36.5t39 13.5q30 0 46.5 -19.5t29.5 -53.5q0 -6 0.5 -13t1.5 -15t1 -13q0 -9 -36 -9q-1 0 -2 2t-2 2t-1.5 -1.5t-2.5 -1.5q-2 6 -5 29t-10 34.5t-25 11.5q-25 0 -36 -114q-6 -13 -6 -40q0 -1 1 -5t1 -6q0 -1 -1 -3.5t-1 -3.5t1 -4l-2 -2
l-3 -2q0 -1 2.5 -3.5t2.5 -4.5q-1 -1 -4 -10l-1 -2q5 -1 5 -43q0 -3 -0.5 -8t-0.5 -8q0 -16 2.5 -48.5t2.5 -42.5q0 -2 -0.5 -4t-0.5 -4t0.5 -5.5t0.5 -4.5v-14q0 -4 1 -11t1 -9v-6q1 -4 3 -20t2.5 -19.5t3 -15.5t4.5 -17t6 -13.5t8.5 -15t11.5 -12.5q1 -2 6 -2
q11 0 19.5 20t11.5 40l4 20q1 0 3 -1l2 -2l6 6q-8 4 -9 5q2 1 5 6q-1 0 -3 1h-1q-1 -1 -2 -1q-4 0 -4 14q0 4 1 9.5t1 8.5q0 2 -1 3q2 7 8 7q1 -1 1 -2v-4q0 -1 1 -3v-1l-2 -4l3 -3q3 -2 5.5 -4.5t2.5 -1.5l3 3q-2 0 -5 0.5t-4 0.5q5 8 5 11q0 1 -0.5 2t-0.5 2l2 2
q-3 5 -4 8l3 3q0 -3 -3 -3t-8 9t-5 13q0 1 0.5 3t0.5 3t-1 3v2q6 21 9 24l-3 3t-2 4t2 3.5t4.5 3t3.5 2.5q-5 0 -8.5 1t-5.5 3l-1 1q-1 0 -2.5 -1t-2.5 -1q-4 0 -4 4q0 2 2 3.5t2 2.5q0 3 -5 6q-1 0 -3 -1.5t-4 -1.5t-5.5 3.5t-3.5 8.5q1 7 7.5 16.5t10.5 9.5q3 0 3 -2v-3
q0 -4 5 -6q2 0 1.5 7t2.5 7q2 0 5 2.5t4 2.5q6 0 6 -7q0 -1 -3 -3.5t-3 -4.5q0 -1 0.5 -2t0.5 -2q-6 0 -6 6q6 0 6 -6l-1 -1q0 -1 2 -1q1 0 2 3t5 3t4 -6v7q5 -5 6 -5t3 2q1 -1 5 -2.5t6 -3t2 -5.5q0 -2 -2 -5l-2 -3l1 -2q2 -2 2 -3q0 -3 -3 -4q-6 0 -6 9v2q0 1 -1.5 2
t-1.5 4h3q-4 -4 -8 -6q0 7 -3 7q-5 0 -5 -7q0 -3 3 -6q-3 0 -3 3q2 0 5 1t4 1q2 0 2 -2q0 -3 -5 -5q8 -14 10 -14q2 2 6 7q0 -1 1 -3t1 -3t-1.5 -2.5t-1.5 -5.5h-3t0 -1l2 -1l3 3q9 0 9 -9q0 -8 -9 -8q-2 0 -8 3t-8 3t-2 -2q0 -3 1 -3q1 1 2 1t4.5 -5.5t3.5 -7.5l-7 -9
q0 -3 9 -3q4 0 4 5q0 1 -0.5 3t-0.5 3q0 2 1 3q-4 4 -4 6q0 1 3 4q2 -2 4.5 -3.5t3.5 -3t1 -4.5q0 -1 -1 -3t-1 -4q0 -1 1.5 -3.5t1.5 -4.5q0 -7 -8 -15.5t-8 -13.5l-3 -3l2 -2v3q16 0 16 -6q0 -1 -3 -10t-3 -12q0 -1 1 -3l1 -3q0 -1 -1.5 -3t-2.5 -4q3 -3 3 -4l-1 -1l-9 3
q-1 -1 -1 -2l6 -6h-1q-1 0 -1 -1t1 -1v3l2 -1q2 0 2 -1q0 -2 -1 -3q1 -1 1 -3q0 -1 -1 -3.5t-1 -3.5v-3v-4q0 -1 1 -4t1 -5q0 -22 -11.5 -46.5t-27.5 -38.5q-3 -3 -7 -5t-9 -4t-8 -3q-1 1 -4 1q-1 0 -4 -0.5t-4 -0.5q-8 0 -15.5 2.5t-13 7t-11 10t-9 11.5l-7 12t-5 10.5
l-3 9l-1.5 4.5l-3.5 10.5t-4.5 13t-2 8.5q0 1 0.5 3t0.5 3q0 2 -1.5 6t-1.5 6q0 1 2 2.5t4 4.5q-5 2 -5 12z" />
    <glyph glyph-name="H" unicode="H" horiz-adv-x="240" 
d="M18 121l1 -1q0 1 -1 1zM22 104v0v0zM49 143q-3 0 -3 1q3 0 3 -1zM32 156h3l-4 2q-3 0 -3 -2t4 0zM35 10l10 -12q-5 0 -6.5 2t-2.5 2h-2q-5 0 -11.5 8t-6.5 11q0 1 0.5 2t0.5 2q0 3 -3 11.5t-3 13.5q0 3 1 9.5t1 8.5q0 7 -2.5 30.5t-2.5 28.5q0 1 1 4.5t1 5.5q-3 21 -3 25
q0 3 2.5 6.5t2.5 4.5q0 3 -3 8.5t-3 9.5q0 3 6 9q-9 9 -9 16q0 2 2 6q-5 11 -5 58q0 2 0.5 5.5t0.5 5.5q-2 5 -2 15v14q0 2 -0.5 7t-0.5 7q0 4 1.5 12.5t1.5 12.5q0 1 -1 3t-1 3t0.5 2.5t0.5 2.5t-0.5 2.5t-0.5 2.5q0 3 1 5q-2 4 -2 13v12q0 3 -0.5 7.5t-0.5 6.5q0 1 1 5
t1 6t-2.5 8t-2.5 9q0 2 1.5 7.5t1.5 8.5q0 2 -1 5.5t-1 4.5v6q0 7 -0.5 25t-0.5 26q0 3 2.5 8.5t2.5 8.5t-1.5 9.5t-1.5 9.5q0 28 10 28h3h9q7 0 10 -2h2q6 0 11.5 -6t5.5 -11v-6v-6q0 -1 -1 -3t-1 -3t0.5 -2t0.5 -2q0 -3 -3 -5.5t-3 -5.5v-10v-7q0 -2 0.5 -5.5t0.5 -5.5
t-0.5 -5.5t-0.5 -5.5q0 -3 0.5 -8t0.5 -7t-0.5 -5t-0.5 -5q0 -1 0.5 -3.5t0.5 -4.5v-6q0 -1 1 -4t1 -5q0 -1 -1 -3q1 -7 1 -21v-63q0 -2 0.5 -5t0.5 -4t-0.5 -2.5t-0.5 -2.5q0 -57 6 -57t14 3t13 3h5q6 0 17.5 3t16.5 3q1 0 3 -0.5t4 -0.5q4 0 4 26t-1 39q0 2 1 6.5t1 7.5
t-1 7.5t-1 6.5q0 18 1 53t1 52q0 1 -0.5 2.5t-0.5 2.5q2 6 2 18v12q1 1 1 5q0 1 -1 4.5t-1 5.5q0 18 3.5 23.5t19.5 5.5q26 0 26 -17q0 -9 -2 -27t-2 -27v-392q0 -9 3 -35.5t3 -36.5v-14q0 -2 1 -8t1 -8q0 -10 -12 -12q-5 0 -13 2.5t-10 2.5q-1 0 -2 -0.5t-2 -0.5
q-14 0 -14 46q0 2 0.5 4t0.5 3q0 2 -1 4t-1 3q0 13 0.5 39.5t0.5 39.5q0 3 -1 10t-1 10q0 9 2 13q-2 3 -2 10t1 11q0 3 -1 9t-1 9q0 1 1 5t1 5q0 2 -0.5 4.5t-0.5 3.5t0.5 3.5t0.5 3.5q0 11 -3 14.5t-10 3.5q-5 0 -12.5 -1.5t-11.5 -1.5h-7q-2 0 -6 -1.5t-5 -1.5q-3 0 -3 3
v1l1 2l-2 2q-3 0 -3 -2v-2l-4 -3q0 -1 1 -1l0.5 -0.5t0.5 -2.5q-8 -2 -11 -2q-1 0 -4 1h-3q-1 0 -1 -19q0 -5 1 -14.5t1 -14.5v-8q2 -12 2 -21v-61q0 -4 0.5 -12t0.5 -12q-1 -4 -1 -11q0 -4 1 -10t1 -9q-1 -1 -1 -3q0 -3 3.5 -15t4.5 -18q0 -3 -10.5 -9.5t-10.5 -8.5z" />
    <glyph glyph-name="I" unicode="I" horiz-adv-x="121" 
d="M52 537v1v-1zM60 192q-1 0 -1 -1q1 0 1 1zM64 534q1 -1 1 1q-3 0 -3 -3v1q1 0 2 1zM28 528l6 7l3 3q0 7 -5.5 9t-5.5 4v2q1 2 1 3t-0.5 3t-0.5 3q0 18 13 18q4 -2 6 -2t4 2q4 -3 11 -5.5t10.5 -5.5t3.5 -10l-1 -2q-2 0 -3 1l-1 -1q3 -10 3 -27q0 -12 -2 -37t-2 -37v-5
q0 -3 -1.5 -8.5t-1.5 -7.5q0 -13 0.5 -39t0.5 -38v-6q0 -1 0.5 -4.5t0.5 -5.5q0 -1 -0.5 -3t-0.5 -3t0.5 -3t0.5 -4l-1 -2q-1 -2 -1 -3t1 -3.5t1 -3.5l-1 -1v-3q0 -2 1 -6t1 -6t-0.5 -4t-0.5 -3q0 -2 1 -4t1 -4q0 -1 -1 -3.5t-1 -4.5t0.5 -5t0.5 -4q0 -3 -1 -4q2 -8 2 -13
q0 -11 -1 -35t-1 -36v-9q0 -7 -0.5 -21t-0.5 -21q0 -94 10 -104l1 -2q-1 -10 -30 -21q-3 0 -8.5 5t-5.5 6q-1 -1 -3 -1q-6 0 -6 15v7q0 7 -1.5 19t-1.5 19v15q0 13 -1.5 38.5t-1.5 38.5v47v123q0 3 -1 8t-1 8q0 5 1 16t1 16q0 2 -1.5 6t-1.5 6t1 5.5t1 4.5t-0.5 4.5
t-0.5 5.5q0 1 0.5 5t0.5 6v37q0 1 0.5 4.5t0.5 5.5v18q0 13 5.5 22t5.5 11q0 3 -1 4z" />
    <glyph glyph-name="J" unicode="J" horiz-adv-x="289" 
d="M185 539q0 3 -1 3q0 -2 1 -3zM116 572q-6 0 -6 -5q1 0 6 5zM137 389q1 2 1 4v-1h-1q-1 -1 -1 -4l-1 1h2zM155 254q0 -22 0.5 -65t0.5 -64q0 -40 -16.5 -76t-51.5 -36q-25 0 -25 8q3 3 3 5t-3 2q-1 0 -4 -3t-4 -3q-19 0 -42 53q-13 34 -13 66q0 4 -0.5 16t0 18.5t1 15
t3 12.5t6.5 4q9 0 24 -8.5t15 -20.5q0 -2 -1.5 -8.5t-1.5 -9.5v-9v-12q0 -15 4.5 -32.5t9.5 -27.5t7 -11q3 0 6.5 -4t5.5 -4q8 0 14 11.5t8 22.5l2 12v3q0 1 -0.5 3.5t-0.5 3.5v9q0 1 -0.5 4t-0.5 5q0 38 0.5 113t0.5 112v6q0 2 1 6t1 5t-1 4t-1 5q0 3 1.5 9.5t1.5 9.5
q0 2 -0.5 4t-0.5 4l3 42v7q0 2 1 6.5t1 6.5v26q0 5 1 15t1 14q0 6 -10 6q-7 0 -20 -0.5t-20 -0.5t-12 16q0 8 2 13.5t6 9t7.5 5.5t10.5 3t9.5 1h10h8.5q5 0 13.5 -2t12.5 -2q3 0 11 1t11 1q4 0 14 -2q9 0 27.5 3t29.5 3q5 0 11 -3.5t6 -6.5l-1 -2q-1 -2 -1 -3q0 -2 1 -2
l-4 -8l-3.5 -7t-3 -5t-4 -4.5t-4 -2.5t-6 -2.5t-7.5 -1t-10 -0.5q-3 0 -7 -1t-6 -1q-1 0 -4 0.5t-5 0.5q-19 0 -19 -171v-110z" />
    <glyph glyph-name="K" unicode="K" horiz-adv-x="259" 
d="M44 51l-1 -1q1 0 1 1zM64 545l1 -1q0 1 -1 1zM26 372l-1 -1q1 0 1 1zM30 341q3 0 3 1h-1l-2 1q-1 -1 0 -2zM32 370h-3t0 -1q3 0 3 1zM65 535q0 4 -4 4q0 -3 3 -3zM194 173l9 -1q4 -6 4 -7t-4 -5.5t-4 -6.5q0 -1 0.5 -5t0.5 -6v-3q0 -5 5.5 -8.5t5.5 -6.5l5 -37.5t4 -36.5
l2 -14q0 -5 -14 -12.5t-20 -7.5q-3 0 -9 2q1 1 1 2q0 7 -5 24t-6 27v2q0 9 -2.5 26t-2.5 24q0 34 -13.5 95t-14.5 68q-12 63 -22 63l-2 -1h-3q-2 0 -6 1t-6 1q-34 0 -34 -14q0 -9 -0.5 -26.5t-0.5 -27.5v-7q0 -2 -0.5 -6t-0.5 -6q0 -4 1 -11.5t1 -11.5v-13q0 -6 0.5 -17.5
t0.5 -17.5v-9q10 -85 10 -104v-7q0 -9 3 -26t3 -26t-5 -9q-1 0 -5 1.5t-6 1.5q-1 0 -3 -1t-4 -1q-1 0 -3 0.5t-3 0.5t-3 -1q-15 2 -15 21q0 1 0.5 2t0.5 2q-8 18 -11.5 63t-5.5 55q-6 53 -6 108v4q0 5 -1.5 14t-1.5 13q0 66 4 74q0 13 7 20v-2l1 1q-7 0 -7 4l2 1q2 2 2 3
q-5 3 -5 20q0 3 1 8t1 8v2q-1 1 -1 2t1.5 4t1.5 5t-1 5t-1 4q0 4 2 10l3 6q0 2 -2 6t-2 6q0 4 1.5 12t1.5 10v5q0 1 1 4.5t1 5.5t-1 5.5t-1 4.5t0.5 3.5t0.5 4.5q-1 2 -1 6q0 21 7 33q-1 2 -1 6q0 13 3 13h4q1 0 4 0.5t5 0.5q6 0 9 -1q2 0 5 1t4 1q4 0 8.5 -7t4.5 -11
q0 -40 -7 -60q-6 -3 -6 -8v-2h-2v-1q3 3 4 3q3 -1 3 -2q0 -2 -0.5 -6t-0.5 -7q0 -2 0.5 -4t0.5 -3q0 -3 -1.5 -10t-1.5 -11q0 -2 1 -5t1 -5t-1.5 -5.5t-1.5 -5.5q0 -3 0.5 -9t0.5 -8q0 -7 -2 -10q1 -2 1 -6q0 -1 -0.5 -4t-0.5 -5q0 -5 4 -5q47 16 84 60q23 19 43 106
q1 4 4 11t3 8q0 2 -0.5 4t-0.5 3q0 2 7 2v-2l1 1h-3q2 2 11 2q25 0 25 -8q0 -1 -1 -3.5t-1 -3.5v-8q0 -53 -32.5 -110t-48.5 -64q-1 0 -6.5 -3t-6.5 -6q12 -13 21 -35.5t12.5 -37.5t8 -48t5.5 -37q10 -38 10 -60q-3 0 -3 3z" />
    <glyph glyph-name="L" unicode="L" horiz-adv-x="214" 
d="M55 138l-1 -1q1 0 1 1zM58 270l1 1q-1 0 -1 -1zM54 247q0 1 -1 1q0 -1 1 -1zM67 188l-1 -1q1 0 1 1zM62 299q0 2 -1 2h-2t0 -1h2q1 0 1 -1zM46 84q3 0 3 3v1q-2 0 -2 -2q0 -1 -1 -2zM43 350q0 -6 4 -6q1 0 3 2q-6 3 -7 4zM60 328l10 -22q0 -1 1 -3l1 -2v-1q5 -2 5 -5
q0 -36 -12 -36q0 3 2 3q5 0 5 -25q0 -11 -7 -11q0 3 3 3q0 -1 4 -6.5t4 -11.5t-0.5 -17.5t-0.5 -17.5q0 -2 0.5 -7t0.5 -8q0 -4 -0.5 -11t-0.5 -10q0 -6 1 -9q0 -2 -1 -3q1 -7 1 -19.5t1 -18.5q-1 -2 -1.5 -7t-1.5 -8.5t-3 -3.5v3q6 -7 4 -11.5t2 -7.5t20 -3q5 0 15.5 2
t16.5 2q49 0 49 -8l-3 -3q0 3 3 3q0 -1 6 -9t6 -19v-1q-1 -1 -1 -2q-6 6 -12 8q-2 -6 -2.5 -6.5t-6.5 -0.5v3h1h1q-1 0 -1 1q0 -3 -3 -3h2.5t0.5 -3q0 -5 -11 -5q-1 0 -5 3t-6 3q-8 -1 -13 -3q-4 1 -11 1t-10 -1h-2q-2 0 -4 -0.5t-3 -0.5q-2 0 -4 2q-18 -6 -20 -6h-1
q-3 0 -8 -2.5t-8 -2.5q-2 0 -3 7t-11 7q-19 4 -19 25q0 1 0.5 3.5t0.5 3.5q0 4 -3 11.5t-3 11.5t2 10.5t2 9.5q0 16 -3 22l3 5l-6 10v3q0 1 0.5 3t0.5 4q0 1 -1 3.5t-1 4.5q0 1 1 5t1 6q-4 4 -4 9q0 4 1 7v10t-2 13q0 2 2 5.5t2 5.5t-2.5 5t-2.5 6q0 11 1 16q0 6 -1 17
t-1 16q0 3 1.5 10t1.5 11q0 3 -1.5 6t-1.5 4q0 2 1 5v3q0 2 -1 4q0 2 1 5t1 4t-1 2.5t-1 2.5l3 6v1l-1 1l1 1q-3 5 -3 10l6 23q0 2 -2 5.5t-2 6.5l1 2q1 2 1 3q0 2 -0.5 4.5t-0.5 3.5q2 4 2 6q0 1 -0.5 4t-0.5 5q0 3 0.5 8.5t0.5 7.5t-0.5 6.5t-0.5 6.5q0 4 1.5 11.5
t1.5 11.5q0 2 -1 6t-1 6q0 4 1.5 13t1.5 13q0 1 -0.5 3.5t-0.5 5.5q5 15 5 37q0 1 -1 5.5t-1 6.5q0 32 12 32q2 0 6.5 2t6.5 2q6 0 15 -8t9 -14q0 -76 -4.5 -104t-4.5 -36q0 -5 -1 -15.5t-1 -14.5q0 -2 1 -7t1 -7q0 -15 -9 -15q-1 0 -10 3q-2 0 -2 -5q12 -8 12 -10t-2 -4
l-3 -2l2 -2l3 -3l2 -2q1 3 2 3q3 -14 3 -16q0 -3 -6 -3q0 3 -1 3l-1 -2z" />
    <glyph glyph-name="M" unicode="M" horiz-adv-x="369" 
d="M52 137l-1 1q0 -1 1 -1zM9 452v-2l-1 1q0 1 1 1zM-2 447q-1 0 -1 1zM109 355l-1 -1q1 0 1 1zM305 505l1 1q-1 0 -1 -1zM291 502l1 1q-1 0 -1 -1zM14 489h1q-1 -1 -2 -1v1h1zM17 469l-1 -1q1 0 1 1zM30 267l1 -1q0 1 -1 1zM12 261q-1 0 -1 1zM12 256v-1l-1 1q0 1 1 1v-1z
M9 243q0 -1 -1 -1zM11 203q1 0 1 -1zM19 197l1 1q0 -1 -1 -1zM33 346l1 -1q0 1 -1 1zM116 340v0v0zM132 303l1 1q-1 0 -1 -1zM124 298l-1 1q0 -1 1 -1zM11 511v2l1 1v-3t-1 0zM41 435q0 3 -1 3q0 -2 1 -3zM9 503q-1 1 -1 3q1 0 1 -3zM272 559h4q0 -1 -1 -1h-1zM106 297h-3h3
zM21 273q-1 -1 -3 -1q-1 1 0.5 1h2.5zM14 324v-2h-1q-1 1 -2 1q-1 1 0 1h3zM6 318q-1 0 -1 3q1 0 1 -3zM19 230h-1q-4 0 -4 3q2 0 5 -3zM80 362l-1 1q0 3 2 3l2 -1zM42 222q-2 2 -3 2l-1 -1l3 -3q0 2 1 2zM102 336q2 -1 0 -1q-4 0 -3 2q3 0 3 -1zM10 455h-2q0 1 6 1
q0 -1 -4 -1zM42 438q-3 3 -4 3l-1 -2l3 -3zM30 341l2 4l-1 1q-1 0 -3 -2q1 -1 2 -3zM102 370q1 0 3 0.5t3 0.5q-2 0 -5 0.5t-4 0.5v-2h3zM28 270l2 4q0 2 -2 2l-1 -1l1 -1v-4zM102 348q4 0 4 -3q-1 -1 -2 -1t-5 4h3zM36 462l-4 4q-1 0 -3 -2q3 -4 6 -4zM76 377q4 0 4 -1
q0 -7 -3 -7q-4 0 -4 2zM55 32q0 -2 -1 -2q-4 0 -6 9q2 0 3.5 -1t2 -3t1.5 -3zM33 149q5 -1 5 -5q0 -3 -3 -3q-8 0 -8 5zM33 284q5 0 5 2q0 3 -10 3q-1 -1 -1 -2t6 -3zM121 336q0 1 -1 1q-2 -1 -4 -4.5t-3 -4.5l6 -3q0 1 2 4.5t2 5.5zM34 452l-3 -2v2h-1h3q-2 -2 -2 -3
q0 -5 5 -5q6 0 6 6h-1h-2q-2 0 -3 1t-2 1zM44 336l-4 1v1v1l-1 -1q2 0 2.5 -3t3.5 -3l2 1zM309 256l-1 -4q-2 0 -2 -4q3 0 3 1l-1 2v3l3 3l-1 1l-1 1v-3zM118 307q-1 1 -1 2q0 -3 3 -3l-1 -1q-1 0 -1 2zM30 188l3 -11q0 4 -4 15.5t-4 15.5q0 1 1.5 1.5t1.5 1.5t-2 5t-2 7
q2 10 2 19q0 2 -2.5 9t-2.5 11q0 8 -1.5 23t-1.5 22v22q0 1 -1.5 4t-1.5 4t1.5 3t1.5 4q-2 4 -3.5 9.5t-1.5 11t0.5 10t0.5 7.5l1 4q0 4 -1.5 11t-1.5 10q0 1 0.5 3.5t0.5 3.5q0 2 -0.5 5t-0.5 4q0 3 1 8.5t1 8.5q0 2 -0.5 5t-0.5 4q0 2 0.5 5.5t0.5 4.5q0 4 -1 11l-1 8
q0 2 3 6t3 6t-1 5.5t-1 4.5q0 3 2.5 8.5t2.5 6.5t-1.5 5t-1.5 5q0 18 12 18l1 -1q1 -2 2 -2q9 3 10 3t5 -1.5t6 -1.5q1 1 4 1q2 0 8 -3l6 -3q3 0 5 1q1 0 5 -9.5t5 -14.5q0 -1 -1 -2.5t-1 -2.5q0 -4 10 -30t12 -29q13 -28 23.5 -68t19.5 -51q4 -4 8 -12.5t6 -16t4.5 -15.5
t2.5 -9q1 -2 2.5 -7.5t3.5 -9t5 -3.5q7 22 15.5 47.5t13.5 41.5t10 30.5t8 21.5t5 8q1 0 1 1t-0.5 3t-0.5 3q0 8 3.5 17.5t8 17.5t4.5 9q27 112 44 112q2 0 2.5 -2.5t2.5 -2.5q1 0 2 1l1 -2l4 -4q2 1 3 1t4.5 -2t5.5 -2q1 0 4 0.5t4 0.5q6 0 6 -18q0 -4 -0.5 -13t-0.5 -13
q0 -16 1.5 -48t1.5 -48q0 -10 2 -28t2 -28q0 -7 -2 -19q2 -14 2 -21q0 -4 -0.5 -13t-0.5 -14v-12q0 -12 -2 -18q0 -3 1 -9t1 -10q0 -3 -2 -11q2 -12 2 -20q0 -1 -1 -4t-1 -5q0 -1 0.5 -3t0.5 -3l-1 -1v-1q2 -5 2 -16v-116q0 -2 1 -4t1 -4q0 -1 -0.5 -3t-0.5 -3l1 -2v-2
l-24 -13q-4 -2 -7 -2q-7 0 -11.5 8t-6 23.5t-1.5 28t0.5 32t0.5 25.5q0 4 0.5 11t0.5 10q0 31 -0.5 92t-0.5 91q0 2 1.5 6t1.5 5q0 2 -1.5 6t-1.5 6q0 3 1.5 7t1.5 6q0 1 -1.5 4.5t-1.5 5.5t1 4.5t1 3.5q0 2 -1 4t-1 4q0 5 2.5 13.5t2.5 9.5q0 3 -5 3q-8 0 -8 -6
q0 -2 1.5 -4t1.5 -4q0 -7 -4.5 -20.5t-9.5 -25t-5 -12.5q-12 -42 -21 -62q-3 -3 -8 -22t-5 -24q-7 -14 -11.5 -32.5t-7 -28t-5.5 -9.5t-6 1q-5 0 -5 -5q-2 1 -5.5 3t-5.5 2q-1 0 -5 -1t-6 -1q-8 0 -12.5 6t-9 20t-7.5 21q-6 8 -13.5 26t-12.5 32l-5 15q-3 2 -4.5 8.5
t-2.5 8.5q0 1 0.5 3t0.5 3t-1.5 2.5l-3.5 3.5t-3 4q2 2 3 2t3 -0.5t3 -0.5q1 1 1 3q-11 3 -20 32q-8 39 -24 61q-4 -4 -4.5 -19t1 -38.5t1.5 -29.5q0 -11 -5 -17.5t-9.5 -8t-4.5 -2.5l1 -2v-2l-4 -6q0 -6 4 -6q2 0 4 6.5t3 6.5q2 0 3 -1l1 2q0 1 -0.5 2.5t-0.5 2.5l1 1h2
q11 -6 11 -15q0 -5 -6 -7l-2 1l-1 -1h-2.5h-4.5v-1q-1 -1 -1 -2q2 -4 9.5 -7t7.5 -7t-3 -4q-2 0 -6 1.5t-5 1.5q-3 0 -3 -6t7 -6q1 0 3.5 1t3.5 1q2 0 2 -3q0 -2 -2 -6.5t-2 -7.5q0 -1 1 -3t1 -3q0 -5 -5 -5q-2 0 -2 2v3q0 2 -2.5 4.5t-2.5 3.5q-1 -7 -3 -7q-1 0 -3 1.5
t-5 2.5q0 -2 2.5 -5.5t4.5 -3.5q1 0 2 0.5t2 0.5t2 -2v-5q0 -4 4 -4q0 1 1 3l-2 2l-1 2q0 5 5 5q7 0 7 -12q0 -2 -1 -5l-1 -4q0 -1 1 -1h3q3 0 3 -4q-1 -1 -1 -3q0 -6 2.5 -17t2.5 -17q0 -2 -1.5 -6.5t-1.5 -6.5q0 -1 2.5 -8t2.5 -10v-7q0 -10 5 -36t5 -35l-1 -1l-2 1
q-2 1 -3 1q-5 0 -8 -8v-2q1 -1 1 -2t-1.5 -3t-1.5 -3t0.5 -2.5t0.5 -2.5q0 -2 -1 -6t-1 -5t5 -3t5 -8q0 -3 -2 -3t-5.5 1t-5.5 2q-6 0 -7 -4q-1 2 -2 2t-3 -1t-3 -1q-7 4 -9.5 14.5t-3 25t-1.5 18.5q-4 13 -4 30l2 2q-1 15 -11 35q0 1 5 5t5 7q0 4 -3 4q0 -1 -3 -1v1l-1 2
q1 1 1 3t-3.5 4t-3.5 6h3v-2l1 1h-3z" />
    <glyph glyph-name="N" unicode="N" horiz-adv-x="301" 
d="M63 81q0 -1 1 -1q0 1 -1 1zM26 454l1 -1q0 1 -1 1zM27 462q0 1 -1 1q0 -1 1 -1zM236 493q4 4 4 5t-2.5 3.5t-2.5 4.5l2 3q2 3 2 4l-2 3q-6 -2 -7 -2q-2 1 -3 1t-2 -3l-1 -1q0 -1 2 -2.5t2 -2.5v-5q2 -1 2 -3v-3q0 -4 4 -5q5 0 2 3zM26 281l-7 18v1q0 2 -2.5 5t-2.5 5
q0 1 1 3t1 4q-4 20 -4 30q0 2 0.5 5.5t0.5 5.5t-0.5 6.5t-0.5 7.5q0 1 0.5 3.5t0.5 4.5v3q0 1 1 4.5t1 6.5q0 1 -1.5 3t-1.5 4l1 2q1 1 1 2t-0.5 3t-0.5 3v24v28v27.5t1.5 27.5t3.5 21.5t5.5 15.5t8.5 5q1 0 3 -1l2 -1q1 0 6.5 3t7.5 3q4 0 8 -5t7 -5h2q4 0 9 -6t10.5 -17.5
t8.5 -20t8 -22.5l5 -13q5 -14 15 -37.5t13 -32.5v-2q0 -1 -1 -3v-2h-2q0 -1 1 -1v3q4 0 11.5 -19t13.5 -39l7 -20q35 -94 38 -109l2 -4q2 0 2 3q0 2 -0.5 6t-0.5 6q0 20 0.5 38.5t1 31t1 22.5t1.5 16v5q0 1 -0.5 4t-0.5 4t0.5 2t0.5 2v1l-1 2q0 2 0.5 5t0.5 4q0 3 -0.5 7
t-0.5 7q0 10 1 30.5t1 30.5q0 4 -0.5 11.5t-0.5 11.5q0 10 2 30q0 5 -0.5 15t-0.5 15q0 1 0.5 3.5t0.5 3.5v28q0 6 10 10.5t19 4.5q13 0 13 -5q0 -1 -1.5 -2t-1.5 -2l1 -2q2 -2 4 -5.5t2 -7.5v-30q0 -1 0.5 -3.5t0.5 -3.5l-5 -18q0 -5 2.5 -13t2.5 -12q-1 -5 -1 -16
q0 -7 1 -21.5t1 -20.5q0 -2 -0.5 -6t-0.5 -7v-9q0 -7 -2 -17t-2 -11q0 -3 2 -7q0 -2 -1 -4t-1 -4t0.5 -5t0.5 -5q0 -10 -1 -15q0 -5 1 -17t1 -17v-8v-5q0 -1 -1 -3.5t-1 -3.5q0 -2 0.5 -5.5t0.5 -5.5q0 -1 -1 -4.5t-1 -5.5q2 -6 2 -19q0 -2 -0.5 -8t-0.5 -9q0 -1 1 -5t1 -6
q0 -11 -1.5 -34t-1.5 -35q0 -3 1.5 -8.5t1.5 -8.5v-11.5v-12v-10.5t-1 -10t-3 -8t-5 -6.5t-7 -3.5q-2 -1 -13 -4l-6 -2q-28 0 -43 87q-7 30 -28.5 87t-29.5 87q-48 133 -49 135q-3 5 -5 5q-2 -3 -2 -12q0 -2 1 -7t1 -8t-1.5 -9t-1.5 -9t1 -8t1 -8q-2 -13 -2 -40q0 -9 1 -14
q0 -3 -0.5 -11t-0.5 -11q0 -5 1 -15t1 -16q0 -4 -0.5 -11t-0.5 -10q0 -2 0.5 -4.5t0.5 -3.5v-20q0 -10 1 -15v-7q0 -7 0.5 -14t1.5 -16t1 -14q0 -1 -0.5 -3.5t-0.5 -3.5q0 -2 0.5 -7t0.5 -8t-0.5 -7.5t-0.5 -6.5q0 -76 18 -103v-2q0 -14 -5 -14h-2l-2 1q-4 0 -9.5 -1
t-8.5 -1q-32 0 -32 69v3q0 6 -3.5 27t-3.5 25q2 20 2 32q0 2 -1 5t-1 5v5q0 6 -1 17t-1 16q0 7 1 10q0 14 -2 21q0 1 0.5 5t0.5 6l-3 18q0 16 3 16t6 -3q1 1 2 1h-3z" />
    <glyph glyph-name="O" unicode="O" horiz-adv-x="224" 
d="M74 26h1q-1 -1 -2 -1v1h1zM108 16q0 1 1 1zM163 432q1 0 1 -1zM141 359q1 0 1 -1zM41 348q-1 0 -1 1zM51 479q0 1 1 1zM152 451v0v0zM35 281v0v0zM160 261q1 0 1 -1zM46 328q0 1 1 1zM133 310q0 -1 -1 -1zM26 285l1 -1q-1 0 -1 1zM125 551q0 -1 -1 -1zM133 547l-1 1
q1 0 1 -1zM59 519h1h-1zM130 497q-1 0 -1 1zM96 582q0 -1 -1 -1v1h1zM54 559l1 1q0 -1 -1 -1zM116 551q0 1 1 1zM50 503q1 1 3 1q0 -1 -3 -1zM145 508h-1l-2 -1l-1 1h-2h1l2 1l1 -1h2zM43 424l-3 1l1 1h2h1l2 -1q0 -1 -3 -1zM41 296v-1q-1 0 -3 1h3zM156 285v-1l1 -2l-1 -1
v-2v1l-1 2l1 1v2zM156 321l1 3l1 -1v-2v-1l-1 -2q-1 0 -1 3zM45 313q0 -1 1 -3v-1q-1 -1 -1 -2q0 1 -1 3v1q1 1 1 2zM30 361q-1 1 -3 1h1l2 1q1 0 3 -0.5t3 -0.5q-1 0 -3 -0.5t-3 -0.5zM30 386q-1 1 -1 3q0 -1 0.5 -3.5t0.5 -3.5v4zM32 67l-4 -4q0 4 4 4zM109 41q3 0 5 -2
l-2 -3q-2 1 -4 3q0 1 1 2zM43 437l6 -3q0 -2 -2 -2q-3 0 -5 4q-1 1 1 1zM125 564q2 5 5 5l2 -1q0 -6 -4 -6q-1 0 -3 2zM49 390q-1 -3 -5 -3q0 8 2 8q3 0 3 -5zM146 522q2 -2 0 -3q-6 0 -6 5l2 4q1 -1 4 -6zM126 519v-6v3l1 -1q0 -1 -2 -1q0 -26 5 -26q1 0 2 3t2 6.5t2 5.5
q3 -9 3 -18q0 -6 -3 -11t-3 -7q0 -1 1 -4t1 -4q0 -10 -9 -10q0 -3 2 -4.5t2 -3.5t-2 -3.5t-2 -2.5t1 -4.5t1 -5.5t-1.5 -6.5t-1.5 -6.5q0 -4 2 -8q-1 -1 -1 -4q0 -2 0.5 -4t0.5 -4q0 -5 -2 -13q0 -1 0.5 -4t0.5 -4v-4q0 -3 1.5 -11t1.5 -11q0 -2 -2.5 -6t-2.5 -7q0 -1 2 -2
l5 -2.5t4 -2.5q-12 0 -12 -143v-5q0 -39 -4 -47q-3 -7 -5.5 -29t-10 -33.5t-26.5 -11.5l-2 2q-2 3 -4.5 5.5t-4.5 3.5v2q0 2 -1.5 4.5t-3.5 8.5t-4 16t-3.5 32t-1.5 52q0 18 0.5 53t0.5 52q0 6 -2 8l-1 1l2 2q1 1 1 2t-2 3l-2 2q0 1 2.5 3.5t2.5 3.5q0 2 -2.5 5t-2.5 5
q6 10 6 23q0 1 -1 3.5t-1 4.5q0 6 2 20.5t2 21.5v6q0 3 1 11t1 12q0 1 -0.5 3t-0.5 4v1v3v5t0.5 7t1 8.5t1.5 10t2 11.5t3 12.5t4 13.5q1 2 6.5 17.5t5.5 21.5q0 1 -1 3t-1 3q0 3 3 3q2 0 5.5 -0.5t5.5 -0.5t2 2q0 1 -2.5 3.5t-2.5 3.5t0.5 2.5t0.5 2.5v2q-1 1 -1 2t5 3.5
t5 5.5q0 1 -2.5 4t-2.5 4l1 1q2 0 6 -5t4 -8t-3.5 -4.5t-4.5 -2.5q0 -4 4 -4h1q2 1 3 1q8 -6 8 -9v-2q0 -2 3 -5.5t3 -6.5q0 -1 -0.5 -2.5t-0.5 -2.5q0 -10 6 -16zM137 521q2 0 2 2l1 -1h-1h-1q0 -4 -2 -6q-4 3 -6.5 9.5t-5.5 9.5l1 3q1 0 3 -0.5t3 -0.5h1l9 -6v3l1 -1h-1
h-1v-3l1 -2q0 -1 -3 -1t-3 -2q0 -3 2 -4zM91 568l2 -3v3q-4 0 -3.5 -4t-2.5 -4t-3 3q0 5 7 5zM37 332q7 2 7 -2q0 -3 -3 -3q-2 0 -4 5q-2 3 -2 2q2 0 2 -2zM145 538l-2 -5l-3 3q1 1 1 2q1 0 1 -3q3 0 3 3zM90 569l11 -4v3v-1h-2v-3q-2 1 -6 3.5t-8 4t-7 1.5q-10 0 -10 -20
v-4q0 -4 -4 -5q0 -2 3.5 -5t4.5 -5q0 -2 -1 -2q-6 0 -14 13q-5 -1 -5 -5v-1l1 -1l-6 -11q-1 -2 -1 -4t2 -4q-9 -7 -11 -25v-6q0 -2 -1 -6t-1 -5t0.5 -4t0.5 -5t-2 -5.5t-2 -5.5v-18q0 -2 -1.5 -5.5t-1.5 -4.5q0 -2 0.5 -6.5t0.5 -5.5q0 -5 -1.5 -15t-1.5 -15q0 -3 0.5 -7
t0.5 -6t-1 -5t-1 -4t0.5 -3t0.5 -3t-2.5 -15t-2.5 -17v-8v-5q0 -3 3 -4.5t3 -3.5t-3 -2t-3.5 -4t-0.5 -10t-1 -8v-4q0 -2 -0.5 -5t-0.5 -5q0 -1 0.5 -3.5t0.5 -3.5q0 -3 -1 -9.5t-1 -10.5t1.5 -10.5t1.5 -9.5q0 -1 -1 -5t-1 -6q0 -13 1.5 -38.5t1.5 -37.5v-11q2 -18 8 -34
q0 -1 -0.5 -2t-0.5 -2q0 -4 1 -8l1 -4q0 -1 -1 -3.5t-1 -3.5q0 -2 5 -11t5 -12q2 -11 15 -26t17 -15q2 0 5 3t4 3t4 -2.5t6 -2.5v5q4 0 7.5 -3t5.5 -3q3 0 14 6l11 6h1q5 0 8 2.5t5 5.5l2 3q16 9 24 35.5t8 51.5v7q0 3 1 8.5t1 8.5q0 1 -0.5 3t-0.5 3q0 5 2 17t2 18v4v132
q0 7 -1 10q1 3 1 9v10q0 1 0.5 3t0.5 3q0 4 -3 5q-1 1 1 3l2 2q0 4 -0.5 12t-0.5 12q0 1 1 4t1 5q0 1 -1 3t-1 3t1 3q0 1 -1 3t-1 3t1 3t1 3q0 2 -1.5 5t-1.5 4t0.5 3.5t0.5 3.5q0 2 -0.5 5t-0.5 4t1 4l-3 9h-3q-2 -1 -3 -1q-2 0 -2 5q0 2 2 6q-3 0 -3 -3q2 0 3 -3t3 -3
q6 0 6 20q0 2 -1 8t-1 9v6q0 -3 -2 1q-9 27 -9 46q-3 12 -10.5 18t-9.5 11q-2 0 -3.5 -1.5t-2.5 -1.5q-4 0 -7 7t-11 7q-2 0 -3.5 -2.5t-2.5 -2.5l-6 2q-11 3 -13 4q-1 -1 -4 -3.5t-5 -4.5l-2 -2z" />
    <glyph glyph-name="P" unicode="P" horiz-adv-x="244" 
d="M42 166l-1 1q0 -1 1 -1zM24 158q0 -1 1 -1q0 1 -1 1zM146 379l-1 -1q1 0 1 1zM138 291l1 1q-1 0 -1 -1zM51 537v0v0zM160 510q0 -1 1 -1q0 1 -1 1zM161 501l1 1q-1 0 -1 -1zM12 227q3 0 3 1q-2 0 -3 -1zM150 364h3l-4 2h-1l-2 -1q2 0 4 -1zM141 287l-1 -4v-3q2 2 2 9
q0 1 -0.5 1t-0.5 1v-4zM32 144q0 6 -2 6l-10 -10q0 -2 5 -2q6 0 7 6zM49 262l1 3q0 -13 2 -15.5t14 -2.5q3 1 9 2t8 1.5t6.5 1.5t6.5 2t5.5 2.5t5.5 3.5t4.5 5t4.5 6.5t4.5 8.5t4.5 11q1 3 4 6.5t5 4.5l3 2q0 1 -3 5.5t-3 7.5q0 6 3 15t5 10q-1 1 -1 2l4 4q-1 1 -1 4
q0 2 8 10q-9 3 -9 6q0 2 1.5 6t1.5 6q0 3 -0.5 9.5t-0.5 9.5q0 4 2 12.5t2 12.5v4q2 3 2 10v7v10v8v9v7v10q0 25 -7.5 45t-21.5 20q-29 0 -41 7q-7 0 -15 -4.5t-8 -10.5v-12q0 -12 -2 -18q0 -4 0.5 -12.5t0.5 -12.5q0 -16 -1.5 -49t-1.5 -50v-30q0 -30 -2 -45q0 -5 0.5 -16
t0.5 -17q0 -2 -2 -2h-2q-4 0 -4 -5q0 -1 3.5 -5t3.5 -10zM153 354q0 -1 2 -1q0 3 -3 3h1v-2zM75 608l1 -5q30 0 61.5 -13t43.5 -36q6 -12 6 -28v-6q0 -5 2 -23t2 -28v-8q0 -1 0.5 -5t0.5 -5q-6 -23 -8 -62t-4 -49q0 -2 -1.5 -11.5t-3 -18.5t-4 -21.5t-5 -22.5t-6 -19.5
t-7 -14.5t-6.5 -5q-1 0 -2.5 0.5t-2.5 0.5t-1 -2v-2q0 -11 -22.5 -18.5t-45 -11.5t-22.5 -5q0 -5 1 -13t1 -13q0 -2 -2 -2h-3q-1 0 -6 -5l4 -4q0 -6 -5 -9t-5 -13q5 0 5 5q0 1 -0.5 1t-0.5 1q6 11 10 11q9 0 16 -126v-9q0 -2 1 -5t1 -4q0 -8 -21 -8q-29 0 -29 30
q0 3 -1.5 8.5t-1.5 8.5q0 1 0.5 3t0.5 3q-3 18 -3 21q1 1 1 4q0 2 -1 6t-1 6v7q0 2 -1.5 6.5t-1.5 7.5q0 1 0.5 3.5t0.5 3.5q0 4 -1 12t-1 12q0 3 1.5 7t1.5 6q0 9 -2.5 27.5t-2.5 28.5v10q0 3 -1 8t-1 7q0 1 0.5 2.5t0.5 2.5t-1 4q0 1 3.5 2.5t3.5 3.5l-1 1h-2q-7 0 -7 8
q0 1 2 3.5t2 3.5q0 2 -3 8.5t-3 8.5t1.5 5.5t1.5 4.5t-1 2.5t-1 2.5t0.5 3.5t0.5 3.5v3q1 1 1 4t-1 9t-1 9q0 1 0.5 3.5t0.5 3.5v7q0 1 0.5 3t0.5 3t-1 4t-1 4t1 3.5t1 3.5t-1 3t-1 3t0.5 3t0.5 3t-1 3t-1 4q0 1 2 7q0 2 -1 8t-1 9t1 7.5t1 6.5q0 1 -1 4t-1 4q0 3 2 9.5
t2 7.5t-0.5 3t-0.5 3q0 8 3.5 22t3.5 16t-1.5 5t-1.5 4t1.5 5t1.5 6q0 1 -1 3t-1 3q0 11 6 18l-2 2q-2 3 -2 4l1 2q2 1 2 2q0 2 -1.5 5t-1.5 4q0 2 1 3q0 2 -3.5 6t-3.5 8l3 4q4 5 7 10l3 4l14 7t15.5 7.5t14 5t15.5 2.5z" />
    <glyph glyph-name="Q" unicode="Q" horiz-adv-x="294" 
d="M162 150q-1 0 -1 -1q1 0 1 1zM198 49q0 -1 1 -1q0 1 -1 1zM191 452v1l-1 -1q0 -1 1 -1v1zM193 429q0 1 -1 1q0 -1 1 -1zM196 422v-1v1zM178 413v0v0zM204 366l-1 1q0 -1 1 -1zM187 479l-1 -1q1 0 1 1zM198 462l-1 -1q1 0 1 1zM201 336l-1 -1q1 0 1 1zM192 333l-1 -1
q1 0 1 1zM195 541h-1v-1q1 0 2 1h-1zM205 387q0 3 -1 3q0 -3 1 -3zM55 488v3q0 -1 -1 -3q1 -1 1 0zM172 203v-3v3zM33 193q0 3 -1 3q0 -2 1 -3zM181 182q0 3 -1 3q0 -3 1 -3zM188 154q-4 0 -4 -1h4v1zM137 592q-1 -1 -3 -1q2 -2 6 -2zM188 435q-2 2 -3 2q-3 0 -3 -2
q0 -1 2 -2l3 -1q0 2 1 3zM197 461q0 4 -3 4q-2 0 -2 -2q0 -4 4 -4q0 2 1 2zM25 181q0 5 -4 5q-2 0 -3 -1q2 -5 6 -5q0 1 1 1zM189 185q0 7 -4 8q0 -5 6 -11q0 2 -2 3zM185 539q-3 16 -6 16l-7 -20l1 -3q10 2 12 7zM167 211l-4 -5v-2l1 1h-3v7q0 2 -1 6.5t-1 6.5q0 7 1 20
t1 20v15q0 17 1.5 51t1.5 51q0 2 -0.5 6t-0.5 6q0 65 7 65q1 0 1 -1l-1 -2q0 -1 9 -4q4 0 4 3q0 2 -3 4.5t-3 3.5l3 1q3 2 3 3t-2.5 4.5t-2.5 5.5t1 4t1 3q0 4 -4 4h-10q-2 4 -2.5 20t-2.5 18q-3 3 -8.5 12.5t-10 16.5t-7.5 7q-2 -1 -6 -1q-2 0 -6 0.5t-7 0.5h-2
q-3 0 -8 1.5t-7 1.5q-7 0 -16.5 -13.5t-9.5 -22.5v-2q0 -40 -7.5 -91t-7.5 -80q0 -34 -3.5 -60.5t-3.5 -62.5v-3q-1 -2 -1 -7v-17q0 -2 -0.5 -5t-0.5 -4q0 -11 0.5 -32.5t0.5 -32.5v-12v-12q0 -2 -0.5 -8t-0.5 -8q0 -60 51 -60q8 0 25 7.5t17 18.5q0 6 -18.5 18.5
t-18.5 14.5q0 3 3.5 6.5t3.5 5.5l-1 1q-1 2 0 3q8 8 9 10l2 -1l6 4q5 3 7 3t2 -3l-1 -1v-2t12 -6l5 -2q8 0 8 63q2 7 10 10t8 9q-2 1 -5.5 1.5t-5 1t-3 3.5t-1.5 8t3 6zM201 440q-2 2 -3 2l-1 -3l1 -2q1 0 2.5 1.5t3.5 2.5l-2 1q-2 -2 -1 -2zM11 178q0 1 -2.5 3t-2.5 5t2 8
t2 7t-1 5.5t-1 5.5v6q0 1 -0.5 2.5t-0.5 2.5t1 5t1 5v8q2 24 2 38q0 2 -0.5 6.5t-0.5 7.5q0 23 9 115q0 3 2 8.5t2 8.5q0 1 -1 3t-1 3l7 32v9q0 38 13 60q0 1 -1 3t-1 3q0 25 21 46q3 6 16 13.5t16 7.5t7 -2q4 2 8 2q2 0 8 -1t9 -1q1 0 3 0.5t3 0.5q9 0 19 -6.5t13 -6.5
q1 0 4.5 1.5t4.5 1.5q2 0 2 -2q0 -1 -1 -3v-2l12 -9q11 -8 11 -10q0 -1 -1.5 -2.5t-1.5 -2.5t3 -1t3 -2t-1 -3q17 -9 17 -28q0 -2 -1 -2t-2 0.5t-2 0.5t-4 -3t-3 -4q0 -2 2 -6q-3 0 -3 3q10 -2 10 -5q0 -1 -5 -4t-7 -3q-3 0 -6 5.5t-7 5.5h-2l-3 3q-1 -1 -2 -1q3 0 3 -1
q0 -2 -1.5 -5.5t-1.5 -5.5q1 -1 1 -2l-2 -1q-3 -2 -4 -2q0 -8 2 -8q1 0 2.5 1t2.5 1q5 -1 19 -14q2 0 2 4q0 1 -1.5 2.5t-1.5 2.5q1 6 3 6q1 -1 5 -4.5t5 -5t2.5 -5t1.5 -8.5q0 -4 -0.5 -12t-0.5 -12q0 -3 1 -9t1 -9q0 -2 -1.5 -6t-1.5 -5v-3l1 -2q-3 -27 -3 -30
q0 -1 0.5 -3t0.5 -3q0 -2 -1 -4t-1 -3q0 -3 1 -8t1 -7q0 -6 -2.5 -12.5t-2.5 -7.5q0 -2 2 -6.5t2 -7.5q-1 -17 -7 -27q0 -1 2.5 -6t2.5 -6q0 -2 -1 -4t-1 -3q2 -6 2 -9q0 -73 -5 -79q0 -2 0.5 -6t0.5 -6t-1 -7t-1 -8q0 -4 0.5 -12t0.5 -12v-7q0 -2 0.5 -5.5t0.5 -5.5
q0 -7 -3 -21t-3 -18q0 -1 24 -23.5t24 -42.5q0 -3 -11 -11.5t-13 -8.5t-4 0.5t-4 0.5q-1 0 -3 -0.5t-3 -0.5q-5 0 -5 7q0 1 1 3q-3 2 -7.5 7.5t-8.5 9.5t-8 4q-3 0 -15 -14t-21 -16q-13 -10 -51 -10q-26 1 -48 15q-16 0 -25.5 19t-11 32.5t-1.5 20.5q0 82 2 83q2 0 2 2
q-3 2 -3 5q2 11 5 14v-2l1 1q-2 0 -5 1z" />
    <glyph glyph-name="R" unicode="R" horiz-adv-x="250" 
d="M11 144l-1 1q0 -1 1 -1zM52 26l1 1q-1 0 -1 -1zM45 82q-1 -1 -3 -1l3 -3l1 2zM46 331q0 -120 4 -120q20 0 39.5 15.5t29.5 29.5t10 17q0 9 3 28.5t3 29.5v12q2 7 2 22v6q0 2 0.5 4.5t0.5 3.5q0 92 -5 111q-9 34 -22.5 45t-42.5 11q-6 0 -10 -1.5t-5.5 -5t-2 -5.5t0 -8
t0.5 -7q0 -6 -2.5 -23t-2.5 -26v-6v-42v-49v-42zM163 538l-3 -8q-5 -2 -5 -4q0 -6 10 -10q1 0 4 1t4 1q2 0 2 -2q0 -1 -0.5 -3t-0.5 -3v-1q1 -1 1 -2q0 -4 -7 -4h-3q-2 0 -2 -3t2 -7q0 -1 -0.5 -2.5t-1.5 -0.5q-2 1 -5 4l-4 2l-1 -1q0 -5 9.5 -12t10.5 -11h-3v2h-1
q3 0 3 -3.5t6 -3.5h-7l2 -2q11 0 11 4q0 1 -6 10q6 0 8 -0.5t2 -2v-4t1 -8t4 -11.5q1 -1 1 -5q0 -3 -2 -9q0 -1 1 -3.5t1 -4.5q0 -3 -2 -9q2 -3 2 -10v-10v-11q0 -17 -4 -51.5t-4 -51.5v-2q0 -3 -1 -7t-1 -6q0 -3 1 -5q-2 -3 -5.5 -6.5l-6.5 -6.5t-3 -4q5 -2 5 -7
q0 -2 -1.5 -5.5t-4.5 -7t-6.5 -7.5t-7 -7.5t-7.5 -7t-6.5 -6l-4.5 -4.5l-2 -2q-1 -1 -1 -3q0 -4 11.5 -15t14.5 -15q18 -30 42 -114q2 -6 2 -11q0 -6 -11.5 -10.5t-19.5 -4.5q-11 0 -18 13.5t-14 41t-9 32.5q-20 55 -77 55q-2 0 -4 -7.5t-5 -7.5v3q6 -2 6 -39v-6q0 -3 1 -8
t1 -7v-8q0 -2 1 -5.5t1 -5.5v-3l-1 -3q5 -5 5 -33v-4q0 -2 1 -6t1 -6q0 -4 -14.5 -6.5t-19.5 -2.5l-10 7q1 1 1 2t-0.5 2.5t-0.5 2.5q0 2 1.5 4t1.5 3t-1 4l-1 2l1 2q2 2 2 3l-2 3q-2 3 -2 4q0 2 2.5 3.5t2.5 4.5q-15 2 -15 36q0 2 1 3q-5 15 -5 51q0 2 1.5 6t1.5 5t-2 5.5
t-2 7.5q-2 28 -2 80v64q0 6 1.5 16t1.5 16q-2 6 -2 10v5v6q0 3 1 5q-2 9 -2 78q0 19 8 99q0 1 -0.5 2.5t-0.5 2.5q0 7 1 12t2.5 8t3 5t3.5 2.5t3.5 1t2.5 0.5h1q4 13 50 13q18 0 45 -6t27 -17q0 -1 -1.5 -3.5t-1.5 -3.5q0 -8 5 -8q0 8 2 9l3 -3q-2 -2 -2 -4l1 -1q1 0 3 1
t3 1q3 0 5 -3.5t2 -4.5q0 -3 -5 -3t-5 -1q0 -3 7 -13z" />
    <glyph glyph-name="S" unicode="S" horiz-adv-x="225" 
d="M167 123h1l-1 1v-1zM164 118l-2 1q-1 0 -1 -1h3zM161 95zM158 132l1 1q-1 0 -1 -1zM149 135q1 0 1 1zM135 108l1 1q-1 0 -1 -1zM135 115h-1l1 -1v1zM149 207q0 1 -1 1zM140 191l1 1q-1 0 -1 -1zM132 259q1 0 1 1zM118 299q3 1 -1 2l-2 1q-1 0 -3 -2q1 0 2.5 -0.5
t3.5 -0.5zM116 257q1 0 1 1zM111 251l1 1q-1 0 -1 -1zM107 271q1 1 1 2q0 2 -4 4q-7 0 -7 -6q0 -4 5 -4q1 0 5 4zM105 261q0 1 -1 1zM97 303zM102 334q-1 -2 2 -2q-1 2 -2 2zM107 319l-1 -1q1 0 1 1zM177 127l3 15q-1 -2 -1 -7q0 -1 1.5 -4.5t1.5 -5.5q0 -1 -1 -6.5t-2 -8.5
t-3.5 -6t-6.5 -3q0 -2 2.5 -4t2.5 -3q-27 -74 -74 -91q-4 0 -6 1t-3 1l-5 -2q-4 -2 -7 -2h-10q-2 0 -4.5 -0.5t-3.5 -0.5q-4 0 -8.5 2t-7.5 4l-3 3h-3q-16 0 -26 52.5t-10 88.5q0 68 11 68l22 -8q9 0 13 -8t4 -13q0 -3 -2 -8.5t-2 -8.5q0 -4 1 -6q-2 -6 -2 -8q0 -26 9 -74
q0 -8 4 -25t10 -17q4 0 7.5 0.5t14 4.5t17.5 11.5t13 24.5t6 41q0 11 7 11q1 0 2 -2l2 -2q1 0 3 3.5t2 4.5q0 3 -3 3q-2 0 -3 -1t-2 -1q-3 0 -3 3v2q0 1 -2 5q0 4 4 4q2 0 6.5 -2.5t7.5 -2.5h6q-13 0 -17 9h-4q-11 0 -11 32q0 2 2 4l2 2q0 -7 -8 6q-11 17 -11 38q0 1 1 4
l-2 6q-1 5 -3 9t-6 10.5t-9 11.5l2 1l2 2l-3 5q-1 0 -3 -1q-3 0 -10 8t-7 12q0 1 2 3l2 2q0 2 -6.5 5t-6.5 7v5q0 -1 -1.5 1t-5.5 8t-10 11q-21 18 -44 89q0 7 -2 21t-2 21q0 8 2 18t6 22.5t5 18.5q10 41 61 58q34 0 64 -24.5t30 -66.5v-7q0 -2 1.5 -6t1.5 -6t-1.5 -4.5
t-1.5 -3.5q0 -2 2 -8t2 -9t-0.5 -8t-0.5 -8q0 -1 1 -3t1 -3q0 -5 -6.5 -15t-9.5 -10q-9 0 -20.5 10.5t-11.5 22.5v18v2q-1 2 -1 3v4v5v7.5t-0.5 9t-1.5 10t-4 11t-6.5 11.5t-9.5 10.5t-14 9.5q-18 0 -28 -24t-10 -48q0 -4 -0.5 -10.5t0 -10.5t2 -12t7 -20t14.5 -30
q1 -3 15 -21t33.5 -52t37.5 -76q0 -8 10.5 -38.5t10.5 -52.5v-4q1 -7 -8 -12q1 -1 4 -3q4 -4 4 -7v-2z" />
    <glyph glyph-name="T" unicode="T" horiz-adv-x="210" 
d="M107 503l1 1q-1 0 -1 -1zM74 125l-1 1q0 -1 1 -1zM87 117l1 -1q0 1 -1 1zM76 109l-1 -1q1 0 1 1zM105 508q0 1 3 1q0 -1 -3 -1zM101 497q0 2 -1 3h-1q-3 -3 -3 -4q4 0 5 1zM93 530q1 -3 6 -3q0 6 -6 3zM94 494q-4 0 -4 -3l1 -1h2t3 2q-2 0 -2 2zM92 480v-1q5 3 6 4h-2
q-4 0 -4 -3zM84 74q-2 5 -7 7l-1 -2l6 -6q1 1 2 1zM70 507l-4 -3q2 4 4 4h1q1 -1 2 -1q3 0 6 2.5t6 6.5t5 6q-2 3 -6 3q-15 0 -15 -7q-3 0 -5.5 5.5t-5.5 5.5q-10 -4 -35 -6t-28 -4h-1q-5 0 -5 3q0 1 0.5 3t0.5 3l-5 31q0 3 3 6t6 3q1 -1 4 -1q12 0 47 7.5t52 7.5h5
q5 0 16.5 1.5t16.5 1.5q4 0 11 -1t10 -1t10.5 2t10.5 2q10 0 10 -5v-3q1 -4 2 -4l1 1h3q7 0 7 -7q-3 -3 -8 -8.5t-7 -7t-6 -5t-7.5 -4.5t-9.5 -2t-13.5 -1.5t-17.5 -0.5q-3 0 -8.5 -1t-8.5 -1q-2 0 -4.5 0.5t-3.5 0.5q-3 0 -3 -4q0 -1 3 -3t3 -4q0 -1 -1.5 -5t-1.5 -6t1 -8
t1 -10q0 -1 -2 -4l-2 -3q0 -1 2 -2q1 0 2 -0.5t1 -2.5v-29q0 -1 -3 -88v-10q0 -2 -1.5 -8t-1.5 -8q0 -17 0.5 -51t0.5 -50q0 -5 -1 -15t-1 -15q2 -18 2 -26q-1 -32 -8 -40l7 -19v-4q0 -2 -0.5 -5.5t-0.5 -5.5q0 -1 1 -4t1 -5t-1 -5t-2 -4.5t0 -2.5l-3 3q-4 3 -6 3
q-1 -1 -1 -2l16 -13q0 -1 -0.5 -2t-0.5 -2t0.5 -3t0.5 -3q0 -2 -9.5 -7t-9.5 -7q0 -5 7.5 -6t7.5 -3q-2 0 -6 -0.5t-6 -0.5q0 3 3 3q1 -6 8 -6q5 0 5 2q-1 2 -1 6l3 3q-3 0 -3 3.5t-2 3.5h-1l-1 -1l-6 6q9 0 11.5 -3t2.5 -15q0 -2 -0.5 -4.5t-0.5 -3.5t0.5 -5t0.5 -5t-1 -3
t-1 -4q0 -1 0.5 -3t0.5 -3q0 -5 -12 -5q-2 0 -2 3q0 1 0.5 3t0.5 3q-5 5 -8 9h-1q-2 0 -2.5 -3t-4.5 -3q-2 0 -7 4.5t-5 8.5q0 1 1 2l1 2v2q-1 2 -1 4q0 3 4 3l2.5 -5t2.5 -4q6 12 12 15q0 -3 -3 -3q0 5 -3 6l-3 1l3 3q2 3 2 6l-5 2q-5 1 -5 5q0 3 2.5 10.5t2.5 12.5h1h1
q-1 0 -1 1v-3q-15 0 -15 40q0 2 2 2q5 -7 6 -7q2 0 2 1q0 4 -6.5 16t-6.5 24q0 3 1.5 7t2.5 7l2 3q0 3 -2 7t-2 6q0 1 1 3t1 3q0 2 -1.5 6.5t-1.5 7.5v95v9q0 6 1 9q-1 2 -1 6q0 8 0.5 24t0.5 24v10q0 3 0.5 7t0.5 7v13q0 2 0.5 5.5t0.5 4.5q0 2 -1 6t-1 5v5v7q0 5 2 8v1
l-1 2q0 2 0.5 5.5t0.5 4.5q0 5 -1 7q1 2 1 6t0.5 7.5t2.5 3.5q0 -3 3 -6q1 2 1 3q0 2 -5 2z" />
    <glyph glyph-name="U" unicode="U" horiz-adv-x="235" 
d="M47 562l1 -1q0 1 -1 1zM20 559l1 1q-1 0 -1 -1zM20 134l-1 -1q1 0 1 1zM34 286h-1v-1q1 0 1 1zM175 274l1 -1q0 1 -1 1zM170 469l1 1q-1 0 -1 -1zM7 459q0 -1 -1 -1zM22 394l-1 1q0 -1 1 -1zM172 394l1 -1q0 1 -1 1zM16 161l1 1q-1 0 -1 -1zM16 218q0 1 -3 1l1 -1h2z
M31 554h3h-1q-1 1 -2 1t-3 -1h3zM170 441h3q-3 2 -7 2q2 0 4 -2zM37 222q-3 -3 -3 -5q0 -1 2 -1q3 0 3 2zM27 224l-2 -5h4q2 0 2 3q-6 2 -6 6q3 0 3 -6h-2q0 -1 1 -1v3zM51 41l2 -5q-5 0 -10.5 5.5t-5.5 9.5q0 1 0.5 2.5t0.5 2.5q-10 5 -15.5 31.5t-5.5 42.5q0 4 3 10l4 7
q0 1 -4 5t-4 7v13l-1 2l1 2l2 2q0 1 -3 3.5t-3 4.5q0 1 1.5 3.5t1.5 3.5q0 3 -2 11t-2 9q0 2 1 4.5t1 3.5q-5 12 -5 30q0 3 2.5 7.5t2.5 6.5t-3 13l-2 10q0 2 1.5 5t1.5 4t-0.5 3.5t-0.5 4.5q0 1 1 4t1 5q0 6 -1.5 13.5t-1.5 8.5q0 2 1.5 6t1.5 7q0 5 -0.5 16t-0.5 17l1 2v2
q-4 10 -4 16q0 2 2 8q0 1 -1 4.5t-1 5.5t1 5t1 4q0 2 -1.5 6t-1.5 7q0 1 1 4t1 5q0 1 -0.5 3.5t-0.5 4.5v6v3q0 4 1 11.5t1 11.5v18q0 2 2 3t2 2q0 2 -2.5 4.5t-2.5 3.5t1 4.5t1 5.5v27q0 22 8 25l4 -2q2 0 5 2.5t4 2.5t3 -1h2q3 0 4 3.5t3 3.5q3 0 3.5 -7.5t4.5 -8.5
q6 -4 6 -9q0 -1 -0.5 -3t-0.5 -4v-16q0 -19 -4 -50t-4 -37q0 -2 1.5 -6t1.5 -5v-20t-2 -25q0 -4 1 -11t1 -10q0 -4 -1.5 -10.5t-1.5 -9.5q0 -2 1.5 -6.5t1.5 -7.5t-1 -7t-1 -7q0 -4 1.5 -10t1.5 -8q0 -3 -1 -13t-1 -15q0 -6 1.5 -18.5t1.5 -18.5v-4q0 -2 0.5 -8t0.5 -9v-6
v-7v-5v-7q0 -1 -1 -3t-1 -4q0 -6 3.5 -23.5t3.5 -18.5v-10q0 -23 8.5 -50t22.5 -29q2 0 6.5 -1.5t6.5 -1.5q11 0 23 87l1 14q3 8 3.5 27.5t4.5 26.5q-1 2 -1 5q0 4 0.5 9.5t1 10.5t1 9t0.5 6l1 3q0 2 -0.5 6t-0.5 6q0 9 2 28t2 29q-2 14 -2 21q0 13 1 39t1 40q0 2 -1 5.5
t-1 5.5q0 3 1 4q-1 2 -1 8v8v10v14q0 2 -0.5 6.5t-0.5 6.5q0 6 0.5 20t0.5 20q0 22 -1 33q0 7 3 14.5t5 7.5q11 -1 18 -8q1 0 3 0.5t3 0.5q5 0 9.5 -7t4.5 -12v-8v-27q0 -13 -1 -19q1 -1 1 -4q0 -1 -0.5 -3.5t-0.5 -3.5q0 -2 1 -4t1 -4t-1.5 -4.5t-1.5 -3.5l2 -8q2 -8 2 -12
q0 -2 -1 -5.5t-1 -5.5q0 -5 1 -15.5t1 -16.5q0 -3 -1.5 -9t-1.5 -9t1.5 -8t1.5 -7q0 -1 -0.5 -3t-0.5 -4t1.5 -7.5t1.5 -8.5t-2 -8.5t-2 -7.5q0 -3 2 -7.5t2 -6.5v-6v-11q0 -4 -2.5 -13t-2.5 -11v-3q0 -3 -2.5 -10.5t-2.5 -11.5q0 -1 0.5 -3.5t0.5 -3.5q0 -4 -1.5 -9
t-1.5 -8q0 -1 1 -5t1 -5q0 -2 -1.5 -5.5t-1.5 -4.5t1 -4t1 -4q-1 -5 -2.5 -12t-1.5 -11l-1 -4q0 -2 1 -5t1 -5q0 -60 -15 -95q-2 -4 -2 -1v-3q0 -2 -4 -6q0 1 -2 2t-3 1l-1 -1v-2q0 -3 1.5 -8t1.5 -8q0 -12 -7.5 -21t-13.5 -12t-8 -3q-2 -1 -6 -1q-1 0 -3 1t-3 1l-3 -3h-2
q-1 0 -3 -1l-2 -1q-1 0 -3.5 1t-3.5 1h-5q-10 0 -20.5 5.5t-13.5 10.5q1 0 3 0.5t3 0.5q-5 0 -9 4v-3z" />
    <glyph glyph-name="V" unicode="V" horiz-adv-x="247" 
d="M38 536l-1 -1q1 0 1 1zM41 524l-1 1q0 -1 1 -1zM32 511l-1 -1q1 0 1 1zM15 504l1 1q-1 0 -1 -1zM20 499q1 0 1 1q-1 0 -1 -1zM38 500v0v0zM37 289l1 1q-1 0 -1 -1zM45 287l1 -1q0 1 -1 1zM57 281h1h-1zM37 274h-1v-1q1 0 1 1zM183 413q1 0 1 1q-1 0 -1 -1zM43 317h-1v-1
q1 0 1 1zM49 274l1 -1q0 1 -1 1zM46 496h-3h3zM56 268h-3t0 -1q1 0 3 1zM172 429l-2 -2q3 -8 6 -8q1 0 1 3q0 2 -1 4t-2 3t-2 0zM16 551q-6 0 -5 -3q6 -4 9 -5q4 0 4 5q-3 3 -8 3zM56 241l-3 1v1v1l-1 -1q4 0 3.5 -4.5t2.5 -4.5t3 3q0 4 -5 4zM34 533l-2 -1q-3 -2 -3 -3
q0 -4 4 -4q1 0 1 7l3 3l-1 1l-1 1q0 -2 -1 -4zM18 582h-2l-2 -1q-7 0 -7 6q0 4 8 7.5t15 3.5q2 0 4 -2t4 -2t3 1q4 0 4 -6q0 -1 -1 -3l-1 -2q0 -2 2 -2q1 0 2 1t2 1q6 0 6 -23v-20q0 -12 1 -18q0 -2 -0.5 -7.5t-0.5 -8.5q0 -20 2.5 -37.5t4.5 -27t2 -11.5v-15q0 -3 1.5 -9
t1.5 -9v-5q0 -18 2 -36.5t5.5 -37.5t4.5 -27q0 -20 7 -51t7 -35v-4q0 -47 14 -75q0 9 3.5 30t3.5 24v5q0 34 10.5 91t10.5 69q0 27 6.5 57.5t7.5 39.5q2 25 29 132q0 12 13 12q3 0 7 -2.5t6 -2.5h5q5 0 9.5 -6t4.5 -10q0 -20 -15 -67t-15 -61q0 -2 -2 -5.5t-2 -4.5t1 -3.5
t1 -4.5q0 -5 -3 -10t-6 -7.5t-3 -1.5q0 -1 1.5 -3t1.5 -4q0 -1 -1.5 -4.5t-1.5 -5.5q0 -3 2 -8t2 -7q0 -3 -3 -8.5t-3 -6.5t1.5 -5t1.5 -6q-2 -11 -5.5 -37.5t-7.5 -37.5l-1 -1v-2v-3l1 -1q0 -1 -1 -3t-1 -3v-6q0 -24 -7 -71q-4 -24 -10 -72t-10.5 -68t-11.5 -20
q-1 0 -3.5 0.5t-3.5 0.5q-4 0 -11 -7l-6 -6l-2 5q-3 5 -7 5h-2q-13 0 -21.5 25.5t-8.5 41.5q0 3 2 8t2 8q0 4 -8 28.5t-8 35.5v3q0 3 -1.5 9t-1.5 9q0 2 1.5 5.5t1.5 5.5q0 25 -15 67l-2 3q0 3 1.5 7t1.5 6q0 3 -1.5 7.5t-1.5 6.5v3l1 2q0 1 -3 5t-3 9q-1 12 -3 34t-3.5 40
t-2.5 34q0 9 -4 32t-4 34q0 1 1 4t1 5t-2.5 6t-2.5 7q0 1 1 2.5t1 2.5t-0.5 3t-0.5 3t0.5 2.5t0.5 2.5q0 2 -1 5l-1 2l13 9h-2q-1 0 -3.5 -1t-3.5 -1q-6 0 -6 23q0 15 5 15q1 0 5 -1t6 -1q1 0 3 1q0 2 -4.5 3.5t-4.5 3.5q6 0 6 2z" />
    <glyph glyph-name="W" unicode="W" horiz-adv-x="411" 
d="M43 541l1 -1q0 1 -1 1zM88 75l1 1q-1 0 -1 -1zM125 75l1 1q-1 0 -1 -1zM276 75l1 1q-1 0 -1 -1zM88 63v3v-3zM272 149l1 -1q0 1 -1 1zM85 126l-1 1q0 -1 1 -1zM267 120l1 1q-1 0 -1 -1zM272 121l1 -1q0 1 -1 1zM80 28l-1 1q0 -1 1 -1zM192 421v1l-1 -1q0 -1 1 -1v1z
M69 219v0v0zM51 270l1 -1q0 1 -1 1zM55 265q0 -1 -1 -1zM136 261l1 1q-1 0 -1 -1zM69 234h3h-3zM234 225l1 -1q0 1 -1 1zM70 226l-1 3v-3v3q1 0 1 -3zM60 241v2q-1 0 -2.5 -0.5t-0.5 -1.5h3zM51 267h-4q0 -2 3 -2q1 1 1 2zM44 274l3 1h-2.5t-0.5 -1h3h-3zM62 202l2 1
q0 4 -4 4l-1 -1q2 -2 3 -4zM62 244q-2 -2 -2 -3q0 -2 3 -2l2 1q-2 2 -3 4zM135 234q-2 2 -3 2t-3 -2l1 -1q1 -2 2 -2zM148 270l-3 3l-1 -2q3 -3 4 -3v2zM101 191l8 -1q0 61 15 96q-1 1 -1 4q0 76 18 126q3 6 3 13v3q17 66 25 126q0 3 2 3q5 0 15.5 -2t11.5 -2t3.5 1t4.5 1
q6 0 14.5 -46.5t8.5 -66.5q0 -36 15.5 -106t17.5 -87q10 -101 26 -117q0 66 13 137q0 14 4 41t4 31q0 5 1 14t1 13v6q0 4 1 10.5t1 9.5v7q3 21 3 25v5q0 37 14 98t22 61h2q3 -1 4 -1t3.5 0.5t4.5 0.5q8 0 14.5 -10.5t6.5 -19.5l-6 -22l1 -1v-2l-7 -14q0 -2 1.5 -4.5
t1.5 -3.5q0 -11 -7 -41t-7 -31q1 -2 1 -6q0 -3 -1 -9t-1 -9v-9q0 -6 -2.5 -21.5t-2.5 -22.5q0 -3 1 -4q-4 -7 -4 -23q0 -2 1 -3q-10 -30 -10 -74q0 -3 -1 -9t-1 -9v-4q0 -7 -2.5 -21.5t-2.5 -20.5q0 -3 1 -9.5t1 -10.5q0 -24 -8 -34q2 -5 2 -13q0 -3 -1 -8t-1 -6q0 -2 1 -6
t1 -5q0 -4 -7 -7q5 -5 5 -6q-3 -9 -3 -10q0 -2 2 -6q-3 0 -3 -5q4 -2 4 -11t-4.5 -13.5t-4.5 -5.5h-6q11 0 11 -17q0 -3 -3.5 -3.5t-3.5 -1.5q4 1 4 -2q0 -1 -1 -3t-1 -3q0 -3 1 -4q0 -3 -5.5 -10t-8.5 -7q-38 0 -38 8q0 1 1 3v1l-3 6q0 1 0.5 5t0.5 5q-5 7 -6.5 23t-5.5 22
q-4 5 -8 15t-6 17t-2 8q0 2 1 3q-7 26 -7 33v4q0 3 -2.5 7.5t-2.5 6.5q0 1 0.5 3t0.5 3q0 5 -3.5 17t-3.5 15q0 1 0.5 3t0.5 3t-2 5l2 3q1 2 1 3t-3 5t-3 7q0 1 1 4t1 5l-2 1q-2 1 -2 2q4 4 4 9v4q1 1 1 3q0 1 -5.5 9t-5.5 12l1 2v3q0 2 -1 4l4 12q0 2 -10.5 23t-10.5 25
q0 1 2 2.5t2 3.5q-5 3 -8.5 14t-3.5 16v5q0 2 -1.5 7t-3 11t-2.5 9q0 -9 -5 -27.5t-5 -27.5q-2 -26 -4.5 -43t-3.5 -21.5t-2 -8.5t-1 -10t-4 -6q-2 0 -4 0.5t-4 0.5q0 -2 3.5 -5t3.5 -6q0 -1 -1 -3t-1 -3t0.5 -4t0.5 -4q0 -3 -2 -7t-2 -5t1 -4.5t1 -5.5q-1 -26 -10 -43v-4
q0 -8 -4 -23.5t-4 -23.5v-4q0 -3 -2 -6.5t-2 -4.5t1 -3t1 -3q0 -6 -3 -20t-3 -16q0 -1 0.5 -2.5t0.5 -2.5q0 -3 -3 -10t-3 -9l1 -2q1 -3 1 -4q0 -2 -3.5 -5.5t-3.5 -4.5l2 -2q1 -1 1 -3l-5 -5q0 -2 1.5 -7t1.5 -6q0 -2 -3.5 -5t-6.5 -3q-1 0 -3 1t-3 1l-2 -1h-3l-2 1
q-1 1 -2 1l-2 -1l-2 -1v3q-3 -3 -12 -3q-6 0 -6 11q0 5 1 8q0 5 -4 5q-1 0 -2 -2q0 -1 -0.5 -1.5t-1.5 0.5q-2 7 -6 21.5t-7 25t-3 16.5q0 1 0.5 3t0.5 3q0 2 -2.5 8t-2.5 9q0 2 1.5 5.5t1.5 4.5t-2.5 4.5t-2.5 5.5v4q0 3 -1.5 6.5t-1.5 5.5q0 3 1 4q-2 2 -6 12t-4 16
q0 1 2 2.5t2 2.5q-5 7 -5 14q0 1 0.5 3t0.5 3q0 3 -1 8t-1 7q1 1 2 1t6 -6.5t7 -6.5q1 0 3 2.5t7 2.5q3 0 3 3h1h1q-1 0 -1 1q0 -6 -18 -6q0 5 -5.5 9t-5.5 11q0 3 3 3l4 -3q4 -2 8.5 -5t4.5 -4q-3 0 -7 6t-13 6h-4q-3 0 -5 5q0 5 2 5q1 0 4 -3q1 -1 2 -1.5t2 0.5q1 2 2 2h3
q3 0 3.5 2.5t1 6.5t1.5 6q-3 0 -5 -2t-3 -2q-2 0 -5 2t-3 4l1 2v3q0 -1 -3 2t-5.5 11t-2.5 17q0 3 -2 9.5t-2 10.5q0 3 1.5 5t3.5 3l1 1l-1 3q-2 3 -3.5 8.5t-1.5 12.5v6q0 1 -1 3.5t-1 3.5t2 4.5t2 5.5q0 3 -2.5 9.5t-2.5 9.5q1 2 1 7q0 3 -1 8t-1 7q0 1 0.5 2.5t0.5 2.5
t-1 4t-1 4l2 4q-3 16 -3 49v10v6q0 2 0.5 5.5t0.5 4.5q0 10 -1.5 32t-1.5 31q0 1 3 16q1 1 4 -1l3 -2q2 0 4 0.5t3 0.5q13 0 21 -8.5t10 -23.5t2.5 -28t-1 -28.5t-1.5 -17.5q0 -20 2.5 -53t2.5 -43v-12q0 -3 0.5 -8t0.5 -7v-8q2 -16 2 -27v-7q0 -3 2 -15.5t2 -14.5
q-2 -2 -5.5 -6.5t-5.5 -7.5t-2 -2q0 -6 4 -6q0 7 4 7q3 0 6 -6.5t3 -10.5v-7q0 -1 1.5 -3.5t1.5 -3.5v-2q-1 -1 -1 -2q0 -14 4 -19l-3 -1q-3 3 -4 3l-2 -4q-1 -4 -5 -4q-1 -1 -1 -2q2 0 6.5 1.5t6.5 1.5q6 0 6 -12v-3q6 -21 9 -42q2 0 4.5 11t2.5 18v3q0 10 6 16l3 -3
q1 1 2 1h-3z" />
    <glyph glyph-name="X" unicode="X" horiz-adv-x="284" 
d="M192 528l-1 -1q0 -1 1 -1v2zM198 585l-1 1q0 -1 1 -1zM195 504q0 -1 1 -1q0 1 -1 1zM170 417q1 0 1 1q-1 0 -1 -1zM162 421h-3h3zM179 487v-3v3zM196 493q1 2 1 4q0 3 -2 3q-4 -6 -5 -9q0 -1 2 -3t3 -1q2 2 2 3q0 2 -1 3zM179 462l5 3q0 -3 -3 -3q-1 0 -2 2t-2 2
q-5 0 -5 -4h7zM190 538l-3 -3q0 3 3 3q0 -3 2 -3q4 1 4 3h-6zM181 454l-2 -11q0 -1 -1 -2.5t-1 -2.5q0 -2 2 -2h3q2 0 2 -2q0 -4 -3 -10t-3 -8q0 -1 1 -2q-2 -4 -29 -98v-1q-1 -1 -1 -2q0 -20 16 -65t17 -51q18 -79 53 -166v-3l-4 -4q-4 -3 -4 -7q0 -11 -5 -11q-1 0 -2 0.5
t-7.5 2.5t-16.5 5q-7 4 -12.5 17.5t-9.5 28.5t-5 17q-9 14 -21 57q-1 8 -8.5 28t-7.5 30q0 31 -15 48q-7 -14 -12.5 -30t-11 -36.5t-9.5 -31.5q-3 -8 -15 -38.5t-17.5 -50t-8.5 -38.5q-1 -5 -30 -12q-8 0 -8 3l1 2l1 2l-1 2q-2 3 -4 6.5t-2 7.5q0 22 17.5 66t17.5 46
q0 3 5 5q-1 1 -1 3q0 6 4 18t8.5 23.5t5.5 13.5q40 105 43 115v4q0 7 -11 33.5t-11 34.5q0 2 1 4.5t1 3.5q0 3 -9 21l-3 9q-35 86 -35 143q0 5 1 8.5t3.5 5.5t3.5 2.5t5.5 2t5.5 1.5q2 0 4 -2t3 -2t3 0.5t3 0.5q5 0 12 -15.5t13 -39t11.5 -46t10 -42t4.5 -20.5q4 -23 8 -23
q-1 0 4 5.5t9.5 10.5t4.5 4q0 3 1 7t1 6q0 3 -2 9.5t-2 9.5q3 17 12 34v2q-1 1 -1 2q0 11 4 28t8.5 29.5t5.5 13.5q2 4 2 6q0 1 -1.5 4t-1.5 5q0 3 4 6l3 2l-1 2v2q0 6 5.5 16.5t10.5 10.5q1 -2 7 -5h1q1 0 4 2l2 1q1 0 3.5 -2.5t2.5 -3.5q-1 -1 -1 -2q6 -3 12 -16
q0 -22 -12 -43q-3 -6 -3 -1q3 -3 3 -4q0 -31 -17 -70q-2 -1 -2 -2v-3q1 -2 1 -3q0 -9 -10 -9q-1 0 -2 1.5t-3 1.5q0 -3 5 -3z" />
    <glyph glyph-name="Y" unicode="Y" horiz-adv-x="211" 
d="M176 585q0 -1 -1 -1zM89 49l1 -1q0 1 -1 1zM84 302l-1 -1q1 0 1 1zM87 282l-1 1q0 -1 1 -1zM95 218l-1 -1q1 0 1 1zM87 231l-1 1q0 -1 1 -1zM101 130h-2.5t-0.5 -1l1 1h2zM83 159l3 -1q3 0 3 1q-1 0 -3 1h-1q-1 -1 -2 -1zM163 540h-1l-2 1l-1 -1h-2h1l2 -1l1 1h2z
M152 538h-2l-2 1q0 -1 4 -1zM162 534l3 -1q3 0 3 1h-1q-1 1 -2 1t-3 -1zM78 39h-2q0 -4 3 -4l1 2zM80 182q0 4 -4 4q0 -3 3 -3zM74 93q-2 1 -4 1v-1q-1 -1 -1 -2q2 -1 3 -1q2 0 2 3zM88 32q-2 -2 -2 -5v-1l1 -2q4 4 4 6t-3 2zM97 58l-1 -5q-5 0 -5 -3q0 -11 4 -11l7 6
q0 1 -3 2t-3 2q0 4 4.5 7.5t4.5 9.5q-1 0 -4 -3q-1 1 -3 1q-1 0 -1 -6zM96 123h4v-3q-3 3 -6 9q1 0 3 0.5t3 0.5q-4 4 -7 4q-3 -3 -3 -8q0 -3 6 -3zM76 249h-2q0 -1 1 -1q0 3 3 3q2 -5 5 -8l3 6q0 2 -4 2l-6 -3v3v-2zM148 582q1 1 3 1l-1 -1v2h-3h1v-2zM167 571l-4 4h-1h-3
q-1 0 -1 -1q2 -2 2 -4v-2l-1 -2q0 -5 7 -10.5t8 -15.5q1 -2 -1.5 -5.5t-2.5 -4.5v-1l1 -1v-3l1 -2v-3t-1.5 -4.5t-0.5 -4.5v-4q0 -4 -2 -11.5t-2 -11.5q0 -2 2 -6q0 -4 -2.5 -9.5t-4.5 -9t-2 -4.5l1 -1q0 -2 1 -2q0 -1 -3.5 -5t-2.5 -7v-2q1 -6 -5 -13.5t-6 -8.5
q-1 -15 -9 -27.5t-15.5 -19t-7.5 -7.5q1 -3 -1.5 -10t-2.5 -10q0 -17 -5 -20q0 9 -4 8q0 -9 4.5 -14.5t4.5 -9.5v-60q0 -2 0.5 -5t0.5 -4q0 -5 -3 -5q-1 1 -2 4.5t-4 4.5q-2 0 -2.5 -4.5t-3.5 -5.5l-1 -1q0 -2 6 -4.5t7 -4.5q3 -11 3 -23q-6 -8 -11 -9h-2q-2 0 -2 -2t2 -2
q12 -7 12 -32q0 -1 -1 -1q-2 1 -3 1l-3 -3q1 -1 4.5 -2.5t3.5 -4.5q0 -1 -0.5 -4t-0.5 -5t1 -4.5t1 -3.5l-7 -13q-4 0 -6 4.5t-5 4.5l-2 -7h8q0 -5 -4 -8t-4 -4l2 -4q0 -2 -1 -2l-2 1q-1 0 -1 -2v-3q0 -1 -1 -1h-1l-2 1q-3 0 -3 -3q3 -3 6 -3t5.5 2t4.5 2q0 -2 -0.5 -3.5
t-0.5 -2.5q2 0 4.5 2t4.5 2q4 0 6 -2t2.5 -3.5t0 -6t-0.5 -5.5v-10q0 -2 1 -8t1 -9t-2 -7t-2 -5l4 -21v-1q0 -7 -11 -7q-2 0 -5.5 1t-4.5 1q-2 0 -5 -2.5t-5 -2.5q-10 0 -10 5q3 4 3 5t-1.5 1t-3.5 1t-2 3v6q0 5 -2 8l6 14q-7 4 -7 8q0 10 4 10h1l2 -1q3 0 3 2q-1 6 -7.5 15
t-6.5 16q0 15 9 15q-6 0 -6 4v1l1 2q0 1 -3.5 8.5t-3.5 16.5q0 6 5 6q3 0 4 -4.5t3 -4.5q4 0 8.5 3.5t4.5 8.5q0 4 -2 4q-4 0 -5.5 -3t-3.5 -3q-6 9 -6 16.5t-3 10.5q-3 1 -3 4t6 13t6 11q0 6 -2 6q-1 0 -5 -4l-2 1v3q0 6 -1 9v1q1 1 1 2q6 -6 8 -6q5 0 5 2q0 1 -7 7t-7 20
q3 6 3 7q0 5 -2 14.5t-2 11.5q0 1 1 5t1 5t-2 7q1 1 1 4q0 2 -1 6t-1 6q0 3 2 6t2 4l-2 6q-2 7 -2 9q0 6 5 6q6 -4 7 -4q4 0 4 5q0 1 -2 4.5t-5 7t-5.5 6.5t-4.5 5l-2 2q0 6 -23 20v1q-1 5 -7.5 17.5t-6.5 16.5v6q0 2 -2 5.5t-2 5.5v10v11q-1 8 -3 26v11q0 3 -1 5l2 25
q0 9 -1 13q0 1 1 3t1 3q0 2 -2 4q0 1 0.5 3.5t0.5 3.5v2q1 5 2.5 21t3.5 25.5t4 9.5q1 0 3 -0.5t3 -0.5q2 0 4 0.5t3 0.5q14 0 14 -6l-1 -1l-2 -2t-1 -2q0 -3 2 -3q1 0 3 1h2q4 0 8 -7q0 -3 -5 -4t-5 -6q1 -2 6 -2h1q2 0 2 -3q-3 -8 -2 -9q0 -3 1 -4q-1 -4 -1 -12v-4
q1 -10 0 -31t-1 -29q0 -3 2 -9.5t2 -9.5v-11q6 -64 21 -64q8 1 24.5 36t14.5 46q1 4 5.5 8.5t8.5 7.5l3 3q0 2 -5.5 2t-6.5 4q-1 9 1 23t5 24t5 10t3 -2t3 -2t4.5 2t1.5 4q0 6 -7 6q-1 0 -3 -1h-2l-1 1q1 3 1 7t-0.5 7t0.5 5.5t4 2.5h3l1 1h3t4 -1.5t4 -1.5q0 2 -4 6t-5 7
q0 11 8 12q1 0 3 -2t3 -2h1q1 1 2 1q3 0 3 -4q0 -1 -1 -3t-1 -3l4 -3q4 -3 4 -5q0 -3 -2 -4.5t-2 -3.5q0 -1 1 -2q-1 -1 -2 -1t-3 0.5t-3 0.5q-3 0 -3 -3q3 -3 8 -3h1q2 0 4 -1.5t3 -3.5l1 -2q0 -2 -3 -2q-6 0 -7 5z" />
    <glyph glyph-name="Z" unicode="Z" horiz-adv-x="204" 
d="M153 23l-1 -1q1 0 1 1zM153 -13l-1 1q0 -1 1 -1zM65 -7q0 4 -2 3q0 -2 2 -3zM111 15q0 -3 1 -3l1 1q1 1 1 2q-2 1 -3 0zM66 20q-3 -3 -3 -7q0 -1 1 -1q4 0 4 6q0 1 -0.5 2t-1.5 0zM174 6l8 -3q-8 -5 -9 -5h-2q-17 -11 -19 -11q-1 0 -3.5 1t-4.5 1q-6 0 -18 -1t-18 -1
q-2 0 -6.5 1t-7.5 1q-53 -12 -80 -12q-6 0 -7 7.5t-6 7.5q-1 -1 -3 -1q-3 0 -8 4t-5 6q0 1 1 3.5t1 4.5q0 1 -1 4t-1 5t4 5t4 6q0 1 -1 3l-1 2q0 1 1 3t1 3v1q0 1 1.5 4t1.5 4t-1 2.5t-1 2.5l1 2q1 1 1 2v5q1 28 10 40q0 1 -1 3.5t-1 3.5q0 4 2 12t4 15l2 7q1 33 13 50
q0 1 -0.5 3.5t-0.5 4.5q0 35 14 98q8 28 17.5 79.5t15.5 68.5l10 24q-2 4 -2 7q0 11 15 47l16 35q0 3 -5 3q-10 0 -25 -5t-23 -5h-3q-3 0 -8 -1t-7 -1q-3 0 -6 7.5t-14 7.5q-5 0 -5 9q0 1 3.5 2.5t9 3t7.5 3.5q0 -2 4 -2q2 0 2 2q0 1 -1 2t-1 2q0 5 28 11.5t41 6.5q6 0 18 1
t17 1l2 -1v-1q-1 -1 -1 -2q0 -5 5 -12t5 -9q0 -4 -2.5 -8t-4.5 -6l-2 -3q0 -3 5 -5t5 -4q0 -4 -1.5 -10t-3.5 -10.5t-4 -8.5t-2 -5q-21 -60 -27.5 -88t-12 -60.5t-17.5 -79.5q-5 -20 -9.5 -62t-10.5 -59q-4 -8 -7 -19.5t-4 -20t-1.5 -17.5t-0.5 -10q-3 -11 -8.5 -28.5
t-9 -30t-3.5 -18.5q0 -3 4 -3q8 0 24 3.5t23 3.5q2 0 11 -2t15 -2q8 0 23.5 1.5t22.5 1.5q3 0 3 -3v-4l-1 -3q0 -2 3.5 -4.5t3.5 -3.5v-2q0 -3 5 -3t5 -2v-3z" />
    <glyph glyph-name="bracketleft" unicode="[" horiz-adv-x="201" 
d="M132 736q5 0 15 -27q-4 0 -16 -3.5t-19 -3.5q-3 0 -9.5 3t-11.5 3l-3 -3q7 0 7 -4q0 -6 -1 -8q-4 -12 -6 -25.5t-4 -30.5t-3 -25q-13 -22 -13 -103q0 -1 1 -3t1 -3q0 -5 -6 -9t-6 -8q0 -6 -1 -6q-6 0 -13 7q-2 -4 -2 -5l6 -2q6 -3 12.5 -8t6.5 -12t-1 -22.5t-1 -23.5
q0 -6 -11.5 -10.5t-11.5 -11.5h1q1 0 6 3t7 3q5 0 5 -4q0 -28 -3 -31q0 -3 1 -8t1 -8q0 -1 -3 -12t-3 -14q0 -10 2 -11q0 -8 -1 -24t-1 -24q0 -1 0.5 -3t0.5 -3q0 -3 -1 -7t-1 -6q0 -3 1 -7.5t1 -6.5q0 -8 -5 -18t-5 -11q0 -2 5 -4.5t5 -5.5q0 -1 -1 -3.5t-1 -4.5t2 -37
t2 -55q0 -1 -1 -14t-1 -23q0 -25 6 -38q-1 -2 -1 -5q0 -5 2.5 -14t5.5 -9q5 0 12 1t13.5 2t12 2t8.5 2l3 1q10 0 18 -10.5t8 -21.5q0 -1 -2 -5.5t-7.5 -9.5t-13.5 -5l-1 1h-2q-3 0 -8.5 -1.5t-8.5 -1.5q-2 0 -7 1.5t-7 1.5q-1 0 -2.5 -2t-2.5 -2q-2 0 -7.5 2.5t-8.5 2.5
q-2 0 -4.5 -3t-5.5 -3q-8 0 -18.5 7.5t-10.5 14.5q0 1 1 2t1 2l-4 7q-4 8 -8.5 21.5t-4.5 28.5q0 2 1 6.5t1 6.5q0 1 -1.5 4t-1.5 5q0 1 1.5 3t1.5 4q0 11 -3 31.5t-3 26.5q0 9 1.5 26t1.5 24q0 1 -1 3l-1 2q0 1 2 3t2 3q0 2 -0.5 5t-0.5 4t0.5 3t0.5 3q0 2 -1 7t-1 8t1.5 9
t1.5 8t-2 5.5t-2 4.5l4 4q0 2 -2.5 6.5t-2.5 7.5q0 2 1.5 5.5t1.5 5.5q-2 2 -2 4q0 14 10 19l-1 3q-2 3 -2 5l5 9l-2 2q-2 1 -4 3.5t-2 5.5q0 25 4 29q1 -2 6 -2q0 3 -5 5q8 0 8 2t-7 4.5t-7 3.5q0 2 2.5 5t2.5 5q-6 9 -6 10q0 3 8 11l-7 7q0 3 2 11t2 13q0 1 -1 4t-1 4
q0 5 2 13.5t2 11.5l-2 1q-2 1 -2 2q1 1 3.5 4t4.5 5l3 3q0 2 -1 3l1 2l-3 4q-4 3 -4 7l5 3q0 1 -2.5 4t-2.5 9l1 2q1 2 1 3q-2 4 -2 8q0 2 2 8t2 9q0 2 -1 4t-1 3q0 2 2 4q1 2 1 3t-1.5 4t-1.5 5q0 1 2 5q0 1 -1 4.5t-1 5.5q0 9 6 31.5t6 42.5q0 2 -0.5 5.5t-0.5 5.5l1 11
q2 11 4.5 22.5t7 21t9.5 9.5h1q2 0 2 1v1q0 11 24 18.5t52 7.5zM35 467q0 11 -9 19v-1q-1 -1 -1 -2t2 -4t2 -5t-1 -3q1 -4 7 -4zM34 363q-4 6 -11 6q-2 -1 -2 -7q0 -3 4 -3q1 0 2.5 2t6.5 2zM36 349q-6 0 -6 -6q0 -3 2 -3.5t3 -2.5l3 2q-2 4 -2 6v1l1 2zM154 708l1 11
q2 -1 2 -4q0 -1 -3 -7zM34 178l-2 4q-1 0 -4 -6q0 -1 3 -1t3 3zM42 328h-1q0 -2 4 -2q3 0 3 2l-3 3zM150 701l2 7l-2 1h-3zM31 507q-3 5 -5 5q0 -5 5 -5zM27 333l1 -3q2 0 3 3q-1 0 -3 1zM36 220l-3 -3q3 0 3 1q0 -3 1 -3l1 -2l1 2zM58 -62q-1 -1 -1 -2t2 -1q0 3 -1 3z
M45 259l4 3q-4 0 -4 -3zM24 523h1q0 1 -1 3v-3zM34 331l3 -3q0 3 -3 3zM48 378l-1 -1q0 1 1 1zM41 468l1 3q-1 0 -1 -3zM20 269l1 3q-1 0 -1 -3zM46 192l2 -1q0 1 -2 1zM44 454v2q0 -1 1 -1zM55 590q0 -3 1 -3q0 1 -0.5 1t-0.5 0.5v1.5zM27 174l1 1zM49 157l1 1zM24 40
l-2 -1l1 1h1zM44 370q0 -1 1 -1zM35 160q1 0 1 1zM38 179l1 1q-1 0 -1 -1zM34 312l-1 1q0 -1 1 -1zM48 365q1 0 1 1zM53 509q0 1 -1 1z" />
    <glyph glyph-name="backslash" unicode="\" horiz-adv-x="201" 
d="M135 67l-1 -1q1 0 1 1zM136 -12l-1 -1q1 0 1 1zM67 289q1 0 1 -0.5t1 -0.5zM86 225q-1 0 -1 1zM86 219l1 2q0 -2 -1 -2zM36 531l-1 2q-1 0 -1 -1q1 -1 2 -1zM154 -57h1q-2 0 -2 4q0 -1 1 -3v-1zM104 216q-3 0 -4 -1q2 -2 4 -2q1 1 0 3zM124 165q1 1 1 3l-1 1v1l-2 -4
q2 0 2 -1zM90 195l-1 -1q3 -4 6 -5l-1 1l1 1q-1 1 -5 4zM9 613l1 -1l2 -3v3.5t-3 0.5zM96 183q-2 0 -3 1q2 -2 7 -2q-1 1 -4 1zM109 169q2 0 2 1l-1 2q-1 1 -2 1q1 -1 1 -4l-1 -3h-1l1 -1q-1 1 1 4zM14 562l1 -10q-1 2 -1.5 5t-0.5 5q0 5 8 5q-1 2 -6.5 9.5t-8.5 15.5
q0 1 1 3l1 2q-15 43 -15 60l4 7q1 0 3 -3.5t4 -3.5q1 0 2 1q54 -15 54 -106q0 -16 10.5 -55t12.5 -51q7 -26 12.5 -54.5t13 -77.5t8.5 -57q0 -3 0.5 -7t0.5 -6t-2 -2t-2 -2q0 -15 10 -46.5t10 -45.5l-1 -2q-1 -2 -1 -3q0 -11 10 -47.5t10 -49.5q1 -3 2.5 -13t3.5 -17t5 -9
q0 -1 -0.5 -2.5t-0.5 -2.5q0 -4 4.5 -17.5t4.5 -14.5t-1 -3t-1 -3q0 -2 3 -4q-1 -2 -1 -4t-1.5 -3.5t-5.5 -3.5q-1 0 -3.5 1t-4.5 1q-1 0 -1.5 -3.5t-2.5 -3.5q-14 0 -24.5 16t-10.5 23q8 6 8 8l-11 12q-10 12 -10 21q0 1 1 3l1 2l-2 7q-7 25 -9 27q3 1 3 5q0 2 -3.5 9.5
t-3.5 12.5q0 2 1 4q0 3 -2.5 13.5t-5 19t-3.5 8.5q0 12 5 12q1 0 3 -0.5t3 -0.5t11 5l-7 4q-1 0 -2 -1v-1q1 -1 1 -2q-6 0 -10.5 11t-7.5 26.5t-3 16.5l-1 3q0 1 8 2t8 4q0 10 -11.5 25t-11.5 18q0 1 1.5 4t1.5 4q0 2 -2 4q1 7 3 11t3 4h2l-4 5q-4 5 -8 12.5t-4 14.5
q-11 28 -11 53q0 2 1 6t1 5q0 16 -2.5 32.5t-5.5 27.5t-6.5 20t-5.5 13l-2 4q0 10 -6.5 38t-6.5 45q0 2 1 3v-2q1 0 1 1h-3z" />
    <glyph glyph-name="bracketright" unicode="]" horiz-adv-x="207" 
d="M24 719q28 0 51.5 -8t23.5 -19v-1q0 -1 2 -1h1q5 0 9 -9.5t5.5 -21t3.5 -22.5l1 -11q0 -3 -0.5 -9.5t-0.5 -9.5q0 -17 4.5 -37t4.5 -29q0 -2 -1 -5.5t-1 -4.5t0.5 -2.5t0.5 -2.5q0 -2 -1.5 -5t-1.5 -4t1.5 -3t1.5 -4q0 -1 -1.5 -3.5t-1.5 -3.5q0 -3 2 -9t2 -8q0 -5 -3 -8
q0 -1 1 -3l1 -2q0 -6 -2.5 -9t-2.5 -4q5 -1 5 -3q-1 -4 -4 -7l-4 -4q0 -1 1 -2q-1 -1 -1 -3l2 -3q3 -2 5.5 -5t3.5 -4q0 -1 -3 -2l-2 -1q0 -3 1.5 -10.5t1.5 -11.5q0 -3 -1 -6t-1 -5q0 -5 1.5 -13t1.5 -11l-7 -7q8 -8 8 -11q-1 -3 -5 -7q0 -1 -1 -1.5t-1 -1.5q0 -2 2.5 -5
t2.5 -5q0 -1 -7 -3.5t-8 -4.5q0 -2 8 -2q-5 -2 -5 -5q5 0 6 2q3 -3 3 -13q0 -7 -1 -12.5t-3 -8t-3 -4.5l-1 -2q4 -4 4 -8q0 -2 -2 -6l-1 -3q9 -5 9 -16q0 -5 -2 -7q0 -2 1.5 -5.5t1.5 -5.5q0 -3 -3 -7.5t-3 -6.5l4 -4q0 -2 -2 -5.5t-2 -6.5t1 -8t1 -7q0 -3 -3 -15
q0 -1 0.5 -3t0.5 -3t-0.5 -4t-0.5 -5q0 -1 2 -3t2 -3l-2 -2q-1 -2 -1 -3q0 -6 0.5 -19.5t0.5 -20.5q0 -6 -3.5 -30t-4.5 -38q0 -2 1.5 -4t1.5 -3q0 -2 -1.5 -6t-1.5 -6t0.5 -5.5t0.5 -4.5q0 -15 -5 -28t-10 -20l-4 -8l1 -2l1 -2q-1 -7 -11.5 -14.5t-18.5 -7.5q-3 0 -5.5 3
t-4.5 3q-3 0 -8.5 -2t-7.5 -2q-1 0 -2.5 2t-2.5 2q-2 0 -7 -1.5t-7 -1.5q-3 0 -8.5 1.5t-8.5 1.5h-1q-1 -1 -2 -1q-8 0 -13.5 5t-7 9.5t-1.5 5.5q0 11 8.5 21.5t18.5 10.5l3 -1q3 -1 8.5 -2t12 -2.5t13.5 -2.5t12 -1t9 22q0 3 -1 5q7 16 7 48v22q0 20 3.5 57t3.5 40
q0 1 -0.5 3.5t-0.5 3.5q0 4 5 6.5t5 4.5q0 1 -4.5 11t-4.5 18q0 2 1.5 7.5t1.5 6.5q0 2 -1 6t-1 7q0 4 0.5 11t0.5 11v32q3 2 3 11q0 3 -2.5 14t-2.5 12q0 3 1 8t1 8q-2 2 -2 19q0 16 6 16q2 0 6.5 -3t5.5 -3h1q0 7 -11 11.5t-11 10.5v15v31q0 7 6.5 12t13.5 8l6 2q0 1 -2 5
q-7 -7 -13 -7q-1 0 -1 6q0 4 -5.5 8t-5.5 9q0 1 1 8t1 12q0 72 -9 90q-8 76 -10 81q-1 2 -1 8q1 4 8 4l-1 1q-1 2 -2 2q-5 0 -11.5 -3t-9.5 -3q-7 0 -19 3.5t-16 3.5q10 27 16 27zM110 449q6 0 8 4q-1 1 -1 3t2 5t2 4t-1 3q-9 -7 -10 -19zM107 345q5 0 6.5 -2t2.5 -2
q4 0 4 6l-1 4q-8 0 -12 -6zM105 331l-1 -1v-1q1 -1 1 -2l-3 -6q2 -1 3 -2q1 2 3 2.5t3 3.5q0 6 -6 6zM0 702l1 -11q-3 6 -3 8q0 3 2 3zM100 160q0 -3 3 -3t3 1q-3 6 -4 6zM98 310l-3 3l-3 -3q0 -2 3 -2q4 0 4 2h-1zM4 684l-1 7l2 1h3zM116 489q5 0 5 5q-2 0 -5 -5zM113 315
l-1 1h-1q-1 -1 -2 -1q1 -3 3 -3q1 1 1 3zM103 199l-3 3l-3 -5v-2l2 2q1 0 1 3q0 -1 3 -1zM67 -79q1 -1 1 -2t-2 -1q0 3 1 3zM88 244l4 -3q0 3 -4 3zM124 505v3v-1q-1 -1 -1 -2h1zM103 310l3 3q-3 0 -3 -3zM94 360l1 -1zM104 450v2v-2zM117 254l1 -3q0 3 -1 3zM87 173l2 1
q-2 0 -2 -1zM101 436v2q0 -1 -1 -1zM95 572q0 -2 -1 -2v-1q1 0 1 3zM106 157l1 -1q0 1 -1 1zM83 140l1 -1q0 1 -1 1zM105 22l2 -1q-1 0 -1 0.5t-1 0.5zM98 352l-1 -1q1 0 1 1zM98 142l-1 1q0 -1 1 -1zM95 162l1 -1q0 1 -1 1zM106 295l-1 -1q1 0 1 1zM93 347l-1 1q0 -1 1 -1z
M94 491l1 1q-1 0 -1 -1z" />
    <glyph glyph-name="asciicircum" unicode="^" horiz-adv-x="248" 
d="M249 578q1 0 1 -2l1 1l1 1h-3zM231 582l1 -1q0 1 -1 1zM245 591h-1h1zM205 632q0 -1 1 -1zM79 674h-2q-4 -2 -4 -3q0 -2 4 -2q3 0 3 2t-1 3zM65 664q-2 1 -4 1q2 -2 3 -2zM75 663q0 1 -1 1zM81 646q0 1 -1 1zM79 643h-1h1zM77 638l-1 -1q0 1 -2 1h3zM63 628q-1 2 -4 5
q-1 0 -2.5 -4.5t-2.5 -4.5h-1l3 -5q1 0 4.5 2.5t4.5 2.5zM41 613l-1 1q0 -1 1 -1zM54 610v1l-1 -1h1zM25 604h-1h1zM33 594l-1 1q0 -3 1 -3v2zM20 586v3v-3zM238 565h-5q-18 0 -98 84q-24 24 -25 24h1l-9 -5q-8 -5 -21.5 -19t-23.5 -34l-3 -4q-2 -4 -6 -9.5t-8.5 -11.5
t-10 -10t-10.5 -4q-4 0 -6 5l1 2q-6 0 -6 5l1 1l-5 5q0 8 16 24t16 26q0 7 6 12t12.5 8t6.5 4l-4 4q0 2 6 7.5t8 5.5q1 0 1.5 -3.5t2.5 -3.5t2 2t-1 5t-1 4t4 4t6 3q5 1 8 4.5t4.5 6t2.5 2.5q2 0 11 -3q3 0 6 2t7 2q8 0 13 -7q5 -10 12.5 -17t27 -23.5t40.5 -37.5l8 -7
l20 -19q0 -3 5 -6t5 -4t-1 -3l2 -2q1 -1 1 -2t-4 -1q2 -6 3 -8q-6 -6 -18 -8z" />
    <glyph glyph-name="underscore" unicode="_" horiz-adv-x="353" 
d="M27 9h3h-3zM325 44l-2 -3q0 -1 2 -1q0 -3 -3 -5t-3 -4l2 -4l-5 -5v-1l1 -1q0 -2 -8 -8.5t-10 -6.5q-7 0 -19.5 3t-17.5 3q-10 0 -77.5 -3.5t-73.5 -5.5q-2 0 -2.5 2t-1.5 2t-3 -2l-2 -1q-1 0 -3 2t-4 2q-8 -2 -11 -2q-6 0 -10 3q-1 0 -5 -2.5t-6 -2.5t-4 1l-2 2l-2 -2
q-2 -2 -5 -3.5t-6 -1.5q-2 0 -3 3t-2 3t-4 -2.5t-5 -2.5q-6 0 -6 6t3 6q1 0 3 -2l3 2q-5 8 -5 9q0 3 7.5 5.5t7.5 3.5l-3 5q-3 5 -3 7q0 13 262 13q22 0 26 -11zM317 35q0 -6 -2 -6q0 6 2 6z" />
    <glyph glyph-name="grave" unicode="`" horiz-adv-x="210" 
d="M84 627l-3 1l3 -2q3 -1 8 -4t11 -7t12 -10t11 -12.5t9 -16t5 -19.5q-5 -3 -13 -3t-9 -2q-4 0 -8 5t-9 13t-10 12q-35 20 -35 28q0 2 2 6t2 6q0 1 -1 3t-1 3q0 7 6 9q0 -7 10 -11q6 3 7 3q2 -1 3 -2z" />
    <glyph glyph-name="a" unicode="a" 
d="M126 496v1l1 -1h-1zM105 489l-1 -1q1 0 1 1zM114 480l-1 1q0 -1 1 -1zM73 545q0 -1 -1 -1zM186 149h-3h3zM62 133l1 -1q0 1 -1 1zM50 340l1 -1q0 1 -1 1zM121 337l-1 1q0 -1 1 -1zM132 319l1 1q-1 0 -1 -1zM133 454q0 1 1 1zM82 420l-1 -1q1 0 1 1zM75 349l-1 1
q0 -1 1 -1zM52 345q0 1 -1 1q0 -1 1 -1zM126 518q0 3 -1 3q0 -2 1 -3zM128 479q3 0 3 1h-1l-2 1q-1 -1 0 -2zM180 158q-3 -3 -3 -5l2 2zM43 323q0 3 -1 3q0 -2 1 -3zM157 195q-7 0 -7 -1l2 -2q2 0 5 3zM129 327q0 4 -3 4l-2 -1q0 -1 1.5 -3t1.5 -3q2 2 2 3zM100 459l-1 3
q-8 0 -8 -3q0 -5 5 -5l2 2q2 1 3 1q3 0 3 -3q0 -1 -2 -3l-3 -2q1 -1 2 -1q2 -1 4.5 -3.5t5.5 -2.5l1 1q0 1 -1 2.5t-2 2.5l-1 2l4 1q3 1 3 4q0 6 -7 6q-1 0 -3.5 -1t-4.5 -1zM58 169l-5 -7q0 -2 -0.5 -7t-0.5 -8t2 -3q16 0 36.5 7t27.5 7q2 0 8 -1t8 -1q11 0 11 9q-1 2 -1 5
q0 2 3 4t3 3q0 3 -2.5 7t-2.5 7q0 5 3 9q-2 2 -2 4q0 3 5 6.5t5 4.5q0 11 -13 31q-2 -4 -2 -6q0 -1 2 -3q-1 -1 -1 -2q-1 1 -2 1h-2l-2 -1q-1 0 -10 23q0 1 1 2.5t1 2.5q0 17 -7.5 48t-7.5 32q0 2 1 4.5t1 3.5t-2 3t-2 4v3q0 11 -3 23.5t-6 20.5t-3 9q0 2 1.5 6t1.5 5
q-5 9 -8 16q-12 -90 -15 -93q-1 -1 -1 -2v-2q1 -2 1 -3q0 -23 -4 -55t-9.5 -67.5t-7.5 -49.5zM137 410l-3 -6q0 3 -7 10t-10 7q-2 0 -2 -2t7 -9t9 -7q1 0 3 0.5t3 0.5q2 -4 2 -7q0 -1 -1.5 -5t-1.5 -5q-6 6 -11 12q-1 2 -4 2h-1l-1 -1h-2q1 0 4 -1t5 -1v-1l-1 -1
q0 -2 4.5 -6t4.5 -9v-3h-2v-1v1l1 2q4 0 4 -1q0 -2 -1 -3v-2q3 2 7 2t6.5 1t2.5 4v3q-1 3 -1 5l3 2q-1 2 -2 8t-3.5 9t-7.5 3l-1 -1h-3zM140 298q0 -3 -3 -3l3 6q-1 1 -1.5 4.5t-0.5 6t-2 2.5l-1 -1v-2q0 -2 -0.5 -5t-0.5 -5q0 -4 6 -3zM122 445q-11 0 -12 -3l4 -4q2 0 3 4
t4 4q0 -2 1 -1zM146 272l-4 -3q2 -1 3 -4t5 -3v3q0 1 -2 7q9 0 9 16q0 1 -1 3l-1 2q0 1 2 2l2 1q4 2 4 12q0 4 -4 4q-3 0 -3 -4v-3q0 -2 -1.5 -6.5t-1.5 -7.5q0 -1 1 -3t1 -3q0 -2 -3 -2q-2 0 -2.5 1.5t-0.5 4t-1 3.5l-6 -3q2 -2 3.5 -6t7.5 -10q-5 0 -6 -3h-2q0 -1 1 -1v3z
M113 511v3l1 -1h-1h-1v-3l-1 1h2zM142 439l5 -21q12 -12 12 -37q0 -7 -4 -7h-2q-3 0 -3 -3l3 -3q0 -3 -3 -3q-1 0 -4 1l-2 2q-1 0 -2 -2l-2 -2l-8 8q-1 -1 -2 -1h3q0 -1 -6 -7h-2v-1v3q5 -3 9 -3q1 0 3.5 1t4.5 1q3 0 3 -4q0 -1 -0.5 -1t-0.5 -1q0 -2 3 -2t4 5t3 5l6 -14
l-7 -12q9 -7 10 -11q-1 0 -3 2t-4 2q-3 0 -3 -5q0 -2 3 -4.5t5 -2.5q1 0 2.5 1t2.5 1l8 -34q7 -28 7 -47q0 -1 -0.5 -2t-0.5 -2l4 -11q5 -12 5 -18q0 -3 -2 -3.5t-2 -1.5l14 -42l1 -9q6 -14 10 -46v-1q-1 -1 -1 -2q6 -27 14 -59q0 -4 -13.5 -7t-18.5 -3t-6 4q-1 -1 -3 -1
q-8 0 -15 47t-13 47q-2 0 -5.5 -1.5t-4.5 -1.5q-3 0 -4 1q-3 -1 -8 -1q-2 0 -8 0.5t-8 0.5q-64 -13 -64 -21q0 -30 -2 -39v-1l1 -2v-6.5v-7v-5.5t-1 -4.5t-2.5 -3.5t-4 -2.5t-5.5 -0.5h-3l-2 1q-1 0 -3 -1t-3 -1q-8 0 -13 2t-7 7.5t-2.5 8.5t0 13t0.5 12q2 12 2 20v6
q0 4 1 11t1 10q0 2 -1 6t-1 7q1 18 5.5 65.5t4.5 67.5q0 3 -1 4q3 8 6.5 28.5t6 36.5t4.5 16q1 0 3.5 -1t3.5 -1t1 1t-1 3l1 2l1 2q0 2 -4 3.5t-5 5.5q0 2 10 12q-9 0 -9 16q0 3 2 9t2 10v7q0 2 1 6t1 6q0 1 -0.5 2.5t-0.5 3.5q0 47 16 88q1 2 2 2q0 1 -1 3v1q0 1 3 3l6 4
l3 1l5 -4q3 0 3 3l-1 1q-1 0 -3 -2q0 2 -5 12q2 0 2 2q0 3 -3 3l-1 -1q0 -1 2 -3h-1l-2 -1q-5 0 -5 3q6 25 19 25h2q4 0 11 2.5t7 4.5v1q-1 1 -1 2t2 3q2 -2 7 -5t9 -6t4 -6q0 -5 -6 -5q0 -1 1 -1h2q10 -2 10 -23v-3q0 -2 1.5 -6.5t1.5 -7.5q0 -1 -0.5 -3t-0.5 -3
q0 -4 4.5 -16.5t4.5 -14.5q0 -3 -3 -3q-1 0 -5 2.5t-5 2.5q-4 0 -4 -4q0 -2 4.5 -4.5t7.5 -2.5h2q5 0 5 -12q0 -1 -2 -3q0 4 -5 4l-2 -1q2 -6 2 -8t-1.5 -2.5t-4 -1t-4.5 -2.5q1 -3 1 -4q-1 -1 -1 -3q0 -10 20 -17z" />
    <glyph glyph-name="b" unicode="b" horiz-adv-x="240" 
d="M154 111h-1v-1q1 0 2 1h-1zM143 68q-1 0 -1 -1q1 0 1 1zM148 68h-1v-1q1 0 2 1h-1zM181 179l1 -1q0 1 -1 1zM106 31l-1 -1q1 0 1 1zM115 344v-1v1zM122 345h-1v-1q1 0 1 1zM125 336l1 -1q0 1 -1 1zM145 421q0 -1 1 -1q0 1 -1 1zM166 225h-3h3zM177 190l1 1q-1 0 -1 -1z
M47 258q1 0 1 1q-1 0 -1 -1zM162 240q0 -4 1 -3q0 3 -1 3zM37 249q0 3 -1 3q0 -2 1 -3zM182 153q-1 0 -1 -1q0 -3 2 -3q1 0 3 1q0 2 -4 3zM160 76v3l-1 -1q-1 -2 0 -3q0 -1 1 -3v4zM182 107l3 -1q-2 2 -6 2l-2 -2q1 -2 2 -2zM166 416h-2l-2 1q-4 -2 -6 -6q10 0 10 5zM114 68
h-2l-1 1v-3l9 -3q1 2 1 3q-1 3 -4 3q-2 0 -3 -1zM161 431q0 -9 3 -9q2 0 2 8q0 4 -3 7q0 -4 -2 -6zM135 357q0 5 -4 5q-1 0 -1.5 -1.5t-1.5 -1.5q-3 0 -3 -3q3 -3 6 -3q4 0 4 4zM34 468q0 -5 10 -5q-1 0 1 2l2 3q0 1 -4 3.5t-5 2.5t-4 -6zM29 531q-2 0 -2 -5q0 -1 2 -2.5
t3 -3.5l2 -1q3 0 6.5 3.5t3.5 7.5h-2q-3 -1 -4 -1t-4 1t-5 1zM134 238l-3 -1q0 5 -3 5q-2 0 -5 -7q-4 4 -7 8t-4 5.5t-2.5 4.5l-1.5 3q-1 3 -2 1q-1 -1 -1.5 -3.5t-2.5 -2.5q-4 0 -11.5 5.5t-10.5 5.5q-5 0 -8.5 -1t-5 -3.5t-2 -4t0 -6.5t0.5 -6q0 -30 5.5 -83t5.5 -79
q0 -14 4 -14q1 0 4 2t5 2q1 0 3 -1t3 -1q4 0 8 6.5t6 6.5q1 0 4 -3t5 -3l3 4l5 5q0 1 -0.5 3t-0.5 3q0 2 15 20l4 5q1 1 1 3l-1 1v3q0 2 2 6.5t2 7.5v4q0 3 4 5l3 1l-2 8q-2 8 -2 13q0 3 0.5 7t0.5 6l-6 21v3q0 3 -2 7.5t-5 11t-5 10.5q2 2 2 4t-2 2zM110 297l-1 28
q4 -4 4 -6q0 -7 -5 -7q-2 0 -5 2.5t-4 2.5h-1v2q0 3 -2 3q-5 0 -5 -5h7v-1l-1 -2l7 -8l7 -9q0 -1 -1 -3v-1l17 -10q1 0 3 -2l-1 -1h-2t-2.5 1t-2.5 1t-3 -1t-3 -1l-2 2q-1 2 -2 2l-1 -2l-1 -3q-1 -1 -3 -1t-3 -1q6 -4 10 -4q1 0 3.5 0.5t3.5 0.5t1.5 -3t2.5 -3t4.5 5.5
t5.5 5.5q5 0 5 -6q0 -2 -2 -4t-2 -3l1 -2q1 -1 1 -3q0 -6 -7 -13l10 -8q1 0 1.5 1t1 2.5t2.5 3.5v1l1 2q0 1 -1 3t-1 3q0 5 8 8q11 -11 11 -18q0 -1 -3.5 -2t-3.5 -3l1 -1q1 1 3 1t4.5 -1t3.5 -1t1 0.5t1 0.5q8 -4 8 -8v-2q0 -7 6 -15l-3 -3l2 -2v3q4 -2 8 -14.5t4 -22.5v-3
q2 -8 2 -24q0 -18 -2 -18h-3q-3 0 -3.5 -1t-1.5 -3.5t-4 -5.5h3q0 -1 -3 -2t-3 -3t7 -2.5t7 -3.5q0 -25 -27 -47l-4 -2q-4 -8 -15.5 -20t-17.5 -12q-2 0 -10 16q0 1 1 3q-1 1 -2 1q-2 0 -2 -6q0 -3 2.5 -8t2.5 -6q0 -6 -12 -10t-17 -4q-1 4 -2 4l-2 -3q-1 -2 -3 -2
q-9 -3 -10 -3q-5 0 -10 3.5t-7.5 7t-3.5 3.5l-2 -1h-3q-7 0 -11.5 9.5t-6.5 20.5t-3 22l-1 11q0 1 -0.5 3t-0.5 3q0 5 0.5 17t0.5 18q0 8 -2 24t-2 24q0 2 0.5 7t0.5 8q0 1 -0.5 5t-0.5 5q0 2 0.5 6.5t0.5 7.5q0 2 -1.5 6.5t-1.5 6.5l1 2v3q0 10 -2.5 28t-2.5 27v21
q0 1 -1 5t-1 5t0.5 4t0.5 4q-3 6 -3 11q0 1 0.5 3t0.5 3q0 2 -0.5 4.5t-0.5 3.5q0 3 1 4q-5 22 -6.5 45t-0.5 60t1 44q0 2 2 8q-1 2 -1 5q0 2 1 5t1 4t-1.5 7t-1.5 9v1l1 2q2 0 4 -2.5t3 -2.5t1 2t-3 5t-3 4q0 12 6 12l5 -7q1 0 5.5 5.5t9.5 5.5t16 0.5t16 0.5
q37 0 67 -24.5t38 -55.5q10 -19 10 -64q0 -3 -2 -5.5t-2 -3.5q2 -1 2 -4t-1 -4q0 -1 1 -3t1 -3q-1 -3 -2.5 -11t-3 -13t-5.5 -9l-2 2q-4 3 -4 4l2 3q2 3 2 4v1l-1 1l1 1v2q0 4 -4 4l-1 -1h-2h-2q-1 0 -1 -4q0 -18 6 -18l2 1q1 1 3 1v-3q0 -7 -10 -24t-14 -17t-6 5.5t-5 5.5
q-1 -2 -1 -3q2 -5 5 -5v-1l-1 -2q0 -3 3 -6q0 -1 -6 -1q-3 0 -3 1l1 1v2l-1 1q-2 0 -4.5 -1.5t-3.5 -1.5t-3 1l-1 1q-1 0 -3 -1t-3 -1l-3 3q1 3 4.5 4t3.5 2q0 4 -4 7t-8 3h-2q0 2 6.5 2t6.5 5q-2 0 -5 -3v1q-1 1 -1 2q0 18 17 35q4 4 4 1q0 1 -0.5 4t-0.5 4q0 3 6 13l-1 1
q-2 1 -2 2t3.5 1.5t3.5 2.5v1q-1 0 -2 -1t-2 -1q-3 0 -3 8q0 5 2 7q-5 9 -8.5 29.5t-13.5 34t-35 23.5q-9 4 -22 4q-12 0 -12 -3q5 -15 5 -23l-1 -2q-1 1 -3 1l-2 -1h-3h-4q-4 -2 -5 -3l1 -2q1 -2 1 -3q0 -5 -5 -5q-1 0 -3.5 3.5t-4.5 3.5l-1 -1q1 -3 6 -8t9 -5q1 0 4 2.5
t4 2.5t1 -1q0 -2 -2.5 -3.5t-2.5 -2.5q0 -6 7 -8.5t7 -7.5v-7q0 -55 5 -67q-1 -2 -1 -5q0 -7 1 -23t1 -23v-7q0 -4 1 -12t1 -12v-4q0 -6 3 -6q4 0 10 5.5t10 10.5l4 6q1 0 5 -5.5t6 -5.5q1 0 3.5 1t3.5 1z" />
    <glyph glyph-name="c" unicode="c" horiz-adv-x="234" 
d="M30 65l1 1q-1 0 -1 -1zM131 18h-1v-1q1 0 1 1zM26 112l-3 3l-1 -1q0 -3 2 -3zM99 -18l-1 9q-3 0 -7.5 -2t-6.5 -2t-5.5 3t-4.5 3h-2q-3 -2 -4 -1q-2 2 -7.5 3.5t-9.5 4t-4 7.5l1 1q0 1 1 2.5t2 3.5q0 2 -5 2q0 -4 -3 -4t-3 3v2q1 1 1 2q-12 3 -13 10v3q-2 13 -16 33
q0 1 1 3t1 3l-4 4v3l1 2q0 3 -1.5 8.5t-1.5 7.5l3 15q0 3 -3.5 42t-3.5 61v5q0 2 -1 6t-1 6q0 3 0.5 7t0.5 7q-1 8 -1 24q0 3 0.5 10t0.5 11q-1 2 -1 6t2 6q-1 1 -1 3q0 1 0.5 3t0.5 3t-1 3t-1 3t0.5 3t0.5 3t-1 3v1q0 1 1.5 1.5t1.5 1.5q0 3 -2 9t-2 7q2 4 2 7q0 2 -2 8
q0 1 1 4t1 5v6v9v26q0 19 2.5 37.5t7 42t6.5 36.5q4 25 21 49t25 24h2q1 0 8 3.5t14 3.5q2 0 5.5 -1t4.5 -1q2 0 4 0.5t3 0.5q4 0 10 -4l6 -4q2 0 3 1q2 0 8 -5t11 -10l5 -5q13 -19 13 -21v-3l4 -11q5 -12 5 -17q0 -1 -1.5 -4t-1.5 -4t1.5 -5.5t1.5 -6.5q0 -1 -1 -5t-1 -6
l1 -2q2 -2 2 -3v-2q-1 -2 -1 -3q0 -2 1 -3q-2 -6 -2 -9v-5q0 -5 -1.5 -8.5t-5 -4.5t-6 -1.5t-8.5 0t-8 0.5q-1 0 -3 1t-3 1t-2 -1l-9 6v2q0 1 -0.5 3t-0.5 3q0 3 1 9t1 9v20v5q0 12 -5.5 21.5t-11.5 15.5l-7 7q-6 6 -11 6q-13 -1 -28 -48q0 -9 -5.5 -27.5t-5.5 -28.5v-19
q0 -2 -1 -6.5t-1 -6.5q0 -1 0.5 -3t0.5 -3q0 -4 -1.5 -12.5t-1.5 -13.5q0 -27 -0.5 -82t-0.5 -82q0 -24 3 -70.5t3 -68.5v-2q0 -4 1.5 -10t1.5 -9v-2q4 -5 11 -21l2 -4q1 -7 8 -12t15 -5q6 0 11.5 2.5t9 7t6.5 10.5t4.5 12t3 12.5t2 11l1 9l0.5 4.5v3q0 86 15 86q2 0 2.5 -4
t3.5 -4q2 0 2 5l-1 2q0 5 8 5q7 0 12.5 -4.5t8 -10t3.5 -14t1.5 -14t-0.5 -13.5v-8q0 -4 -3 -10t-3 -9q0 -2 3 -5q0 -6 -4.5 -10t-5.5 -6q0 -1 2.5 -4t2.5 -6q0 -21 -6 -36.5t-13 -24.5l-7 -8q-3 -11 -13 -11q-1 0 -2.5 1t-2.5 1q-2 0 -6 -4t-8.5 -9t-5.5 -6q-1 0 -6 0.5
t-7 4.5q1 0 2 1t2 1t1 -1l2 -1q3 0 3 4l-9 3q-1 0 -1 -8z" />
    <glyph glyph-name="d" unicode="d" horiz-adv-x="249" 
d="M22 157l-1 1q0 -1 1 -1zM23 134q1 0 1 1q-1 0 -1 -1zM147 419l-1 -1q1 0 1 1zM27 207q0 -1 1 -1q0 1 -1 1zM27 197l1 -1q0 1 -1 1zM28 185l1 1q-1 0 -1 -1zM167 304q-2 -2 -2 -3q1 -5 4 -5l1 2v2t-3 4zM144 409q-11 43 -48 114q-4 7 -8.5 11.5t-7 6.5t-6.5 3.5t-5 1.5h-6
h-5q-5 0 -5 -36v-21q0 -15 -0.5 -47t-0.5 -47q0 -32 1 -96.5t1 -85.5v-18q0 -5 1 -16t1 -16v-9q0 -2 1.5 -8t1.5 -8q0 -1 -1 -3t-1 -3t0.5 -3t0.5 -3t-0.5 -3.5t-0.5 -3.5q0 -5 2 -18t2 -20q0 -3 -1.5 -7t-1.5 -6q0 -4 3 -4q5 0 19 14l15 13q4 2 9.5 10.5t8.5 16.5l3 7
q11 11 19 44q12 54 14 57q-2 2 -2 6t1.5 10t1.5 10q0 3 -1 4q0 7 0.5 20.5t0.5 21.5q0 2 -0.5 5t-0.5 5t4 6.5t4 7.5q0 2 -1.5 3t-1.5 2v4q0 4 -4.5 20.5t-4.5 24.5q0 4 2 8t2 5q0 2 -3 5t-3 6l1 4q1 3 0 5zM177 298h3l-1 -1v3h-3l1 1v-1v-2zM15 106l8 -8l1 1q2 1 3 1
t3.5 -2t3.5 -2q6 0 6 5q0 3 -4 5t-6 2q-1 0 -3 -1.5t-4 -1.5q-4 0 -4 5q3 9 3 11q0 1 -2.5 2.5t-2.5 3.5t1 5t1 4q0 3 -2 5q-3 3 -3.5 10t-2.5 10q0 2 1 6.5t1 6.5t-0.5 7t-0.5 6q0 2 3 2.5t3 2.5q-11 0 -11 43v18v25v6q0 3 -1 9t-1 8t1 6t1 7q0 14 -1 42.5t-1 41.5v9
q0 3 -0.5 8.5t-0.5 8.5q0 8 1.5 27.5t1.5 25.5q0 1 -0.5 4t-0.5 5q0 3 0.5 9t0.5 9v6l3 62q0 1 -1 3t-1 3q0 9 7 15t15 8l7 2q2 1 7 1q8 0 20 -6.5t20 -6.5q57 0 94 -128q19 -59 19 -94q0 -6 1.5 -17.5t1.5 -17.5q0 -3 -0.5 -8.5t-0.5 -7.5q0 -6 0.5 -15t0.5 -14
q0 -2 -0.5 -6.5t-0.5 -6.5t0.5 -5.5t0.5 -5.5t-2 -6q2 -4 2 -7q0 -27 -7 -43t-14 -20t-7 -2v-4l1 -3q0 -1 -3.5 -2t-3.5 -4t3 -3h3q10 0 10 -5q0 -20 -9 -40.5t-21 -36t-24 -28.5t-19.5 -19.5t-6.5 -6.5q-1 0 -9.5 -4.5t-16.5 -8.5l-8 -4q0 -5 -10 -5q-2 0 -11 6.5t-12 6.5
h-1q-2 -1 -3 -1q-2 0 -4 6q2 0 2 1q-1 1 -1 2v-4q-6 3 -6 10q2 -2 6 -2q-1 6 -7.5 13t-6.5 12q1 1 4 5t5 5q0 -10 4 -10q2 0 8 6l1 -1q1 -2 2 -2v1q1 1 1 2q-1 1 -2 1t-2 -2q-5 0 -5 3q0 2 3 4t5 2l2 -1l2 -1q4 0 4 3h1h1q-1 0 -1 1v-3q-3 1 -8 8.5t-9 8.5q-1 -2 2 -4t3 -3
q0 -8 -4 -8l-1 2q-2 1 -3 1l-2 -1q-2 -2 -3 -2t-3 4t-2 6t2 3q-6 3 -6 4l2 3q2 2 2 3t-2 5z" />
    <glyph glyph-name="e" unicode="e" horiz-adv-x="209" 
d="M149 593q0 1 1 1zM48 507l1 -1q-1 0 -1 1zM38 497q0 1 1 1zM172 55q1 0 1 -1zM181 42q0 -1 -1 -1zM136 306q0 -1 -1 -1zM119 297q0 -1 -1 -1zM55 260h-1q0 1 1 1v-1zM46 254h1q-1 -1 -2 -1v1h1zM65 242q1 0 1 -1zM69 528q0 -1 -3 -1q-1 1 0.5 1h2.5zM50 476q4 -2 4 -5
q-5 0 -5 3q1 1 1 2zM122 40q-1 -1 -1 -3q-5 0 -5 4q0 3 2 3q4 0 4 -4zM113 48h-1q-2 0 -7 6q0 1 1 2q3 -2 7 -8zM162 63q7 0 7 -1q0 -4 -8 -4q-3 0 -3 4l1 2h1zM69 552q0 -7 -4 -7q-3 0 -3 3q0 4 7 4zM69 541q5 -2 6 -4q0 -3 -4 -3t-4 4q0 1 2 3zM47 384l3 -2q0 -3 -3 -3
q-8 0 -8 5q4 4 6 4t2 -4zM47 510q-3 -6 -5 -6q-3 0 -3 4q0 2 2 5t3 3q3 -3 3 -6zM54 478q-2 -4 -2 -6q0 4 -3 4h-2q-2 -1 -3 -1t-7 6q0 5 3 5h2l2 -1l6 6q0 -2 2 -5.5t2 -6.5v-1zM103 31q-10 2 -10 5q-1 0 -2.5 -1t-2.5 -2q-4 0 -4 2q4 11 8 11q3 0 3 -3t-6 -3q3 -6 6.5 -7
t4.5 -5q3 0 3 3zM46 527l1 -4q5 0 8 2.5t5 2.5v-1q0 -4 -8 -4l3 -3h-1l-2 -1q-2 0 -3.5 1.5t-3 4t-2.5 3.5q1 1 1 2q2 0 2 -3zM30 518l-11 -17q-4 -4 -4 -8q0 -3 2 -7q-1 -2 -1 -5t1.5 -8t1.5 -7t-2.5 -4t-2.5 -4q1 -1 3.5 -5.5t2.5 -7.5q0 -1 -3.5 -2.5t-3.5 -3.5
q0 -1 1 -3l1 -2v-5q0 -10 5 -13.5t5 -5.5q3 0 3 3q-11 0 -11 -11q0 -4 5 -14q-1 -1 -1 -3l3 -9q2 0 3 1q2 0 2 -1q0 -4 -2 -6.5t-5.5 -5t-4.5 -3.5v-3q0 -2 -0.5 -4.5t-0.5 -3.5q0 -2 1 -5t1 -4v-6q0 -5 2 -7q-5 -5 -5 -28q0 -8 4 -13q0 -3 -1.5 -8t-1.5 -7t1 -6.5t1 -7.5
v-6q0 -2 1 -5t1 -4t-1 -4t-1 -4t1.5 -6t1.5 -7v-5q0 -5 2 -7q-4 -12 -4 -21q0 -1 1 -4t1 -4q0 -2 -2 -5.5t-2 -5.5q0 -1 1 -3.5t1 -3.5q0 -2 -0.5 -4t-0.5 -3q0 -3 0.5 -9t0.5 -8q0 -1 -1 -6t-1 -8q0 -1 1 -3.5t1 -3.5v-6q0 -14 1.5 -41.5t1.5 -40.5v-7q0 -13 16 -18.5
t16 -7.5q0 -1 -1 -2.5t-1 -2.5q0 -2 3 -3q3 0 3 5t4 5q2 0 6 -2t7 -2q0 3 -1.5 4.5t-1.5 3.5q2 0 2.5 -3t3.5 -3h-3q3 -5 5 -5q5 0 15 8l10 7q1 0 6 -4.5t10 -4.5t16.5 4t17.5 4q2 0 5 -2t4 -2q8 0 12 13q-1 1 -1 3q0 1 1 3.5t1 4.5q0 5 -6.5 13t-12.5 8h-2q-3 0 -9 1t-9 1
t-3 -4t3.5 -8.5t3.5 -5.5q0 -3 -4 -3q-15 3 -15 6q0 1 2.5 5t2.5 7q0 2 -3 2q-4 0 -5 -1q-4 -4 -20 -5t-22 -6q-12 4 -11.5 19t-2.5 26q1 1 1 3q0 118 -8 130q0 1 2.5 3t2.5 4l-1 2q0 2 2.5 4.5t2.5 3.5q0 2 -1 2t-3 -1q-9 0 -9 3q0 8 4 8h2q3 0 3 2q0 6 -6 6
q-1 0 -3.5 -0.5t-3.5 -0.5q-2 0 -2 1t1 3v2q0 1 -0.5 2.5t-0.5 2.5q1 1 2 1q3 0 5 -2t3 -2q3 0 6 5t8 5q3 0 8 -0.5t8 -0.5q11 0 19 4l1 -1h2q2 0 6 2t5 2t3.5 -1t3.5 -1q4 0 7.5 3t4.5 5l1 3l1 -1h1l3 1q0 1 -1 3q0 5 5 5l4 -1q1 0 1 1v4q0 2 2 3l2 2q0 1 -8.5 11.5
t-10.5 10.5q-6 0 -20.5 -4t-22.5 -4h-12q-2 0 -6.5 -1.5t-6.5 -1.5v1q0 4 -0.5 10t-1.5 11.5t-1.5 10.5t-1.5 8v2q0 1 2.5 4.5t2.5 5.5l-5 21q0 1 3 3t3 4q0 3 0.5 10.5t0.5 12.5t-1 11.5t-3.5 9.5t-6.5 3h-2q-1 0 -1 1q0 2 2 5t2 4q0 4 -2 7.5t-4 5.5l-2 2l2 2q2 2 2 5
q0 1 -0.5 3t-0.5 3t1.5 2t1.5 2q-1 1 -1 4q0 1 2 5q0 6 -9 6q-1 0 -3 -1t-3 -1q-2 0 -2 4v7q1 0 3 -2t4 -2t3 1q4 -2 6.5 -4t5 -5.5t4.5 -5.5q5 18 5 36v3q0 11 9 14.5t33.5 3.5t34.5 1q5 0 7.5 6t4.5 6t3 -1q6 4 7 7q-1 1 -1 4q0 2 0.5 4t0.5 3q0 3 -2.5 5t-2.5 4v2
q1 2 1 3q0 3 -3 3q-2 0 -6 -0.5t-7 -0.5q-1 0 -4 0.5t-5 0.5q-1 0 -2.5 -0.5t-2.5 -0.5h-4q-2 0 -3 -1h-41q-2 0 -6 -0.5t-6 -0.5h-9q-27 0 -27 -9q0 -5 -8 -7.5t-8 -7.5q1 -2 7 -11q-1 -1 -1 -2q7 -5 7 -17q0 -6 -2 -8q0 -2 1 -4l2 -4l1 -2q-1 -1 -2 -1q-9 0 -12 3z" />
    <glyph glyph-name="f" unicode="f" horiz-adv-x="213" 
d="M39 450l-1 -1q1 0 1 1zM19 444l1 -1q0 1 -1 1zM85 583q4 0 14.5 0.5t18 0.5t16 -0.5t13 -2.5t4.5 -6l-3 -12q0 -4 4 -4q1 0 3 0.5t3 0.5l3 -9q0 -1 -2 -1q-6 1 -13 -6q-11 -11 -25 -11h-21q-4 0 -12.5 0.5t-13.5 0t-10.5 -1t-8.5 -2.5t-3 -6v-2q0 -2 -4 -4.5t-4 -4.5
q0 -1 4.5 -4.5t4.5 -6.5q0 -5 -1.5 -24.5t-1 -33.5t3.5 -20q2 -6 2 -8t-1.5 -5t-1.5 -4t1 -3q0 -1 -5 -5q-6 -4 -3 -5q2 -2 5 -3t4.5 -2.5t2.5 -8t1 -20.5l2 -60l2 2q2 3 4 3q9 0 26 1.5t21 1.5q12 0 12 -5q-2 -3 -2 -4l4 -7l3 4q3 3 4 3l1 -1q0 -1 3.5 -3t3.5 -4
q0 -5 -4 -10t-9.5 -9t-11 -7t-8.5 -5l-4 -1q-4 0 -12 -0.5t-12 -0.5q-6 0 -18 2q-4 0 -4 -18v-8q0 -2 -1 -5.5t-1 -5.5q1 -3 1 -10v-13v-14v-83q0 -49 5 -84l-3 -4q-7 -7 -5 -7l-6 4q-7 3 -16 3q-20 0 -20 38v11q0 20 -0.5 59.5t-0.5 58.5q0 2 0.5 4t0.5 4q0 3 -1 4
q0 1 0.5 2.5t0.5 2.5q0 2 -2 8q0 1 0.5 3t0.5 3q0 3 -1 10.5t-1 10.5q2 9 2 27v92v12q0 3 -1.5 10t-1.5 11q0 1 0.5 3.5t0.5 4.5q0 3 -1 8t-1 6v8q0 1 -1 4t-1 5q0 4 3 7q-1 1 -1 4v8q0 3 -1.5 8.5t-1.5 8.5t1.5 7t1.5 7q0 2 -2 10.5t-2 11.5q0 1 0.5 3.5t0.5 4.5
q0 1 -1 4.5t-1 5.5q0 3 2 9.5t2 8.5q0 1 -1.5 4.5t-1.5 5.5q0 1 0.5 3.5t0.5 3.5q0 2 -1 6t-1 6q9 26 81 21z" />
    <glyph glyph-name="g" unicode="g" horiz-adv-x="227" 
d="M153 112l-1 -1q1 0 1 1zM150 101l-1 -1q1 0 1 1zM162 98v1l-1 -1q0 -1 1 0zM22 92zM122 277l-1 -1q1 0 1 1zM166 274l1 -1q0 1 -1 1zM132 260q1 0 1 -1zM136 255q0 -1 -1 -1zM15 190l1 -1q0 1 -1 1zM147 185q1 -1 0 -1v1zM166 184v1l-1 -1q0 -1 1 -1v1zM162 157l-1 -1
q1 0 1 1zM27 145l1 -1q0 1 -1 1zM145 140l-1 -1q1 0 1 1zM161 131l1 -1q0 1 -1 1zM38 218l-1 -1q1 0 1 1zM145 232q0 -1 -3 -1q-1 1 0.5 1h2.5zM41 147l-3 1h-3t0 -1q1 0 3 -1h1q1 1 2 1zM126 268q-1 0 -1 3q1 0 1 -3zM137 144l3 3q2 -2 2 -3v-1q-1 -1 -1 -2q-2 2 -4 3z
M146 198q6 3 6 -6v-1q-1 -1 -1 -2l-8 9h3zM146 209q0 3 3 3q0 -2 1 -2h1q-2 0 -5 -1zM39 139l-20 -16l4 4q0 2 -4 2q0 4 -3 7.5t-3 5.5t0.5 5t0.5 4t-1 4t-1 5q0 1 2 4t2 4h-1q-1 1 -1 2l6 3q3 0 4.5 -4t3.5 -4q1 1 1 5q0 12 -7 12q-1 0 -2 -1.5t-2 -3.5l-2 -2l-8 52
q0 1 0.5 2.5t0.5 3.5q0 5 -2.5 14t-2.5 10q0 2 1.5 5.5t1.5 5.5t-0.5 6t-0.5 6q0 1 1.5 3.5t1.5 4.5q0 7 -2.5 20t-2.5 18q0 3 1.5 8.5t1.5 7.5t-1 5t-1 4q0 3 2 7.5t2 5.5q0 2 -1 4t-1 4q0 4 1.5 10t1.5 10v8q0 2 0.5 5t0.5 5v5q0 2 1 3.5t1 2.5v12q0 2 1 5.5t1 4.5t-0.5 3
t-0.5 3l7 34q1 44 22 76q7 23 24 36.5t39 13.5q30 0 46.5 -19.5t29.5 -53.5q0 -6 0.5 -13t1.5 -15t1 -13q0 -9 -36 -9q-1 0 -2 2t-2 2t-1.5 -1.5t-2.5 -1.5q-2 6 -5 29t-10 34.5t-25 11.5q-25 0 -36 -114q-6 -13 -6 -40q0 -1 1 -5t1 -6q0 -1 -1 -3.5t-1 -3.5t1 -4l-2 -2
l-3 -2q0 -1 2.5 -3.5t2.5 -4.5q-1 -1 -4 -10l-1 -2q5 -1 5 -43q0 -3 -0.5 -8t-0.5 -8q0 -16 2.5 -48.5t2.5 -42.5q0 -2 -0.5 -4t-0.5 -4t0.5 -5.5t0.5 -4.5v-14q0 -4 1 -11t1 -9v-6q1 -4 3 -20t2.5 -19.5t3 -15.5t4.5 -17t6 -13.5t8.5 -15t11.5 -12.5q1 -2 6 -2
q11 0 19.5 20t11.5 40l4 20q1 0 3 -1l2 -2l6 6q-8 4 -9 5q2 1 5 6q-1 0 -3 1h-1q-1 -1 -2 -1q-4 0 -4 14q0 4 1 9.5t1 8.5q0 2 -1 3q2 7 8 7q1 -1 1 -2v-4q0 -1 1 -3v-1l-2 -4l3 -3q3 -2 5.5 -4.5t2.5 -1.5l3 3q-2 0 -5 0.5t-4 0.5q5 8 5 11q0 1 -0.5 2t-0.5 2l2 2
q-3 5 -4 8l3 3q0 -3 -3 -3t-8 9t-5 13q0 1 0.5 3t0.5 3t-1 3v2q6 21 9 24l-3 3t-2 4t2 3.5t4.5 3t3.5 2.5q-5 0 -8.5 1t-5.5 3l-1 1q-1 0 -2.5 -1t-2.5 -1q-4 0 -4 4q0 2 2 3.5t2 2.5q0 3 -5 6q-1 0 -3 -1.5t-4 -1.5t-5.5 3.5t-3.5 8.5q1 7 7.5 16.5t10.5 9.5q3 0 3 -2v-3
q0 -4 5 -6q2 0 1.5 7t2.5 7q2 0 5 2.5t4 2.5q6 0 6 -7q0 -1 -3 -3.5t-3 -4.5q0 -1 0.5 -2t0.5 -2q-6 0 -6 6q6 0 6 -6l-1 -1q0 -1 2 -1q1 0 2 3t5 3t4 -6v7q5 -5 6 -5t3 2q1 -1 5 -2.5t6 -3t2 -5.5q0 -2 -2 -5l-2 -3l1 -2q2 -2 2 -3q0 -3 -3 -4q-6 0 -6 9v2q0 1 -1.5 2
t-1.5 4h3q-4 -4 -8 -6q0 7 -3 7q-5 0 -5 -7q0 -3 3 -6q-3 0 -3 3q2 0 5 1t4 1q2 0 2 -2q0 -3 -5 -5q8 -14 10 -14q2 2 6 7q0 -1 1 -3t1 -3t-1.5 -2.5t-1.5 -5.5h-3t0 -1l2 -1l3 3q9 0 9 -9q0 -8 -9 -8q-2 0 -8 3t-8 3t-2 -2q0 -3 1 -3q1 1 2 1t4.5 -5.5t3.5 -7.5l-7 -9
q0 -3 9 -3q4 0 4 5q0 1 -0.5 3t-0.5 3q0 2 1 3q-4 4 -4 6q0 1 3 4q2 -2 4.5 -3.5t3.5 -3t1 -4.5q0 -1 -1 -3t-1 -4q0 -1 1.5 -3.5t1.5 -4.5q0 -7 -8 -15.5t-8 -13.5l-3 -3l2 -2v3q16 0 16 -6q0 -1 -3 -10t-3 -12q0 -1 1 -3l1 -3q0 -1 -1.5 -3t-2.5 -4q3 -3 3 -4l-1 -1l-9 3
q-1 -1 -1 -2l6 -6h-1q-1 0 -1 -1t1 -1v3l2 -1q2 0 2 -1q0 -2 -1 -3q1 -1 1 -3q0 -1 -1 -3.5t-1 -3.5v-3v-4q0 -1 1 -4t1 -5q0 -22 -11.5 -46.5t-27.5 -38.5q-3 -3 -7 -5t-9 -4t-8 -3q-1 1 -4 1q-1 0 -4 -0.5t-4 -0.5q-8 0 -15.5 2.5t-13 7t-11 10t-9 11.5l-7 12t-5 10.5
l-3 9l-1.5 4.5l-3.5 10.5t-4.5 13t-2 8.5q0 1 0.5 3t0.5 3q0 2 -1.5 6t-1.5 6q0 1 2 2.5t4 4.5q-5 2 -5 12z" />
    <glyph glyph-name="h" unicode="h" horiz-adv-x="240" 
d="M18 121l1 -1q0 1 -1 1zM22 104v0v0zM49 143q-3 0 -3 1q3 0 3 -1zM32 156h3l-4 2q-3 0 -3 -2t4 0zM35 10l10 -12q-5 0 -6.5 2t-2.5 2h-2q-5 0 -11.5 8t-6.5 11q0 1 0.5 2t0.5 2q0 3 -3 11.5t-3 13.5q0 3 1 9.5t1 8.5q0 7 -2.5 30.5t-2.5 28.5q0 1 1 4.5t1 5.5q-3 21 -3 25
q0 3 2.5 6.5t2.5 4.5q0 3 -3 8.5t-3 9.5q0 3 6 9q-9 9 -9 16q0 2 2 6q-5 11 -5 58q0 2 0.5 5.5t0.5 5.5q-2 5 -2 15v14q0 2 -0.5 7t-0.5 7q0 4 1.5 12.5t1.5 12.5q0 1 -1 3t-1 3t0.5 2.5t0.5 2.5t-0.5 2.5t-0.5 2.5q0 3 1 5q-2 4 -2 13v12q0 3 -0.5 7.5t-0.5 6.5q0 1 1 5
t1 6t-2.5 8t-2.5 9q0 2 1.5 7.5t1.5 8.5q0 2 -1 5.5t-1 4.5v6q0 7 -0.5 25t-0.5 26q0 3 2.5 8.5t2.5 8.5t-1.5 9.5t-1.5 9.5q0 28 10 28h3h9q7 0 10 -2h2q6 0 11.5 -6t5.5 -11v-6v-6q0 -1 -1 -3t-1 -3t0.5 -2t0.5 -2q0 -3 -3 -5.5t-3 -5.5v-10v-7q0 -2 0.5 -5.5t0.5 -5.5
t-0.5 -5.5t-0.5 -5.5q0 -3 0.5 -8t0.5 -7t-0.5 -5t-0.5 -5q0 -1 0.5 -3.5t0.5 -4.5v-6q0 -1 1 -4t1 -5q0 -1 -1 -3q1 -7 1 -21v-63q0 -2 0.5 -5t0.5 -4t-0.5 -2.5t-0.5 -2.5q0 -57 6 -57t14 3t13 3h5q6 0 17.5 3t16.5 3q1 0 3 -0.5t4 -0.5q4 0 4 26t-1 39q0 2 1 6.5t1 7.5
t-1 7.5t-1 6.5q0 18 1 53t1 52q0 1 -0.5 2.5t-0.5 2.5q2 6 2 18v12q1 1 1 5q0 1 -1 4.5t-1 5.5q0 18 3.5 23.5t19.5 5.5q26 0 26 -17q0 -9 -2 -27t-2 -27v-392q0 -9 3 -35.5t3 -36.5v-14q0 -2 1 -8t1 -8q0 -10 -12 -12q-5 0 -13 2.5t-10 2.5q-1 0 -2 -0.5t-2 -0.5
q-14 0 -14 46q0 2 0.5 4t0.5 3q0 2 -1 4t-1 3q0 13 0.5 39.5t0.5 39.5q0 3 -1 10t-1 10q0 9 2 13q-2 3 -2 10t1 11q0 3 -1 9t-1 9q0 1 1 5t1 5q0 2 -0.5 4.5t-0.5 3.5t0.5 3.5t0.5 3.5q0 11 -3 14.5t-10 3.5q-5 0 -12.5 -1.5t-11.5 -1.5h-7q-2 0 -6 -1.5t-5 -1.5q-3 0 -3 3
v1l1 2l-2 2q-3 0 -3 -2v-2l-4 -3q0 -1 1 -1l0.5 -0.5t0.5 -2.5q-8 -2 -11 -2q-1 0 -4 1h-3q-1 0 -1 -19q0 -5 1 -14.5t1 -14.5v-8q2 -12 2 -21v-61q0 -4 0.5 -12t0.5 -12q-1 -4 -1 -11q0 -4 1 -10t1 -9q-1 -1 -1 -3q0 -3 3.5 -15t4.5 -18q0 -3 -10.5 -9.5t-10.5 -8.5z" />
    <glyph glyph-name="i" unicode="i" horiz-adv-x="121" 
d="M52 537v1v-1zM60 192q-1 0 -1 -1q1 0 1 1zM64 534q1 -1 1 1q-3 0 -3 -3v1q1 0 2 1zM28 528l6 7l3 3q0 7 -5.5 9t-5.5 4v2q1 2 1 3t-0.5 3t-0.5 3q0 18 13 18q4 -2 6 -2t4 2q4 -3 11 -5.5t10.5 -5.5t3.5 -10l-1 -2q-2 0 -3 1l-1 -1q3 -10 3 -27q0 -12 -2 -37t-2 -37v-5
q0 -3 -1.5 -8.5t-1.5 -7.5q0 -13 0.5 -39t0.5 -38v-6q0 -1 0.5 -4.5t0.5 -5.5q0 -1 -0.5 -3t-0.5 -3t0.5 -3t0.5 -4l-1 -2q-1 -2 -1 -3t1 -3.5t1 -3.5l-1 -1v-3q0 -2 1 -6t1 -6t-0.5 -4t-0.5 -3q0 -2 1 -4t1 -4q0 -1 -1 -3.5t-1 -4.5t0.5 -5t0.5 -4q0 -3 -1 -4q2 -8 2 -13
q0 -11 -1 -35t-1 -36v-9q0 -7 -0.5 -21t-0.5 -21q0 -94 10 -104l1 -2q-1 -10 -30 -21q-3 0 -8.5 5t-5.5 6q-1 -1 -3 -1q-6 0 -6 15v7q0 7 -1.5 19t-1.5 19v15q0 13 -1.5 38.5t-1.5 38.5v47v123q0 3 -1 8t-1 8q0 5 1 16t1 16q0 2 -1.5 6t-1.5 6t1 5.5t1 4.5t-0.5 4.5
t-0.5 5.5q0 1 0.5 5t0.5 6v37q0 1 0.5 4.5t0.5 5.5v18q0 13 5.5 22t5.5 11q0 3 -1 4z" />
    <glyph glyph-name="j" unicode="j" horiz-adv-x="289" 
d="M185 539q0 3 -1 3q0 -2 1 -3zM116 572q-6 0 -6 -5q1 0 6 5zM137 389q1 2 1 4v-1h-1q-1 -1 -1 -4l-1 1h2zM155 254q0 -22 0.5 -65t0.5 -64q0 -40 -16.5 -76t-51.5 -36q-25 0 -25 8q3 3 3 5t-3 2q-1 0 -4 -3t-4 -3q-19 0 -42 53q-13 34 -13 66q0 4 -0.5 16t0 18.5t1 15
t3 12.5t6.5 4q9 0 24 -8.5t15 -20.5q0 -2 -1.5 -8.5t-1.5 -9.5v-9v-12q0 -15 4.5 -32.5t9.5 -27.5t7 -11q3 0 6.5 -4t5.5 -4q8 0 14 11.5t8 22.5l2 12v3q0 1 -0.5 3.5t-0.5 3.5v9q0 1 -0.5 4t-0.5 5q0 38 0.5 113t0.5 112v6q0 2 1 6t1 5t-1 4t-1 5q0 3 1.5 9.5t1.5 9.5
q0 2 -0.5 4t-0.5 4l3 42v7q0 2 1 6.5t1 6.5v26q0 5 1 15t1 14q0 6 -10 6q-7 0 -20 -0.5t-20 -0.5t-12 16q0 8 2 13.5t6 9t7.5 5.5t10.5 3t9.5 1h10h8.5q5 0 13.5 -2t12.5 -2q3 0 11 1t11 1q4 0 14 -2q9 0 27.5 3t29.5 3q5 0 11 -3.5t6 -6.5l-1 -2q-1 -2 -1 -3q0 -2 1 -2
l-4 -8l-3.5 -7t-3 -5t-4 -4.5t-4 -2.5t-6 -2.5t-7.5 -1t-10 -0.5q-3 0 -7 -1t-6 -1q-1 0 -4 0.5t-5 0.5q-19 0 -19 -171v-110z" />
    <glyph glyph-name="k" unicode="k" horiz-adv-x="259" 
d="M44 51l-1 -1q1 0 1 1zM64 545l1 -1q0 1 -1 1zM26 372l-1 -1q1 0 1 1zM30 341q3 0 3 1h-1l-2 1q-1 -1 0 -2zM32 370h-3t0 -1q3 0 3 1zM65 535q0 4 -4 4q0 -3 3 -3zM194 173l9 -1q4 -6 4 -7t-4 -5.5t-4 -6.5q0 -1 0.5 -5t0.5 -6v-3q0 -5 5.5 -8.5t5.5 -6.5l5 -37.5t4 -36.5
l2 -14q0 -5 -14 -12.5t-20 -7.5q-3 0 -9 2q1 1 1 2q0 7 -5 24t-6 27v2q0 9 -2.5 26t-2.5 24q0 34 -13.5 95t-14.5 68q-12 63 -22 63l-2 -1h-3q-2 0 -6 1t-6 1q-34 0 -34 -14q0 -9 -0.5 -26.5t-0.5 -27.5v-7q0 -2 -0.5 -6t-0.5 -6q0 -4 1 -11.5t1 -11.5v-13q0 -6 0.5 -17.5
t0.5 -17.5v-9q10 -85 10 -104v-7q0 -9 3 -26t3 -26t-5 -9q-1 0 -5 1.5t-6 1.5q-1 0 -3 -1t-4 -1q-1 0 -3 0.5t-3 0.5t-3 -1q-15 2 -15 21q0 1 0.5 2t0.5 2q-8 18 -11.5 63t-5.5 55q-6 53 -6 108v4q0 5 -1.5 14t-1.5 13q0 66 4 74q0 13 7 20v-2l1 1q-7 0 -7 4l2 1q2 2 2 3
q-5 3 -5 20q0 3 1 8t1 8v2q-1 1 -1 2t1.5 4t1.5 5t-1 5t-1 4q0 4 2 10l3 6q0 2 -2 6t-2 6q0 4 1.5 12t1.5 10v5q0 1 1 4.5t1 5.5t-1 5.5t-1 4.5t0.5 3.5t0.5 4.5q-1 2 -1 6q0 21 7 33q-1 2 -1 6q0 13 3 13h4q1 0 4 0.5t5 0.5q6 0 9 -1q2 0 5 1t4 1q4 0 8.5 -7t4.5 -11
q0 -40 -7 -60q-6 -3 -6 -8v-2h-2v-1q3 3 4 3q3 -1 3 -2q0 -2 -0.5 -6t-0.5 -7q0 -2 0.5 -4t0.5 -3q0 -3 -1.5 -10t-1.5 -11q0 -2 1 -5t1 -5t-1.5 -5.5t-1.5 -5.5q0 -3 0.5 -9t0.5 -8q0 -7 -2 -10q1 -2 1 -6q0 -1 -0.5 -4t-0.5 -5q0 -5 4 -5q47 16 84 60q23 19 43 106
q1 4 4 11t3 8q0 2 -0.5 4t-0.5 3q0 2 7 2v-2l1 1h-3q2 2 11 2q25 0 25 -8q0 -1 -1 -3.5t-1 -3.5v-8q0 -53 -32.5 -110t-48.5 -64q-1 0 -6.5 -3t-6.5 -6q12 -13 21 -35.5t12.5 -37.5t8 -48t5.5 -37q10 -38 10 -60q-3 0 -3 3z" />
    <glyph glyph-name="l" unicode="l" horiz-adv-x="214" 
d="M55 138l-1 -1q1 0 1 1zM58 270l1 1q-1 0 -1 -1zM54 247q0 1 -1 1q0 -1 1 -1zM67 188l-1 -1q1 0 1 1zM62 299q0 2 -1 2h-2t0 -1h2q1 0 1 -1zM46 84q3 0 3 3v1q-2 0 -2 -2q0 -1 -1 -2zM43 350q0 -6 4 -6q1 0 3 2q-6 3 -7 4zM60 328l10 -22q0 -1 1 -3l1 -2v-1q5 -2 5 -5
q0 -36 -12 -36q0 3 2 3q5 0 5 -25q0 -11 -7 -11q0 3 3 3q0 -1 4 -6.5t4 -11.5t-0.5 -17.5t-0.5 -17.5q0 -2 0.5 -7t0.5 -8q0 -4 -0.5 -11t-0.5 -10q0 -6 1 -9q0 -2 -1 -3q1 -7 1 -19.5t1 -18.5q-1 -2 -1.5 -7t-1.5 -8.5t-3 -3.5v3q6 -7 4 -11.5t2 -7.5t20 -3q5 0 15.5 2
t16.5 2q49 0 49 -8l-3 -3q0 3 3 3q0 -1 6 -9t6 -19v-1q-1 -1 -1 -2q-6 6 -12 8q-2 -6 -2.5 -6.5t-6.5 -0.5v3h1h1q-1 0 -1 1q0 -3 -3 -3h2.5t0.5 -3q0 -5 -11 -5q-1 0 -5 3t-6 3q-8 -1 -13 -3q-4 1 -11 1t-10 -1h-2q-2 0 -4 -0.5t-3 -0.5q-2 0 -4 2q-18 -6 -20 -6h-1
q-3 0 -8 -2.5t-8 -2.5q-2 0 -3 7t-11 7q-19 4 -19 25q0 1 0.5 3.5t0.5 3.5q0 4 -3 11.5t-3 11.5t2 10.5t2 9.5q0 16 -3 22l3 5l-6 10v3q0 1 0.5 3t0.5 4q0 1 -1 3.5t-1 4.5q0 1 1 5t1 6q-4 4 -4 9q0 4 1 7v10t-2 13q0 2 2 5.5t2 5.5t-2.5 5t-2.5 6q0 11 1 16q0 6 -1 17
t-1 16q0 3 1.5 10t1.5 11q0 3 -1.5 6t-1.5 4q0 2 1 5v3q0 2 -1 4q0 2 1 5t1 4t-1 2.5t-1 2.5l3 6v1l-1 1l1 1q-3 5 -3 10l6 23q0 2 -2 5.5t-2 6.5l1 2q1 2 1 3q0 2 -0.5 4.5t-0.5 3.5q2 4 2 6q0 1 -0.5 4t-0.5 5q0 3 0.5 8.5t0.5 7.5t-0.5 6.5t-0.5 6.5q0 4 1.5 11.5
t1.5 11.5q0 2 -1 6t-1 6q0 4 1.5 13t1.5 13q0 1 -0.5 3.5t-0.5 5.5q5 15 5 37q0 1 -1 5.5t-1 6.5q0 32 12 32q2 0 6.5 2t6.5 2q6 0 15 -8t9 -14q0 -76 -4.5 -104t-4.5 -36q0 -5 -1 -15.5t-1 -14.5q0 -2 1 -7t1 -7q0 -15 -9 -15q-1 0 -10 3q-2 0 -2 -5q12 -8 12 -10t-2 -4
l-3 -2l2 -2l3 -3l2 -2q1 3 2 3q3 -14 3 -16q0 -3 -6 -3q0 3 -1 3l-1 -2z" />
    <glyph glyph-name="m" unicode="m" horiz-adv-x="369" 
d="M52 137l-1 1q0 -1 1 -1zM9 452v-2l-1 1q0 1 1 1zM-2 447q-1 0 -1 1zM109 355l-1 -1q1 0 1 1zM305 505l1 1q-1 0 -1 -1zM291 502l1 1q-1 0 -1 -1zM14 489h1q-1 -1 -2 -1v1h1zM17 469l-1 -1q1 0 1 1zM30 267l1 -1q0 1 -1 1zM12 261q-1 0 -1 1zM12 256v-1l-1 1q0 1 1 1v-1z
M9 243q0 -1 -1 -1zM11 203q1 0 1 -1zM19 197l1 1q0 -1 -1 -1zM33 346l1 -1q0 1 -1 1zM116 340v0v0zM132 303l1 1q-1 0 -1 -1zM124 298l-1 1q0 -1 1 -1zM11 511v2l1 1v-3t-1 0zM41 435q0 3 -1 3q0 -2 1 -3zM9 503q-1 1 -1 3q1 0 1 -3zM272 559h4q0 -1 -1 -1h-1zM106 297h-3h3
zM21 273q-1 -1 -3 -1q-1 1 0.5 1h2.5zM14 324v-2h-1q-1 1 -2 1q-1 1 0 1h3zM6 318q-1 0 -1 3q1 0 1 -3zM19 230h-1q-4 0 -4 3q2 0 5 -3zM80 362l-1 1q0 3 2 3l2 -1zM42 222q-2 2 -3 2l-1 -1l3 -3q0 2 1 2zM102 336q2 -1 0 -1q-4 0 -3 2q3 0 3 -1zM10 455h-2q0 1 6 1
q0 -1 -4 -1zM42 438q-3 3 -4 3l-1 -2l3 -3zM30 341l2 4l-1 1q-1 0 -3 -2q1 -1 2 -3zM102 370q1 0 3 0.5t3 0.5q-2 0 -5 0.5t-4 0.5v-2h3zM28 270l2 4q0 2 -2 2l-1 -1l1 -1v-4zM102 348q4 0 4 -3q-1 -1 -2 -1t-5 4h3zM36 462l-4 4q-1 0 -3 -2q3 -4 6 -4zM76 377q4 0 4 -1
q0 -7 -3 -7q-4 0 -4 2zM55 32q0 -2 -1 -2q-4 0 -6 9q2 0 3.5 -1t2 -3t1.5 -3zM33 149q5 -1 5 -5q0 -3 -3 -3q-8 0 -8 5zM33 284q5 0 5 2q0 3 -10 3q-1 -1 -1 -2t6 -3zM121 336q0 1 -1 1q-2 -1 -4 -4.5t-3 -4.5l6 -3q0 1 2 4.5t2 5.5zM34 452l-3 -2v2h-1h3q-2 -2 -2 -3
q0 -5 5 -5q6 0 6 6h-1h-2q-2 0 -3 1t-2 1zM44 336l-4 1v1v1l-1 -1q2 0 2.5 -3t3.5 -3l2 1zM309 256l-1 -4q-2 0 -2 -4q3 0 3 1l-1 2v3l3 3l-1 1l-1 1v-3zM118 307q-1 1 -1 2q0 -3 3 -3l-1 -1q-1 0 -1 2zM30 188l3 -11q0 4 -4 15.5t-4 15.5q0 1 1.5 1.5t1.5 1.5t-2 5t-2 7
q2 10 2 19q0 2 -2.5 9t-2.5 11q0 8 -1.5 23t-1.5 22v22q0 1 -1.5 4t-1.5 4t1.5 3t1.5 4q-2 4 -3.5 9.5t-1.5 11t0.5 10t0.5 7.5l1 4q0 4 -1.5 11t-1.5 10q0 1 0.5 3.5t0.5 3.5q0 2 -0.5 5t-0.5 4q0 3 1 8.5t1 8.5q0 2 -0.5 5t-0.5 4q0 2 0.5 5.5t0.5 4.5q0 4 -1 11l-1 8
q0 2 3 6t3 6t-1 5.5t-1 4.5q0 3 2.5 8.5t2.5 6.5t-1.5 5t-1.5 5q0 18 12 18l1 -1q1 -2 2 -2q9 3 10 3t5 -1.5t6 -1.5q1 1 4 1q2 0 8 -3l6 -3q3 0 5 1q1 0 5 -9.5t5 -14.5q0 -1 -1 -2.5t-1 -2.5q0 -4 10 -30t12 -29q13 -28 23.5 -68t19.5 -51q4 -4 8 -12.5t6 -16t4.5 -15.5
t2.5 -9q1 -2 2.5 -7.5t3.5 -9t5 -3.5q7 22 15.5 47.5t13.5 41.5t10 30.5t8 21.5t5 8q1 0 1 1t-0.5 3t-0.5 3q0 8 3.5 17.5t8 17.5t4.5 9q27 112 44 112q2 0 2.5 -2.5t2.5 -2.5q1 0 2 1l1 -2l4 -4q2 1 3 1t4.5 -2t5.5 -2q1 0 4 0.5t4 0.5q6 0 6 -18q0 -4 -0.5 -13t-0.5 -13
q0 -16 1.5 -48t1.5 -48q0 -10 2 -28t2 -28q0 -7 -2 -19q2 -14 2 -21q0 -4 -0.5 -13t-0.5 -14v-12q0 -12 -2 -18q0 -3 1 -9t1 -10q0 -3 -2 -11q2 -12 2 -20q0 -1 -1 -4t-1 -5q0 -1 0.5 -3t0.5 -3l-1 -1v-1q2 -5 2 -16v-116q0 -2 1 -4t1 -4q0 -1 -0.5 -3t-0.5 -3l1 -2v-2
l-24 -13q-4 -2 -7 -2q-7 0 -11.5 8t-6 23.5t-1.5 28t0.5 32t0.5 25.5q0 4 0.5 11t0.5 10q0 31 -0.5 92t-0.5 91q0 2 1.5 6t1.5 5q0 2 -1.5 6t-1.5 6q0 3 1.5 7t1.5 6q0 1 -1.5 4.5t-1.5 5.5t1 4.5t1 3.5q0 2 -1 4t-1 4q0 5 2.5 13.5t2.5 9.5q0 3 -5 3q-8 0 -8 -6
q0 -2 1.5 -4t1.5 -4q0 -7 -4.5 -20.5t-9.5 -25t-5 -12.5q-12 -42 -21 -62q-3 -3 -8 -22t-5 -24q-7 -14 -11.5 -32.5t-7 -28t-5.5 -9.5t-6 1q-5 0 -5 -5q-2 1 -5.5 3t-5.5 2q-1 0 -5 -1t-6 -1q-8 0 -12.5 6t-9 20t-7.5 21q-6 8 -13.5 26t-12.5 32l-5 15q-3 2 -4.5 8.5
t-2.5 8.5q0 1 0.5 3t0.5 3t-1.5 2.5l-3.5 3.5t-3 4q2 2 3 2t3 -0.5t3 -0.5q1 1 1 3q-11 3 -20 32q-8 39 -24 61q-4 -4 -4.5 -19t1 -38.5t1.5 -29.5q0 -11 -5 -17.5t-9.5 -8t-4.5 -2.5l1 -2v-2l-4 -6q0 -6 4 -6q2 0 4 6.5t3 6.5q2 0 3 -1l1 2q0 1 -0.5 2.5t-0.5 2.5l1 1h2
q11 -6 11 -15q0 -5 -6 -7l-2 1l-1 -1h-2.5h-4.5v-1q-1 -1 -1 -2q2 -4 9.5 -7t7.5 -7t-3 -4q-2 0 -6 1.5t-5 1.5q-3 0 -3 -6t7 -6q1 0 3.5 1t3.5 1q2 0 2 -3q0 -2 -2 -6.5t-2 -7.5q0 -1 1 -3t1 -3q0 -5 -5 -5q-2 0 -2 2v3q0 2 -2.5 4.5t-2.5 3.5q-1 -7 -3 -7q-1 0 -3 1.5
t-5 2.5q0 -2 2.5 -5.5t4.5 -3.5q1 0 2 0.5t2 0.5t2 -2v-5q0 -4 4 -4q0 1 1 3l-2 2l-1 2q0 5 5 5q7 0 7 -12q0 -2 -1 -5l-1 -4q0 -1 1 -1h3q3 0 3 -4q-1 -1 -1 -3q0 -6 2.5 -17t2.5 -17q0 -2 -1.5 -6.5t-1.5 -6.5q0 -1 2.5 -8t2.5 -10v-7q0 -10 5 -36t5 -35l-1 -1l-2 1
q-2 1 -3 1q-5 0 -8 -8v-2q1 -1 1 -2t-1.5 -3t-1.5 -3t0.5 -2.5t0.5 -2.5q0 -2 -1 -6t-1 -5t5 -3t5 -8q0 -3 -2 -3t-5.5 1t-5.5 2q-6 0 -7 -4q-1 2 -2 2t-3 -1t-3 -1q-7 4 -9.5 14.5t-3 25t-1.5 18.5q-4 13 -4 30l2 2q-1 15 -11 35q0 1 5 5t5 7q0 4 -3 4q0 -1 -3 -1v1l-1 2
q1 1 1 3t-3.5 4t-3.5 6h3v-2l1 1h-3z" />
    <glyph glyph-name="n" unicode="n" horiz-adv-x="301" 
d="M63 81q0 -1 1 -1q0 1 -1 1zM26 454l1 -1q0 1 -1 1zM27 462q0 1 -1 1q0 -1 1 -1zM236 493q4 4 4 5t-2.5 3.5t-2.5 4.5l2 3q2 3 2 4l-2 3q-6 -2 -7 -2q-2 1 -3 1t-2 -3l-1 -1q0 -1 2 -2.5t2 -2.5v-5q2 -1 2 -3v-3q0 -4 4 -5q5 0 2 3zM26 281l-7 18v1q0 2 -2.5 5t-2.5 5
q0 1 1 3t1 4q-4 20 -4 30q0 2 0.5 5.5t0.5 5.5t-0.5 6.5t-0.5 7.5q0 1 0.5 3.5t0.5 4.5v3q0 1 1 4.5t1 6.5q0 1 -1.5 3t-1.5 4l1 2q1 1 1 2t-0.5 3t-0.5 3v24v28v27.5t1.5 27.5t3.5 21.5t5.5 15.5t8.5 5q1 0 3 -1l2 -1q1 0 6.5 3t7.5 3q4 0 8 -5t7 -5h2q4 0 9 -6t10.5 -17.5
t8.5 -20t8 -22.5l5 -13q5 -14 15 -37.5t13 -32.5v-2q0 -1 -1 -3v-2h-2q0 -1 1 -1v3q4 0 11.5 -19t13.5 -39l7 -20q35 -94 38 -109l2 -4q2 0 2 3q0 2 -0.5 6t-0.5 6q0 20 0.5 38.5t1 31t1 22.5t1.5 16v5q0 1 -0.5 4t-0.5 4t0.5 2t0.5 2v1l-1 2q0 2 0.5 5t0.5 4q0 3 -0.5 7
t-0.5 7q0 10 1 30.5t1 30.5q0 4 -0.5 11.5t-0.5 11.5q0 10 2 30q0 5 -0.5 15t-0.5 15q0 1 0.5 3.5t0.5 3.5v28q0 6 10 10.5t19 4.5q13 0 13 -5q0 -1 -1.5 -2t-1.5 -2l1 -2q2 -2 4 -5.5t2 -7.5v-30q0 -1 0.5 -3.5t0.5 -3.5l-5 -18q0 -5 2.5 -13t2.5 -12q-1 -5 -1 -16
q0 -7 1 -21.5t1 -20.5q0 -2 -0.5 -6t-0.5 -7v-9q0 -7 -2 -17t-2 -11q0 -3 2 -7q0 -2 -1 -4t-1 -4t0.5 -5t0.5 -5q0 -10 -1 -15q0 -5 1 -17t1 -17v-8v-5q0 -1 -1 -3.5t-1 -3.5q0 -2 0.5 -5.5t0.5 -5.5q0 -1 -1 -4.5t-1 -5.5q2 -6 2 -19q0 -2 -0.5 -8t-0.5 -9q0 -1 1 -5t1 -6
q0 -11 -1.5 -34t-1.5 -35q0 -3 1.5 -8.5t1.5 -8.5v-11.5v-12v-10.5t-1 -10t-3 -8t-5 -6.5t-7 -3.5q-2 -1 -13 -4l-6 -2q-28 0 -43 87q-7 30 -28.5 87t-29.5 87q-48 133 -49 135q-3 5 -5 5q-2 -3 -2 -12q0 -2 1 -7t1 -8t-1.5 -9t-1.5 -9t1 -8t1 -8q-2 -13 -2 -40q0 -9 1 -14
q0 -3 -0.5 -11t-0.5 -11q0 -5 1 -15t1 -16q0 -4 -0.5 -11t-0.5 -10q0 -2 0.5 -4.5t0.5 -3.5v-20q0 -10 1 -15v-7q0 -7 0.5 -14t1.5 -16t1 -14q0 -1 -0.5 -3.5t-0.5 -3.5q0 -2 0.5 -7t0.5 -8t-0.5 -7.5t-0.5 -6.5q0 -76 18 -103v-2q0 -14 -5 -14h-2l-2 1q-4 0 -9.5 -1
t-8.5 -1q-32 0 -32 69v3q0 6 -3.5 27t-3.5 25q2 20 2 32q0 2 -1 5t-1 5v5q0 6 -1 17t-1 16q0 7 1 10q0 14 -2 21q0 1 0.5 5t0.5 6l-3 18q0 16 3 16t6 -3q1 1 2 1h-3z" />
    <glyph glyph-name="o" unicode="o" horiz-adv-x="224" 
d="M74 26h1q-1 -1 -2 -1v1h1zM108 16q0 1 1 1zM163 432q1 0 1 -1zM141 359q1 0 1 -1zM41 348q-1 0 -1 1zM51 479q0 1 1 1zM152 451v0v0zM35 281v0v0zM160 261q1 0 1 -1zM46 328q0 1 1 1zM133 310q0 -1 -1 -1zM26 285l1 -1q-1 0 -1 1zM125 551q0 -1 -1 -1zM133 547l-1 1
q1 0 1 -1zM59 519h1h-1zM130 497q-1 0 -1 1zM96 582q0 -1 -1 -1v1h1zM54 559l1 1q0 -1 -1 -1zM116 551q0 1 1 1zM50 503q1 1 3 1q0 -1 -3 -1zM145 508h-1l-2 -1l-1 1h-2h1l2 1l1 -1h2zM43 424l-3 1l1 1h2h1l2 -1q0 -1 -3 -1zM41 296v-1q-1 0 -3 1h3zM156 285v-1l1 -2l-1 -1
v-2v1l-1 2l1 1v2zM156 321l1 3l1 -1v-2v-1l-1 -2q-1 0 -1 3zM45 313q0 -1 1 -3v-1q-1 -1 -1 -2q0 1 -1 3v1q1 1 1 2zM30 361q-1 1 -3 1h1l2 1q1 0 3 -0.5t3 -0.5q-1 0 -3 -0.5t-3 -0.5zM30 386q-1 1 -1 3q0 -1 0.5 -3.5t0.5 -3.5v4zM32 67l-4 -4q0 4 4 4zM109 41q3 0 5 -2
l-2 -3q-2 1 -4 3q0 1 1 2zM43 437l6 -3q0 -2 -2 -2q-3 0 -5 4q-1 1 1 1zM125 564q2 5 5 5l2 -1q0 -6 -4 -6q-1 0 -3 2zM49 390q-1 -3 -5 -3q0 8 2 8q3 0 3 -5zM146 522q2 -2 0 -3q-6 0 -6 5l2 4q1 -1 4 -6zM126 519v-6v3l1 -1q0 -1 -2 -1q0 -26 5 -26q1 0 2 3t2 6.5t2 5.5
q3 -9 3 -18q0 -6 -3 -11t-3 -7q0 -1 1 -4t1 -4q0 -10 -9 -10q0 -3 2 -4.5t2 -3.5t-2 -3.5t-2 -2.5t1 -4.5t1 -5.5t-1.5 -6.5t-1.5 -6.5q0 -4 2 -8q-1 -1 -1 -4q0 -2 0.5 -4t0.5 -4q0 -5 -2 -13q0 -1 0.5 -4t0.5 -4v-4q0 -3 1.5 -11t1.5 -11q0 -2 -2.5 -6t-2.5 -7q0 -1 2 -2
l5 -2.5t4 -2.5q-12 0 -12 -143v-5q0 -39 -4 -47q-3 -7 -5.5 -29t-10 -33.5t-26.5 -11.5l-2 2q-2 3 -4.5 5.5t-4.5 3.5v2q0 2 -1.5 4.5t-3.5 8.5t-4 16t-3.5 32t-1.5 52q0 18 0.5 53t0.5 52q0 6 -2 8l-1 1l2 2q1 1 1 2t-2 3l-2 2q0 1 2.5 3.5t2.5 3.5q0 2 -2.5 5t-2.5 5
q6 10 6 23q0 1 -1 3.5t-1 4.5q0 6 2 20.5t2 21.5v6q0 3 1 11t1 12q0 1 -0.5 3t-0.5 4v1v3v5t0.5 7t1 8.5t1.5 10t2 11.5t3 12.5t4 13.5q1 2 6.5 17.5t5.5 21.5q0 1 -1 3t-1 3q0 3 3 3q2 0 5.5 -0.5t5.5 -0.5t2 2q0 1 -2.5 3.5t-2.5 3.5t0.5 2.5t0.5 2.5v2q-1 1 -1 2t5 3.5
t5 5.5q0 1 -2.5 4t-2.5 4l1 1q2 0 6 -5t4 -8t-3.5 -4.5t-4.5 -2.5q0 -4 4 -4h1q2 1 3 1q8 -6 8 -9v-2q0 -2 3 -5.5t3 -6.5q0 -1 -0.5 -2.5t-0.5 -2.5q0 -10 6 -16zM137 521q2 0 2 2l1 -1h-1h-1q0 -4 -2 -6q-4 3 -6.5 9.5t-5.5 9.5l1 3q1 0 3 -0.5t3 -0.5h1l9 -6v3l1 -1h-1
h-1v-3l1 -2q0 -1 -3 -1t-3 -2q0 -3 2 -4zM91 568l2 -3v3q-4 0 -3.5 -4t-2.5 -4t-3 3q0 5 7 5zM37 332q7 2 7 -2q0 -3 -3 -3q-2 0 -4 5q-2 3 -2 2q2 0 2 -2zM145 538l-2 -5l-3 3q1 1 1 2q1 0 1 -3q3 0 3 3zM90 569l11 -4v3v-1h-2v-3q-2 1 -6 3.5t-8 4t-7 1.5q-10 0 -10 -20
v-4q0 -4 -4 -5q0 -2 3.5 -5t4.5 -5q0 -2 -1 -2q-6 0 -14 13q-5 -1 -5 -5v-1l1 -1l-6 -11q-1 -2 -1 -4t2 -4q-9 -7 -11 -25v-6q0 -2 -1 -6t-1 -5t0.5 -4t0.5 -5t-2 -5.5t-2 -5.5v-18q0 -2 -1.5 -5.5t-1.5 -4.5q0 -2 0.5 -6.5t0.5 -5.5q0 -5 -1.5 -15t-1.5 -15q0 -3 0.5 -7
t0.5 -6t-1 -5t-1 -4t0.5 -3t0.5 -3t-2.5 -15t-2.5 -17v-8v-5q0 -3 3 -4.5t3 -3.5t-3 -2t-3.5 -4t-0.5 -10t-1 -8v-4q0 -2 -0.5 -5t-0.5 -5q0 -1 0.5 -3.5t0.5 -3.5q0 -3 -1 -9.5t-1 -10.5t1.5 -10.5t1.5 -9.5q0 -1 -1 -5t-1 -6q0 -13 1.5 -38.5t1.5 -37.5v-11q2 -18 8 -34
q0 -1 -0.5 -2t-0.5 -2q0 -4 1 -8l1 -4q0 -1 -1 -3.5t-1 -3.5q0 -2 5 -11t5 -12q2 -11 15 -26t17 -15q2 0 5 3t4 3t4 -2.5t6 -2.5v5q4 0 7.5 -3t5.5 -3q3 0 14 6l11 6h1q5 0 8 2.5t5 5.5l2 3q16 9 24 35.5t8 51.5v7q0 3 1 8.5t1 8.5q0 1 -0.5 3t-0.5 3q0 5 2 17t2 18v4v132
q0 7 -1 10q1 3 1 9v10q0 1 0.5 3t0.5 3q0 4 -3 5q-1 1 1 3l2 2q0 4 -0.5 12t-0.5 12q0 1 1 4t1 5q0 1 -1 3t-1 3t1 3q0 1 -1 3t-1 3t1 3t1 3q0 2 -1.5 5t-1.5 4t0.5 3.5t0.5 3.5q0 2 -0.5 5t-0.5 4t1 4l-3 9h-3q-2 -1 -3 -1q-2 0 -2 5q0 2 2 6q-3 0 -3 -3q2 0 3 -3t3 -3
q6 0 6 20q0 2 -1 8t-1 9v6q0 -3 -2 1q-9 27 -9 46q-3 12 -10.5 18t-9.5 11q-2 0 -3.5 -1.5t-2.5 -1.5q-4 0 -7 7t-11 7q-2 0 -3.5 -2.5t-2.5 -2.5l-6 2q-11 3 -13 4q-1 -1 -4 -3.5t-5 -4.5l-2 -2z" />
    <glyph glyph-name="p" unicode="p" horiz-adv-x="244" 
d="M42 166l-1 1q0 -1 1 -1zM24 158q0 -1 1 -1q0 1 -1 1zM146 379l-1 -1q1 0 1 1zM138 291l1 1q-1 0 -1 -1zM51 537v0v0zM160 510q0 -1 1 -1q0 1 -1 1zM161 501l1 1q-1 0 -1 -1zM12 227q3 0 3 1q-2 0 -3 -1zM150 364h3l-4 2h-1l-2 -1q2 0 4 -1zM141 287l-1 -4v-3q2 2 2 9
q0 1 -0.5 1t-0.5 1v-4zM32 144q0 6 -2 6l-10 -10q0 -2 5 -2q6 0 7 6zM49 262l1 3q0 -13 2 -15.5t14 -2.5q3 1 9 2t8 1.5t6.5 1.5t6.5 2t5.5 2.5t5.5 3.5t4.5 5t4.5 6.5t4.5 8.5t4.5 11q1 3 4 6.5t5 4.5l3 2q0 1 -3 5.5t-3 7.5q0 6 3 15t5 10q-1 1 -1 2l4 4q-1 1 -1 4
q0 2 8 10q-9 3 -9 6q0 2 1.5 6t1.5 6q0 3 -0.5 9.5t-0.5 9.5q0 4 2 12.5t2 12.5v4q2 3 2 10v7v10v8v9v7v10q0 25 -7.5 45t-21.5 20q-29 0 -41 7q-7 0 -15 -4.5t-8 -10.5v-12q0 -12 -2 -18q0 -4 0.5 -12.5t0.5 -12.5q0 -16 -1.5 -49t-1.5 -50v-30q0 -30 -2 -45q0 -5 0.5 -16
t0.5 -17q0 -2 -2 -2h-2q-4 0 -4 -5q0 -1 3.5 -5t3.5 -10zM153 354q0 -1 2 -1q0 3 -3 3h1v-2zM75 608l1 -5q30 0 61.5 -13t43.5 -36q6 -12 6 -28v-6q0 -5 2 -23t2 -28v-8q0 -1 0.5 -5t0.5 -5q-6 -23 -8 -62t-4 -49q0 -2 -1.5 -11.5t-3 -18.5t-4 -21.5t-5 -22.5t-6 -19.5
t-7 -14.5t-6.5 -5q-1 0 -2.5 0.5t-2.5 0.5t-1 -2v-2q0 -11 -22.5 -18.5t-45 -11.5t-22.5 -5q0 -5 1 -13t1 -13q0 -2 -2 -2h-3q-1 0 -6 -5l4 -4q0 -6 -5 -9t-5 -13q5 0 5 5q0 1 -0.5 1t-0.5 1q6 11 10 11q9 0 16 -126v-9q0 -2 1 -5t1 -4q0 -8 -21 -8q-29 0 -29 30
q0 3 -1.5 8.5t-1.5 8.5q0 1 0.5 3t0.5 3q-3 18 -3 21q1 1 1 4q0 2 -1 6t-1 6v7q0 2 -1.5 6.5t-1.5 7.5q0 1 0.5 3.5t0.5 3.5q0 4 -1 12t-1 12q0 3 1.5 7t1.5 6q0 9 -2.5 27.5t-2.5 28.5v10q0 3 -1 8t-1 7q0 1 0.5 2.5t0.5 2.5t-1 4q0 1 3.5 2.5t3.5 3.5l-1 1h-2q-7 0 -7 8
q0 1 2 3.5t2 3.5q0 2 -3 8.5t-3 8.5t1.5 5.5t1.5 4.5t-1 2.5t-1 2.5t0.5 3.5t0.5 3.5v3q1 1 1 4t-1 9t-1 9q0 1 0.5 3.5t0.5 3.5v7q0 1 0.5 3t0.5 3t-1 4t-1 4t1 3.5t1 3.5t-1 3t-1 3t0.5 3t0.5 3t-1 3t-1 4q0 1 2 7q0 2 -1 8t-1 9t1 7.5t1 6.5q0 1 -1 4t-1 4q0 3 2 9.5
t2 7.5t-0.5 3t-0.5 3q0 8 3.5 22t3.5 16t-1.5 5t-1.5 4t1.5 5t1.5 6q0 1 -1 3t-1 3q0 11 6 18l-2 2q-2 3 -2 4l1 2q2 1 2 2q0 2 -1.5 5t-1.5 4q0 2 1 3q0 2 -3.5 6t-3.5 8l3 4q4 5 7 10l3 4l14 7t15.5 7.5t14 5t15.5 2.5z" />
    <glyph glyph-name="q" unicode="q" horiz-adv-x="294" 
d="M162 150q-1 0 -1 -1q1 0 1 1zM198 49q0 -1 1 -1q0 1 -1 1zM191 452v1l-1 -1q0 -1 1 -1v1zM193 429q0 1 -1 1q0 -1 1 -1zM196 422v-1v1zM178 413v0v0zM204 366l-1 1q0 -1 1 -1zM187 479l-1 -1q1 0 1 1zM198 462l-1 -1q1 0 1 1zM201 336l-1 -1q1 0 1 1zM192 333l-1 -1
q1 0 1 1zM195 541h-1v-1q1 0 2 1h-1zM205 387q0 3 -1 3q0 -3 1 -3zM55 488v3q0 -1 -1 -3q1 -1 1 0zM172 203v-3v3zM33 193q0 3 -1 3q0 -2 1 -3zM181 182q0 3 -1 3q0 -3 1 -3zM188 154q-4 0 -4 -1h4v1zM137 592q-1 -1 -3 -1q2 -2 6 -2zM188 435q-2 2 -3 2q-3 0 -3 -2
q0 -1 2 -2l3 -1q0 2 1 3zM197 461q0 4 -3 4q-2 0 -2 -2q0 -4 4 -4q0 2 1 2zM25 181q0 5 -4 5q-2 0 -3 -1q2 -5 6 -5q0 1 1 1zM189 185q0 7 -4 8q0 -5 6 -11q0 2 -2 3zM185 539q-3 16 -6 16l-7 -20l1 -3q10 2 12 7zM167 211l-4 -5v-2l1 1h-3v7q0 2 -1 6.5t-1 6.5q0 7 1 20
t1 20v15q0 17 1.5 51t1.5 51q0 2 -0.5 6t-0.5 6q0 65 7 65q1 0 1 -1l-1 -2q0 -1 9 -4q4 0 4 3q0 2 -3 4.5t-3 3.5l3 1q3 2 3 3t-2.5 4.5t-2.5 5.5t1 4t1 3q0 4 -4 4h-10q-2 4 -2.5 20t-2.5 18q-3 3 -8.5 12.5t-10 16.5t-7.5 7q-2 -1 -6 -1q-2 0 -6 0.5t-7 0.5h-2
q-3 0 -8 1.5t-7 1.5q-7 0 -16.5 -13.5t-9.5 -22.5v-2q0 -40 -7.5 -91t-7.5 -80q0 -34 -3.5 -60.5t-3.5 -62.5v-3q-1 -2 -1 -7v-17q0 -2 -0.5 -5t-0.5 -4q0 -11 0.5 -32.5t0.5 -32.5v-12v-12q0 -2 -0.5 -8t-0.5 -8q0 -60 51 -60q8 0 25 7.5t17 18.5q0 6 -18.5 18.5
t-18.5 14.5q0 3 3.5 6.5t3.5 5.5l-1 1q-1 2 0 3q8 8 9 10l2 -1l6 4q5 3 7 3t2 -3l-1 -1v-2t12 -6l5 -2q8 0 8 63q2 7 10 10t8 9q-2 1 -5.5 1.5t-5 1t-3 3.5t-1.5 8t3 6zM201 440q-2 2 -3 2l-1 -3l1 -2q1 0 2.5 1.5t3.5 2.5l-2 1q-2 -2 -1 -2zM11 178q0 1 -2.5 3t-2.5 5t2 8
t2 7t-1 5.5t-1 5.5v6q0 1 -0.5 2.5t-0.5 2.5t1 5t1 5v8q2 24 2 38q0 2 -0.5 6.5t-0.5 7.5q0 23 9 115q0 3 2 8.5t2 8.5q0 1 -1 3t-1 3l7 32v9q0 38 13 60q0 1 -1 3t-1 3q0 25 21 46q3 6 16 13.5t16 7.5t7 -2q4 2 8 2q2 0 8 -1t9 -1q1 0 3 0.5t3 0.5q9 0 19 -6.5t13 -6.5
q1 0 4.5 1.5t4.5 1.5q2 0 2 -2q0 -1 -1 -3v-2l12 -9q11 -8 11 -10q0 -1 -1.5 -2.5t-1.5 -2.5t3 -1t3 -2t-1 -3q17 -9 17 -28q0 -2 -1 -2t-2 0.5t-2 0.5t-4 -3t-3 -4q0 -2 2 -6q-3 0 -3 3q10 -2 10 -5q0 -1 -5 -4t-7 -3q-3 0 -6 5.5t-7 5.5h-2l-3 3q-1 -1 -2 -1q3 0 3 -1
q0 -2 -1.5 -5.5t-1.5 -5.5q1 -1 1 -2l-2 -1q-3 -2 -4 -2q0 -8 2 -8q1 0 2.5 1t2.5 1q5 -1 19 -14q2 0 2 4q0 1 -1.5 2.5t-1.5 2.5q1 6 3 6q1 -1 5 -4.5t5 -5t2.5 -5t1.5 -8.5q0 -4 -0.5 -12t-0.5 -12q0 -3 1 -9t1 -9q0 -2 -1.5 -6t-1.5 -5v-3l1 -2q-3 -27 -3 -30
q0 -1 0.5 -3t0.5 -3q0 -2 -1 -4t-1 -3q0 -3 1 -8t1 -7q0 -6 -2.5 -12.5t-2.5 -7.5q0 -2 2 -6.5t2 -7.5q-1 -17 -7 -27q0 -1 2.5 -6t2.5 -6q0 -2 -1 -4t-1 -3q2 -6 2 -9q0 -73 -5 -79q0 -2 0.5 -6t0.5 -6t-1 -7t-1 -8q0 -4 0.5 -12t0.5 -12v-7q0 -2 0.5 -5.5t0.5 -5.5
q0 -7 -3 -21t-3 -18q0 -1 24 -23.5t24 -42.5q0 -3 -11 -11.5t-13 -8.5t-4 0.5t-4 0.5q-1 0 -3 -0.5t-3 -0.5q-5 0 -5 7q0 1 1 3q-3 2 -7.5 7.5t-8.5 9.5t-8 4q-3 0 -15 -14t-21 -16q-13 -10 -51 -10q-26 1 -48 15q-16 0 -25.5 19t-11 32.5t-1.5 20.5q0 82 2 83q2 0 2 2
q-3 2 -3 5q2 11 5 14v-2l1 1q-2 0 -5 1z" />
    <glyph glyph-name="r" unicode="r" horiz-adv-x="250" 
d="M11 144l-1 1q0 -1 1 -1zM52 26l1 1q-1 0 -1 -1zM45 82q-1 -1 -3 -1l3 -3l1 2zM46 331q0 -120 4 -120q20 0 39.5 15.5t29.5 29.5t10 17q0 9 3 28.5t3 29.5v12q2 7 2 22v6q0 2 0.5 4.5t0.5 3.5q0 92 -5 111q-9 34 -22.5 45t-42.5 11q-6 0 -10 -1.5t-5.5 -5t-2 -5.5t0 -8
t0.5 -7q0 -6 -2.5 -23t-2.5 -26v-6v-42v-49v-42zM163 538l-3 -8q-5 -2 -5 -4q0 -6 10 -10q1 0 4 1t4 1q2 0 2 -2q0 -1 -0.5 -3t-0.5 -3v-1q1 -1 1 -2q0 -4 -7 -4h-3q-2 0 -2 -3t2 -7q0 -1 -0.5 -2.5t-1.5 -0.5q-2 1 -5 4l-4 2l-1 -1q0 -5 9.5 -12t10.5 -11h-3v2h-1
q3 0 3 -3.5t6 -3.5h-7l2 -2q11 0 11 4q0 1 -6 10q6 0 8 -0.5t2 -2v-4t1 -8t4 -11.5q1 -1 1 -5q0 -3 -2 -9q0 -1 1 -3.5t1 -4.5q0 -3 -2 -9q2 -3 2 -10v-10v-11q0 -17 -4 -51.5t-4 -51.5v-2q0 -3 -1 -7t-1 -6q0 -3 1 -5q-2 -3 -5.5 -6.5l-6.5 -6.5t-3 -4q5 -2 5 -7
q0 -2 -1.5 -5.5t-4.5 -7t-6.5 -7.5t-7 -7.5t-7.5 -7t-6.5 -6l-4.5 -4.5l-2 -2q-1 -1 -1 -3q0 -4 11.5 -15t14.5 -15q18 -30 42 -114q2 -6 2 -11q0 -6 -11.5 -10.5t-19.5 -4.5q-11 0 -18 13.5t-14 41t-9 32.5q-20 55 -77 55q-2 0 -4 -7.5t-5 -7.5v3q6 -2 6 -39v-6q0 -3 1 -8
t1 -7v-8q0 -2 1 -5.5t1 -5.5v-3l-1 -3q5 -5 5 -33v-4q0 -2 1 -6t1 -6q0 -4 -14.5 -6.5t-19.5 -2.5l-10 7q1 1 1 2t-0.5 2.5t-0.5 2.5q0 2 1.5 4t1.5 3t-1 4l-1 2l1 2q2 2 2 3l-2 3q-2 3 -2 4q0 2 2.5 3.5t2.5 4.5q-15 2 -15 36q0 2 1 3q-5 15 -5 51q0 2 1.5 6t1.5 5t-2 5.5
t-2 7.5q-2 28 -2 80v64q0 6 1.5 16t1.5 16q-2 6 -2 10v5v6q0 3 1 5q-2 9 -2 78q0 19 8 99q0 1 -0.5 2.5t-0.5 2.5q0 7 1 12t2.5 8t3 5t3.5 2.5t3.5 1t2.5 0.5h1q4 13 50 13q18 0 45 -6t27 -17q0 -1 -1.5 -3.5t-1.5 -3.5q0 -8 5 -8q0 8 2 9l3 -3q-2 -2 -2 -4l1 -1q1 0 3 1
t3 1q3 0 5 -3.5t2 -4.5q0 -3 -5 -3t-5 -1q0 -3 7 -13z" />
    <glyph glyph-name="s" unicode="s" horiz-adv-x="225" 
d="M167 123h1l-1 1v-1zM164 118l-2 1q-1 0 -1 -1h3zM161 95zM158 132l1 1q-1 0 -1 -1zM149 135q1 0 1 1zM135 108l1 1q-1 0 -1 -1zM135 115h-1l1 -1v1zM149 207q0 1 -1 1zM140 191l1 1q-1 0 -1 -1zM132 259q1 0 1 1zM118 299q3 1 -1 2l-2 1q-1 0 -3 -2q1 0 2.5 -0.5
t3.5 -0.5zM116 257q1 0 1 1zM111 251l1 1q-1 0 -1 -1zM107 271q1 1 1 2q0 2 -4 4q-7 0 -7 -6q0 -4 5 -4q1 0 5 4zM105 261q0 1 -1 1zM97 303zM102 334q-1 -2 2 -2q-1 2 -2 2zM107 319l-1 -1q1 0 1 1zM177 127l3 15q-1 -2 -1 -7q0 -1 1.5 -4.5t1.5 -5.5q0 -1 -1 -6.5t-2 -8.5
t-3.5 -6t-6.5 -3q0 -2 2.5 -4t2.5 -3q-27 -74 -74 -91q-4 0 -6 1t-3 1l-5 -2q-4 -2 -7 -2h-10q-2 0 -4.5 -0.5t-3.5 -0.5q-4 0 -8.5 2t-7.5 4l-3 3h-3q-16 0 -26 52.5t-10 88.5q0 68 11 68l22 -8q9 0 13 -8t4 -13q0 -3 -2 -8.5t-2 -8.5q0 -4 1 -6q-2 -6 -2 -8q0 -26 9 -74
q0 -8 4 -25t10 -17q4 0 7.5 0.5t14 4.5t17.5 11.5t13 24.5t6 41q0 11 7 11q1 0 2 -2l2 -2q1 0 3 3.5t2 4.5q0 3 -3 3q-2 0 -3 -1t-2 -1q-3 0 -3 3v2q0 1 -2 5q0 4 4 4q2 0 6.5 -2.5t7.5 -2.5h6q-13 0 -17 9h-4q-11 0 -11 32q0 2 2 4l2 2q0 -7 -8 6q-11 17 -11 38q0 1 1 4
l-2 6q-1 5 -3 9t-6 10.5t-9 11.5l2 1l2 2l-3 5q-1 0 -3 -1q-3 0 -10 8t-7 12q0 1 2 3l2 2q0 2 -6.5 5t-6.5 7v5q0 -1 -1.5 1t-5.5 8t-10 11q-21 18 -44 89q0 7 -2 21t-2 21q0 8 2 18t6 22.5t5 18.5q10 41 61 58q34 0 64 -24.5t30 -66.5v-7q0 -2 1.5 -6t1.5 -6t-1.5 -4.5
t-1.5 -3.5q0 -2 2 -8t2 -9t-0.5 -8t-0.5 -8q0 -1 1 -3t1 -3q0 -5 -6.5 -15t-9.5 -10q-9 0 -20.5 10.5t-11.5 22.5v18v2q-1 2 -1 3v4v5v7.5t-0.5 9t-1.5 10t-4 11t-6.5 11.5t-9.5 10.5t-14 9.5q-18 0 -28 -24t-10 -48q0 -4 -0.5 -10.5t0 -10.5t2 -12t7 -20t14.5 -30
q1 -3 15 -21t33.5 -52t37.5 -76q0 -8 10.5 -38.5t10.5 -52.5v-4q1 -7 -8 -12q1 -1 4 -3q4 -4 4 -7v-2z" />
    <glyph glyph-name="t" unicode="t" horiz-adv-x="210" 
d="M107 503l1 1q-1 0 -1 -1zM74 125l-1 1q0 -1 1 -1zM87 117l1 -1q0 1 -1 1zM76 109l-1 -1q1 0 1 1zM105 508q0 1 3 1q0 -1 -3 -1zM101 497q0 2 -1 3h-1q-3 -3 -3 -4q4 0 5 1zM93 530q1 -3 6 -3q0 6 -6 3zM94 494q-4 0 -4 -3l1 -1h2t3 2q-2 0 -2 2zM92 480v-1q5 3 6 4h-2
q-4 0 -4 -3zM84 74q-2 5 -7 7l-1 -2l6 -6q1 1 2 1zM70 507l-4 -3q2 4 4 4h1q1 -1 2 -1q3 0 6 2.5t6 6.5t5 6q-2 3 -6 3q-15 0 -15 -7q-3 0 -5.5 5.5t-5.5 5.5q-10 -4 -35 -6t-28 -4h-1q-5 0 -5 3q0 1 0.5 3t0.5 3l-5 31q0 3 3 6t6 3q1 -1 4 -1q12 0 47 7.5t52 7.5h5
q5 0 16.5 1.5t16.5 1.5q4 0 11 -1t10 -1t10.5 2t10.5 2q10 0 10 -5v-3q1 -4 2 -4l1 1h3q7 0 7 -7q-3 -3 -8 -8.5t-7 -7t-6 -5t-7.5 -4.5t-9.5 -2t-13.5 -1.5t-17.5 -0.5q-3 0 -8.5 -1t-8.5 -1q-2 0 -4.5 0.5t-3.5 0.5q-3 0 -3 -4q0 -1 3 -3t3 -4q0 -1 -1.5 -5t-1.5 -6t1 -8
t1 -10q0 -1 -2 -4l-2 -3q0 -1 2 -2q1 0 2 -0.5t1 -2.5v-29q0 -1 -3 -88v-10q0 -2 -1.5 -8t-1.5 -8q0 -17 0.5 -51t0.5 -50q0 -5 -1 -15t-1 -15q2 -18 2 -26q-1 -32 -8 -40l7 -19v-4q0 -2 -0.5 -5.5t-0.5 -5.5q0 -1 1 -4t1 -5t-1 -5t-2 -4.5t0 -2.5l-3 3q-4 3 -6 3
q-1 -1 -1 -2l16 -13q0 -1 -0.5 -2t-0.5 -2t0.5 -3t0.5 -3q0 -2 -9.5 -7t-9.5 -7q0 -5 7.5 -6t7.5 -3q-2 0 -6 -0.5t-6 -0.5q0 3 3 3q1 -6 8 -6q5 0 5 2q-1 2 -1 6l3 3q-3 0 -3 3.5t-2 3.5h-1l-1 -1l-6 6q9 0 11.5 -3t2.5 -15q0 -2 -0.5 -4.5t-0.5 -3.5t0.5 -5t0.5 -5t-1 -3
t-1 -4q0 -1 0.5 -3t0.5 -3q0 -5 -12 -5q-2 0 -2 3q0 1 0.5 3t0.5 3q-5 5 -8 9h-1q-2 0 -2.5 -3t-4.5 -3q-2 0 -7 4.5t-5 8.5q0 1 1 2l1 2v2q-1 2 -1 4q0 3 4 3l2.5 -5t2.5 -4q6 12 12 15q0 -3 -3 -3q0 5 -3 6l-3 1l3 3q2 3 2 6l-5 2q-5 1 -5 5q0 3 2.5 10.5t2.5 12.5h1h1
q-1 0 -1 1v-3q-15 0 -15 40q0 2 2 2q5 -7 6 -7q2 0 2 1q0 4 -6.5 16t-6.5 24q0 3 1.5 7t2.5 7l2 3q0 3 -2 7t-2 6q0 1 1 3t1 3q0 2 -1.5 6.5t-1.5 7.5v95v9q0 6 1 9q-1 2 -1 6q0 8 0.5 24t0.5 24v10q0 3 0.5 7t0.5 7v13q0 2 0.5 5.5t0.5 4.5q0 2 -1 6t-1 5v5v7q0 5 2 8v1
l-1 2q0 2 0.5 5.5t0.5 4.5q0 5 -1 7q1 2 1 6t0.5 7.5t2.5 3.5q0 -3 3 -6q1 2 1 3q0 2 -5 2z" />
    <glyph glyph-name="u" unicode="u" horiz-adv-x="235" 
d="M47 562l1 -1q0 1 -1 1zM20 559l1 1q-1 0 -1 -1zM20 134l-1 -1q1 0 1 1zM34 286h-1v-1q1 0 1 1zM175 274l1 -1q0 1 -1 1zM170 469l1 1q-1 0 -1 -1zM7 459q0 -1 -1 -1zM22 394l-1 1q0 -1 1 -1zM172 394l1 -1q0 1 -1 1zM16 161l1 1q-1 0 -1 -1zM16 218q0 1 -3 1l1 -1h2z
M31 554h3h-1q-1 1 -2 1t-3 -1h3zM170 441h3q-3 2 -7 2q2 0 4 -2zM37 222q-3 -3 -3 -5q0 -1 2 -1q3 0 3 2zM27 224l-2 -5h4q2 0 2 3q-6 2 -6 6q3 0 3 -6h-2q0 -1 1 -1v3zM51 41l2 -5q-5 0 -10.5 5.5t-5.5 9.5q0 1 0.5 2.5t0.5 2.5q-10 5 -15.5 31.5t-5.5 42.5q0 4 3 10l4 7
q0 1 -4 5t-4 7v13l-1 2l1 2l2 2q0 1 -3 3.5t-3 4.5q0 1 1.5 3.5t1.5 3.5q0 3 -2 11t-2 9q0 2 1 4.5t1 3.5q-5 12 -5 30q0 3 2.5 7.5t2.5 6.5t-3 13l-2 10q0 2 1.5 5t1.5 4t-0.5 3.5t-0.5 4.5q0 1 1 4t1 5q0 6 -1.5 13.5t-1.5 8.5q0 2 1.5 6t1.5 7q0 5 -0.5 16t-0.5 17l1 2v2
q-4 10 -4 16q0 2 2 8q0 1 -1 4.5t-1 5.5t1 5t1 4q0 2 -1.5 6t-1.5 7q0 1 1 4t1 5q0 1 -0.5 3.5t-0.5 4.5v6v3q0 4 1 11.5t1 11.5v18q0 2 2 3t2 2q0 2 -2.5 4.5t-2.5 3.5t1 4.5t1 5.5v27q0 22 8 25l4 -2q2 0 5 2.5t4 2.5t3 -1h2q3 0 4 3.5t3 3.5q3 0 3.5 -7.5t4.5 -8.5
q6 -4 6 -9q0 -1 -0.5 -3t-0.5 -4v-16q0 -19 -4 -50t-4 -37q0 -2 1.5 -6t1.5 -5v-20t-2 -25q0 -4 1 -11t1 -10q0 -4 -1.5 -10.5t-1.5 -9.5q0 -2 1.5 -6.5t1.5 -7.5t-1 -7t-1 -7q0 -4 1.5 -10t1.5 -8q0 -3 -1 -13t-1 -15q0 -6 1.5 -18.5t1.5 -18.5v-4q0 -2 0.5 -8t0.5 -9v-6
v-7v-5v-7q0 -1 -1 -3t-1 -4q0 -6 3.5 -23.5t3.5 -18.5v-10q0 -23 8.5 -50t22.5 -29q2 0 6.5 -1.5t6.5 -1.5q11 0 23 87l1 14q3 8 3.5 27.5t4.5 26.5q-1 2 -1 5q0 4 0.5 9.5t1 10.5t1 9t0.5 6l1 3q0 2 -0.5 6t-0.5 6q0 9 2 28t2 29q-2 14 -2 21q0 13 1 39t1 40q0 2 -1 5.5
t-1 5.5q0 3 1 4q-1 2 -1 8v8v10v14q0 2 -0.5 6.5t-0.5 6.5q0 6 0.5 20t0.5 20q0 22 -1 33q0 7 3 14.5t5 7.5q11 -1 18 -8q1 0 3 0.5t3 0.5q5 0 9.5 -7t4.5 -12v-8v-27q0 -13 -1 -19q1 -1 1 -4q0 -1 -0.5 -3.5t-0.5 -3.5q0 -2 1 -4t1 -4t-1.5 -4.5t-1.5 -3.5l2 -8q2 -8 2 -12
q0 -2 -1 -5.5t-1 -5.5q0 -5 1 -15.5t1 -16.5q0 -3 -1.5 -9t-1.5 -9t1.5 -8t1.5 -7q0 -1 -0.5 -3t-0.5 -4t1.5 -7.5t1.5 -8.5t-2 -8.5t-2 -7.5q0 -3 2 -7.5t2 -6.5v-6v-11q0 -4 -2.5 -13t-2.5 -11v-3q0 -3 -2.5 -10.5t-2.5 -11.5q0 -1 0.5 -3.5t0.5 -3.5q0 -4 -1.5 -9
t-1.5 -8q0 -1 1 -5t1 -5q0 -2 -1.5 -5.5t-1.5 -4.5t1 -4t1 -4q-1 -5 -2.5 -12t-1.5 -11l-1 -4q0 -2 1 -5t1 -5q0 -60 -15 -95q-2 -4 -2 -1v-3q0 -2 -4 -6q0 1 -2 2t-3 1l-1 -1v-2q0 -3 1.5 -8t1.5 -8q0 -12 -7.5 -21t-13.5 -12t-8 -3q-2 -1 -6 -1q-1 0 -3 1t-3 1l-3 -3h-2
q-1 0 -3 -1l-2 -1q-1 0 -3.5 1t-3.5 1h-5q-10 0 -20.5 5.5t-13.5 10.5q1 0 3 0.5t3 0.5q-5 0 -9 4v-3z" />
    <glyph glyph-name="v" unicode="v" horiz-adv-x="247" 
d="M38 536l-1 -1q1 0 1 1zM41 524l-1 1q0 -1 1 -1zM32 511l-1 -1q1 0 1 1zM15 504l1 1q-1 0 -1 -1zM20 499q1 0 1 1q-1 0 -1 -1zM38 500v0v0zM37 289l1 1q-1 0 -1 -1zM45 287l1 -1q0 1 -1 1zM57 281h1h-1zM37 274h-1v-1q1 0 1 1zM183 413q1 0 1 1q-1 0 -1 -1zM43 317h-1v-1
q1 0 1 1zM49 274l1 -1q0 1 -1 1zM46 496h-3h3zM56 268h-3t0 -1q1 0 3 1zM172 429l-2 -2q3 -8 6 -8q1 0 1 3q0 2 -1 4t-2 3t-2 0zM16 551q-6 0 -5 -3q6 -4 9 -5q4 0 4 5q-3 3 -8 3zM56 241l-3 1v1v1l-1 -1q4 0 3.5 -4.5t2.5 -4.5t3 3q0 4 -5 4zM34 533l-2 -1q-3 -2 -3 -3
q0 -4 4 -4q1 0 1 7l3 3l-1 1l-1 1q0 -2 -1 -4zM18 582h-2l-2 -1q-7 0 -7 6q0 4 8 7.5t15 3.5q2 0 4 -2t4 -2t3 1q4 0 4 -6q0 -1 -1 -3l-1 -2q0 -2 2 -2q1 0 2 1t2 1q6 0 6 -23v-20q0 -12 1 -18q0 -2 -0.5 -7.5t-0.5 -8.5q0 -20 2.5 -37.5t4.5 -27t2 -11.5v-15q0 -3 1.5 -9
t1.5 -9v-5q0 -18 2 -36.5t5.5 -37.5t4.5 -27q0 -20 7 -51t7 -35v-4q0 -47 14 -75q0 9 3.5 30t3.5 24v5q0 34 10.5 91t10.5 69q0 27 6.5 57.5t7.5 39.5q2 25 29 132q0 12 13 12q3 0 7 -2.5t6 -2.5h5q5 0 9.5 -6t4.5 -10q0 -20 -15 -67t-15 -61q0 -2 -2 -5.5t-2 -4.5t1 -3.5
t1 -4.5q0 -5 -3 -10t-6 -7.5t-3 -1.5q0 -1 1.5 -3t1.5 -4q0 -1 -1.5 -4.5t-1.5 -5.5q0 -3 2 -8t2 -7q0 -3 -3 -8.5t-3 -6.5t1.5 -5t1.5 -6q-2 -11 -5.5 -37.5t-7.5 -37.5l-1 -1v-2v-3l1 -1q0 -1 -1 -3t-1 -3v-6q0 -24 -7 -71q-4 -24 -10 -72t-10.5 -68t-11.5 -20
q-1 0 -3.5 0.5t-3.5 0.5q-4 0 -11 -7l-6 -6l-2 5q-3 5 -7 5h-2q-13 0 -21.5 25.5t-8.5 41.5q0 3 2 8t2 8q0 4 -8 28.5t-8 35.5v3q0 3 -1.5 9t-1.5 9q0 2 1.5 5.5t1.5 5.5q0 25 -15 67l-2 3q0 3 1.5 7t1.5 6q0 3 -1.5 7.5t-1.5 6.5v3l1 2q0 1 -3 5t-3 9q-1 12 -3 34t-3.5 40
t-2.5 34q0 9 -4 32t-4 34q0 1 1 4t1 5t-2.5 6t-2.5 7q0 1 1 2.5t1 2.5t-0.5 3t-0.5 3t0.5 2.5t0.5 2.5q0 2 -1 5l-1 2l13 9h-2q-1 0 -3.5 -1t-3.5 -1q-6 0 -6 23q0 15 5 15q1 0 5 -1t6 -1q1 0 3 1q0 2 -4.5 3.5t-4.5 3.5q6 0 6 2z" />
    <glyph glyph-name="w" unicode="w" horiz-adv-x="411" 
d="M43 541l1 -1q0 1 -1 1zM88 75l1 1q-1 0 -1 -1zM125 75l1 1q-1 0 -1 -1zM276 75l1 1q-1 0 -1 -1zM88 63v3v-3zM272 149l1 -1q0 1 -1 1zM85 126l-1 1q0 -1 1 -1zM267 120l1 1q-1 0 -1 -1zM272 121l1 -1q0 1 -1 1zM80 28l-1 1q0 -1 1 -1zM192 421v1l-1 -1q0 -1 1 -1v1z
M69 219v0v0zM51 270l1 -1q0 1 -1 1zM55 265q0 -1 -1 -1zM136 261l1 1q-1 0 -1 -1zM69 234h3h-3zM234 225l1 -1q0 1 -1 1zM70 226l-1 3v-3v3q1 0 1 -3zM60 241v2q-1 0 -2.5 -0.5t-0.5 -1.5h3zM51 267h-4q0 -2 3 -2q1 1 1 2zM44 274l3 1h-2.5t-0.5 -1h3h-3zM62 202l2 1
q0 4 -4 4l-1 -1q2 -2 3 -4zM62 244q-2 -2 -2 -3q0 -2 3 -2l2 1q-2 2 -3 4zM135 234q-2 2 -3 2t-3 -2l1 -1q1 -2 2 -2zM148 270l-3 3l-1 -2q3 -3 4 -3v2zM101 191l8 -1q0 61 15 96q-1 1 -1 4q0 76 18 126q3 6 3 13v3q17 66 25 126q0 3 2 3q5 0 15.5 -2t11.5 -2t3.5 1t4.5 1
q6 0 14.5 -46.5t8.5 -66.5q0 -36 15.5 -106t17.5 -87q10 -101 26 -117q0 66 13 137q0 14 4 41t4 31q0 5 1 14t1 13v6q0 4 1 10.5t1 9.5v7q3 21 3 25v5q0 37 14 98t22 61h2q3 -1 4 -1t3.5 0.5t4.5 0.5q8 0 14.5 -10.5t6.5 -19.5l-6 -22l1 -1v-2l-7 -14q0 -2 1.5 -4.5
t1.5 -3.5q0 -11 -7 -41t-7 -31q1 -2 1 -6q0 -3 -1 -9t-1 -9v-9q0 -6 -2.5 -21.5t-2.5 -22.5q0 -3 1 -4q-4 -7 -4 -23q0 -2 1 -3q-10 -30 -10 -74q0 -3 -1 -9t-1 -9v-4q0 -7 -2.5 -21.5t-2.5 -20.5q0 -3 1 -9.5t1 -10.5q0 -24 -8 -34q2 -5 2 -13q0 -3 -1 -8t-1 -6q0 -2 1 -6
t1 -5q0 -4 -7 -7q5 -5 5 -6q-3 -9 -3 -10q0 -2 2 -6q-3 0 -3 -5q4 -2 4 -11t-4.5 -13.5t-4.5 -5.5h-6q11 0 11 -17q0 -3 -3.5 -3.5t-3.5 -1.5q4 1 4 -2q0 -1 -1 -3t-1 -3q0 -3 1 -4q0 -3 -5.5 -10t-8.5 -7q-38 0 -38 8q0 1 1 3v1l-3 6q0 1 0.5 5t0.5 5q-5 7 -6.5 23t-5.5 22
q-4 5 -8 15t-6 17t-2 8q0 2 1 3q-7 26 -7 33v4q0 3 -2.5 7.5t-2.5 6.5q0 1 0.5 3t0.5 3q0 5 -3.5 17t-3.5 15q0 1 0.5 3t0.5 3t-2 5l2 3q1 2 1 3t-3 5t-3 7q0 1 1 4t1 5l-2 1q-2 1 -2 2q4 4 4 9v4q1 1 1 3q0 1 -5.5 9t-5.5 12l1 2v3q0 2 -1 4l4 12q0 2 -10.5 23t-10.5 25
q0 1 2 2.5t2 3.5q-5 3 -8.5 14t-3.5 16v5q0 2 -1.5 7t-3 11t-2.5 9q0 -9 -5 -27.5t-5 -27.5q-2 -26 -4.5 -43t-3.5 -21.5t-2 -8.5t-1 -10t-4 -6q-2 0 -4 0.5t-4 0.5q0 -2 3.5 -5t3.5 -6q0 -1 -1 -3t-1 -3t0.5 -4t0.5 -4q0 -3 -2 -7t-2 -5t1 -4.5t1 -5.5q-1 -26 -10 -43v-4
q0 -8 -4 -23.5t-4 -23.5v-4q0 -3 -2 -6.5t-2 -4.5t1 -3t1 -3q0 -6 -3 -20t-3 -16q0 -1 0.5 -2.5t0.5 -2.5q0 -3 -3 -10t-3 -9l1 -2q1 -3 1 -4q0 -2 -3.5 -5.5t-3.5 -4.5l2 -2q1 -1 1 -3l-5 -5q0 -2 1.5 -7t1.5 -6q0 -2 -3.5 -5t-6.5 -3q-1 0 -3 1t-3 1l-2 -1h-3l-2 1
q-1 1 -2 1l-2 -1l-2 -1v3q-3 -3 -12 -3q-6 0 -6 11q0 5 1 8q0 5 -4 5q-1 0 -2 -2q0 -1 -0.5 -1.5t-1.5 0.5q-2 7 -6 21.5t-7 25t-3 16.5q0 1 0.5 3t0.5 3q0 2 -2.5 8t-2.5 9q0 2 1.5 5.5t1.5 4.5t-2.5 4.5t-2.5 5.5v4q0 3 -1.5 6.5t-1.5 5.5q0 3 1 4q-2 2 -6 12t-4 16
q0 1 2 2.5t2 2.5q-5 7 -5 14q0 1 0.5 3t0.5 3q0 3 -1 8t-1 7q1 1 2 1t6 -6.5t7 -6.5q1 0 3 2.5t7 2.5q3 0 3 3h1h1q-1 0 -1 1q0 -6 -18 -6q0 5 -5.5 9t-5.5 11q0 3 3 3l4 -3q4 -2 8.5 -5t4.5 -4q-3 0 -7 6t-13 6h-4q-3 0 -5 5q0 5 2 5q1 0 4 -3q1 -1 2 -1.5t2 0.5q1 2 2 2h3
q3 0 3.5 2.5t1 6.5t1.5 6q-3 0 -5 -2t-3 -2q-2 0 -5 2t-3 4l1 2v3q0 -1 -3 2t-5.5 11t-2.5 17q0 3 -2 9.5t-2 10.5q0 3 1.5 5t3.5 3l1 1l-1 3q-2 3 -3.5 8.5t-1.5 12.5v6q0 1 -1 3.5t-1 3.5t2 4.5t2 5.5q0 3 -2.5 9.5t-2.5 9.5q1 2 1 7q0 3 -1 8t-1 7q0 1 0.5 2.5t0.5 2.5
t-1 4t-1 4l2 4q-3 16 -3 49v10v6q0 2 0.5 5.5t0.5 4.5q0 10 -1.5 32t-1.5 31q0 1 3 16q1 1 4 -1l3 -2q2 0 4 0.5t3 0.5q13 0 21 -8.5t10 -23.5t2.5 -28t-1 -28.5t-1.5 -17.5q0 -20 2.5 -53t2.5 -43v-12q0 -3 0.5 -8t0.5 -7v-8q2 -16 2 -27v-7q0 -3 2 -15.5t2 -14.5
q-2 -2 -5.5 -6.5t-5.5 -7.5t-2 -2q0 -6 4 -6q0 7 4 7q3 0 6 -6.5t3 -10.5v-7q0 -1 1.5 -3.5t1.5 -3.5v-2q-1 -1 -1 -2q0 -14 4 -19l-3 -1q-3 3 -4 3l-2 -4q-1 -4 -5 -4q-1 -1 -1 -2q2 0 6.5 1.5t6.5 1.5q6 0 6 -12v-3q6 -21 9 -42q2 0 4.5 11t2.5 18v3q0 10 6 16l3 -3
q1 1 2 1h-3z" />
    <glyph glyph-name="x" unicode="x" horiz-adv-x="284" 
d="M192 528l-1 -1q0 -1 1 -1v2zM198 585l-1 1q0 -1 1 -1zM195 504q0 -1 1 -1q0 1 -1 1zM170 417q1 0 1 1q-1 0 -1 -1zM162 421h-3h3zM179 487v-3v3zM196 493q1 2 1 4q0 3 -2 3q-4 -6 -5 -9q0 -1 2 -3t3 -1q2 2 2 3q0 2 -1 3zM179 462l5 3q0 -3 -3 -3q-1 0 -2 2t-2 2
q-5 0 -5 -4h7zM190 538l-3 -3q0 3 3 3q0 -3 2 -3q4 1 4 3h-6zM181 454l-2 -11q0 -1 -1 -2.5t-1 -2.5q0 -2 2 -2h3q2 0 2 -2q0 -4 -3 -10t-3 -8q0 -1 1 -2q-2 -4 -29 -98v-1q-1 -1 -1 -2q0 -20 16 -65t17 -51q18 -79 53 -166v-3l-4 -4q-4 -3 -4 -7q0 -11 -5 -11q-1 0 -2 0.5
t-7.5 2.5t-16.5 5q-7 4 -12.5 17.5t-9.5 28.5t-5 17q-9 14 -21 57q-1 8 -8.5 28t-7.5 30q0 31 -15 48q-7 -14 -12.5 -30t-11 -36.5t-9.5 -31.5q-3 -8 -15 -38.5t-17.5 -50t-8.5 -38.5q-1 -5 -30 -12q-8 0 -8 3l1 2l1 2l-1 2q-2 3 -4 6.5t-2 7.5q0 22 17.5 66t17.5 46
q0 3 5 5q-1 1 -1 3q0 6 4 18t8.5 23.5t5.5 13.5q40 105 43 115v4q0 7 -11 33.5t-11 34.5q0 2 1 4.5t1 3.5q0 3 -9 21l-3 9q-35 86 -35 143q0 5 1 8.5t3.5 5.5t3.5 2.5t5.5 2t5.5 1.5q2 0 4 -2t3 -2t3 0.5t3 0.5q5 0 12 -15.5t13 -39t11.5 -46t10 -42t4.5 -20.5q4 -23 8 -23
q-1 0 4 5.5t9.5 10.5t4.5 4q0 3 1 7t1 6q0 3 -2 9.5t-2 9.5q3 17 12 34v2q-1 1 -1 2q0 11 4 28t8.5 29.5t5.5 13.5q2 4 2 6q0 1 -1.5 4t-1.5 5q0 3 4 6l3 2l-1 2v2q0 6 5.5 16.5t10.5 10.5q1 -2 7 -5h1q1 0 4 2l2 1q1 0 3.5 -2.5t2.5 -3.5q-1 -1 -1 -2q6 -3 12 -16
q0 -22 -12 -43q-3 -6 -3 -1q3 -3 3 -4q0 -31 -17 -70q-2 -1 -2 -2v-3q1 -2 1 -3q0 -9 -10 -9q-1 0 -2 1.5t-3 1.5q0 -3 5 -3z" />
    <glyph glyph-name="y" unicode="y" horiz-adv-x="211" 
d="M176 585q0 -1 -1 -1zM89 49l1 -1q0 1 -1 1zM84 302l-1 -1q1 0 1 1zM87 282l-1 1q0 -1 1 -1zM95 218l-1 -1q1 0 1 1zM87 231l-1 1q0 -1 1 -1zM101 130h-2.5t-0.5 -1l1 1h2zM83 159l3 -1q3 0 3 1q-1 0 -3 1h-1q-1 -1 -2 -1zM163 540h-1l-2 1l-1 -1h-2h1l2 -1l1 1h2z
M152 538h-2l-2 1q0 -1 4 -1zM162 534l3 -1q3 0 3 1h-1q-1 1 -2 1t-3 -1zM78 39h-2q0 -4 3 -4l1 2zM80 182q0 4 -4 4q0 -3 3 -3zM74 93q-2 1 -4 1v-1q-1 -1 -1 -2q2 -1 3 -1q2 0 2 3zM88 32q-2 -2 -2 -5v-1l1 -2q4 4 4 6t-3 2zM97 58l-1 -5q-5 0 -5 -3q0 -11 4 -11l7 6
q0 1 -3 2t-3 2q0 4 4.5 7.5t4.5 9.5q-1 0 -4 -3q-1 1 -3 1q-1 0 -1 -6zM96 123h4v-3q-3 3 -6 9q1 0 3 0.5t3 0.5q-4 4 -7 4q-3 -3 -3 -8q0 -3 6 -3zM76 249h-2q0 -1 1 -1q0 3 3 3q2 -5 5 -8l3 6q0 2 -4 2l-6 -3v3v-2zM148 582q1 1 3 1l-1 -1v2h-3h1v-2zM167 571l-4 4h-1h-3
q-1 0 -1 -1q2 -2 2 -4v-2l-1 -2q0 -5 7 -10.5t8 -15.5q1 -2 -1.5 -5.5t-2.5 -4.5v-1l1 -1v-3l1 -2v-3t-1.5 -4.5t-0.5 -4.5v-4q0 -4 -2 -11.5t-2 -11.5q0 -2 2 -6q0 -4 -2.5 -9.5t-4.5 -9t-2 -4.5l1 -1q0 -2 1 -2q0 -1 -3.5 -5t-2.5 -7v-2q1 -6 -5 -13.5t-6 -8.5
q-1 -15 -9 -27.5t-15.5 -19t-7.5 -7.5q1 -3 -1.5 -10t-2.5 -10q0 -17 -5 -20q0 9 -4 8q0 -9 4.5 -14.5t4.5 -9.5v-60q0 -2 0.5 -5t0.5 -4q0 -5 -3 -5q-1 1 -2 4.5t-4 4.5q-2 0 -2.5 -4.5t-3.5 -5.5l-1 -1q0 -2 6 -4.5t7 -4.5q3 -11 3 -23q-6 -8 -11 -9h-2q-2 0 -2 -2t2 -2
q12 -7 12 -32q0 -1 -1 -1q-2 1 -3 1l-3 -3q1 -1 4.5 -2.5t3.5 -4.5q0 -1 -0.5 -4t-0.5 -5t1 -4.5t1 -3.5l-7 -13q-4 0 -6 4.5t-5 4.5l-2 -7h8q0 -5 -4 -8t-4 -4l2 -4q0 -2 -1 -2l-2 1q-1 0 -1 -2v-3q0 -1 -1 -1h-1l-2 1q-3 0 -3 -3q3 -3 6 -3t5.5 2t4.5 2q0 -2 -0.5 -3.5
t-0.5 -2.5q2 0 4.5 2t4.5 2q4 0 6 -2t2.5 -3.5t0 -6t-0.5 -5.5v-10q0 -2 1 -8t1 -9t-2 -7t-2 -5l4 -21v-1q0 -7 -11 -7q-2 0 -5.5 1t-4.5 1q-2 0 -5 -2.5t-5 -2.5q-10 0 -10 5q3 4 3 5t-1.5 1t-3.5 1t-2 3v6q0 5 -2 8l6 14q-7 4 -7 8q0 10 4 10h1l2 -1q3 0 3 2q-1 6 -7.5 15
t-6.5 16q0 15 9 15q-6 0 -6 4v1l1 2q0 1 -3.5 8.5t-3.5 16.5q0 6 5 6q3 0 4 -4.5t3 -4.5q4 0 8.5 3.5t4.5 8.5q0 4 -2 4q-4 0 -5.5 -3t-3.5 -3q-6 9 -6 16.5t-3 10.5q-3 1 -3 4t6 13t6 11q0 6 -2 6q-1 0 -5 -4l-2 1v3q0 6 -1 9v1q1 1 1 2q6 -6 8 -6q5 0 5 2q0 1 -7 7t-7 20
q3 6 3 7q0 5 -2 14.5t-2 11.5q0 1 1 5t1 5t-2 7q1 1 1 4q0 2 -1 6t-1 6q0 3 2 6t2 4l-2 6q-2 7 -2 9q0 6 5 6q6 -4 7 -4q4 0 4 5q0 1 -2 4.5t-5 7t-5.5 6.5t-4.5 5l-2 2q0 6 -23 20v1q-1 5 -7.5 17.5t-6.5 16.5v6q0 2 -2 5.5t-2 5.5v10v11q-1 8 -3 26v11q0 3 -1 5l2 25
q0 9 -1 13q0 1 1 3t1 3q0 2 -2 4q0 1 0.5 3.5t0.5 3.5v2q1 5 2.5 21t3.5 25.5t4 9.5q1 0 3 -0.5t3 -0.5q2 0 4 0.5t3 0.5q14 0 14 -6l-1 -1l-2 -2t-1 -2q0 -3 2 -3q1 0 3 1h2q4 0 8 -7q0 -3 -5 -4t-5 -6q1 -2 6 -2h1q2 0 2 -3q-3 -8 -2 -9q0 -3 1 -4q-1 -4 -1 -12v-4
q1 -10 0 -31t-1 -29q0 -3 2 -9.5t2 -9.5v-11q6 -64 21 -64q8 1 24.5 36t14.5 46q1 4 5.5 8.5t8.5 7.5l3 3q0 2 -5.5 2t-6.5 4q-1 9 1 23t5 24t5 10t3 -2t3 -2t4.5 2t1.5 4q0 6 -7 6q-1 0 -3 -1h-2l-1 1q1 3 1 7t-0.5 7t0.5 5.5t4 2.5h3l1 1h3t4 -1.5t4 -1.5q0 2 -4 6t-5 7
q0 11 8 12q1 0 3 -2t3 -2h1q1 1 2 1q3 0 3 -4q0 -1 -1 -3t-1 -3l4 -3q4 -3 4 -5q0 -3 -2 -4.5t-2 -3.5q0 -1 1 -2q-1 -1 -2 -1t-3 0.5t-3 0.5q-3 0 -3 -3q3 -3 8 -3h1q2 0 4 -1.5t3 -3.5l1 -2q0 -2 -3 -2q-6 0 -7 5z" />
    <glyph glyph-name="z" unicode="z" horiz-adv-x="204" 
d="M153 23l-1 -1q1 0 1 1zM153 -13l-1 1q0 -1 1 -1zM65 -7q0 4 -2 3q0 -2 2 -3zM111 15q0 -3 1 -3l1 1q1 1 1 2q-2 1 -3 0zM66 20q-3 -3 -3 -7q0 -1 1 -1q4 0 4 6q0 1 -0.5 2t-1.5 0zM174 6l8 -3q-8 -5 -9 -5h-2q-17 -11 -19 -11q-1 0 -3.5 1t-4.5 1q-6 0 -18 -1t-18 -1
q-2 0 -6.5 1t-7.5 1q-53 -12 -80 -12q-6 0 -7 7.5t-6 7.5q-1 -1 -3 -1q-3 0 -8 4t-5 6q0 1 1 3.5t1 4.5q0 1 -1 4t-1 5t4 5t4 6q0 1 -1 3l-1 2q0 1 1 3t1 3v1q0 1 1.5 4t1.5 4t-1 2.5t-1 2.5l1 2q1 1 1 2v5q1 28 10 40q0 1 -1 3.5t-1 3.5q0 4 2 12t4 15l2 7q1 33 13 50
q0 1 -0.5 3.5t-0.5 4.5q0 35 14 98q8 28 17.5 79.5t15.5 68.5l10 24q-2 4 -2 7q0 11 15 47l16 35q0 3 -5 3q-10 0 -25 -5t-23 -5h-3q-3 0 -8 -1t-7 -1q-3 0 -6 7.5t-14 7.5q-5 0 -5 9q0 1 3.5 2.5t9 3t7.5 3.5q0 -2 4 -2q2 0 2 2q0 1 -1 2t-1 2q0 5 28 11.5t41 6.5q6 0 18 1
t17 1l2 -1v-1q-1 -1 -1 -2q0 -5 5 -12t5 -9q0 -4 -2.5 -8t-4.5 -6l-2 -3q0 -3 5 -5t5 -4q0 -4 -1.5 -10t-3.5 -10.5t-4 -8.5t-2 -5q-21 -60 -27.5 -88t-12 -60.5t-17.5 -79.5q-5 -20 -9.5 -62t-10.5 -59q-4 -8 -7 -19.5t-4 -20t-1.5 -17.5t-0.5 -10q-3 -11 -8.5 -28.5
t-9 -30t-3.5 -18.5q0 -3 4 -3q8 0 24 3.5t23 3.5q2 0 11 -2t15 -2q8 0 23.5 1.5t22.5 1.5q3 0 3 -3v-4l-1 -3q0 -2 3.5 -4.5t3.5 -3.5v-2q0 -3 5 -3t5 -2v-3z" />
    <glyph glyph-name="braceleft" unicode="{" horiz-adv-x="181" 
d="M124 689l-1 -1q1 0 1 1zM119 686q-1 0 -1 -1q1 0 1 1zM34 35l-1 -1q1 0 1 1zM70 652q-3 0 -3 -3q1 -3 5 -3q0 6 -2 6zM85 708q4 1 4 -3q-1 0 -1 6q-3 0 -3 -3zM156 686v-12q0 -4 -3 -7.5t-3 -4.5q0 -3 1 -4q0 -6 -6 -6q-3 0 -7 5t-4 9q0 1 1.5 3.5t1.5 3.5q0 5 -5 5
q-2 0 -5 -1t-5 -1q-3 0 -8 1.5t-7 1.5q-24 0 -24 -35q0 -10 11 -45t11 -49q3 -18 3 -38q0 -30 -14 -68t-26 -53q-1 -1 -1 -3q0 -3 12 -35t12 -52q0 -31 -15 -91t-15 -63q-9 -65 -9 -108q0 -23 20 -41t38 -18q3 0 7.5 1t5.5 1q3 0 13 -11.5t10 -16.5q0 -21 -36 -21h1
q-37 0 -72 29.5t-35 66.5q0 2 6.5 7t6.5 8q0 7 -8.5 16t-8.5 27q0 40 20 114.5t20 106.5q0 25 -6 35.5t-19 17.5l-2 2q0 1 1.5 3.5t1.5 3.5q0 6 -7 13q1 1 1 3q0 1 -0.5 3t-0.5 4q0 8 15.5 30t17.5 28q15 49 15 71q0 17 -3.5 36.5t-7.5 32t-4 13.5q0 2 -2.5 11.5t-2.5 19.5
l1 2v3q0 3 -2 9l6 26l-4 3q0 14 10.5 26.5t21.5 17.5l10 5h-1q2 0 11 3t14 3q29 0 47 -13t17 -27q-1 0 -1 1q0 -2 -8 -5l-3 3q0 -3 -3 -3z" />
    <glyph glyph-name="bar" unicode="|" horiz-adv-x="122" 
d="M41 63l-1 -1q1 0 1 1zM61 66v-2q-2 0 -3.5 0.5t-2.5 0.5q1 0 2.5 0.5t3.5 0.5zM38 49l2 -3q4 2 6 6q0 6 -5 6q-6 0 -6 -4q0 -1 4 -7h-2q0 -1 1 -1v3zM43 22l1 4q0 7 -5 7q0 -1 -1 -3q0 -6 5 -6q0 -3 -4 -7l-1 -1q0 -5 4 -5t4 6q0 2 -3 5zM43 4l3 2h-2q-1 0 -2 -2
q0 -2 -1 -3q0 10 -6 10q-1 0 -4 -3t-5 -3v1q0 2 -5 10q0 3 7 3h3q4 0 4 4q0 2 -6 8.5t-6 12.5v6q0 6 -2 9v3q0 1 -1.5 3t-1.5 5q2 8 2 12q0 3 -1.5 8.5t-1.5 7.5t1.5 6t1.5 7q0 1 -1.5 4t-1.5 5l1 2q1 2 1 3q0 6 -3 20t-3 21q0 2 1.5 6.5t1.5 6.5q0 1 -1 3.5t-1 3.5
q0 3 2.5 7.5t2.5 5.5t-2.5 4.5t-2.5 11.5q0 3 -1.5 11t-1.5 11q0 19 0.5 56.5t0.5 56.5q0 4 -0.5 11t-0.5 10v4q0 2 -1.5 6t-1.5 7t0.5 9.5t0.5 9.5q0 2 -1.5 6t-1.5 6v1l1 2v1q0 1 1 4t1 4l-5 28q0 1 1 3.5t1 4.5q0 29 -3 50q0 8 1 12q0 3 -1.5 7t-1.5 6t2 6q-1 3 -1 10
q0 3 0.5 10.5t0.5 11.5v4q0 4 1.5 11t1.5 11v10q1 9 3.5 10t17.5 1q11 0 16.5 -4t8.5 -11.5t4 -9.5q-10 -9 -10 -60q0 -11 1 -33t1 -30v-14q0 -4 1 -12t1 -12q0 -3 -0.5 -9t-0.5 -9q0 -11 2.5 -32t2.5 -31q0 -2 -1.5 -6t-1.5 -7q0 -2 1.5 -6t1.5 -7v-100q0 -3 1 -9t1 -9v-62
q0 -16 1.5 -47.5t1.5 -47.5q0 -7 2 -22.5t2 -19.5v-8q0 -2 1 -6t1 -6q0 -3 -16 -3q-3 0 -3 5l3 3q0 7 -4 7q-2 0 -2 -5z" />
    <glyph glyph-name="braceright" unicode="}" horiz-adv-x="181" 
d="M10 167l1 1q-1 0 -1 -1zM15 170q1 0 1 1q-1 0 -1 -1zM100 821l1 1q-1 0 -1 -1zM64 204q3 0 3 3q-1 3 -5 3q0 -6 2 -6zM49 148q-4 -1 -4 3q1 0 1 -6q3 0 3 3zM-22 170v12q0 4 3 7.5t3 4.5q0 3 -1 4q0 6 6 6q3 0 7 -5t4 -9q0 -1 -1.5 -3.5t-1.5 -3.5q0 -5 5 -5q2 0 5 1t5 1
q3 0 8 -1.5t7 -1.5q24 0 24 35q0 10 -11 45t-11 49q-3 18 -3 38q0 30 14 68t26 53q1 1 1 3q0 3 -12 35t-12 52q0 31 15 91t15 63q9 65 9 108q0 23 -20 41t-38 18q-3 0 -7.5 -1t-5.5 -1q-3 0 -13 11.5t-10 16.5q0 21 36 21h-1q37 0 72 -29.5t35 -66.5q0 -2 -6.5 -7t-6.5 -8
q0 -7 8.5 -16t8.5 -27q0 -40 -20 -114.5t-20 -106.5q0 -25 6 -35.5t19 -17.5l2 -2q0 -1 -1.5 -3.5t-1.5 -3.5q0 -6 7 -13q-1 -1 -1 -3q0 -1 0.5 -3t0.5 -4q0 -8 -15.5 -30t-17.5 -28q-15 -49 -15 -71q0 -17 3.5 -36.5t7.5 -32t4 -13.5q0 -2 2.5 -11.5t2.5 -19.5l-1 -2v-3
q0 -3 2 -9l-6 -26l4 -3q0 -14 -10.5 -26.5t-21.5 -17.5l-10 -5h1q-2 0 -11 -3t-14 -3q-29 0 -47 13t-17 27q1 0 1 -1q0 2 8 5l3 -3q0 3 3 3z" />
    <glyph glyph-name="asciitilde" unicode="~" horiz-adv-x="519" 
d="M326 263q2 0 2 -3q0 -1 -2 -3.5t-2 -4.5q0 -9 -1 -9q-4 0 -4 6q0 2 1.5 7.5t1.5 6.5q0 6 -3 6q-4 -1 -4 -17q0 -1 1 -3t1 -3q0 -3 -2 -3l-1 3l-2.5 7.5l-2.5 7.5q-2 0 -5 -3l-2 -3q-2 0 -2 2q0 1 1 3l1 2q0 2 -1.5 6t-1.5 6q-1 -1 -4 -6.5t-5 -9.5q1 1 2 1l1 -3l1 -2
q1 2 2 5q1 -2 1 -8v1l-1 -3q-2 -3 -3.5 -6.5t-3.5 -3.5h-2q0 2 1 5l1 2l-1 2q-1 -1 -3 -1q-2 -1 -2 -7q-6 0 -6 4q0 2 1 4.5t1 3.5q0 2 -2 2l-5 -2q-4 -2 -6 -2q-1 0 -1 2v-1q1 0 3 3.5t3.5 10.5t1.5 14t-2 7l-5 -5l-1 1l-1 1q-2 0 -4 -5l-2 -6q-1 1 -3 2l4 7q0 4 -1 7
q0 3 1 5q0 1 -3.5 4t-5.5 3q-3 0 -3 -3q0 -1 1 -5l1 -3q0 -7 -2 -7q-1 0 -2 1l-2 1v-4.5t-2 -0.5h-1l-4 -3q-2 0 -2 -4l-2 1q-3 1 -4 1l-4 -2q-6 0 -13 10q0 -1 -2 -1q-1 0 -1 3.5t-1 3.5l-1 -4q-2 -3 -4 -3q-8 4 -10 4q-1 0 -3 -0.5t-4 -0.5t-4.5 1t-3.5 1t-2.5 -1.5
t-3.5 -1.5q-34 0 -51 -36q-1 -2 -2.5 -6t-2.5 -7l-1 -3q-7 0 -17.5 10.5t-11.5 21.5q0 7 16 26q-1 0 2.5 4t9.5 10t14.5 12t20.5 10.5t23 4.5h3l1 -1q1 0 4 1.5t5 1.5t6.5 -1.5t6.5 -1.5q1 0 2 0.5t2 0.5q4 0 10 -4t10.5 -8t3.5 -4l1 2q1 3 3 3q5 0 15 -6t24 -15.5t23 -14.5
q-1 -2 -1 -5t1 -5l-2 -5l1 -1q2 0 2.5 7t1.5 7t2 -1l1 -1q1 0 3 1q9 0 11 -3l1 2q2 0 4 -3l2 -2l1 2l1 3q5 0 5 -7q0 -1 -1 -2l-1 -2q0 -5 3 -5zM214 316l1 1q0 2 -1 2v-3zM218 286q0 3 -1 6q0 -2 -1 -3.5t-1 -2.5q1 -1 2 -1q0 1 1 1zM240 280q1 1 1 3q-1 3 -2 3
q-3 -1 -3 -3q0 -1 2 -2zM279 281h-2v-2l2 1v1zM275 258q1 0 1 1zM276 263q5 5 6 9l-1 3q-1 0 -2 -2t-2 -5t-2 -4zM288 257h2h-2zM290 252l-1 2q0 -2 1 -2zM370 313q2 0 4 -2.5t2 -3.5l-4 -17q-1 4 -6 6l-5 1l-1 -1q1 -2 5 -6.5t4 -6.5l-1 -4l-2 1q-1 2 -3 2q-1 0 -2 -1
q0 -3 2.5 -4.5t2.5 -2.5q0 -12 -14 -19q-1 0 -1 8q2 0 3 -1l-3 6q-3 -3 -3 -7v-1l1 -2q0 -3 -8 -11q-7 2 -7 7q0 2 1.5 4.5t1.5 4.5q-1 14 -5 14q-2 0 -2 -3q0 -1 1.5 -4t2.5 -7q-7 11 -7 14l1 2v-1q1 0 2 2v1q4 -4 4 -6l2 5q0 2 -2 4l-2 2l3 4q1 0 3 -1l2 -1q0 1 -2 4l-2 3
q3 0 5 -1q0 4 0.5 4.5l1.5 1.5t1 4q-2 0 -2 1t4 3q0 -2 3 -2q5 7 6 7q1 -1 7 -4q4 0 5 2t3 2zM345 265v3q0 5 -2 5l-1 -1l2 -4l-1 -2q0 -1 2 -1zM349 274q0 2 -1 2t-1 -3zM349 281h1h-1zM350 279h-1q0 -2 2 -2q0 2 -1 2zM354 270q0 2 -1.5 4t-1.5 3l-1 -2q3 -5 4 -5z
M358 286h-1q0 -1 1 -1q-1 0 -1 1h1zM357 268v1v-1zM361 269l-1 -1q1 0 1 1zM255 277q-1 0 -1 -2q1 -1 1 -2v-8q-2 -2 -2 -3l1 -2v-2l-1 -1q-2 0 -7.5 3t-5.5 4q0 8 18 24q0 -5 -3 -11zM247 270q0 1 -1 1q-3 -1 -3 -2q0 -3 1 -3t2 2zM255 273v1v-1zM307 240q3 3 6 3h2l1 -3
q1 0 1 -1q0 -2 -5 -2q-1 0 -2 1q-2 2 -3 2zM302 239l1 -2q1 0 4 3q0 -5 -5 -5q-4 0 -4 4l1 1h1q1 0 2 -1zM268 271q0 -1 -1 -1q0 5 3 5zM330 250h2q0 -2 -2 -2v2zM295 237l-2 -1q-1 1 -1 3h3l1 -2h-1zM292 239v1v-1zM365 319l-1 -1zM336 242q0 1 1 1q-1 -1 -1 -2v1zM341 246
v1v-1zM341 244l-1 1l1 1v-2zM238 274q-2 0 -2 1zM236 275l1 1q0 -1 -1 -1zM292 285v-2v2zM292 283h-1h1zM295 260l1 -1zM347 309v-1v1zM347 308h-1h1z" />
    <glyph glyph-name="sterling" unicode="&#xa3;" horiz-adv-x="254" 
d="M94 128l-1 -1q1 0 1 1zM100 124q-1 0 -1 -1zM112 283q0 -1 1 -1zM132 284l-1 1v-3zM146 285h-1h1zM73 143v1v-1zM56 266q0 1 -1 3t-1 3l-1 2q-2 -8 3 -8zM43 268h3h-3zM44 249h-4h4zM194 483l-4 -2q0 2 2 7.5t2 6.5q0 13 -19.5 33.5t-52.5 20.5q-23 0 -36.5 -33
t-13.5 -60q0 -9 12 -110l5 -33q6 -25 14 -26q1 0 5 0.5t5 0.5q3 0 6 -2t5 -2q0 1 -0.5 2t-0.5 2q0 2 5 3t12 1.5t9 1.5h3q2 1 5.5 1.5t7.5 0.5t8 -1.5t7.5 -4t5.5 -7t2 -10.5q-3 -24 -14 -24q-1 0 -2 1t-3 1q-42 0 -64 -7q-5 -1 -5 -3q3 -14 3 -99q0 -15 -3 -20q1 -1 1 -4
q0 -18 -6 -23q0 -1 1 -1l1 -2q0 -34 -10 -59q0 -5 23.5 -5.5t49 0.5t40.5 -3q2 0 7 1t6 1q9 -1 16.5 -11t7.5 -17q0 -6 -9 -13t-22 -7l-45 6h-9q-2 0 -5.5 -0.5t-5.5 -0.5q-4 0 -12 0.5t-12 0.5q-3 0 -10 -1.5t-10 -1.5q-6 0 -23 -9.5t-20 -17.5l-1 1h-1q-31 9 -31 20
q0 2 1 5t1 4q0 6 7 14t7 11q0 1 -1 2q4 7 8 19t6 17q1 1 3.5 7.5t5 19t2.5 25.5q-1 2 -1 6q0 1 1 7.5t2.5 16.5t1.5 17q0 3 -0.5 12.5t-1.5 15.5q0 4 1.5 10.5t1.5 9.5q0 2 -1.5 6.5t-1.5 7.5q0 1 2 4l2 3q-2 -3 -2 1q0 2 -1 7q-1 23 -8 23q-1 0 -4.5 -1t-5.5 -1
q-10 0 -17 7t-7 17q0 3 1.5 8.5t4.5 10t5 4.5q12 -13 15 -13l-3 3q-3 3 3 3q1 -1 2 -1q8 0 8 5t-4.5 23t-4.5 23q0 3 -7 39t-7 51q0 2 1 4.5t1 3.5q0 2 -1 7t-1 8q0 1 1.5 3.5t1.5 4.5t-1.5 7t-1.5 8q2 6 4.5 17t3.5 17q6 22 27 54t42 32q1 0 3.5 -0.5t3.5 -0.5q13 4 30 4
t56 -25t39 -60q0 -1 -1 -4t-1 -4t1 -3t1 -5t-4 -15.5t-8 -16.5q-7 0 -21.5 6t-16.5 16z" />
    <glyph glyph-name="dieresis" unicode="&#xa8;" horiz-adv-x="185" 
d="M32 626v-6q0 -9 -10.5 -16t-17.5 -7q-12 0 -17.5 13t-5.5 24q0 7 8 11.5t15 4.5q10 0 19 -7.5t9 -16.5zM117 626v-6q0 -9 -10 -16t-17 -7q-12 0 -17.5 13t-5.5 24q0 7 8 11.5t15 4.5q9 0 18 -7.5t9 -16.5z" />
    <glyph glyph-name="copyright" unicode="&#xa9;" horiz-adv-x="542" 
d="M482 252v-10q-1 1 -2 3q-2 4 -3 4q-4 -8 -7 -8l-2 2q-1 2 -3 2t-6.5 -6.5t-4.5 -11.5t2 -7q0 -2 -3 -5.5t-3 -5.5q0 -1 1 -1q0 -1 -1 -2v-2l1 -2q1 0 2 1t2 1l1 -1q0 -1 -5 -8l-6 2q-2 0 -2 1l-2 -1q-11 -13 -36 -36l1 -1q2 0 9.5 5t9.5 5l3 -1q0 -1 -6 -7l-5 -5h4
q-4 -5 -5 -7l-2 -7l-18 -19l-4 -4q-6 -7 -30 -22.5t-35 -15.5q-3 0 -5 1q-4 0 -6 -5q-23 -13 -68 -13q-12 0 -33 8t-23 8q-31 12 -68 49q-12 9 -29.5 35t-17.5 48q0 69 27 124q28 57 52 57q1 0 3 -0.5t3 -0.5q5 6 8 8l10 7q2 1 3 4q1 0 1 -1l-2 -3q-2 -2 -2 -3q1 -4 4 -4
t3 -3q2 3 7 7.5t5 6.5l-1 1v1q0 1 1.5 3.5t5 5.5t6.5 3l1 -1q0 -1 -1 -2l-1 -1q0 -1 1 -1q14 0 14 6q0 1 -2 2l-2 1q1 0 3 2l10 3q1 1 3 1.5l4 1t3 0.5l21 4q3 2 10 2l11 -4v1l-2 -1q-2 -2 -4.5 -3t-5.5 -1q-1 0 -4 1l-2 1q-1 -1 -1 -5q17 0 28 7h12t8.5 -1t6 -1.5t5.5 -2
t4 -2.5t4 -3t4 -3q-11 0 -17 1q-8 0 -13 -3q0 -1 2.5 -2t2.5 -2q0 -2 -4 -5q15 0 15 1t-1.5 2.5t-1.5 3.5q4 0 9 -3t5 -6q0 -5 -5 -5q-3 0 -6 2t-4 2q-11 0 -14.5 4t-6.5 4l-4 -1q-4 0 -8 -1l-5 -1q0 -1 3 -2l2 -1l-1 -2q-2 2 -6 2q-5 0 -14 -3q-4 0 -7 1t-4 1q-5 0 -9.5 -5
t-7.5 -5q-1 0 -3.5 1t-3.5 1q-2 0 -5.5 -2.5t-3.5 -3.5q-30 -18 -41 -29l-6 -6q-1 -2 -6 -2q4 4 4 7q-31 -15 -48 -60t-17 -88t51.5 -84t90.5 -41q4 0 12 0.5t10 0.5q1 0 4 -0.5t6 -0.5q11 0 24 8v-1l33 12l-1 1l-1 1q0 1 2.5 3t6.5 4.5t6 4.5q40 23 69.5 56.5t29.5 66.5
q0 15 -8 36q4 1 4 5q0 3 -1 6h4q0 4 -2.5 6.5t-4.5 3.5h-2v-5.5t-1 -0.5h-1q-23 30 -30 40q-35 47 -47 47l-5 3q-4 2 -9 5.5t-5 5.5t2 2q3 0 5.5 -0.5t4.5 -1.5l2 -1q2 0 2 1l-3 3q-3 2 -5 4l-3 1q1 1 3 1q1 0 4.5 -1t7 -3t4.5 -2l4 4q5 0 9.5 -4t4.5 -8q-5 -1 -9 -1
q-3 0 -4 1l-4 -2q0 -3 6 -7t10 -4q1 0 2.5 1.5t2.5 1.5l3 -2q2 0 2 2q0 1 -2 5h1q17 -17 17 -23q-3 -3 -3 -5q0 -3 11 -9t11 -12l-1 -1q-1 0 -3 1q-1 -1 -1 -2q0 -9 10 -20.5t14 -11.5q1 0 2 0.5t2 0.5q-7 7 -11 14t-4 11l-1 4q11 -8 12 -8h1q2 1 3 1l2.5 -2.5l3 -3t2.5 -3
t1 -3.5h-3q-3 0 -3 -2l9 -12q0 5 1 5q2 0 5 -7t3 -10q0 -5 -1.5 -9.5t-1.5 -6.5q11 -17 11 -29zM451 279l2 2zM278 430l-2 -2q2 -1 3 -1q2 0 3.5 0.5t4 2t5.5 2.5q-2 0 -5 1q-7 -2 -9 -3zM267 428q-9 0 -9 -1q1 0 4 0.5t5 0.5zM255 432l-6 -2l2 -3q4 0 5 1.5t4 3.5h-2l-2 1
q-1 0 -1 -1zM253 435h-4h4zM251 427q-3 -2 -3 -4q3 0 3 4zM248 435l-2 1q-1 0 -2 -1h4zM246 423l-2 -2zM216 416h-1h2h-1zM185 379h2h-2zM182 384l-2 -1zM205 101l-1 2zM310 99l2 2l-2 2l-2 -1q-2 -1 -3 -1q0 -2 5 -2zM351 98l2 1h-4q-2 0 -5 -2q0 -1 2 -3q1 0 2.5 2t2.5 2z
M414 157h2h-2zM410 150q-4 -1 -6 -8q4 2 12 8h-6zM454 315q1 0 1 1q-1 2 -2 2zM453 313q1 -2 3 -3q-2 1 -2 5zM458 252q1 3 0 6v-6zM470 264l-5 9q-2 2 -4 2q-1 0 -2 -1q0 -6 1 -7.5t4.5 -1.5t5.5 -1zM473 269l-2 2zM446 190q4 0 15 9q0 -2 2 -2q3 0 5 5q-2 -4 -6.5 -12
t-7.5 -13t-6.5 -10.5t-7.5 -8.5t-7 -3t-6 4q7 12 7 17q-1 0 -1 1q0 4 3 9.5t7 5.5q1 0 3 -2zM441 164q0 3 0.5 5t0.5 4q-1 0 -3.5 -4.5t-2.5 -6.5l2 1q2 1 3 1zM451 193v2h2q0 -2 -2 -2zM421 376q-4 0 -8.5 4t-9 10.5t-6.5 8.5q21 -18 24 -23zM434 360q-5 9 -13 14l1 2
q3 0 9 -6.5t8 -13.5l-1 -1q-4 0 -4 5zM463 227q0 7 1 7q2 0 2 -2zM444 349q2 0 5.5 -5.5t3.5 -8.5zM414 139h-2h2zM416 141l-2 -2zM419 147l-3 -4zM416 143h-2h2zM463 235v-1v1zM442 291q0 1 1 1l1 -1h-2zM444 291v-2v2zM439 330v2v-2zM441 327l-2 3zM167 360l1 3h2
q-1 0 -2 -1zM170 363v1v-1zM248 135h-2h2zM361 308q-27 38 -44.5 52t-41.5 14q-14 0 -29 -10t-17 -20q-20 -30 -20 -46q2 0 2 -3l-3 -1q-2 -1 -2 -3q0 -1 1 -2q-9 -9 -9 -20q0 -10 4 -18l3 -3v-4q1 0 2 2q1 -1 1 -4q2 -3 3 -4l7 8q5 0 5 -4q0 -1 -1 -2l-2 -1l1 -2
q0 -7 -9 -12h-7q0 -4 2 -4l2 1q1 1 2 1t4 -2.5t5 -4.5l2 -3q-1 -3 -9.5 -7.5t-10.5 -4.5q-2 1 -3 1l-1 -2q0 -6 5.5 -8t5.5 -3t-2.5 -4t-2.5 -5l4 -6q1 3 3 3l5 -4l-2 -1q-3 -2 -3 -3q1 0 2 -1q2 -2 3 -2q4 2 7 2h1l2 -1l2 4q0 3 -8 8q1 0 4.5 1.5t6.5 1.5q1 0 4 -1h1h1
q-1 -2 -1 -3q0 -5 -2 -7l-2 -2q0 -4 5 -4l4 2q2 0 2 -3l-3 -4q0 -2 3 -5t3 -5q3 0 3 2q-1 1 -1 3q3 11 10 11l2 -2q0 -6 -7 -10q0 -8 3 -8q1 0 1 1q3 4 11 10q0 1 -2.5 2t-2.5 3q0 1 2.5 2.5t2.5 4.5q-2 4 -7 4l-3 -4q-2 0 -3 3t-2 3t-2 -1q3 0 -1 2q-14 5 -14 14
q-1 0 -2.5 -3t-8.5 -3q2 2 4 5.5t5 5.5q-4 0 -4 4q0 2 1 3q-3 3 -4.5 7t-2 7.5t-0.5 7v5.5v4l1 2q0 1 4.5 15t4.5 21q0 3 -5 3q7 0 18.5 31t30.5 35q4 0 7.5 -2t8.5 -5.5t10 -5.5q2 -1 7.5 -10.5t12.5 -17.5t15 -8q6 0 14.5 5t8.5 9q0 2 -1 3zM209 193l2 2v-2h-2zM219 178
l-1 -2zM220 179l-1 -1zM223 198q-3 -3 -6 -3q-5 0 -5 3q1 -1 3 -1t4 1l2 1q2 0 2 -1zM224 203l-1 1q1 0 1 -1zM232 288h4q-1 0 -1.5 -1t-1.5 -1t-1 2zM211 247l-2 -1zM205 248q0 4 2 6q3 -2 3 -3q0 -3 -5 -3zM207 283h7q-2 -2 -5 -4q0 1 -1 2t-1 2zM346 176q2 0 2 8
q-1 0 -3 -0.5t-3 -0.5v1q-1 2 -3 2v1l2 9q0 2 -4 2l-7 -1q-1 0 -1 2q2 0 2 3q-4 0 -7 -5.5t-8 -5.5q-1 1 -3 1q-1 0 -4 -4.5t-5 -4.5q-3 2 -4 2t-1 -4.5t-2 -4.5l-4 4q-1 0 -3.5 -2t-4.5 -2q0 -1 2 -2t2 -3q-3 -3 -6 -5q-5 5 -6 5t-5 -4q0 -10 4 -10q2 0 2 2q0 1 -1 3t-1 3
q2 4 3 4v-1q0 -1 0.5 -2.5t3.5 -4.5q-11 -12 -9 -11q2 -3 6 -7l3 3l1.5 1.5t1.5 0.5q2 0 2 -1q2 0 3.5 2t4 5t4.5 5q2 -2 2 -4v-1l-3 1l-1 -2q-1 -2 -1 -3t2 -1q22 4 22 11q0 1 -2 2t-2 2q0 3 2 3q4 -1 6 -4l3 3q0 5 -2 6l-1 2q0 3 4 7q0 -2 3 -4t3 -4t-1 -2q0 -2 2 -2
q1 0 4.5 3t5.5 4zM324 195v1v-1zM312 157h-2h2zM307 157q1 1 2 1v-1h-2zM302 166q0 -2 -3 -2l2 2l1 -1v1zM305 169q0 -2 -1 -3q0 1 1 3zM305 171q1 0 1 -1l-1 -1v2zM293 157h-3q1 1 1.5 4t3.5 3q0 -3 -1 -4.5t-1 -2.5zM307 162q0 -1 -2 -1t-2 2t-1 3h2q1 -2 3 -4zM317 173
q2 0 2 -2h-3q1 0 1 2zM205 225q0 3 4 3q0 -1 2 -1q1 0 2 1q2 2 3 2q-16 13 -16 14q-8 0 -8 -9q0 -1 1 -5t1 -5q0 -4 -1 -5l2 -2q7 7 10 7zM200 237q1 0 1 -1l-1 -1q-5 0 -5 4q2 0 4 1l1 -1v-2zM234 152q2 2 3 2q2 -3 6 -3.5t4 -4.5q-7 0 -13 6zM227 157l7 -5l-2 -2
q-9 3 -9 7q0 1 1 2q1 0 3 -2zM214 210h-4l1 1q1 1 1 2q0 -1 1 -2zM267 147v2q2 0 2 -1t-2 -1zM219 161q-3 1 -3 5q0 -1 2 -3q1 -1 1 -2h1h-1zM349 191h-1h1zM273 142v1q1 0 2 -1h-2zM278 142l-1 1h3zM200 248q-1 1 -1 2l1 1v-3zM200 251h2h-2zM216 210h-2h2zM234 195v-2v2z
M234 193v2v-2zM227 176v-2v2zM332 202h-1h1z" />
    <glyph glyph-name="registered" unicode="&#xae;" horiz-adv-x="583" 
d="M484 257v-10l-1 2q-3 4 -4 5q-3 -8 -6 -8l-2 2q-2 2 -3 2q-2 0 -6.5 -6.5t-4.5 -11.5t2 -7q0 -3 -2.5 -7.5t-2.5 -8.5l2 1h2l1 -1q0 -3 -5 -8q-2 0 -4 1l-2 1l-7 -7h-1q-2 1 -3 1t-5.5 -4t-11 -11.5t-10.5 -13.5q0 -1 1 -1t8 5t10 5l2 -1q0 -3 -5 -6l-5 -5q5 0 5 -1
q-4 -2 -6 -6l-2 -6l-2 -2q-2 -3 -4.5 -6.5t-6.5 -7.5t-8 -7q-6 -7 -28.5 -22t-33.5 -15q-4 0 -5 1q-28 -17 -72 -17q-12 0 -32 8t-22 8q-9 2 -19.5 8.5t-16 11.5t-16 14.5t-13.5 12.5q-46 41 -46 80q0 68 26 119q29 55 50 55q3 0 5 -1l2 1l3 3l4 4l9 7q2 2 5 3q0 -1 -2.5 -4
t-2.5 -4q0 -2 3.5 -2t3.5 -3q12 12 12 13l-1 2q5 11 13 11l-1 -2v-1q14 0 14 6l-4 2q1 0 3 2l10 3q1 1 10 3l19 4q4 1 10 1q11 -2 11 -3h-1q-1 0 -5.5 -1.5t-7.5 -1.5q-1 0 -2 1h-1q-2 -1 -2 -5q17 0 28 7q29 0 42 -13q-11 0 -16 1q-8 0 -13 -3l6 -4q-1 0 -2 -1l-3 -3
q14 0 14 1t-1 2.5t-1 2.5q14 0 14 -9q0 -3 -7 -3q-5 2 -9 3t-6.5 1t-4 0.5t-2 1t-1 2t-0.5 3.5q-22 0 -22 -4l5 -2l-2 -2q-1 2 -5 2t-14 -4q-3 0 -6 1.5t-4 1.5q-3 0 -8.5 -5t-8.5 -5q-1 0 -3 1l-3 1q-7 0 -16.5 -6.5t-19.5 -16t-13 -11.5l-5 -5q-1 -3 -6 -3q1 3 2.5 4
t1.5 3q-17 0 -40 -47t-23 -96q0 -44 52 -82.5t85 -38.5h15.5t9.5 -0.5t4 -0.5q2 0 33 13q2 0 13 3t11 4t-1 1t-1 1t2.5 3t6 4.5t5.5 4.5q38 21 67 54t29 65q0 14 -8 35q4 0 4 4.5t3 4.5q0 2 -2.5 6t-4.5 4l-2 -1q0 -2 1 -2q0 -2 -2 -2q-1 0 -29 38q-31 42 -43 46
q-1 -1 -2 -1l-1 1l-4 2q-4 2 -9 5.5t-5 6.5q0 1 2 1q3 0 7 -2t5 -2q1 1 1 2q0 2 -2.5 4t-5.5 3l-2 1l2 1q7 0 16 -6q2 0 3 2l1 2q4 0 8.5 -3.5t4.5 -7.5q0 -2 -8 -2q-3 0 -4 1q-4 0 -4 -2q0 -3 6 -7t10 -4q1 0 2 1.5t2 1.5t4 -1l1 1q0 1 -2 5q0 1 2 1l8 -9q8 -10 8 -14
l-2 -2q-2 -2 -2 -3l1 -1h-1q2 0 11.5 -7.5t9.5 -11.5q0 -2 -2 -1.5t-2 -0.5q0 -7 10 -18.5t15 -11.5q1 1 2 1q-7 4 -10.5 11t-3.5 11l-1 5q3 -2 5.5 -3.5t4 -2.5t2.5 -1t3 1q1 -1 3 -3.5l4 -5t2 -3.5h-3q-3 0 -3 -2q0 -1 6 -7l3 -5q0 5 1 5t4 -6.5t3 -8.5q0 -6 -1 -11t-1 -6
q10 -20 10 -27zM454 283l2 1zM288 428l-2 -2q0 -1 2 -1q3 0 6 2t6 3q-1 0 -5 1l-3 -1q-3 -1 -4 -2zM276 426q-8 0 -8 -1q1 0 3.5 0.5t4.5 0.5zM265 430l-5 -2l1 -3q4 0 5 2q0 1 0.5 1.5t2.5 1.5h-1h-3zM263 433h-3h3zM261 425q-3 -2 -3 -4q3 0 3 4zM258 433l-1 1h-2v-1h3z
M256 421l-2 -1h1zM227 415h-1l1 -1q0 1 1 1h-1zM197 379h2h-2zM194 384v-2v2zM217 111l-1 2zM318 109l2 2l-2 2q-4 0 -4 -3q0 -1 4 -1zM358 108l1 1q-7 0 -8 -3h-1q1 0 3 -2q1 0 5 4zM418 165h2h-2zM415 158q-2 -1 -7 -8q2 0 12 8h-5zM457 317q1 0 1 1q-1 2 -2 3zM456 316
q1 -2 3 -4q-2 2 -2 5zM461 257q1 3 0 5v-5zM472 268q1 2 -2.5 6.5t-5.5 4.5q-1 0 -2 -1q0 -7 1.5 -8.5t4 -0.5t4.5 -1zM475 273l-1 1zM449 196q9 4 15 10l1 -2q5 0 5 3q-3 -5 -10 -18.5t-12.5 -20t-10.5 -6.5q-6 0 -6 5q3 3 6 17.5t9 14.5zM444 171q0 3 1 5t1 4
q-2 0 -4 -4.5t-2 -5.5h2q1 1 2 1zM454 199v2h2q0 -2 -2 -2zM403 394v-2v2zM425 376q-7 0 -23 22q20 -17 23 -22zM437 361q-2 7 -12 13l1 2q3 0 9 -7t7 -13q-5 0 -5 5zM465 232q0 7 2 7t2 -1q0 -6 -4 -6zM361 420q-7 0 -7 3q6 -1 10 -4q-1 0 -3 1zM447 350q2 0 5.5 -5t3.5 -8
q-4 13 -9 13zM351 430q-2 0 -2 1h1q1 0 1 -1zM338 433l-1 2q0 -2 1 -2zM339 435l1 -1q0 -1 -2 -1zM418 147l-2 -1zM420 148l-2 -1zM423 155l-3 -3zM420 152h-2h2zM465 240v-1v1zM446 294v1l1 -1h-1zM447 294v-1v1zM442 332v1v-1zM444 328l-2 4zM179 361q2 2 4 2q-1 0 -2 -1
t-2 -1zM183 363v2v-2zM253 230v2v-2zM261 160q0 -3 0.5 -4t0.5 -2t-1 -2t-1 -4q1 0 1 -2q0 -3 -1 -3l-2 3q-5 -2 -5 -4q-7 0 -8 4q-5 0 -7 -2l-1 -1q-5 0 -5 4q1 1 1 5q1 0 2 -1t3 -1h2q2 1 3 1t2 -1l1 2q-1 1 -5 1t-6 2q0 2 3 2t3 1q-5 0 -6 1t-1 4t-1 4q2 1 2 3q5 -2 5 -3
h-3h6q0 1 -3 3t-3 3l1 1l-1 2q1 2 4 2q9 -2 9 -5l2 1q2 1 6 1q-2 1 -9 1q2 3 5 3l2 -1q3 -1 4 -1v1l-1 -1l2 -2q0 -3 -3 -3l-3 1q1 -4 2 -4l2 1h4q-1 -1 -1 -2l1 -3q-2 0 -4 -2q5 -2 5 -3h-3zM237 162v1v-1zM238 163h1h-1zM245 165q-2 0 -2 2q0 -2 2 -2zM243 163q1 0 3 -1v3
l-2 -1q-1 0 -1 1q-2 0 -2 -2h2zM246 165v0q2 -1 2 2zM246 163l2 -1q0 1 -2 1zM246 168h4l-4 2v-1q-1 0 -1 1q0 -2 1 -2zM258 148h2h-2zM243 229h2h-2zM237 195l3 -5q-5 0 -5 2q1 1 2 3zM237 197h-2l2 -2l-5 2l1 2zM250 224l-2 -3l-2 1q2 0 4 2zM241 180q-1 0 -1 1l1 2v-3z
M233 201l-1 1l3 2q0 -3 -2 -3zM235 180q1 0 1 -1t-1 -1v2zM235 176l1 1l1 -1h-2zM233 240h-1h1zM237 239h-1l1 1v-1zM237 240h1h-1zM251 220h-1h1zM250 220v2v-2zM263 209v2v-2zM248 204h2l-2 -2v2zM258 143h-2h2zM305 240h-3h3zM305 240h2h-2zM359 345q7 -10 7 -31
q-5 -6 -6 -11t-6.5 -12t-21.5 -22q1 0 1 -2q0 -4 -11.5 -14.5t-17.5 -10.5l1 -1q1 -1 2 -1q-7 0 -17.5 -1.5t-16.5 -1.5q19 -1 29 3v-1l5 1q-1 1 -4 0l-3 -2l7 2l2 -1l-3 1q-3 0 -7.5 -1t-8.5 -5h2q-4 -4 -27 -4q0 1 11.5 4t17.5 3q-13 -1 -22.5 -3t-10.5 -2l2 -2l-1 -1
q-1 -1 -1 -2q0 -2 1 -4t1 -3t-1 -4v-2l1 -3q-12 0 -12 -3q0 -2 5 -2q1 0 2 1q5 0 5 -1q-1 0 -1 -1v-2q1 -2 1 -4q0 -1 -1 -3l-2 -2l3 -2q0 -1 -1 -4l-2 -2q3 0 3 -1q0 -4 -4 -4l-2 1q-2 1 -4 1t-2 -2q-9 4 -13 4q0 1 2 3h2q3 -1 6.5 -1.5t7.5 -0.5q0 4 -11 4h-5q5 5 11 5
q-4 2 -5 5q1 0 2 -1q3 0 5.5 1.5t4.5 1.5q0 3 -12 5q0 -1 0.5 -1t0.5 -1l-1 -1q0 -2 2 -2q-3 0 -5 -1q-3 3 -10 3q0 2 7 2l-3 3l-2 -2q-3 0 -3 2l8 4l-6 6q0 1 1 1h-1q0 -1 5 -1q16 0 18 3l-3 2q-3 3 -5 3q-4 -1 -4 2q8 0 8 1l2 2h-5h3q-5 -5 -21 -5q1 2 1 3l-5 -1q4 0 5 1
h-1h1q-2 0 -2 4q2 3 6 3q1 0 4 -1.5t4 -1.5l1 1h2q-3 3 -3 4q0 -2 -2 -2q-1 1 -4.5 2t-6 3.5t-2.5 5.5q1 6 2 7q-1 0 -1 1l3 2q0 2 -3 2t-3 3q2 0 2 2q-3 10 -3 11q0 2 1 3q-2 4 -2 5v3l1 2q-1 1 -1 3t-1 5l1 2v3q0 3 -0.5 6t-0.5 5l-2 5q1 1 1 4t-4 15q0 4 16 4l2 -1h2
q23 23 69 23h3q13 0 21 -3t15.5 -8zM241 214l2 2q-2 0 -2 -2zM243 206v1q-1 0 -1 -1h1zM253 214h2q0 2 -10 2q3 -2 8 -2zM253 260q1 -2 3 -2l-1 2h-2zM238 253h2h-5q2 0 2 -1zM243 240h1q0 1 -1 2q-2 0 -2 -4v1zM245 239h1h-1zM250 235q5 3 5 4q-3 0 -5 -4zM250 234h-2h2z
M237 235l-2 -1h4q0 -1 -1 -1q-1 1 -1 2zM253 232q5 0 5 1l-2 1h2h-5h1l-1 -1q-1 -1 -2 -1q0 -1 1 -1q1 3 2 3h1zM256 217q2 0 2 2zM265 235h9h-9h3q-5 0 -7 -1q2 1 4 1q-1 -1 -4 -1q2 0 4 1zM274 235h-1h1l2 2zM284 239h1h-20h19zM294 240h-1h1zM318 283h2l-1 1q-1 0 -1 2
l-2 -3q1 -1 2 -1v1zM335 322q0 1 -1.5 2.5l-3 3t-6 2.5t-10.5 1q-3 0 -4 -1q-1 0 -3 0.5t-4 0.5q-10 0 -24 -6l-10 -2q-2 0 -6 -2.5t-7 -3.5l1 -1q0 -1 -1 -2v-2q4 -19 4 -39v-1q-1 -2 -1 -3l1 -1q0 -1 -1 -2l-1 -2q0 -1 2 -1q-2 -1 -2.5 -4.5t-1.5 -3.5q0 -3 6 -8.5
t12 -5.5q7 0 14.5 0.5t8.5 0.5q-2 0 -3 1t-3 1h2l-10 4q1 1 3 2l7 -3q2 0 5.5 -1t5.5 -1h-1q1 2 4 2q0 5 -5 5t-5 5l3 1q-3 0 -3 1q2 0 2 3v5q0 2 -2 2q0 4 10 14t17 10q0 2 -2 4q13 13 13 25zM299 262h1q1 -1 3 -1q1 0 1 4q-1 -1 -3 -2zM302 258v-1v1zM339 279h3q0 2 -4 2z
M353 201v-5q-3 1 -4 1q0 -1 0.5 -3t1.5 -3q0 -3 -7 -3t-7 -3h1q0 -4 -3 -4q-4 0 -7.5 4t-4.5 5q0 1 2 1q0 -1 1 -1t4 3.5t3 4.5t-2 1q-3 0 -5.5 -1.5t-3.5 -1.5q-4 0 -4 3l2 5q-6 0 -6 -4q-2 0 -6 3t-7 7l-3 3q0 3 6 3v-2l1 -2q2 0 2.5 2t1.5 2l-5 2q-2 0 -5 -0.5t-4 -0.5
q-11 4 -11 5q0 4 10 5t10 10q0 -1 -5 -3l-2 -4h-2q0 2 1.5 3t4.5 2.5t4 3.5l-1 -2v1q1 1 3 1l-3 -5v-2l1 2q1 0 3 -1.5t3 -1.5t1 6l3 -2q3 -2 5 -3l3 -2l-1 -2l-1 -2q0 1 5.5 -4t12 -11t7.5 -7q1 1 2 1h-1q0 -1 6 -4zM312 219q0 -1 1 -3q1 0 1 3h-2zM307 220q2 1 2 4l-5 -1
q-1 0 -2 1q-1 0 0 -3q1 -1 5 -1zM310 209h-1h1zM310 207l-1 -1h1v1zM314 212q0 1 0.5 2t0.5 2l-1 1l-4 -4l1 -2q1 0 3 1zM315 216h3h-3zM318 216q2 0 2 1zM325 206h-2h2zM289 250h-3q-4 -1 -7 -1q-9 0 -13 3q2 1 10 7t12 6q6 0 6 -5v-3l-1 -2q0 -6 4 -8q-2 0 -8 3zM284 260
q3 -3 4 -3t1 5q-4 0 -5 -2zM284 242h-5l-1 1v1q6 2 6 -2zM281 227q-5 0 -5 2q5 0 5 -1l-1 -1h1zM274 222h2h-2zM281 220q0 2 3 2zM295 269h2h-2zM297 267h2h-2zM304 240h3h-3zM304 240h-2h2zM256 234h-1h1zM353 195v1v-1zM353 196h-2h2z" />
    <glyph glyph-name="acute" unicode="&#xb4;" horiz-adv-x="196" 
d="M116 674q7 -4 7 -11q0 -4 -4.5 -10.5t-7.5 -6.5q-1 1 -1 2l1 4q-3 -2 -14 -15.5t-22 -24t-17 -10.5t-11.5 8t-5.5 15q0 10 7.5 19.5t15.5 13.5l8 5q22 27 25 27q10 0 19 -16z" />
    <glyph glyph-name="cedilla" unicode="&#xb8;" horiz-adv-x="293" 
d="M107 -81q-4 5 -4 12v8q0 17 20 21q14 -2 14 -14v-5q3 -3 23 -13q13 5 13 12t-5 17l-15 26q-2 4 -9 29q0 10 8 16t14 6q15 0 32.5 -26t17.5 -55q0 -27 -19 -31q-8 -27 -34 -27t-56 24z" />
    </font>
</defs>
</svg>
